%TF.GenerationSoftware,KiCad,Pcbnew,6.0.0*%
%TF.CreationDate,2022-01-08T16:14:39+01:00*%
%TF.ProjectId,line-tracking-sensor,6c696e65-2d74-4726-9163-6b696e672d73,0.1.0*%
%TF.SameCoordinates,Original*%
%TF.FileFunction,Copper,L1,Top*%
%TF.FilePolarity,Positive*%
%FSLAX46Y46*%
G04 Gerber Fmt 4.6, Leading zero omitted, Abs format (unit mm)*
G04 Created by KiCad (PCBNEW 6.0.0) date 2022-01-08 16:14:39*
%MOMM*%
%LPD*%
G01*
G04 APERTURE LIST*
G04 Aperture macros list*
%AMRoundRect*
0 Rectangle with rounded corners*
0 $1 Rounding radius*
0 $2 $3 $4 $5 $6 $7 $8 $9 X,Y pos of 4 corners*
0 Add a 4 corners polygon primitive as box body*
4,1,4,$2,$3,$4,$5,$6,$7,$8,$9,$2,$3,0*
0 Add four circle primitives for the rounded corners*
1,1,$1+$1,$2,$3*
1,1,$1+$1,$4,$5*
1,1,$1+$1,$6,$7*
1,1,$1+$1,$8,$9*
0 Add four rect primitives between the rounded corners*
20,1,$1+$1,$2,$3,$4,$5,0*
20,1,$1+$1,$4,$5,$6,$7,0*
20,1,$1+$1,$6,$7,$8,$9,0*
20,1,$1+$1,$8,$9,$2,$3,0*%
G04 Aperture macros list end*
%TA.AperFunction,Profile*%
%ADD10C,0.100000*%
%TD*%
%TA.AperFunction,ComponentPad*%
%ADD11C,1.600000*%
%TD*%
%TA.AperFunction,ComponentPad*%
%ADD12RoundRect,0.249600X0.550400X0.550400X-0.550400X0.550400X-0.550400X-0.550400X0.550400X-0.550400X0*%
%TD*%
%TA.AperFunction,ComponentPad*%
%ADD13C,1.500000*%
%TD*%
%TA.AperFunction,ComponentPad*%
%ADD14R,1.600000X1.600000*%
%TD*%
%TA.AperFunction,ComponentPad*%
%ADD15O,1.600000X1.600000*%
%TD*%
%TA.AperFunction,ComponentPad*%
%ADD16C,2.000000*%
%TD*%
%TA.AperFunction,ComponentPad*%
%ADD17RoundRect,0.250000X0.845000X-0.620000X0.845000X0.620000X-0.845000X0.620000X-0.845000X-0.620000X0*%
%TD*%
%TA.AperFunction,ComponentPad*%
%ADD18O,2.190000X1.740000*%
%TD*%
G04 APERTURE END LIST*
D10*
X48577500Y-69850000D02*
X100012500Y-69850000D01*
X100012500Y-69850000D02*
X100012500Y-113030000D01*
X100012500Y-113030000D02*
X48577500Y-113030000D01*
X48577500Y-113030000D02*
X48577500Y-69850000D01*
D11*
%TO.P,U2,4,E*%
%TO.N,Net-(U2-Pad4)*%
X89722500Y-106045000D03*
%TO.P,U2,3,C*%
%TO.N,+5V*%
X89722500Y-103505000D03*
%TO.P,U2,2,K*%
%TO.N,Net-(U2-Pad2)*%
X92522500Y-103505000D03*
D12*
%TO.P,U2,1,A*%
%TO.N,+5V*%
X92522500Y-106045000D03*
%TD*%
D13*
%TO.P,Y1,1,1*%
%TO.N,Net-(C4-Pad1)*%
X61912500Y-105955000D03*
%TO.P,Y1,2,2*%
%TO.N,Net-(C3-Pad1)*%
X61912500Y-101075000D03*
%TD*%
D12*
%TO.P,U4,1,A*%
%TO.N,+5V*%
X92522500Y-79375000D03*
D11*
%TO.P,U4,2,K*%
%TO.N,Net-(U4-Pad2)*%
X92522500Y-76835000D03*
%TO.P,U4,3,C*%
%TO.N,+5V*%
X89722500Y-76835000D03*
%TO.P,U4,4,E*%
%TO.N,Net-(U1-Pad25)*%
X89722500Y-79375000D03*
%TD*%
%TO.P,U3,4,E*%
%TO.N,Net-(U1-Pad24)*%
X89722500Y-92740000D03*
%TO.P,U3,3,C*%
%TO.N,+5V*%
X89722500Y-90200000D03*
%TO.P,U3,2,K*%
%TO.N,Net-(U3-Pad2)*%
X92522500Y-90200000D03*
D12*
%TO.P,U3,1,A*%
%TO.N,+5V*%
X92522500Y-92740000D03*
%TD*%
D14*
%TO.P,U1,1,PC6/~{RESET}*%
%TO.N,Net-(R1-Pad2)*%
X66587500Y-74915000D03*
D15*
%TO.P,U1,15,PB1*%
%TO.N,unconnected-(U1-Pad15)*%
X74207500Y-107935000D03*
%TO.P,U1,2,PD0*%
%TO.N,unconnected-(U1-Pad2)*%
X66587500Y-77455000D03*
%TO.P,U1,16,PB2*%
%TO.N,unconnected-(U1-Pad16)*%
X74207500Y-105395000D03*
%TO.P,U1,3,PD1*%
%TO.N,unconnected-(U1-Pad3)*%
X66587500Y-79995000D03*
%TO.P,U1,17,PB3*%
%TO.N,unconnected-(U1-Pad17)*%
X74207500Y-102855000D03*
%TO.P,U1,4,PD2*%
%TO.N,unconnected-(U1-Pad4)*%
X66587500Y-82535000D03*
%TO.P,U1,18,PB4*%
%TO.N,unconnected-(U1-Pad18)*%
X74207500Y-100315000D03*
%TO.P,U1,5,PD3*%
%TO.N,unconnected-(U1-Pad5)*%
X66587500Y-85075000D03*
%TO.P,U1,19,PB5*%
%TO.N,unconnected-(U1-Pad19)*%
X74207500Y-97775000D03*
%TO.P,U1,6,PD4*%
%TO.N,unconnected-(U1-Pad6)*%
X66587500Y-87615000D03*
%TO.P,U1,20,AVCC*%
%TO.N,+5V*%
X74207500Y-95235000D03*
%TO.P,U1,7,VCC*%
X66587500Y-90155000D03*
%TO.P,U1,21,AREF*%
X74207500Y-92695000D03*
%TO.P,U1,8,GND*%
%TO.N,GND*%
X66587500Y-92695000D03*
%TO.P,U1,22,AGND*%
X74207500Y-90155000D03*
%TO.P,U1,9,PB6/XTAL1*%
%TO.N,Net-(C3-Pad1)*%
X66587500Y-95235000D03*
%TO.P,U1,23,PC0*%
%TO.N,Net-(U2-Pad4)*%
X74207500Y-87615000D03*
%TO.P,U1,10,PB7/XTAL2*%
%TO.N,Net-(C4-Pad1)*%
X66587500Y-97775000D03*
%TO.P,U1,24,PC1*%
%TO.N,Net-(U1-Pad24)*%
X74207500Y-85075000D03*
%TO.P,U1,11,PD5*%
%TO.N,unconnected-(U1-Pad11)*%
X66587500Y-100315000D03*
%TO.P,U1,25,PC2*%
%TO.N,Net-(U1-Pad25)*%
X74207500Y-82535000D03*
%TO.P,U1,12,PD6*%
%TO.N,unconnected-(U1-Pad12)*%
X66587500Y-102855000D03*
%TO.P,U1,26,PC3*%
%TO.N,unconnected-(U1-Pad26)*%
X74207500Y-79995000D03*
%TO.P,U1,13,PD7*%
%TO.N,unconnected-(U1-Pad13)*%
X66587500Y-105395000D03*
%TO.P,U1,27,PC4*%
%TO.N,Net-(U1-Pad27)*%
X74207500Y-77455000D03*
%TO.P,U1,14,PB0*%
%TO.N,unconnected-(U1-Pad14)*%
X66587500Y-107935000D03*
%TO.P,U1,28,PC5*%
%TO.N,Net-(U1-Pad28)*%
X74207500Y-74915000D03*
%TD*%
D16*
%TO.P,SW1,2,2*%
%TO.N,Net-(R1-Pad2)*%
X62892500Y-81355000D03*
%TO.P,SW1,1,1*%
%TO.N,GND*%
X58392500Y-81355000D03*
%TO.P,SW1,2,2*%
%TO.N,Net-(R1-Pad2)*%
X62892500Y-74855000D03*
%TO.P,SW1,1,1*%
%TO.N,GND*%
X58392500Y-74855000D03*
%TD*%
D11*
%TO.P,R7,1*%
%TO.N,Net-(U4-Pad2)*%
X96837500Y-73025000D03*
D15*
%TO.P,R7,2*%
%TO.N,GND*%
X96837500Y-83185000D03*
%TD*%
D11*
%TO.P,R6,1*%
%TO.N,Net-(U1-Pad25)*%
X85407500Y-73025000D03*
D15*
%TO.P,R6,2*%
%TO.N,GND*%
X85407500Y-83185000D03*
%TD*%
D11*
%TO.P,R5,1*%
%TO.N,Net-(U3-Pad2)*%
X96837500Y-86360000D03*
D15*
%TO.P,R5,2*%
%TO.N,GND*%
X96837500Y-96520000D03*
%TD*%
D11*
%TO.P,R4,1*%
%TO.N,Net-(U1-Pad24)*%
X85407500Y-86360000D03*
D15*
%TO.P,R4,2*%
%TO.N,GND*%
X85407500Y-96520000D03*
%TD*%
D11*
%TO.P,R3,1*%
%TO.N,Net-(U2-Pad2)*%
X96837500Y-109855000D03*
D15*
%TO.P,R3,2*%
%TO.N,GND*%
X96837500Y-99695000D03*
%TD*%
D11*
%TO.P,R2,1*%
%TO.N,Net-(U2-Pad4)*%
X85407500Y-109855000D03*
D15*
%TO.P,R2,2*%
%TO.N,GND*%
X85407500Y-99695000D03*
%TD*%
D11*
%TO.P,R1,1*%
%TO.N,+5V*%
X58737500Y-95250000D03*
D15*
%TO.P,R1,2*%
%TO.N,Net-(R1-Pad2)*%
X58737500Y-85090000D03*
%TD*%
D17*
%TO.P,J1,1,Pin_1*%
%TO.N,+5V*%
X79712500Y-82550000D03*
D18*
%TO.P,J1,2,Pin_2*%
%TO.N,Net-(U1-Pad27)*%
X79712500Y-80010000D03*
%TO.P,J1,3,Pin_3*%
%TO.N,Net-(U1-Pad28)*%
X79712500Y-77470000D03*
%TO.P,J1,4,Pin_4*%
%TO.N,GND*%
X79712500Y-74930000D03*
%TD*%
D11*
%TO.P,C4,1*%
%TO.N,Net-(C4-Pad1)*%
X54292500Y-103465000D03*
%TO.P,C4,2*%
%TO.N,GND*%
X54292500Y-98465000D03*
%TD*%
%TO.P,C3,1*%
%TO.N,Net-(C3-Pad1)*%
X54292500Y-95210000D03*
%TO.P,C3,2*%
%TO.N,GND*%
X54292500Y-90210000D03*
%TD*%
%TO.P,C2,1*%
%TO.N,+5V*%
X63182500Y-90210000D03*
%TO.P,C2,2*%
%TO.N,GND*%
X63182500Y-95210000D03*
%TD*%
%TO.P,C1,1*%
%TO.N,+5V*%
X77152500Y-95210000D03*
%TO.P,C1,2*%
%TO.N,GND*%
X77152500Y-90210000D03*
%TD*%
M02*
