M48
; DRILL file {KiCad 6.0.0} date So 8. ledna 2022, 16:14:18
; FORMAT={-:-/ absolute / inch / decimal}
; #@! TF.CreationDate,2022-01-08T16:14:18+01:00
; #@! TF.GenerationSoftware,Kicad,Pcbnew,6.0.0
; #@! TF.FileFunction,Plated,1,2,PTH
FMAT,2
INCH
; #@! TA.AperFunction,Plated,PTH,ComponentDrill
T1C0.0315
; #@! TA.AperFunction,Plated,PTH,ComponentDrill
T2C0.0433
; #@! TA.AperFunction,Plated,PTH,ComponentDrill
T3C0.0469
%
G90
G05
T1
X2.1375Y-3.5516
X2.1375Y-3.7484
X2.1375Y-3.8766
X2.1375Y-4.0734
X2.3125Y-3.35
X2.3125Y-3.75
X2.4375Y-3.9793
X2.4375Y-4.1715
X2.4875Y-3.5516
X2.4875Y-3.7484
X2.6216Y-2.9494
X2.6216Y-3.0494
X2.6216Y-3.1494
X2.6216Y-3.2494
X2.6216Y-3.3494
X2.6216Y-3.4494
X2.6216Y-3.5494
X2.6216Y-3.6494
X2.6216Y-3.7494
X2.6216Y-3.8494
X2.6216Y-3.9494
X2.6216Y-4.0494
X2.6216Y-4.1494
X2.6216Y-4.2494
X2.9216Y-2.9494
X2.9216Y-3.0494
X2.9216Y-3.1494
X2.9216Y-3.2494
X2.9216Y-3.3494
X2.9216Y-3.4494
X2.9216Y-3.5494
X2.9216Y-3.6494
X2.9216Y-3.7494
X2.9216Y-3.8494
X2.9216Y-3.9494
X2.9216Y-4.0494
X2.9216Y-4.1494
X2.9216Y-4.2494
X3.0375Y-3.5516
X3.0375Y-3.7484
X3.3625Y-2.875
X3.3625Y-3.275
X3.3625Y-3.4
X3.3625Y-3.8
X3.3625Y-3.925
X3.3625Y-4.325
X3.5324Y-3.025
X3.5324Y-3.125
X3.5324Y-3.5512
X3.5324Y-3.6512
X3.5324Y-4.075
X3.5324Y-4.175
X3.6426Y-3.025
X3.6426Y-3.125
X3.6426Y-3.5512
X3.6426Y-3.6512
X3.6426Y-4.075
X3.6426Y-4.175
X3.8125Y-2.875
X3.8125Y-3.275
X3.8125Y-3.4
X3.8125Y-3.8
X3.8125Y-3.925
X3.8125Y-4.325
T2
X2.2989Y-2.947
X2.2989Y-3.203
X2.4761Y-2.947
X2.4761Y-3.203
T3
X3.1383Y-2.95
X3.1383Y-3.05
X3.1383Y-3.15
X3.1383Y-3.25
T0
M30
