%TF.GenerationSoftware,KiCad,Pcbnew,6.0.2-378541a8eb~116~ubuntu20.04.1*%
%TF.CreationDate,2022-03-07T20:24:28+01:00*%
%TF.ProjectId,contact-sensor,636f6e74-6163-4742-9d73-656e736f722e,0.1.0*%
%TF.SameCoordinates,Original*%
%TF.FileFunction,Copper,L2,Bot*%
%TF.FilePolarity,Positive*%
%FSLAX46Y46*%
G04 Gerber Fmt 4.6, Leading zero omitted, Abs format (unit mm)*
G04 Created by KiCad (PCBNEW 6.0.2-378541a8eb~116~ubuntu20.04.1) date 2022-03-07 20:24:28*
%MOMM*%
%LPD*%
G01*
G04 APERTURE LIST*
%TA.AperFunction,EtchedComponent*%
%ADD10C,0.010000*%
%TD*%
%TA.AperFunction,ComponentPad*%
%ADD11C,2.000000*%
%TD*%
%TA.AperFunction,ComponentPad*%
%ADD12O,1.700000X1.700000*%
%TD*%
%TA.AperFunction,ComponentPad*%
%ADD13R,1.700000X1.700000*%
%TD*%
%TA.AperFunction,Conductor*%
%ADD14C,0.250000*%
%TD*%
G04 APERTURE END LIST*
D10*
%TO.C,REF3*%
X100334186Y-97453931D02*
X100250365Y-97898555D01*
X100250365Y-97898555D02*
X99941080Y-98026053D01*
X99941080Y-98026053D02*
X99631794Y-98153551D01*
X99631794Y-98153551D02*
X99260754Y-97901246D01*
X99260754Y-97901246D02*
X99156843Y-97830996D01*
X99156843Y-97830996D02*
X99062913Y-97768272D01*
X99062913Y-97768272D02*
X98983348Y-97715938D01*
X98983348Y-97715938D02*
X98922530Y-97676857D01*
X98922530Y-97676857D02*
X98884843Y-97653893D01*
X98884843Y-97653893D02*
X98874579Y-97648942D01*
X98874579Y-97648942D02*
X98856090Y-97661676D01*
X98856090Y-97661676D02*
X98816580Y-97696882D01*
X98816580Y-97696882D02*
X98760478Y-97750062D01*
X98760478Y-97750062D02*
X98692213Y-97816718D01*
X98692213Y-97816718D02*
X98616214Y-97892354D01*
X98616214Y-97892354D02*
X98536908Y-97972472D01*
X98536908Y-97972472D02*
X98458725Y-98052574D01*
X98458725Y-98052574D02*
X98386093Y-98128164D01*
X98386093Y-98128164D02*
X98323441Y-98194745D01*
X98323441Y-98194745D02*
X98275197Y-98247818D01*
X98275197Y-98247818D02*
X98245790Y-98282887D01*
X98245790Y-98282887D02*
X98238759Y-98294623D01*
X98238759Y-98294623D02*
X98248877Y-98316260D01*
X98248877Y-98316260D02*
X98277241Y-98363662D01*
X98277241Y-98363662D02*
X98320871Y-98432193D01*
X98320871Y-98432193D02*
X98376782Y-98517215D01*
X98376782Y-98517215D02*
X98441994Y-98614093D01*
X98441994Y-98614093D02*
X98479781Y-98669350D01*
X98479781Y-98669350D02*
X98548657Y-98770248D01*
X98548657Y-98770248D02*
X98609860Y-98861299D01*
X98609860Y-98861299D02*
X98660422Y-98937970D01*
X98660422Y-98937970D02*
X98697372Y-98995728D01*
X98697372Y-98995728D02*
X98717742Y-99030043D01*
X98717742Y-99030043D02*
X98720803Y-99037254D01*
X98720803Y-99037254D02*
X98713864Y-99057748D01*
X98713864Y-99057748D02*
X98694949Y-99105513D01*
X98694949Y-99105513D02*
X98666913Y-99173832D01*
X98666913Y-99173832D02*
X98632609Y-99255989D01*
X98632609Y-99255989D02*
X98594891Y-99345270D01*
X98594891Y-99345270D02*
X98556613Y-99434958D01*
X98556613Y-99434958D02*
X98520630Y-99518338D01*
X98520630Y-99518338D02*
X98489794Y-99588694D01*
X98489794Y-99588694D02*
X98466961Y-99639310D01*
X98466961Y-99639310D02*
X98454983Y-99663471D01*
X98454983Y-99663471D02*
X98454276Y-99664422D01*
X98454276Y-99664422D02*
X98435469Y-99669036D01*
X98435469Y-99669036D02*
X98385382Y-99679328D01*
X98385382Y-99679328D02*
X98309207Y-99694287D01*
X98309207Y-99694287D02*
X98212135Y-99712901D01*
X98212135Y-99712901D02*
X98099357Y-99734159D01*
X98099357Y-99734159D02*
X98033558Y-99746418D01*
X98033558Y-99746418D02*
X97913050Y-99769362D01*
X97913050Y-99769362D02*
X97804203Y-99791195D01*
X97804203Y-99791195D02*
X97712524Y-99810722D01*
X97712524Y-99810722D02*
X97643519Y-99826748D01*
X97643519Y-99826748D02*
X97602696Y-99838079D01*
X97602696Y-99838079D02*
X97594489Y-99841674D01*
X97594489Y-99841674D02*
X97586452Y-99866006D01*
X97586452Y-99866006D02*
X97579967Y-99920959D01*
X97579967Y-99920959D02*
X97575030Y-100000108D01*
X97575030Y-100000108D02*
X97571636Y-100097026D01*
X97571636Y-100097026D02*
X97569782Y-100205287D01*
X97569782Y-100205287D02*
X97569462Y-100318465D01*
X97569462Y-100318465D02*
X97570673Y-100430135D01*
X97570673Y-100430135D02*
X97573410Y-100533868D01*
X97573410Y-100533868D02*
X97577669Y-100623241D01*
X97577669Y-100623241D02*
X97583445Y-100691826D01*
X97583445Y-100691826D02*
X97590733Y-100733197D01*
X97590733Y-100733197D02*
X97595105Y-100741810D01*
X97595105Y-100741810D02*
X97621236Y-100752133D01*
X97621236Y-100752133D02*
X97676607Y-100766892D01*
X97676607Y-100766892D02*
X97753893Y-100784352D01*
X97753893Y-100784352D02*
X97845770Y-100802780D01*
X97845770Y-100802780D02*
X97877842Y-100808741D01*
X97877842Y-100808741D02*
X98032476Y-100837066D01*
X98032476Y-100837066D02*
X98154625Y-100859876D01*
X98154625Y-100859876D02*
X98248327Y-100878080D01*
X98248327Y-100878080D02*
X98317616Y-100892583D01*
X98317616Y-100892583D02*
X98366529Y-100904292D01*
X98366529Y-100904292D02*
X98399103Y-100914115D01*
X98399103Y-100914115D02*
X98419372Y-100922956D01*
X98419372Y-100922956D02*
X98431374Y-100931724D01*
X98431374Y-100931724D02*
X98433053Y-100933457D01*
X98433053Y-100933457D02*
X98449816Y-100961371D01*
X98449816Y-100961371D02*
X98475386Y-101015695D01*
X98475386Y-101015695D02*
X98507212Y-101089777D01*
X98507212Y-101089777D02*
X98542740Y-101176965D01*
X98542740Y-101176965D02*
X98579417Y-101270608D01*
X98579417Y-101270608D02*
X98614689Y-101364052D01*
X98614689Y-101364052D02*
X98646004Y-101450647D01*
X98646004Y-101450647D02*
X98670807Y-101523740D01*
X98670807Y-101523740D02*
X98686546Y-101576678D01*
X98686546Y-101576678D02*
X98690668Y-101602811D01*
X98690668Y-101602811D02*
X98690324Y-101603726D01*
X98690324Y-101603726D02*
X98676359Y-101625086D01*
X98676359Y-101625086D02*
X98644678Y-101672084D01*
X98644678Y-101672084D02*
X98598609Y-101739827D01*
X98598609Y-101739827D02*
X98541482Y-101823423D01*
X98541482Y-101823423D02*
X98476627Y-101917982D01*
X98476627Y-101917982D02*
X98458157Y-101944854D01*
X98458157Y-101944854D02*
X98392301Y-102042275D01*
X98392301Y-102042275D02*
X98334350Y-102131163D01*
X98334350Y-102131163D02*
X98287462Y-102206412D01*
X98287462Y-102206412D02*
X98254793Y-102262920D01*
X98254793Y-102262920D02*
X98239500Y-102295581D01*
X98239500Y-102295581D02*
X98238759Y-102299593D01*
X98238759Y-102299593D02*
X98251608Y-102320684D01*
X98251608Y-102320684D02*
X98287112Y-102362464D01*
X98287112Y-102362464D02*
X98340707Y-102420445D01*
X98340707Y-102420445D02*
X98407829Y-102490135D01*
X98407829Y-102490135D02*
X98483913Y-102567045D01*
X98483913Y-102567045D02*
X98564396Y-102646683D01*
X98564396Y-102646683D02*
X98644713Y-102724561D01*
X98644713Y-102724561D02*
X98720301Y-102796186D01*
X98720301Y-102796186D02*
X98786595Y-102857070D01*
X98786595Y-102857070D02*
X98839031Y-102902721D01*
X98839031Y-102902721D02*
X98873045Y-102928650D01*
X98873045Y-102928650D02*
X98882455Y-102932883D01*
X98882455Y-102932883D02*
X98904357Y-102922912D01*
X98904357Y-102922912D02*
X98949200Y-102896020D01*
X98949200Y-102896020D02*
X99009679Y-102856736D01*
X99009679Y-102856736D02*
X99056211Y-102825117D01*
X99056211Y-102825117D02*
X99140525Y-102767098D01*
X99140525Y-102767098D02*
X99240374Y-102698784D01*
X99240374Y-102698784D02*
X99340527Y-102630579D01*
X99340527Y-102630579D02*
X99394373Y-102594075D01*
X99394373Y-102594075D02*
X99576629Y-102470800D01*
X99576629Y-102470800D02*
X99729619Y-102553520D01*
X99729619Y-102553520D02*
X99799318Y-102589759D01*
X99799318Y-102589759D02*
X99858586Y-102617926D01*
X99858586Y-102617926D02*
X99898689Y-102633991D01*
X99898689Y-102633991D02*
X99908897Y-102636226D01*
X99908897Y-102636226D02*
X99921171Y-102619722D01*
X99921171Y-102619722D02*
X99945387Y-102573082D01*
X99945387Y-102573082D02*
X99979737Y-102500609D01*
X99979737Y-102500609D02*
X100022412Y-102406606D01*
X100022412Y-102406606D02*
X100071606Y-102295374D01*
X100071606Y-102295374D02*
X100125510Y-102171215D01*
X100125510Y-102171215D02*
X100182316Y-102038432D01*
X100182316Y-102038432D02*
X100240218Y-101901327D01*
X100240218Y-101901327D02*
X100297407Y-101764202D01*
X100297407Y-101764202D02*
X100352076Y-101631358D01*
X100352076Y-101631358D02*
X100402416Y-101507098D01*
X100402416Y-101507098D02*
X100446620Y-101395725D01*
X100446620Y-101395725D02*
X100482881Y-101301539D01*
X100482881Y-101301539D02*
X100509391Y-101228844D01*
X100509391Y-101228844D02*
X100524342Y-101181941D01*
X100524342Y-101181941D02*
X100526746Y-101165833D01*
X100526746Y-101165833D02*
X100507689Y-101145286D01*
X100507689Y-101145286D02*
X100465964Y-101111933D01*
X100465964Y-101111933D02*
X100410294Y-101072702D01*
X100410294Y-101072702D02*
X100405622Y-101069599D01*
X100405622Y-101069599D02*
X100261736Y-100954423D01*
X100261736Y-100954423D02*
X100145717Y-100820053D01*
X100145717Y-100820053D02*
X100058570Y-100670784D01*
X100058570Y-100670784D02*
X100001301Y-100510913D01*
X100001301Y-100510913D02*
X99974914Y-100344737D01*
X99974914Y-100344737D02*
X99980415Y-100176552D01*
X99980415Y-100176552D02*
X100018810Y-100010655D01*
X100018810Y-100010655D02*
X100091105Y-99851342D01*
X100091105Y-99851342D02*
X100112374Y-99816487D01*
X100112374Y-99816487D02*
X100223004Y-99675737D01*
X100223004Y-99675737D02*
X100353698Y-99562714D01*
X100353698Y-99562714D02*
X100499936Y-99478003D01*
X100499936Y-99478003D02*
X100657192Y-99422194D01*
X100657192Y-99422194D02*
X100820943Y-99395874D01*
X100820943Y-99395874D02*
X100986667Y-99399630D01*
X100986667Y-99399630D02*
X101149838Y-99434050D01*
X101149838Y-99434050D02*
X101305935Y-99499723D01*
X101305935Y-99499723D02*
X101450433Y-99597235D01*
X101450433Y-99597235D02*
X101495131Y-99636813D01*
X101495131Y-99636813D02*
X101608888Y-99760703D01*
X101608888Y-99760703D02*
X101691782Y-99891124D01*
X101691782Y-99891124D02*
X101748644Y-100037315D01*
X101748644Y-100037315D02*
X101780313Y-100182088D01*
X101780313Y-100182088D02*
X101788131Y-100344860D01*
X101788131Y-100344860D02*
X101762062Y-100508440D01*
X101762062Y-100508440D02*
X101704755Y-100667298D01*
X101704755Y-100667298D02*
X101618856Y-100815906D01*
X101618856Y-100815906D02*
X101507014Y-100948735D01*
X101507014Y-100948735D02*
X101371877Y-101060256D01*
X101371877Y-101060256D02*
X101354117Y-101072011D01*
X101354117Y-101072011D02*
X101297850Y-101110508D01*
X101297850Y-101110508D02*
X101255077Y-101143863D01*
X101255077Y-101143863D02*
X101234628Y-101165160D01*
X101234628Y-101165160D02*
X101234331Y-101165833D01*
X101234331Y-101165833D02*
X101238721Y-101188871D01*
X101238721Y-101188871D02*
X101256124Y-101241157D01*
X101256124Y-101241157D02*
X101284732Y-101318390D01*
X101284732Y-101318390D02*
X101322735Y-101416268D01*
X101322735Y-101416268D02*
X101368326Y-101530491D01*
X101368326Y-101530491D02*
X101419697Y-101656758D01*
X101419697Y-101656758D02*
X101475038Y-101790767D01*
X101475038Y-101790767D02*
X101532542Y-101928218D01*
X101532542Y-101928218D02*
X101590399Y-102064808D01*
X101590399Y-102064808D02*
X101646802Y-102196237D01*
X101646802Y-102196237D02*
X101699942Y-102318205D01*
X101699942Y-102318205D02*
X101748010Y-102426409D01*
X101748010Y-102426409D02*
X101789199Y-102516549D01*
X101789199Y-102516549D02*
X101821699Y-102584323D01*
X101821699Y-102584323D02*
X101843703Y-102625430D01*
X101843703Y-102625430D02*
X101852564Y-102636226D01*
X101852564Y-102636226D02*
X101879640Y-102627819D01*
X101879640Y-102627819D02*
X101930303Y-102605272D01*
X101930303Y-102605272D02*
X101995817Y-102572613D01*
X101995817Y-102572613D02*
X102031841Y-102553520D01*
X102031841Y-102553520D02*
X102184832Y-102470800D01*
X102184832Y-102470800D02*
X102367088Y-102594075D01*
X102367088Y-102594075D02*
X102460125Y-102657228D01*
X102460125Y-102657228D02*
X102561985Y-102726727D01*
X102561985Y-102726727D02*
X102657438Y-102792165D01*
X102657438Y-102792165D02*
X102705250Y-102825117D01*
X102705250Y-102825117D02*
X102772495Y-102870273D01*
X102772495Y-102870273D02*
X102829436Y-102906057D01*
X102829436Y-102906057D02*
X102868646Y-102927938D01*
X102868646Y-102927938D02*
X102881381Y-102932563D01*
X102881381Y-102932563D02*
X102899917Y-102920085D01*
X102899917Y-102920085D02*
X102940941Y-102885252D01*
X102940941Y-102885252D02*
X103000475Y-102831678D01*
X103000475Y-102831678D02*
X103074542Y-102762983D01*
X103074542Y-102762983D02*
X103159165Y-102682781D01*
X103159165Y-102682781D02*
X103212685Y-102631286D01*
X103212685Y-102631286D02*
X103306319Y-102539286D01*
X103306319Y-102539286D02*
X103387241Y-102456999D01*
X103387241Y-102456999D02*
X103452177Y-102387945D01*
X103452177Y-102387945D02*
X103497858Y-102335644D01*
X103497858Y-102335644D02*
X103521011Y-102303616D01*
X103521011Y-102303616D02*
X103523232Y-102297116D01*
X103523232Y-102297116D02*
X103512924Y-102272394D01*
X103512924Y-102272394D02*
X103484439Y-102222405D01*
X103484439Y-102222405D02*
X103440937Y-102152212D01*
X103440937Y-102152212D02*
X103385577Y-102066875D01*
X103385577Y-102066875D02*
X103321520Y-101971456D01*
X103321520Y-101971456D02*
X103303303Y-101944854D01*
X103303303Y-101944854D02*
X103236927Y-101848167D01*
X103236927Y-101848167D02*
X103177378Y-101761117D01*
X103177378Y-101761117D02*
X103127984Y-101688595D01*
X103127984Y-101688595D02*
X103092075Y-101635493D01*
X103092075Y-101635493D02*
X103072981Y-101606703D01*
X103072981Y-101606703D02*
X103071136Y-101603726D01*
X103071136Y-101603726D02*
X103073895Y-101580782D01*
X103073895Y-101580782D02*
X103088538Y-101530336D01*
X103088538Y-101530336D02*
X103112513Y-101459041D01*
X103112513Y-101459041D02*
X103143266Y-101373547D01*
X103143266Y-101373547D02*
X103178244Y-101280507D01*
X103178244Y-101280507D02*
X103214893Y-101186574D01*
X103214893Y-101186574D02*
X103250661Y-101098399D01*
X103250661Y-101098399D02*
X103282994Y-101022634D01*
X103282994Y-101022634D02*
X103309338Y-100965931D01*
X103309338Y-100965931D02*
X103327142Y-100934943D01*
X103327142Y-100934943D02*
X103328407Y-100933457D01*
X103328407Y-100933457D02*
X103339294Y-100924601D01*
X103339294Y-100924601D02*
X103357682Y-100915843D01*
X103357682Y-100915843D02*
X103387606Y-100906277D01*
X103387606Y-100906277D02*
X103433103Y-100894996D01*
X103433103Y-100894996D02*
X103498209Y-100881093D01*
X103498209Y-100881093D02*
X103586961Y-100863663D01*
X103586961Y-100863663D02*
X103703393Y-100841798D01*
X103703393Y-100841798D02*
X103851542Y-100814591D01*
X103851542Y-100814591D02*
X103883618Y-100808741D01*
X103883618Y-100808741D02*
X103978686Y-100790374D01*
X103978686Y-100790374D02*
X104061565Y-100772405D01*
X104061565Y-100772405D02*
X104124930Y-100756569D01*
X104124930Y-100756569D02*
X104161458Y-100744600D01*
X104161458Y-100744600D02*
X104166356Y-100741810D01*
X104166356Y-100741810D02*
X104174427Y-100717072D01*
X104174427Y-100717072D02*
X104180987Y-100661790D01*
X104180987Y-100661790D02*
X104186033Y-100582389D01*
X104186033Y-100582389D02*
X104189559Y-100485296D01*
X104189559Y-100485296D02*
X104191561Y-100376938D01*
X104191561Y-100376938D02*
X104192036Y-100263740D01*
X104192036Y-100263740D02*
X104190977Y-100152128D01*
X104190977Y-100152128D02*
X104188382Y-100048529D01*
X104188382Y-100048529D02*
X104184246Y-99959368D01*
X104184246Y-99959368D02*
X104178563Y-99891072D01*
X104178563Y-99891072D02*
X104171331Y-99850066D01*
X104171331Y-99850066D02*
X104166971Y-99841674D01*
X104166971Y-99841674D02*
X104142698Y-99833208D01*
X104142698Y-99833208D02*
X104087426Y-99819435D01*
X104087426Y-99819435D02*
X104006662Y-99801550D01*
X104006662Y-99801550D02*
X103905912Y-99780748D01*
X103905912Y-99780748D02*
X103790683Y-99758223D01*
X103790683Y-99758223D02*
X103727902Y-99746418D01*
X103727902Y-99746418D02*
X103608787Y-99724151D01*
X103608787Y-99724151D02*
X103502565Y-99703979D01*
X103502565Y-99703979D02*
X103414427Y-99686915D01*
X103414427Y-99686915D02*
X103349566Y-99673969D01*
X103349566Y-99673969D02*
X103313174Y-99666155D01*
X103313174Y-99666155D02*
X103307184Y-99664422D01*
X103307184Y-99664422D02*
X103297061Y-99644890D01*
X103297061Y-99644890D02*
X103275662Y-99597843D01*
X103275662Y-99597843D02*
X103245839Y-99530003D01*
X103245839Y-99530003D02*
X103210445Y-99448091D01*
X103210445Y-99448091D02*
X103172332Y-99358828D01*
X103172332Y-99358828D02*
X103134353Y-99268935D01*
X103134353Y-99268935D02*
X103099360Y-99185135D01*
X103099360Y-99185135D02*
X103070206Y-99114147D01*
X103070206Y-99114147D02*
X103049743Y-99062694D01*
X103049743Y-99062694D02*
X103040823Y-99037497D01*
X103040823Y-99037497D02*
X103040657Y-99036396D01*
X103040657Y-99036396D02*
X103050769Y-99016519D01*
X103050769Y-99016519D02*
X103079117Y-98970777D01*
X103079117Y-98970777D02*
X103122723Y-98903717D01*
X103122723Y-98903717D02*
X103178606Y-98819884D01*
X103178606Y-98819884D02*
X103243787Y-98723826D01*
X103243787Y-98723826D02*
X103281679Y-98668650D01*
X103281679Y-98668650D02*
X103350725Y-98567481D01*
X103350725Y-98567481D02*
X103412050Y-98475630D01*
X103412050Y-98475630D02*
X103462663Y-98397744D01*
X103462663Y-98397744D02*
X103499571Y-98338469D01*
X103499571Y-98338469D02*
X103519782Y-98302451D01*
X103519782Y-98302451D02*
X103522701Y-98294377D01*
X103522701Y-98294377D02*
X103510153Y-98275584D01*
X103510153Y-98275584D02*
X103475463Y-98235457D01*
X103475463Y-98235457D02*
X103423063Y-98178493D01*
X103423063Y-98178493D02*
X103357384Y-98109185D01*
X103357384Y-98109185D02*
X103282856Y-98032031D01*
X103282856Y-98032031D02*
X103203913Y-97951525D01*
X103203913Y-97951525D02*
X103124983Y-97872163D01*
X103124983Y-97872163D02*
X103050500Y-97798440D01*
X103050500Y-97798440D02*
X102984894Y-97734852D01*
X102984894Y-97734852D02*
X102932596Y-97685894D01*
X102932596Y-97685894D02*
X102898039Y-97656061D01*
X102898039Y-97656061D02*
X102886478Y-97648942D01*
X102886478Y-97648942D02*
X102867654Y-97658953D01*
X102867654Y-97658953D02*
X102822631Y-97687078D01*
X102822631Y-97687078D02*
X102755787Y-97730454D01*
X102755787Y-97730454D02*
X102671499Y-97786218D01*
X102671499Y-97786218D02*
X102574144Y-97851506D01*
X102574144Y-97851506D02*
X102500707Y-97901246D01*
X102500707Y-97901246D02*
X102129667Y-98153551D01*
X102129667Y-98153551D02*
X101511095Y-97898555D01*
X101511095Y-97898555D02*
X101427275Y-97453931D01*
X101427275Y-97453931D02*
X101343454Y-97009307D01*
X101343454Y-97009307D02*
X100418006Y-97009307D01*
X100418006Y-97009307D02*
X100334186Y-97453931D01*
X100334186Y-97453931D02*
X100334186Y-97453931D01*
G36*
X101427275Y-97453931D02*
G01*
X101511095Y-97898555D01*
X102129667Y-98153551D01*
X102500707Y-97901246D01*
X102574144Y-97851506D01*
X102671499Y-97786218D01*
X102755787Y-97730454D01*
X102822631Y-97687078D01*
X102867654Y-97658953D01*
X102886478Y-97648942D01*
X102898039Y-97656061D01*
X102932596Y-97685894D01*
X102984894Y-97734852D01*
X103050500Y-97798440D01*
X103124983Y-97872163D01*
X103203913Y-97951525D01*
X103282856Y-98032031D01*
X103357384Y-98109185D01*
X103423063Y-98178493D01*
X103475463Y-98235457D01*
X103510153Y-98275584D01*
X103522701Y-98294377D01*
X103519782Y-98302451D01*
X103499571Y-98338469D01*
X103462663Y-98397744D01*
X103412050Y-98475630D01*
X103350725Y-98567481D01*
X103281679Y-98668650D01*
X103243787Y-98723826D01*
X103178606Y-98819884D01*
X103122723Y-98903717D01*
X103079117Y-98970777D01*
X103050769Y-99016519D01*
X103040657Y-99036396D01*
X103040823Y-99037497D01*
X103049743Y-99062694D01*
X103070206Y-99114147D01*
X103099360Y-99185135D01*
X103134353Y-99268935D01*
X103172332Y-99358828D01*
X103210445Y-99448091D01*
X103245839Y-99530003D01*
X103275662Y-99597843D01*
X103297061Y-99644890D01*
X103307184Y-99664422D01*
X103313174Y-99666155D01*
X103349566Y-99673969D01*
X103414427Y-99686915D01*
X103502565Y-99703979D01*
X103608787Y-99724151D01*
X103727902Y-99746418D01*
X103790683Y-99758223D01*
X103905912Y-99780748D01*
X104006662Y-99801550D01*
X104087426Y-99819435D01*
X104142698Y-99833208D01*
X104166971Y-99841674D01*
X104171331Y-99850066D01*
X104178563Y-99891072D01*
X104184246Y-99959368D01*
X104188382Y-100048529D01*
X104190977Y-100152128D01*
X104192036Y-100263740D01*
X104191561Y-100376938D01*
X104189559Y-100485296D01*
X104186033Y-100582389D01*
X104180987Y-100661790D01*
X104174427Y-100717072D01*
X104166356Y-100741810D01*
X104161458Y-100744600D01*
X104124930Y-100756569D01*
X104061565Y-100772405D01*
X103978686Y-100790374D01*
X103883618Y-100808741D01*
X103851542Y-100814591D01*
X103703393Y-100841798D01*
X103586961Y-100863663D01*
X103498209Y-100881093D01*
X103433103Y-100894996D01*
X103387606Y-100906277D01*
X103357682Y-100915843D01*
X103339294Y-100924601D01*
X103328407Y-100933457D01*
X103327142Y-100934943D01*
X103309338Y-100965931D01*
X103282994Y-101022634D01*
X103250661Y-101098399D01*
X103214893Y-101186574D01*
X103178244Y-101280507D01*
X103143266Y-101373547D01*
X103112513Y-101459041D01*
X103088538Y-101530336D01*
X103073895Y-101580782D01*
X103071136Y-101603726D01*
X103072981Y-101606703D01*
X103092075Y-101635493D01*
X103127984Y-101688595D01*
X103177378Y-101761117D01*
X103236927Y-101848167D01*
X103303303Y-101944854D01*
X103321520Y-101971456D01*
X103385577Y-102066875D01*
X103440937Y-102152212D01*
X103484439Y-102222405D01*
X103512924Y-102272394D01*
X103523232Y-102297116D01*
X103521011Y-102303616D01*
X103497858Y-102335644D01*
X103452177Y-102387945D01*
X103387241Y-102456999D01*
X103306319Y-102539286D01*
X103212685Y-102631286D01*
X103159165Y-102682781D01*
X103074542Y-102762983D01*
X103000475Y-102831678D01*
X102940941Y-102885252D01*
X102899917Y-102920085D01*
X102881381Y-102932563D01*
X102868646Y-102927938D01*
X102829436Y-102906057D01*
X102772495Y-102870273D01*
X102705250Y-102825117D01*
X102657438Y-102792165D01*
X102561985Y-102726727D01*
X102460125Y-102657228D01*
X102367088Y-102594075D01*
X102184832Y-102470800D01*
X102031841Y-102553520D01*
X101995817Y-102572613D01*
X101930303Y-102605272D01*
X101879640Y-102627819D01*
X101852564Y-102636226D01*
X101843703Y-102625430D01*
X101821699Y-102584323D01*
X101789199Y-102516549D01*
X101748010Y-102426409D01*
X101699942Y-102318205D01*
X101646802Y-102196237D01*
X101590399Y-102064808D01*
X101532542Y-101928218D01*
X101475038Y-101790767D01*
X101419697Y-101656758D01*
X101368326Y-101530491D01*
X101322735Y-101416268D01*
X101284732Y-101318390D01*
X101256124Y-101241157D01*
X101238721Y-101188871D01*
X101234331Y-101165833D01*
X101234628Y-101165160D01*
X101255077Y-101143863D01*
X101297850Y-101110508D01*
X101354117Y-101072011D01*
X101371877Y-101060256D01*
X101507014Y-100948735D01*
X101618856Y-100815906D01*
X101704755Y-100667298D01*
X101762062Y-100508440D01*
X101788131Y-100344860D01*
X101780313Y-100182088D01*
X101748644Y-100037315D01*
X101691782Y-99891124D01*
X101608888Y-99760703D01*
X101495131Y-99636813D01*
X101450433Y-99597235D01*
X101305935Y-99499723D01*
X101149838Y-99434050D01*
X100986667Y-99399630D01*
X100820943Y-99395874D01*
X100657192Y-99422194D01*
X100499936Y-99478003D01*
X100353698Y-99562714D01*
X100223004Y-99675737D01*
X100112374Y-99816487D01*
X100091105Y-99851342D01*
X100018810Y-100010655D01*
X99980415Y-100176552D01*
X99974914Y-100344737D01*
X100001301Y-100510913D01*
X100058570Y-100670784D01*
X100145717Y-100820053D01*
X100261736Y-100954423D01*
X100405622Y-101069599D01*
X100410294Y-101072702D01*
X100465964Y-101111933D01*
X100507689Y-101145286D01*
X100526746Y-101165833D01*
X100524342Y-101181941D01*
X100509391Y-101228844D01*
X100482881Y-101301539D01*
X100446620Y-101395725D01*
X100402416Y-101507098D01*
X100352076Y-101631358D01*
X100297407Y-101764202D01*
X100240218Y-101901327D01*
X100182316Y-102038432D01*
X100125510Y-102171215D01*
X100071606Y-102295374D01*
X100022412Y-102406606D01*
X99979737Y-102500609D01*
X99945387Y-102573082D01*
X99921171Y-102619722D01*
X99908897Y-102636226D01*
X99898689Y-102633991D01*
X99858586Y-102617926D01*
X99799318Y-102589759D01*
X99729619Y-102553520D01*
X99576629Y-102470800D01*
X99394373Y-102594075D01*
X99340527Y-102630579D01*
X99240374Y-102698784D01*
X99140525Y-102767098D01*
X99056211Y-102825117D01*
X99009679Y-102856736D01*
X98949200Y-102896020D01*
X98904357Y-102922912D01*
X98882455Y-102932883D01*
X98873045Y-102928650D01*
X98839031Y-102902721D01*
X98786595Y-102857070D01*
X98720301Y-102796186D01*
X98644713Y-102724561D01*
X98564396Y-102646683D01*
X98483913Y-102567045D01*
X98407829Y-102490135D01*
X98340707Y-102420445D01*
X98287112Y-102362464D01*
X98251608Y-102320684D01*
X98238759Y-102299593D01*
X98239500Y-102295581D01*
X98254793Y-102262920D01*
X98287462Y-102206412D01*
X98334350Y-102131163D01*
X98392301Y-102042275D01*
X98458157Y-101944854D01*
X98476627Y-101917982D01*
X98541482Y-101823423D01*
X98598609Y-101739827D01*
X98644678Y-101672084D01*
X98676359Y-101625086D01*
X98690324Y-101603726D01*
X98690668Y-101602811D01*
X98686546Y-101576678D01*
X98670807Y-101523740D01*
X98646004Y-101450647D01*
X98614689Y-101364052D01*
X98579417Y-101270608D01*
X98542740Y-101176965D01*
X98507212Y-101089777D01*
X98475386Y-101015695D01*
X98449816Y-100961371D01*
X98433053Y-100933457D01*
X98431374Y-100931724D01*
X98419372Y-100922956D01*
X98399103Y-100914115D01*
X98366529Y-100904292D01*
X98317616Y-100892583D01*
X98248327Y-100878080D01*
X98154625Y-100859876D01*
X98032476Y-100837066D01*
X97877842Y-100808741D01*
X97845770Y-100802780D01*
X97753893Y-100784352D01*
X97676607Y-100766892D01*
X97621236Y-100752133D01*
X97595105Y-100741810D01*
X97590733Y-100733197D01*
X97583445Y-100691826D01*
X97577669Y-100623241D01*
X97573410Y-100533868D01*
X97570673Y-100430135D01*
X97569462Y-100318465D01*
X97569782Y-100205287D01*
X97571636Y-100097026D01*
X97575030Y-100000108D01*
X97579967Y-99920959D01*
X97586452Y-99866006D01*
X97594489Y-99841674D01*
X97602696Y-99838079D01*
X97643519Y-99826748D01*
X97712524Y-99810722D01*
X97804203Y-99791195D01*
X97913050Y-99769362D01*
X98033558Y-99746418D01*
X98099357Y-99734159D01*
X98212135Y-99712901D01*
X98309207Y-99694287D01*
X98385382Y-99679328D01*
X98435469Y-99669036D01*
X98454276Y-99664422D01*
X98454983Y-99663471D01*
X98466961Y-99639310D01*
X98489794Y-99588694D01*
X98520630Y-99518338D01*
X98556613Y-99434958D01*
X98594891Y-99345270D01*
X98632609Y-99255989D01*
X98666913Y-99173832D01*
X98694949Y-99105513D01*
X98713864Y-99057748D01*
X98720803Y-99037254D01*
X98717742Y-99030043D01*
X98697372Y-98995728D01*
X98660422Y-98937970D01*
X98609860Y-98861299D01*
X98548657Y-98770248D01*
X98479781Y-98669350D01*
X98441994Y-98614093D01*
X98376782Y-98517215D01*
X98320871Y-98432193D01*
X98277241Y-98363662D01*
X98248877Y-98316260D01*
X98238759Y-98294623D01*
X98245790Y-98282887D01*
X98275197Y-98247818D01*
X98323441Y-98194745D01*
X98386093Y-98128164D01*
X98458725Y-98052574D01*
X98536908Y-97972472D01*
X98616214Y-97892354D01*
X98692213Y-97816718D01*
X98760478Y-97750062D01*
X98816580Y-97696882D01*
X98856090Y-97661676D01*
X98874579Y-97648942D01*
X98884843Y-97653893D01*
X98922530Y-97676857D01*
X98983348Y-97715938D01*
X99062913Y-97768272D01*
X99156843Y-97830996D01*
X99260754Y-97901246D01*
X99631794Y-98153551D01*
X99941080Y-98026053D01*
X100250365Y-97898555D01*
X100334186Y-97453931D01*
X100418006Y-97009307D01*
X101343454Y-97009307D01*
X101427275Y-97453931D01*
G37*
X101427275Y-97453931D02*
X101511095Y-97898555D01*
X102129667Y-98153551D01*
X102500707Y-97901246D01*
X102574144Y-97851506D01*
X102671499Y-97786218D01*
X102755787Y-97730454D01*
X102822631Y-97687078D01*
X102867654Y-97658953D01*
X102886478Y-97648942D01*
X102898039Y-97656061D01*
X102932596Y-97685894D01*
X102984894Y-97734852D01*
X103050500Y-97798440D01*
X103124983Y-97872163D01*
X103203913Y-97951525D01*
X103282856Y-98032031D01*
X103357384Y-98109185D01*
X103423063Y-98178493D01*
X103475463Y-98235457D01*
X103510153Y-98275584D01*
X103522701Y-98294377D01*
X103519782Y-98302451D01*
X103499571Y-98338469D01*
X103462663Y-98397744D01*
X103412050Y-98475630D01*
X103350725Y-98567481D01*
X103281679Y-98668650D01*
X103243787Y-98723826D01*
X103178606Y-98819884D01*
X103122723Y-98903717D01*
X103079117Y-98970777D01*
X103050769Y-99016519D01*
X103040657Y-99036396D01*
X103040823Y-99037497D01*
X103049743Y-99062694D01*
X103070206Y-99114147D01*
X103099360Y-99185135D01*
X103134353Y-99268935D01*
X103172332Y-99358828D01*
X103210445Y-99448091D01*
X103245839Y-99530003D01*
X103275662Y-99597843D01*
X103297061Y-99644890D01*
X103307184Y-99664422D01*
X103313174Y-99666155D01*
X103349566Y-99673969D01*
X103414427Y-99686915D01*
X103502565Y-99703979D01*
X103608787Y-99724151D01*
X103727902Y-99746418D01*
X103790683Y-99758223D01*
X103905912Y-99780748D01*
X104006662Y-99801550D01*
X104087426Y-99819435D01*
X104142698Y-99833208D01*
X104166971Y-99841674D01*
X104171331Y-99850066D01*
X104178563Y-99891072D01*
X104184246Y-99959368D01*
X104188382Y-100048529D01*
X104190977Y-100152128D01*
X104192036Y-100263740D01*
X104191561Y-100376938D01*
X104189559Y-100485296D01*
X104186033Y-100582389D01*
X104180987Y-100661790D01*
X104174427Y-100717072D01*
X104166356Y-100741810D01*
X104161458Y-100744600D01*
X104124930Y-100756569D01*
X104061565Y-100772405D01*
X103978686Y-100790374D01*
X103883618Y-100808741D01*
X103851542Y-100814591D01*
X103703393Y-100841798D01*
X103586961Y-100863663D01*
X103498209Y-100881093D01*
X103433103Y-100894996D01*
X103387606Y-100906277D01*
X103357682Y-100915843D01*
X103339294Y-100924601D01*
X103328407Y-100933457D01*
X103327142Y-100934943D01*
X103309338Y-100965931D01*
X103282994Y-101022634D01*
X103250661Y-101098399D01*
X103214893Y-101186574D01*
X103178244Y-101280507D01*
X103143266Y-101373547D01*
X103112513Y-101459041D01*
X103088538Y-101530336D01*
X103073895Y-101580782D01*
X103071136Y-101603726D01*
X103072981Y-101606703D01*
X103092075Y-101635493D01*
X103127984Y-101688595D01*
X103177378Y-101761117D01*
X103236927Y-101848167D01*
X103303303Y-101944854D01*
X103321520Y-101971456D01*
X103385577Y-102066875D01*
X103440937Y-102152212D01*
X103484439Y-102222405D01*
X103512924Y-102272394D01*
X103523232Y-102297116D01*
X103521011Y-102303616D01*
X103497858Y-102335644D01*
X103452177Y-102387945D01*
X103387241Y-102456999D01*
X103306319Y-102539286D01*
X103212685Y-102631286D01*
X103159165Y-102682781D01*
X103074542Y-102762983D01*
X103000475Y-102831678D01*
X102940941Y-102885252D01*
X102899917Y-102920085D01*
X102881381Y-102932563D01*
X102868646Y-102927938D01*
X102829436Y-102906057D01*
X102772495Y-102870273D01*
X102705250Y-102825117D01*
X102657438Y-102792165D01*
X102561985Y-102726727D01*
X102460125Y-102657228D01*
X102367088Y-102594075D01*
X102184832Y-102470800D01*
X102031841Y-102553520D01*
X101995817Y-102572613D01*
X101930303Y-102605272D01*
X101879640Y-102627819D01*
X101852564Y-102636226D01*
X101843703Y-102625430D01*
X101821699Y-102584323D01*
X101789199Y-102516549D01*
X101748010Y-102426409D01*
X101699942Y-102318205D01*
X101646802Y-102196237D01*
X101590399Y-102064808D01*
X101532542Y-101928218D01*
X101475038Y-101790767D01*
X101419697Y-101656758D01*
X101368326Y-101530491D01*
X101322735Y-101416268D01*
X101284732Y-101318390D01*
X101256124Y-101241157D01*
X101238721Y-101188871D01*
X101234331Y-101165833D01*
X101234628Y-101165160D01*
X101255077Y-101143863D01*
X101297850Y-101110508D01*
X101354117Y-101072011D01*
X101371877Y-101060256D01*
X101507014Y-100948735D01*
X101618856Y-100815906D01*
X101704755Y-100667298D01*
X101762062Y-100508440D01*
X101788131Y-100344860D01*
X101780313Y-100182088D01*
X101748644Y-100037315D01*
X101691782Y-99891124D01*
X101608888Y-99760703D01*
X101495131Y-99636813D01*
X101450433Y-99597235D01*
X101305935Y-99499723D01*
X101149838Y-99434050D01*
X100986667Y-99399630D01*
X100820943Y-99395874D01*
X100657192Y-99422194D01*
X100499936Y-99478003D01*
X100353698Y-99562714D01*
X100223004Y-99675737D01*
X100112374Y-99816487D01*
X100091105Y-99851342D01*
X100018810Y-100010655D01*
X99980415Y-100176552D01*
X99974914Y-100344737D01*
X100001301Y-100510913D01*
X100058570Y-100670784D01*
X100145717Y-100820053D01*
X100261736Y-100954423D01*
X100405622Y-101069599D01*
X100410294Y-101072702D01*
X100465964Y-101111933D01*
X100507689Y-101145286D01*
X100526746Y-101165833D01*
X100524342Y-101181941D01*
X100509391Y-101228844D01*
X100482881Y-101301539D01*
X100446620Y-101395725D01*
X100402416Y-101507098D01*
X100352076Y-101631358D01*
X100297407Y-101764202D01*
X100240218Y-101901327D01*
X100182316Y-102038432D01*
X100125510Y-102171215D01*
X100071606Y-102295374D01*
X100022412Y-102406606D01*
X99979737Y-102500609D01*
X99945387Y-102573082D01*
X99921171Y-102619722D01*
X99908897Y-102636226D01*
X99898689Y-102633991D01*
X99858586Y-102617926D01*
X99799318Y-102589759D01*
X99729619Y-102553520D01*
X99576629Y-102470800D01*
X99394373Y-102594075D01*
X99340527Y-102630579D01*
X99240374Y-102698784D01*
X99140525Y-102767098D01*
X99056211Y-102825117D01*
X99009679Y-102856736D01*
X98949200Y-102896020D01*
X98904357Y-102922912D01*
X98882455Y-102932883D01*
X98873045Y-102928650D01*
X98839031Y-102902721D01*
X98786595Y-102857070D01*
X98720301Y-102796186D01*
X98644713Y-102724561D01*
X98564396Y-102646683D01*
X98483913Y-102567045D01*
X98407829Y-102490135D01*
X98340707Y-102420445D01*
X98287112Y-102362464D01*
X98251608Y-102320684D01*
X98238759Y-102299593D01*
X98239500Y-102295581D01*
X98254793Y-102262920D01*
X98287462Y-102206412D01*
X98334350Y-102131163D01*
X98392301Y-102042275D01*
X98458157Y-101944854D01*
X98476627Y-101917982D01*
X98541482Y-101823423D01*
X98598609Y-101739827D01*
X98644678Y-101672084D01*
X98676359Y-101625086D01*
X98690324Y-101603726D01*
X98690668Y-101602811D01*
X98686546Y-101576678D01*
X98670807Y-101523740D01*
X98646004Y-101450647D01*
X98614689Y-101364052D01*
X98579417Y-101270608D01*
X98542740Y-101176965D01*
X98507212Y-101089777D01*
X98475386Y-101015695D01*
X98449816Y-100961371D01*
X98433053Y-100933457D01*
X98431374Y-100931724D01*
X98419372Y-100922956D01*
X98399103Y-100914115D01*
X98366529Y-100904292D01*
X98317616Y-100892583D01*
X98248327Y-100878080D01*
X98154625Y-100859876D01*
X98032476Y-100837066D01*
X97877842Y-100808741D01*
X97845770Y-100802780D01*
X97753893Y-100784352D01*
X97676607Y-100766892D01*
X97621236Y-100752133D01*
X97595105Y-100741810D01*
X97590733Y-100733197D01*
X97583445Y-100691826D01*
X97577669Y-100623241D01*
X97573410Y-100533868D01*
X97570673Y-100430135D01*
X97569462Y-100318465D01*
X97569782Y-100205287D01*
X97571636Y-100097026D01*
X97575030Y-100000108D01*
X97579967Y-99920959D01*
X97586452Y-99866006D01*
X97594489Y-99841674D01*
X97602696Y-99838079D01*
X97643519Y-99826748D01*
X97712524Y-99810722D01*
X97804203Y-99791195D01*
X97913050Y-99769362D01*
X98033558Y-99746418D01*
X98099357Y-99734159D01*
X98212135Y-99712901D01*
X98309207Y-99694287D01*
X98385382Y-99679328D01*
X98435469Y-99669036D01*
X98454276Y-99664422D01*
X98454983Y-99663471D01*
X98466961Y-99639310D01*
X98489794Y-99588694D01*
X98520630Y-99518338D01*
X98556613Y-99434958D01*
X98594891Y-99345270D01*
X98632609Y-99255989D01*
X98666913Y-99173832D01*
X98694949Y-99105513D01*
X98713864Y-99057748D01*
X98720803Y-99037254D01*
X98717742Y-99030043D01*
X98697372Y-98995728D01*
X98660422Y-98937970D01*
X98609860Y-98861299D01*
X98548657Y-98770248D01*
X98479781Y-98669350D01*
X98441994Y-98614093D01*
X98376782Y-98517215D01*
X98320871Y-98432193D01*
X98277241Y-98363662D01*
X98248877Y-98316260D01*
X98238759Y-98294623D01*
X98245790Y-98282887D01*
X98275197Y-98247818D01*
X98323441Y-98194745D01*
X98386093Y-98128164D01*
X98458725Y-98052574D01*
X98536908Y-97972472D01*
X98616214Y-97892354D01*
X98692213Y-97816718D01*
X98760478Y-97750062D01*
X98816580Y-97696882D01*
X98856090Y-97661676D01*
X98874579Y-97648942D01*
X98884843Y-97653893D01*
X98922530Y-97676857D01*
X98983348Y-97715938D01*
X99062913Y-97768272D01*
X99156843Y-97830996D01*
X99260754Y-97901246D01*
X99631794Y-98153551D01*
X99941080Y-98026053D01*
X100250365Y-97898555D01*
X100334186Y-97453931D01*
X100418006Y-97009307D01*
X101343454Y-97009307D01*
X101427275Y-97453931D01*
%TD*%
D11*
%TO.P,SW3,1,1*%
%TO.N,+5V*%
X88802000Y-96556000D03*
X95302000Y-96556000D03*
%TO.P,SW3,2,2*%
%TO.N,GND*%
X95302000Y-92056000D03*
X88802000Y-92056000D03*
%TD*%
%TO.P,SW2,1,1*%
%TO.N,+5V*%
X69700000Y-96520000D03*
X76200000Y-96520000D03*
%TO.P,SW2,2,2*%
%TO.N,GND*%
X76200000Y-92020000D03*
X69700000Y-92020000D03*
%TD*%
%TO.P,SW1,1,1*%
%TO.N,+5V*%
X50575000Y-96520000D03*
X57075000Y-96520000D03*
%TO.P,SW1,2,2*%
%TO.N,GND*%
X57075000Y-92020000D03*
X50575000Y-92020000D03*
%TD*%
D12*
%TO.P,J2,2,Pin_2*%
%TO.N,+5V*%
X99055000Y-95540000D03*
D13*
%TO.P,J2,1,Pin_1*%
%TO.N,GND*%
X99055000Y-93000000D03*
%TD*%
D12*
%TO.P,J1,2,Pin_2*%
%TO.N,GND*%
X46915000Y-93000000D03*
D13*
%TO.P,J1,1,Pin_1*%
%TO.N,+5V*%
X46915000Y-95540000D03*
%TD*%
D14*
%TO.N,+5V*%
X88802000Y-96556000D02*
X86008000Y-99350000D01*
X86008000Y-99350000D02*
X79935000Y-99350000D01*
X79935000Y-99350000D02*
X77105000Y-96520000D01*
X77105000Y-96520000D02*
X76200000Y-96520000D01*
X95302000Y-96556000D02*
X88802000Y-96556000D01*
X99055000Y-95540000D02*
X96318000Y-95540000D01*
X96318000Y-95540000D02*
X95302000Y-96556000D01*
X69700000Y-96520000D02*
X76200000Y-96520000D01*
X57075000Y-96520000D02*
X59905000Y-99350000D01*
X59905000Y-99350000D02*
X65965000Y-99350000D01*
X65965000Y-99350000D02*
X68795000Y-96520000D01*
X68795000Y-96520000D02*
X69700000Y-96520000D01*
X50575000Y-96520000D02*
X57075000Y-96520000D01*
X46915000Y-95540000D02*
X49595000Y-95540000D01*
X49595000Y-95540000D02*
X50575000Y-96520000D01*
%TD*%
%TA.AperFunction,Conductor*%
%TO.N,GND*%
G36*
X105404121Y-84638002D02*
G01*
X105450614Y-84691658D01*
X105462000Y-84744000D01*
X105462000Y-103796000D01*
X105441998Y-103864121D01*
X105388342Y-103910614D01*
X105336000Y-103922000D01*
X40564000Y-103922000D01*
X40495879Y-103901998D01*
X40449386Y-103848342D01*
X40438000Y-103796000D01*
X40438000Y-96438134D01*
X45556500Y-96438134D01*
X45563255Y-96500316D01*
X45614385Y-96636705D01*
X45701739Y-96753261D01*
X45818295Y-96840615D01*
X45954684Y-96891745D01*
X46016866Y-96898500D01*
X47813134Y-96898500D01*
X47875316Y-96891745D01*
X48011705Y-96840615D01*
X48128261Y-96753261D01*
X48215615Y-96636705D01*
X48266745Y-96500316D01*
X48273500Y-96438134D01*
X48273500Y-96299500D01*
X48293502Y-96231379D01*
X48347158Y-96184886D01*
X48399500Y-96173500D01*
X48952799Y-96173500D01*
X49020920Y-96193502D01*
X49067413Y-96247158D01*
X49078411Y-96309386D01*
X49063883Y-96493981D01*
X49061835Y-96520000D01*
X49080465Y-96756711D01*
X49081619Y-96761518D01*
X49081620Y-96761524D01*
X49113321Y-96893567D01*
X49135895Y-96987594D01*
X49137788Y-96992165D01*
X49137789Y-96992167D01*
X49224570Y-97201675D01*
X49226760Y-97206963D01*
X49229346Y-97211183D01*
X49348241Y-97405202D01*
X49348245Y-97405208D01*
X49350824Y-97409416D01*
X49505031Y-97589969D01*
X49685584Y-97744176D01*
X49689792Y-97746755D01*
X49689798Y-97746759D01*
X49871012Y-97857807D01*
X49888037Y-97868240D01*
X49892607Y-97870133D01*
X49892611Y-97870135D01*
X50102833Y-97957211D01*
X50107406Y-97959105D01*
X50171277Y-97974439D01*
X50333476Y-98013380D01*
X50333482Y-98013381D01*
X50338289Y-98014535D01*
X50575000Y-98033165D01*
X50811711Y-98014535D01*
X50816518Y-98013381D01*
X50816524Y-98013380D01*
X50978723Y-97974439D01*
X51042594Y-97959105D01*
X51047167Y-97957211D01*
X51257389Y-97870135D01*
X51257393Y-97870133D01*
X51261963Y-97868240D01*
X51278988Y-97857807D01*
X51460202Y-97746759D01*
X51460208Y-97746755D01*
X51464416Y-97744176D01*
X51644969Y-97589969D01*
X51799176Y-97409416D01*
X51801755Y-97405208D01*
X51801759Y-97405202D01*
X51919133Y-97213665D01*
X51971781Y-97166034D01*
X52026566Y-97153500D01*
X55623434Y-97153500D01*
X55691555Y-97173502D01*
X55730867Y-97213665D01*
X55848241Y-97405202D01*
X55848245Y-97405208D01*
X55850824Y-97409416D01*
X56005031Y-97589969D01*
X56185584Y-97744176D01*
X56189792Y-97746755D01*
X56189798Y-97746759D01*
X56371012Y-97857807D01*
X56388037Y-97868240D01*
X56392607Y-97870133D01*
X56392611Y-97870135D01*
X56602833Y-97957211D01*
X56607406Y-97959105D01*
X56671277Y-97974439D01*
X56833476Y-98013380D01*
X56833482Y-98013381D01*
X56838289Y-98014535D01*
X57075000Y-98033165D01*
X57311711Y-98014535D01*
X57316518Y-98013381D01*
X57316524Y-98013380D01*
X57534951Y-97960940D01*
X57605859Y-97964487D01*
X57653460Y-97994364D01*
X59401343Y-99742247D01*
X59408887Y-99750537D01*
X59413000Y-99757018D01*
X59418777Y-99762443D01*
X59462667Y-99803658D01*
X59465509Y-99806413D01*
X59485230Y-99826134D01*
X59488425Y-99828612D01*
X59497447Y-99836318D01*
X59529679Y-99866586D01*
X59540858Y-99872732D01*
X59547432Y-99876346D01*
X59563956Y-99887199D01*
X59579959Y-99899613D01*
X59620543Y-99917176D01*
X59631173Y-99922383D01*
X59669940Y-99943695D01*
X59677617Y-99945666D01*
X59677622Y-99945668D01*
X59689558Y-99948732D01*
X59708266Y-99955137D01*
X59726855Y-99963181D01*
X59734680Y-99964420D01*
X59734682Y-99964421D01*
X59770519Y-99970097D01*
X59782140Y-99972504D01*
X59813959Y-99980673D01*
X59824970Y-99983500D01*
X59845231Y-99983500D01*
X59864940Y-99985051D01*
X59884943Y-99988219D01*
X59892835Y-99987473D01*
X59898062Y-99986979D01*
X59928954Y-99984059D01*
X59940811Y-99983500D01*
X65886233Y-99983500D01*
X65897416Y-99984027D01*
X65904909Y-99985702D01*
X65912835Y-99985453D01*
X65912836Y-99985453D01*
X65972986Y-99983562D01*
X65976945Y-99983500D01*
X66004856Y-99983500D01*
X66008791Y-99983003D01*
X66008856Y-99982995D01*
X66020693Y-99982062D01*
X66052951Y-99981048D01*
X66056970Y-99980922D01*
X66064889Y-99980673D01*
X66084343Y-99975021D01*
X66103700Y-99971013D01*
X66115930Y-99969468D01*
X66115931Y-99969468D01*
X66123797Y-99968474D01*
X66131168Y-99965555D01*
X66131170Y-99965555D01*
X66164912Y-99952196D01*
X66176142Y-99948351D01*
X66210983Y-99938229D01*
X66210984Y-99938229D01*
X66218593Y-99936018D01*
X66225412Y-99931985D01*
X66225417Y-99931983D01*
X66236028Y-99925707D01*
X66253776Y-99917012D01*
X66272617Y-99909552D01*
X66292987Y-99894753D01*
X66308387Y-99883564D01*
X66318307Y-99877048D01*
X66349535Y-99858580D01*
X66349538Y-99858578D01*
X66356362Y-99854542D01*
X66370683Y-99840221D01*
X66385717Y-99827380D01*
X66387432Y-99826134D01*
X66402107Y-99815472D01*
X66430298Y-99781395D01*
X66438288Y-99772616D01*
X68542766Y-97668138D01*
X68605078Y-97634112D01*
X68675893Y-97639177D01*
X68713691Y-97661421D01*
X68810584Y-97744176D01*
X68814792Y-97746755D01*
X68814798Y-97746759D01*
X68996012Y-97857807D01*
X69013037Y-97868240D01*
X69017607Y-97870133D01*
X69017611Y-97870135D01*
X69227833Y-97957211D01*
X69232406Y-97959105D01*
X69296277Y-97974439D01*
X69458476Y-98013380D01*
X69458482Y-98013381D01*
X69463289Y-98014535D01*
X69700000Y-98033165D01*
X69936711Y-98014535D01*
X69941518Y-98013381D01*
X69941524Y-98013380D01*
X70103723Y-97974439D01*
X70167594Y-97959105D01*
X70172167Y-97957211D01*
X70382389Y-97870135D01*
X70382393Y-97870133D01*
X70386963Y-97868240D01*
X70403988Y-97857807D01*
X70585202Y-97746759D01*
X70585208Y-97746755D01*
X70589416Y-97744176D01*
X70769969Y-97589969D01*
X70924176Y-97409416D01*
X70926755Y-97405208D01*
X70926759Y-97405202D01*
X71044133Y-97213665D01*
X71096781Y-97166034D01*
X71151566Y-97153500D01*
X74748434Y-97153500D01*
X74816555Y-97173502D01*
X74855867Y-97213665D01*
X74973241Y-97405202D01*
X74973245Y-97405208D01*
X74975824Y-97409416D01*
X75130031Y-97589969D01*
X75310584Y-97744176D01*
X75314792Y-97746755D01*
X75314798Y-97746759D01*
X75496012Y-97857807D01*
X75513037Y-97868240D01*
X75517607Y-97870133D01*
X75517611Y-97870135D01*
X75727833Y-97957211D01*
X75732406Y-97959105D01*
X75796277Y-97974439D01*
X75958476Y-98013380D01*
X75958482Y-98013381D01*
X75963289Y-98014535D01*
X76200000Y-98033165D01*
X76436711Y-98014535D01*
X76441518Y-98013381D01*
X76441524Y-98013380D01*
X76603723Y-97974439D01*
X76667594Y-97959105D01*
X76672167Y-97957211D01*
X76882389Y-97870135D01*
X76882393Y-97870133D01*
X76886963Y-97868240D01*
X76903988Y-97857807D01*
X77085202Y-97746759D01*
X77085208Y-97746755D01*
X77089416Y-97744176D01*
X77186309Y-97661422D01*
X77251098Y-97632391D01*
X77321298Y-97642996D01*
X77357234Y-97668138D01*
X79431343Y-99742247D01*
X79438887Y-99750537D01*
X79443000Y-99757018D01*
X79448777Y-99762443D01*
X79492667Y-99803658D01*
X79495509Y-99806413D01*
X79515230Y-99826134D01*
X79518425Y-99828612D01*
X79527447Y-99836318D01*
X79559679Y-99866586D01*
X79570858Y-99872732D01*
X79577432Y-99876346D01*
X79593956Y-99887199D01*
X79609959Y-99899613D01*
X79650543Y-99917176D01*
X79661173Y-99922383D01*
X79699940Y-99943695D01*
X79707617Y-99945666D01*
X79707622Y-99945668D01*
X79719558Y-99948732D01*
X79738266Y-99955137D01*
X79756855Y-99963181D01*
X79764680Y-99964420D01*
X79764682Y-99964421D01*
X79800519Y-99970097D01*
X79812140Y-99972504D01*
X79843959Y-99980673D01*
X79854970Y-99983500D01*
X79875231Y-99983500D01*
X79894940Y-99985051D01*
X79914943Y-99988219D01*
X79922835Y-99987473D01*
X79928062Y-99986979D01*
X79958954Y-99984059D01*
X79970811Y-99983500D01*
X85929233Y-99983500D01*
X85940416Y-99984027D01*
X85947909Y-99985702D01*
X85955835Y-99985453D01*
X85955836Y-99985453D01*
X86015986Y-99983562D01*
X86019945Y-99983500D01*
X86047856Y-99983500D01*
X86051791Y-99983003D01*
X86051856Y-99982995D01*
X86063693Y-99982062D01*
X86095951Y-99981048D01*
X86099970Y-99980922D01*
X86107889Y-99980673D01*
X86127343Y-99975021D01*
X86146700Y-99971013D01*
X86158930Y-99969468D01*
X86158931Y-99969468D01*
X86166797Y-99968474D01*
X86174168Y-99965555D01*
X86174170Y-99965555D01*
X86207912Y-99952196D01*
X86219142Y-99948351D01*
X86253983Y-99938229D01*
X86253984Y-99938229D01*
X86261593Y-99936018D01*
X86268412Y-99931985D01*
X86268417Y-99931983D01*
X86279028Y-99925707D01*
X86296776Y-99917012D01*
X86315617Y-99909552D01*
X86335987Y-99894753D01*
X86351387Y-99883564D01*
X86361307Y-99877048D01*
X86392535Y-99858580D01*
X86392538Y-99858578D01*
X86399362Y-99854542D01*
X86413683Y-99840221D01*
X86428717Y-99827380D01*
X86430432Y-99826134D01*
X86445107Y-99815472D01*
X86473298Y-99781395D01*
X86481288Y-99772616D01*
X88223540Y-98030364D01*
X88285852Y-97996338D01*
X88342049Y-97996940D01*
X88560476Y-98049380D01*
X88560482Y-98049381D01*
X88565289Y-98050535D01*
X88802000Y-98069165D01*
X89038711Y-98050535D01*
X89043518Y-98049381D01*
X89043524Y-98049380D01*
X89196380Y-98012682D01*
X89269594Y-97995105D01*
X89274167Y-97993211D01*
X89484389Y-97906135D01*
X89484393Y-97906133D01*
X89488963Y-97904240D01*
X89495703Y-97900110D01*
X89687202Y-97782759D01*
X89687208Y-97782755D01*
X89691416Y-97780176D01*
X89871969Y-97625969D01*
X90026176Y-97445416D01*
X90028755Y-97441208D01*
X90028759Y-97441202D01*
X90146133Y-97249665D01*
X90198781Y-97202034D01*
X90253566Y-97189500D01*
X93850434Y-97189500D01*
X93918555Y-97209502D01*
X93957867Y-97249665D01*
X94075241Y-97441202D01*
X94075245Y-97441208D01*
X94077824Y-97445416D01*
X94232031Y-97625969D01*
X94412584Y-97780176D01*
X94416792Y-97782755D01*
X94416798Y-97782759D01*
X94608297Y-97900110D01*
X94615037Y-97904240D01*
X94619607Y-97906133D01*
X94619611Y-97906135D01*
X94829833Y-97993211D01*
X94834406Y-97995105D01*
X94907620Y-98012682D01*
X95060476Y-98049380D01*
X95060482Y-98049381D01*
X95065289Y-98050535D01*
X95302000Y-98069165D01*
X95538711Y-98050535D01*
X95543518Y-98049381D01*
X95543524Y-98049380D01*
X95696380Y-98012682D01*
X95769594Y-97995105D01*
X95774167Y-97993211D01*
X95984389Y-97906135D01*
X95984393Y-97906133D01*
X95988963Y-97904240D01*
X95995703Y-97900110D01*
X96187202Y-97782759D01*
X96187208Y-97782755D01*
X96191416Y-97780176D01*
X96371969Y-97625969D01*
X96526176Y-97445416D01*
X96528755Y-97441208D01*
X96528759Y-97441202D01*
X96647654Y-97247183D01*
X96650240Y-97242963D01*
X96653169Y-97235893D01*
X96739211Y-97028167D01*
X96739212Y-97028165D01*
X96741105Y-97023594D01*
X96796535Y-96792711D01*
X96815165Y-96556000D01*
X96813755Y-96538081D01*
X96796924Y-96324225D01*
X96796923Y-96324218D01*
X96796535Y-96319289D01*
X96796266Y-96318167D01*
X96805226Y-96248806D01*
X96850945Y-96194489D01*
X96920578Y-96173500D01*
X97779274Y-96173500D01*
X97847395Y-96193502D01*
X97886707Y-96233665D01*
X97954987Y-96345088D01*
X98101250Y-96513938D01*
X98273126Y-96656632D01*
X98466000Y-96769338D01*
X98470825Y-96771180D01*
X98470826Y-96771181D01*
X98496346Y-96780926D01*
X98674692Y-96849030D01*
X98852441Y-96885194D01*
X98915204Y-96918374D01*
X98933339Y-96950547D01*
X98958423Y-96920214D01*
X99026065Y-96898648D01*
X99033578Y-96898700D01*
X99060712Y-96899695D01*
X99111673Y-96901564D01*
X99111677Y-96901564D01*
X99116837Y-96901753D01*
X99121957Y-96901097D01*
X99121959Y-96901097D01*
X99333288Y-96874025D01*
X99333289Y-96874025D01*
X99338416Y-96873368D01*
X99343366Y-96871883D01*
X99547429Y-96810661D01*
X99547434Y-96810659D01*
X99552384Y-96809174D01*
X99610045Y-96780926D01*
X99749659Y-96712530D01*
X99819633Y-96700523D01*
X99884990Y-96728253D01*
X99924980Y-96786916D01*
X99926906Y-96857887D01*
X99923850Y-96867779D01*
X99921289Y-96875001D01*
X99920135Y-96881125D01*
X99917033Y-96893883D01*
X99913661Y-96905159D01*
X99905424Y-96932701D01*
X99905369Y-96941675D01*
X99905369Y-96941676D01*
X99905327Y-96948657D01*
X99903149Y-96971227D01*
X99826698Y-97376757D01*
X99825071Y-97385389D01*
X99814043Y-97443887D01*
X99781767Y-97507123D01*
X99720427Y-97542871D01*
X99649498Y-97539782D01*
X99619373Y-97524738D01*
X99596728Y-97509339D01*
X99582009Y-97499330D01*
X99581604Y-97499032D01*
X99581178Y-97498636D01*
X99579806Y-97497709D01*
X99579800Y-97497704D01*
X99548385Y-97476466D01*
X99548104Y-97476275D01*
X99526039Y-97461271D01*
X99518758Y-97456320D01*
X99518239Y-97456066D01*
X99517838Y-97455815D01*
X99476763Y-97428047D01*
X99475857Y-97427385D01*
X99474964Y-97426564D01*
X99443081Y-97405273D01*
X99442612Y-97404958D01*
X99435283Y-97400003D01*
X99413647Y-97385376D01*
X99412554Y-97384845D01*
X99411616Y-97384261D01*
X99380417Y-97363429D01*
X99379306Y-97362629D01*
X99378210Y-97361635D01*
X99346566Y-97340821D01*
X99346063Y-97340487D01*
X99320407Y-97323354D01*
X99320384Y-97323340D01*
X99317169Y-97321193D01*
X99315844Y-97320558D01*
X99314627Y-97319813D01*
X99297817Y-97308755D01*
X99295964Y-97307446D01*
X99294293Y-97305964D01*
X99263494Y-97286173D01*
X99262507Y-97285531D01*
X99250514Y-97277642D01*
X99242538Y-97272396D01*
X99238225Y-97269559D01*
X99234485Y-97267099D01*
X99233988Y-97266865D01*
X99226801Y-97262283D01*
X99223592Y-97259571D01*
X99219437Y-97257039D01*
X99219431Y-97257035D01*
X99195984Y-97242748D01*
X99193429Y-97241149D01*
X99168870Y-97225367D01*
X99169127Y-97224967D01*
X99156298Y-97216298D01*
X99151093Y-97212008D01*
X99151092Y-97212007D01*
X99144169Y-97206302D01*
X99088899Y-97182621D01*
X99083808Y-97180304D01*
X99064282Y-97170885D01*
X99059451Y-97169352D01*
X99047948Y-97165074D01*
X99017352Y-97151965D01*
X99009099Y-97148429D01*
X99000187Y-97147352D01*
X98996263Y-97146297D01*
X98935668Y-97109299D01*
X98922847Y-97082854D01*
X98904180Y-97108504D01*
X98838001Y-97134209D01*
X98824461Y-97134631D01*
X98821745Y-97134569D01*
X98821741Y-97134569D01*
X98812774Y-97134366D01*
X98771961Y-97145301D01*
X98759957Y-97147896D01*
X98727102Y-97153339D01*
X98727093Y-97153342D01*
X98718243Y-97154808D01*
X98706565Y-97160430D01*
X98705996Y-97160704D01*
X98683957Y-97168880D01*
X98670833Y-97172396D01*
X98663164Y-97177058D01*
X98663163Y-97177059D01*
X98645648Y-97187708D01*
X98641487Y-97190238D01*
X98639949Y-97187708D01*
X98638352Y-97189057D01*
X98639496Y-97190828D01*
X98634612Y-97193982D01*
X98620920Y-97201660D01*
X98616506Y-97203785D01*
X98612507Y-97206540D01*
X98612499Y-97206544D01*
X98599134Y-97215750D01*
X98593135Y-97219635D01*
X98545273Y-97248734D01*
X98539219Y-97255364D01*
X98539182Y-97255394D01*
X98531711Y-97262904D01*
X98510548Y-97282437D01*
X98508921Y-97283912D01*
X98505079Y-97287336D01*
X98500310Y-97291077D01*
X98500448Y-97291247D01*
X98496666Y-97294315D01*
X98492662Y-97297079D01*
X98470788Y-97317814D01*
X98467953Y-97320418D01*
X98464279Y-97323692D01*
X98447796Y-97338380D01*
X98444910Y-97341801D01*
X98441777Y-97345021D01*
X98441688Y-97344935D01*
X98437546Y-97349323D01*
X98435766Y-97351011D01*
X98433178Y-97353316D01*
X98430675Y-97355099D01*
X98405398Y-97379780D01*
X98404149Y-97380980D01*
X98380825Y-97403090D01*
X98378918Y-97405498D01*
X98376471Y-97408026D01*
X98373349Y-97411074D01*
X98361760Y-97422389D01*
X98360286Y-97423734D01*
X98358661Y-97424916D01*
X98355216Y-97428345D01*
X98355212Y-97428348D01*
X98332558Y-97450894D01*
X98331704Y-97451736D01*
X98310672Y-97472273D01*
X98310668Y-97472278D01*
X98307464Y-97475406D01*
X98306244Y-97476994D01*
X98304844Y-97478475D01*
X98282117Y-97501094D01*
X98281015Y-97502117D01*
X98279738Y-97503060D01*
X98276789Y-97506040D01*
X98276786Y-97506042D01*
X98253239Y-97529830D01*
X98252573Y-97530497D01*
X98231161Y-97551806D01*
X98231149Y-97551819D01*
X98228230Y-97554724D01*
X98227279Y-97555986D01*
X98226242Y-97557103D01*
X98199911Y-97583705D01*
X98198897Y-97584659D01*
X98197704Y-97585553D01*
X98194939Y-97588386D01*
X98171400Y-97612503D01*
X98170777Y-97613136D01*
X98149174Y-97634960D01*
X98149165Y-97634970D01*
X98146407Y-97637756D01*
X98145521Y-97638952D01*
X98144552Y-97640010D01*
X98118974Y-97666215D01*
X98117817Y-97667321D01*
X98116501Y-97668323D01*
X98113497Y-97671450D01*
X98113487Y-97671459D01*
X98090450Y-97695435D01*
X98089903Y-97696000D01*
X98065880Y-97720612D01*
X98064902Y-97721950D01*
X98063826Y-97723143D01*
X98043199Y-97744611D01*
X98041607Y-97746161D01*
X98039877Y-97747507D01*
X98014816Y-97774139D01*
X98013978Y-97775020D01*
X97993767Y-97796054D01*
X97993758Y-97796065D01*
X97990661Y-97799288D01*
X97989383Y-97801065D01*
X97987876Y-97802768D01*
X97986105Y-97804650D01*
X97976432Y-97814930D01*
X97973486Y-97817878D01*
X97970716Y-97820111D01*
X97967442Y-97823713D01*
X97947563Y-97845581D01*
X97946090Y-97847174D01*
X97928400Y-97865974D01*
X97924597Y-97870015D01*
X97923310Y-97871845D01*
X97914707Y-97880751D01*
X97914855Y-97880896D01*
X97911458Y-97884364D01*
X97907786Y-97887575D01*
X97901215Y-97895412D01*
X97899821Y-97897074D01*
X97899219Y-97897698D01*
X97898497Y-97898184D01*
X97893456Y-97904240D01*
X97886667Y-97912395D01*
X97883065Y-97916535D01*
X97870817Y-97930009D01*
X97868299Y-97933725D01*
X97867783Y-97934381D01*
X97856798Y-97945919D01*
X97853424Y-97949823D01*
X97846653Y-97955711D01*
X97837549Y-97969899D01*
X97832170Y-97977238D01*
X97832190Y-97977252D01*
X97830005Y-97980333D01*
X97829035Y-97981489D01*
X97828698Y-97982032D01*
X97826258Y-97984963D01*
X97809587Y-98012791D01*
X97808612Y-98014388D01*
X97797574Y-98032167D01*
X97796572Y-98033754D01*
X97772140Y-98071829D01*
X97772138Y-98071832D01*
X97767292Y-98079385D01*
X97764761Y-98087990D01*
X97764760Y-98087993D01*
X97756623Y-98115662D01*
X97751918Y-98128888D01*
X97745079Y-98145178D01*
X97737278Y-98163757D01*
X97736266Y-98172672D01*
X97735241Y-98181702D01*
X97730926Y-98203038D01*
X97725832Y-98220361D01*
X97725818Y-98229337D01*
X97725818Y-98229338D01*
X97725774Y-98258182D01*
X97724970Y-98272197D01*
X97720706Y-98309766D01*
X97722238Y-98318610D01*
X97723786Y-98327551D01*
X97725634Y-98349247D01*
X97725606Y-98367308D01*
X97728111Y-98375923D01*
X97728112Y-98375931D01*
X97736166Y-98403629D01*
X97739328Y-98417306D01*
X97745779Y-98454558D01*
X97749730Y-98462615D01*
X97749732Y-98462620D01*
X97775885Y-98515948D01*
X97779543Y-98524132D01*
X97786318Y-98540861D01*
X97786322Y-98540870D01*
X97788148Y-98545378D01*
X97790646Y-98549553D01*
X97790649Y-98549559D01*
X97791959Y-98551749D01*
X97797625Y-98562413D01*
X97797877Y-98562864D01*
X97799779Y-98566932D01*
X97802238Y-98570688D01*
X97804418Y-98574598D01*
X97804223Y-98574707D01*
X97805414Y-98576796D01*
X97806531Y-98578435D01*
X97810482Y-98586492D01*
X97815787Y-98592297D01*
X97821180Y-98601215D01*
X97823037Y-98605457D01*
X97825650Y-98609562D01*
X97825652Y-98609565D01*
X97839764Y-98631732D01*
X97841588Y-98634686D01*
X97855944Y-98658678D01*
X97858769Y-98662161D01*
X97861315Y-98665801D01*
X97864334Y-98670324D01*
X97867284Y-98674957D01*
X97869016Y-98677876D01*
X97870289Y-98680671D01*
X97872961Y-98684734D01*
X97889624Y-98710073D01*
X97890634Y-98711635D01*
X97905494Y-98734976D01*
X97905503Y-98734988D01*
X97907910Y-98738769D01*
X97909904Y-98741093D01*
X97911916Y-98743973D01*
X97926738Y-98766512D01*
X97927941Y-98768481D01*
X97928900Y-98770529D01*
X97949356Y-98800918D01*
X97950038Y-98801944D01*
X97965932Y-98826114D01*
X97965936Y-98826119D01*
X97968394Y-98829857D01*
X97969887Y-98831546D01*
X97971259Y-98833457D01*
X97994529Y-98868025D01*
X97995312Y-98869281D01*
X97995981Y-98870683D01*
X98017259Y-98901798D01*
X98017668Y-98902401D01*
X98036996Y-98931114D01*
X98038036Y-98932265D01*
X98038919Y-98933473D01*
X98055887Y-98958284D01*
X98055921Y-98958389D01*
X98055946Y-98958372D01*
X98105718Y-99031284D01*
X98127604Y-99098823D01*
X98109502Y-99167473D01*
X98057158Y-99215438D01*
X98024995Y-99226141D01*
X98004673Y-99229972D01*
X98004519Y-99230001D01*
X97978426Y-99234863D01*
X97977711Y-99234969D01*
X97976866Y-99234997D01*
X97969580Y-99236384D01*
X97938787Y-99242246D01*
X97938304Y-99242337D01*
X97905683Y-99248415D01*
X97905678Y-99248416D01*
X97903387Y-99248843D01*
X97902592Y-99249113D01*
X97901855Y-99249279D01*
X97855434Y-99258117D01*
X97853407Y-99258432D01*
X97851340Y-99258522D01*
X97846571Y-99259478D01*
X97846567Y-99259479D01*
X97815254Y-99265760D01*
X97814042Y-99265997D01*
X97780917Y-99272304D01*
X97778964Y-99272974D01*
X97776922Y-99273449D01*
X97741473Y-99280560D01*
X97738911Y-99280987D01*
X97736419Y-99281125D01*
X97701005Y-99288668D01*
X97699601Y-99288959D01*
X97671584Y-99294578D01*
X97671580Y-99294579D01*
X97667198Y-99295458D01*
X97664857Y-99296287D01*
X97662273Y-99296918D01*
X97643635Y-99300887D01*
X97639165Y-99301703D01*
X97635397Y-99301981D01*
X97602098Y-99309714D01*
X97600015Y-99310178D01*
X97569630Y-99316650D01*
X97567161Y-99317557D01*
X97554406Y-99320124D01*
X97554430Y-99320248D01*
X97549646Y-99321185D01*
X97544821Y-99321749D01*
X97540142Y-99323048D01*
X97540135Y-99323049D01*
X97519419Y-99328799D01*
X97514266Y-99330112D01*
X97491587Y-99335380D01*
X97487114Y-99337117D01*
X97475193Y-99341075D01*
X97472454Y-99341835D01*
X97470964Y-99342238D01*
X97438178Y-99350904D01*
X97438171Y-99350906D01*
X97433466Y-99352150D01*
X97430764Y-99353334D01*
X97422779Y-99355714D01*
X97399323Y-99361550D01*
X97391576Y-99366072D01*
X97391573Y-99366073D01*
X97367720Y-99379996D01*
X97354774Y-99386582D01*
X97329490Y-99397662D01*
X97322610Y-99403428D01*
X97322606Y-99403430D01*
X97319397Y-99406119D01*
X97301989Y-99418362D01*
X97272413Y-99435625D01*
X97267605Y-99440705D01*
X97261657Y-99444393D01*
X97231098Y-99478458D01*
X97228516Y-99480955D01*
X97223744Y-99486276D01*
X97216861Y-99492044D01*
X97211878Y-99499506D01*
X97211843Y-99499545D01*
X97209545Y-99502039D01*
X97198075Y-99514156D01*
X97171394Y-99542342D01*
X97168204Y-99548568D01*
X97163532Y-99553776D01*
X97135474Y-99612352D01*
X97134000Y-99615326D01*
X97119906Y-99642833D01*
X97119825Y-99642791D01*
X97116738Y-99649813D01*
X97111997Y-99657435D01*
X97109586Y-99666082D01*
X97108721Y-99668049D01*
X97107018Y-99671759D01*
X97100051Y-99686304D01*
X97098601Y-99695164D01*
X97096252Y-99709518D01*
X97091548Y-99728689D01*
X97087784Y-99740084D01*
X97086995Y-99744501D01*
X97086757Y-99745832D01*
X97084093Y-99757508D01*
X97081670Y-99766199D01*
X97081100Y-99771029D01*
X97079287Y-99786393D01*
X97078191Y-99793785D01*
X97068486Y-99848112D01*
X97069451Y-99857037D01*
X97069141Y-99866008D01*
X97068991Y-99866003D01*
X97069099Y-99870791D01*
X97069055Y-99871490D01*
X97068436Y-99878339D01*
X97066710Y-99892963D01*
X97066710Y-99892971D01*
X97066185Y-99897417D01*
X97066296Y-99901902D01*
X97066296Y-99901903D01*
X97066405Y-99906304D01*
X97066200Y-99917263D01*
X97065488Y-99928682D01*
X97064939Y-99934952D01*
X97064658Y-99937444D01*
X97063743Y-99942218D01*
X97063290Y-99955138D01*
X97062649Y-99973440D01*
X97062482Y-99976870D01*
X97060732Y-100004934D01*
X97061090Y-100009401D01*
X97061126Y-100013470D01*
X97061054Y-100018993D01*
X97060310Y-100040253D01*
X97060025Y-100044652D01*
X97059395Y-100048287D01*
X97059020Y-100070181D01*
X97058808Y-100082558D01*
X97058749Y-100084809D01*
X97058095Y-100103500D01*
X97057661Y-100115884D01*
X97058054Y-100119535D01*
X97058097Y-100124077D01*
X97057521Y-100157671D01*
X97057362Y-100160944D01*
X97056897Y-100163876D01*
X97056883Y-100168743D01*
X97056883Y-100168745D01*
X97056797Y-100199227D01*
X97056780Y-100200991D01*
X97056227Y-100233332D01*
X97056597Y-100236274D01*
X97056683Y-100239632D01*
X97056616Y-100263259D01*
X97056574Y-100278136D01*
X97056466Y-100281253D01*
X97056059Y-100284069D01*
X97056197Y-100296771D01*
X97056445Y-100319718D01*
X97056452Y-100321348D01*
X97056360Y-100353848D01*
X97056756Y-100356667D01*
X97056881Y-100359829D01*
X97057282Y-100396864D01*
X97057209Y-100400519D01*
X97056797Y-100403719D01*
X97056925Y-100408584D01*
X97056925Y-100408590D01*
X97057720Y-100438716D01*
X97057757Y-100440670D01*
X97058002Y-100463180D01*
X97058103Y-100472530D01*
X97058591Y-100475695D01*
X97058795Y-100479447D01*
X97059561Y-100508450D01*
X97059552Y-100514055D01*
X97059089Y-100518371D01*
X97059321Y-100523240D01*
X97060668Y-100551513D01*
X97060767Y-100554184D01*
X97061560Y-100584220D01*
X97062286Y-100588481D01*
X97062707Y-100594283D01*
X97063436Y-100609593D01*
X97063355Y-100616750D01*
X97063434Y-100616749D01*
X97063467Y-100621623D01*
X97063125Y-100626472D01*
X97064948Y-100648121D01*
X97065504Y-100654720D01*
X97065805Y-100659296D01*
X97066647Y-100676956D01*
X97067004Y-100684452D01*
X97067851Y-100688861D01*
X97068381Y-100693301D01*
X97068373Y-100693302D01*
X97069350Y-100700388D01*
X97070018Y-100708311D01*
X97070483Y-100713833D01*
X97070902Y-100721896D01*
X97071125Y-100733075D01*
X97071292Y-100741472D01*
X97072137Y-100746266D01*
X97073212Y-100752370D01*
X97074677Y-100763648D01*
X97074969Y-100767111D01*
X97074970Y-100767119D01*
X97075346Y-100771581D01*
X97076351Y-100775946D01*
X97076351Y-100775948D01*
X97076367Y-100776017D01*
X97076391Y-100776203D01*
X97077043Y-100780371D01*
X97076932Y-100780388D01*
X97079517Y-100800398D01*
X97080195Y-100822416D01*
X97091790Y-100857969D01*
X97091853Y-100858186D01*
X97091903Y-100858473D01*
X97092168Y-100859281D01*
X97092168Y-100859282D01*
X97096728Y-100873202D01*
X97100801Y-100889045D01*
X97104608Y-100909205D01*
X97108681Y-100917200D01*
X97108681Y-100917201D01*
X97111157Y-100922061D01*
X97118623Y-100940026D01*
X97126070Y-100962756D01*
X97144020Y-100988930D01*
X97152459Y-101003156D01*
X97154335Y-101006851D01*
X97152372Y-101007847D01*
X97152394Y-101007930D01*
X97154381Y-101006918D01*
X97171305Y-101040143D01*
X97177459Y-101046675D01*
X97177461Y-101046678D01*
X97190157Y-101060154D01*
X97201582Y-101074172D01*
X97204639Y-101078527D01*
X97217377Y-101096677D01*
X97239571Y-101114419D01*
X97252588Y-101126419D01*
X97272072Y-101147099D01*
X97291459Y-101158476D01*
X97295790Y-101161018D01*
X97310688Y-101171266D01*
X97332158Y-101188428D01*
X97364772Y-101201828D01*
X97367157Y-101202899D01*
X97369454Y-101204247D01*
X97373989Y-101206038D01*
X97373992Y-101206040D01*
X97399815Y-101216241D01*
X97401403Y-101216880D01*
X97432835Y-101229796D01*
X97435674Y-101231004D01*
X97450497Y-101237534D01*
X97453537Y-101238344D01*
X97454933Y-101238876D01*
X97459774Y-101240865D01*
X97459777Y-101240866D01*
X97468079Y-101244277D01*
X97477001Y-101245221D01*
X97483175Y-101246782D01*
X97485298Y-101247145D01*
X97495564Y-101249592D01*
X97498747Y-101250395D01*
X97508251Y-101252928D01*
X97515393Y-101255284D01*
X97515404Y-101255249D01*
X97520052Y-101256684D01*
X97524583Y-101258476D01*
X97529335Y-101259550D01*
X97529340Y-101259551D01*
X97551617Y-101264583D01*
X97556279Y-101265730D01*
X97580072Y-101272072D01*
X97584514Y-101272600D01*
X97587354Y-101273144D01*
X97596382Y-101274696D01*
X97602634Y-101276109D01*
X97609091Y-101277749D01*
X97609271Y-101277800D01*
X97613828Y-101279476D01*
X97645446Y-101285818D01*
X97648392Y-101286446D01*
X97676777Y-101292858D01*
X97681246Y-101293216D01*
X97682842Y-101293459D01*
X97688643Y-101294482D01*
X97706807Y-101298125D01*
X97709954Y-101298860D01*
X97712740Y-101299840D01*
X97745132Y-101305861D01*
X97745573Y-101305960D01*
X97746104Y-101306145D01*
X97747676Y-101306433D01*
X97752976Y-101307404D01*
X97755047Y-101307801D01*
X97776605Y-101312125D01*
X97776612Y-101312126D01*
X97781000Y-101313006D01*
X97783940Y-101313170D01*
X97787232Y-101313685D01*
X97820313Y-101319834D01*
X97820867Y-101319857D01*
X97821346Y-101319928D01*
X97910748Y-101336303D01*
X97939243Y-101341523D01*
X97996779Y-101352268D01*
X98060069Y-101384434D01*
X98090971Y-101430178D01*
X98100295Y-101453986D01*
X98100853Y-101455436D01*
X98102814Y-101460631D01*
X98108158Y-101531427D01*
X98088843Y-101576395D01*
X98057598Y-101621952D01*
X98056608Y-101623291D01*
X98055533Y-101624448D01*
X98034440Y-101655651D01*
X98034024Y-101656261D01*
X98017473Y-101680341D01*
X98014526Y-101684628D01*
X98013802Y-101686090D01*
X98012946Y-101687447D01*
X97989038Y-101722814D01*
X97986693Y-101726066D01*
X97984388Y-101728631D01*
X97966035Y-101756781D01*
X97965462Y-101757660D01*
X97964305Y-101759402D01*
X97946669Y-101785491D01*
X97945168Y-101788581D01*
X97943004Y-101792105D01*
X97925865Y-101818395D01*
X97922830Y-101822774D01*
X97920090Y-101825951D01*
X97917520Y-101830075D01*
X97917516Y-101830081D01*
X97902409Y-101854326D01*
X97901019Y-101856506D01*
X97884496Y-101881849D01*
X97882732Y-101885641D01*
X97879927Y-101890408D01*
X97872787Y-101901866D01*
X97869023Y-101907162D01*
X97869153Y-101907251D01*
X97866397Y-101911267D01*
X97863342Y-101915056D01*
X97860904Y-101919273D01*
X97860902Y-101919276D01*
X97848628Y-101940507D01*
X97846482Y-101944081D01*
X97834962Y-101962569D01*
X97832589Y-101966378D01*
X97830782Y-101970478D01*
X97828688Y-101974442D01*
X97828620Y-101974406D01*
X97825679Y-101980202D01*
X97821878Y-101986777D01*
X97817325Y-101994067D01*
X97809863Y-102005154D01*
X97809860Y-102005159D01*
X97807146Y-102009192D01*
X97801894Y-102020409D01*
X97796879Y-102030018D01*
X97792558Y-102037491D01*
X97785920Y-102047781D01*
X97779636Y-102056554D01*
X97776668Y-102065022D01*
X97765862Y-102095853D01*
X97761075Y-102107583D01*
X97759290Y-102111397D01*
X97759229Y-102111368D01*
X97757768Y-102114697D01*
X97750543Y-102129253D01*
X97746553Y-102137292D01*
X97744980Y-102146125D01*
X97744978Y-102146130D01*
X97741043Y-102168219D01*
X97737529Y-102182834D01*
X97729928Y-102207790D01*
X97729927Y-102207794D01*
X97727313Y-102216377D01*
X97727213Y-102225352D01*
X97727084Y-102236825D01*
X97725140Y-102257507D01*
X97720784Y-102281962D01*
X97723452Y-102306520D01*
X97723582Y-102307714D01*
X97724216Y-102326413D01*
X97723170Y-102352289D01*
X97725340Y-102360999D01*
X97725681Y-102362369D01*
X97725485Y-102362418D01*
X97725579Y-102363336D01*
X97725669Y-102363311D01*
X97727381Y-102369418D01*
X97728323Y-102372979D01*
X97730418Y-102381391D01*
X97733416Y-102398233D01*
X97736655Y-102428049D01*
X97740660Y-102437716D01*
X97746567Y-102451977D01*
X97752425Y-102469749D01*
X97756513Y-102486165D01*
X97756515Y-102486169D01*
X97758684Y-102494879D01*
X97763211Y-102502630D01*
X97774022Y-102521141D01*
X97774930Y-102522937D01*
X97775806Y-102526162D01*
X97780109Y-102533181D01*
X97780110Y-102533184D01*
X97799411Y-102564671D01*
X97800752Y-102566912D01*
X97832791Y-102621771D01*
X97839312Y-102627941D01*
X97841440Y-102630622D01*
X97844702Y-102634063D01*
X97855919Y-102647262D01*
X97857020Y-102648578D01*
X97860482Y-102652778D01*
X97876590Y-102672319D01*
X97878214Y-102674330D01*
X97880554Y-102677290D01*
X97883273Y-102681337D01*
X97886580Y-102684914D01*
X97886586Y-102684922D01*
X97887796Y-102686231D01*
X97892490Y-102691607D01*
X97897047Y-102697135D01*
X97897054Y-102697142D01*
X97902472Y-102703715D01*
X97905179Y-102705555D01*
X97907478Y-102707935D01*
X97920048Y-102722727D01*
X97923403Y-102725694D01*
X97923430Y-102725718D01*
X97932485Y-102734576D01*
X97937591Y-102740100D01*
X97941082Y-102744099D01*
X97943496Y-102747537D01*
X97966656Y-102771583D01*
X97968401Y-102773432D01*
X97971499Y-102776783D01*
X97988995Y-102795711D01*
X97992236Y-102798346D01*
X97996183Y-102802242D01*
X98011368Y-102818007D01*
X98013395Y-102820250D01*
X98015026Y-102822508D01*
X98040199Y-102847954D01*
X98041290Y-102849073D01*
X98060779Y-102869308D01*
X98060787Y-102869315D01*
X98063892Y-102872539D01*
X98066078Y-102874242D01*
X98068308Y-102876370D01*
X98091794Y-102900110D01*
X98093349Y-102901790D01*
X98094681Y-102903593D01*
X98098144Y-102907019D01*
X98098146Y-102907022D01*
X98120680Y-102929319D01*
X98121624Y-102930263D01*
X98145119Y-102954013D01*
X98146898Y-102955361D01*
X98148607Y-102956953D01*
X98175826Y-102983887D01*
X98177315Y-102985462D01*
X98178596Y-102987160D01*
X98193351Y-103001466D01*
X98204948Y-103012711D01*
X98205828Y-103013573D01*
X98229752Y-103037246D01*
X98231461Y-103038513D01*
X98233081Y-103039991D01*
X98259644Y-103065747D01*
X98261381Y-103067546D01*
X98262853Y-103069451D01*
X98266382Y-103072795D01*
X98266383Y-103072796D01*
X98289151Y-103094370D01*
X98290198Y-103095373D01*
X98305932Y-103110629D01*
X98314046Y-103118497D01*
X98315992Y-103119909D01*
X98317898Y-103121610D01*
X98339269Y-103141861D01*
X98341853Y-103144466D01*
X98343868Y-103146991D01*
X98347446Y-103150277D01*
X98369643Y-103170663D01*
X98371078Y-103172002D01*
X98390308Y-103190223D01*
X98394185Y-103193897D01*
X98396816Y-103195760D01*
X98399667Y-103198236D01*
X98410526Y-103208209D01*
X98415119Y-103212647D01*
X98416473Y-103214023D01*
X98419607Y-103217744D01*
X98423271Y-103220934D01*
X98423278Y-103220941D01*
X98443360Y-103238424D01*
X98445836Y-103240638D01*
X98466723Y-103259820D01*
X98470419Y-103262352D01*
X98473112Y-103264493D01*
X98477440Y-103268094D01*
X98480279Y-103270566D01*
X98488429Y-103278329D01*
X98496248Y-103286473D01*
X98500115Y-103289421D01*
X98500122Y-103289427D01*
X98508242Y-103295617D01*
X98519777Y-103306503D01*
X98525678Y-103311673D01*
X98531525Y-103318488D01*
X98539047Y-103323386D01*
X98573706Y-103345954D01*
X98581338Y-103351337D01*
X98591335Y-103358958D01*
X98603981Y-103366016D01*
X98611319Y-103370445D01*
X98626146Y-103380100D01*
X98630596Y-103382102D01*
X98633897Y-103383905D01*
X98642611Y-103389132D01*
X98662420Y-103402130D01*
X98671007Y-103404751D01*
X98672823Y-103405602D01*
X98673621Y-103405877D01*
X98679317Y-103408066D01*
X98687157Y-103412442D01*
X98695909Y-103414441D01*
X98695911Y-103414442D01*
X98715852Y-103418997D01*
X98722658Y-103420753D01*
X98735626Y-103424489D01*
X98737469Y-103425036D01*
X98802966Y-103445026D01*
X98807085Y-103445074D01*
X98811041Y-103446214D01*
X98865873Y-103445994D01*
X98879457Y-103445939D01*
X98881443Y-103445947D01*
X98941265Y-103446650D01*
X98941271Y-103446650D01*
X98949903Y-103446751D01*
X98953873Y-103445641D01*
X98957985Y-103445624D01*
X98966241Y-103443174D01*
X98966245Y-103443173D01*
X99021916Y-103426651D01*
X99022238Y-103427735D01*
X99024907Y-103426347D01*
X99029307Y-103425900D01*
X99037627Y-103422522D01*
X99040491Y-103421810D01*
X99046938Y-103419607D01*
X99053951Y-103417645D01*
X99058641Y-103416333D01*
X99061575Y-103414997D01*
X99065018Y-103413859D01*
X99090257Y-103406369D01*
X99090258Y-103406369D01*
X99098859Y-103403816D01*
X99115742Y-103392923D01*
X99127781Y-103386063D01*
X99129406Y-103385252D01*
X99133923Y-103383418D01*
X99138099Y-103380913D01*
X99140655Y-103379638D01*
X99142492Y-103378674D01*
X99142420Y-103378542D01*
X99146355Y-103376401D01*
X99150436Y-103374543D01*
X99174262Y-103359290D01*
X99177382Y-103357356D01*
X99180208Y-103355661D01*
X99186461Y-103352399D01*
X99186416Y-103352317D01*
X99190684Y-103349992D01*
X99195130Y-103347998D01*
X99199214Y-103345345D01*
X99199220Y-103345342D01*
X99219025Y-103332478D01*
X99222856Y-103330086D01*
X99240776Y-103319339D01*
X99240778Y-103319338D01*
X99244626Y-103317030D01*
X99248107Y-103314201D01*
X99251774Y-103311631D01*
X99251907Y-103311820D01*
X99261993Y-103304906D01*
X99264950Y-103303505D01*
X99268971Y-103300773D01*
X99268981Y-103300767D01*
X99292551Y-103284751D01*
X99294703Y-103283321D01*
X99320011Y-103266882D01*
X99322690Y-103264541D01*
X99324834Y-103262994D01*
X99345424Y-103248825D01*
X99346037Y-103248406D01*
X99372213Y-103230619D01*
X99372217Y-103230616D01*
X99375000Y-103228725D01*
X99375919Y-103227887D01*
X99376869Y-103227187D01*
X99430585Y-103190223D01*
X99430865Y-103190031D01*
X99433226Y-103188416D01*
X99529484Y-103122558D01*
X99550509Y-103108240D01*
X99618073Y-103086430D01*
X99667284Y-103095025D01*
X99667615Y-103095154D01*
X99671654Y-103097074D01*
X99678734Y-103099275D01*
X99686860Y-103102110D01*
X99702665Y-103108240D01*
X99713336Y-103112379D01*
X99714624Y-103112887D01*
X99737957Y-103122234D01*
X99737960Y-103122235D01*
X99742114Y-103123899D01*
X99744162Y-103124398D01*
X99744986Y-103124689D01*
X99745384Y-103124809D01*
X99749932Y-103126573D01*
X99754692Y-103127615D01*
X99759351Y-103129020D01*
X99759330Y-103129091D01*
X99770961Y-103132541D01*
X99787593Y-103138821D01*
X99796385Y-103142141D01*
X99805337Y-103142828D01*
X99805338Y-103142828D01*
X99809121Y-103143118D01*
X99816359Y-103143673D01*
X99836522Y-103146879D01*
X99848738Y-103149853D01*
X99857707Y-103149443D01*
X99857711Y-103149443D01*
X99871192Y-103148826D01*
X99886589Y-103149063D01*
X99934190Y-103152716D01*
X99934193Y-103152716D01*
X99942901Y-103153384D01*
X99943741Y-103153207D01*
X99944601Y-103153270D01*
X99953136Y-103151440D01*
X99953138Y-103151440D01*
X99990865Y-103143351D01*
X99990878Y-103143412D01*
X99991035Y-103143343D01*
X99995531Y-103143138D01*
X100001662Y-103141037D01*
X100005413Y-103140233D01*
X100005415Y-103140233D01*
X100015337Y-103138106D01*
X100015735Y-103138022D01*
X100078138Y-103124857D01*
X100078141Y-103124856D01*
X100086683Y-103123054D01*
X100087444Y-103122646D01*
X100088282Y-103122466D01*
X100152057Y-103087983D01*
X100216174Y-103053587D01*
X100216787Y-103052984D01*
X100217544Y-103052575D01*
X100269191Y-103001466D01*
X100272900Y-102997819D01*
X100283684Y-102988458D01*
X100284091Y-102988043D01*
X100291219Y-102982591D01*
X100296530Y-102975358D01*
X100301408Y-102970383D01*
X100306134Y-102964907D01*
X100314171Y-102956953D01*
X100321993Y-102949213D01*
X100337077Y-102922001D01*
X100346175Y-102907892D01*
X100353039Y-102898663D01*
X100353041Y-102898660D01*
X100354794Y-102896303D01*
X100355408Y-102895172D01*
X100358046Y-102891579D01*
X100360285Y-102887267D01*
X100360291Y-102887257D01*
X100372736Y-102863286D01*
X100373783Y-102861312D01*
X100389507Y-102832338D01*
X100389507Y-102832337D01*
X100390048Y-102832631D01*
X100390616Y-102830707D01*
X100391838Y-102828909D01*
X100393928Y-102824499D01*
X100394120Y-102824164D01*
X100396708Y-102819069D01*
X100407136Y-102799853D01*
X100407975Y-102795972D01*
X100409647Y-102792195D01*
X100417649Y-102776783D01*
X100419128Y-102772557D01*
X100420909Y-102768435D01*
X100420918Y-102768439D01*
X100423628Y-102761837D01*
X100423716Y-102761651D01*
X100426678Y-102755402D01*
X100428467Y-102751907D01*
X100430337Y-102749056D01*
X100444725Y-102717363D01*
X100445526Y-102715636D01*
X100459079Y-102687041D01*
X100460083Y-102683801D01*
X100461652Y-102680076D01*
X100473394Y-102654211D01*
X100474305Y-102652371D01*
X100475413Y-102650647D01*
X100490309Y-102616964D01*
X100490794Y-102615883D01*
X100502903Y-102589210D01*
X100502906Y-102589203D01*
X100504756Y-102585127D01*
X100505330Y-102583161D01*
X100506117Y-102581222D01*
X100519170Y-102551708D01*
X100524894Y-102538765D01*
X100525484Y-102537548D01*
X100526257Y-102536327D01*
X100527794Y-102532787D01*
X100541302Y-102501674D01*
X100541645Y-102500890D01*
X100554134Y-102472652D01*
X100554140Y-102472638D01*
X100555668Y-102469182D01*
X100556057Y-102467799D01*
X100556563Y-102466523D01*
X100569070Y-102437716D01*
X100580399Y-102411621D01*
X100580839Y-102410700D01*
X100581443Y-102409733D01*
X100596587Y-102374334D01*
X100610744Y-102341726D01*
X100611044Y-102340629D01*
X100611428Y-102339644D01*
X100628449Y-102299857D01*
X100638452Y-102276477D01*
X100638832Y-102275671D01*
X100639354Y-102274826D01*
X100654341Y-102239338D01*
X100654571Y-102238797D01*
X100667391Y-102208832D01*
X100667395Y-102208823D01*
X100668455Y-102206344D01*
X100668711Y-102205392D01*
X100669032Y-102204554D01*
X100697452Y-102137258D01*
X100697812Y-102136486D01*
X100698309Y-102135674D01*
X100701792Y-102127324D01*
X100713130Y-102100136D01*
X100713349Y-102099614D01*
X100726109Y-102069401D01*
X100726110Y-102069397D01*
X100727133Y-102066976D01*
X100727377Y-102066050D01*
X100727680Y-102065248D01*
X100727775Y-102065022D01*
X100755702Y-101998058D01*
X100756075Y-101997250D01*
X100756599Y-101996385D01*
X100764205Y-101977903D01*
X100808625Y-101922521D01*
X100875937Y-101899946D01*
X100944768Y-101917346D01*
X100993266Y-101969197D01*
X100996964Y-101977234D01*
X101001215Y-101987397D01*
X101001434Y-101987923D01*
X101014938Y-102020623D01*
X101015439Y-102021471D01*
X101015806Y-102022272D01*
X101044055Y-102089793D01*
X101044354Y-102090587D01*
X101044585Y-102091509D01*
X101059756Y-102127324D01*
X101073505Y-102160189D01*
X101073986Y-102160995D01*
X101074343Y-102161765D01*
X101102641Y-102228569D01*
X101102968Y-102229426D01*
X101103217Y-102230398D01*
X101104312Y-102232950D01*
X101104316Y-102232960D01*
X101118415Y-102265815D01*
X101118647Y-102266358D01*
X101131318Y-102296272D01*
X101131329Y-102296296D01*
X101132395Y-102298812D01*
X101132911Y-102299666D01*
X101133301Y-102300497D01*
X101157279Y-102356370D01*
X101159854Y-102362371D01*
X101160243Y-102363376D01*
X101160540Y-102364507D01*
X101161813Y-102367429D01*
X101161815Y-102367434D01*
X101175769Y-102399462D01*
X101176045Y-102400100D01*
X101188040Y-102428049D01*
X101189906Y-102432398D01*
X101190517Y-102433399D01*
X101190979Y-102434371D01*
X101213082Y-102485103D01*
X101213975Y-102487152D01*
X101214502Y-102488488D01*
X101214897Y-102489952D01*
X101216525Y-102493616D01*
X101216533Y-102493637D01*
X101230181Y-102524357D01*
X101230479Y-102525032D01*
X101244353Y-102556878D01*
X101245151Y-102558170D01*
X101245781Y-102559476D01*
X101252373Y-102574312D01*
X101263355Y-102599034D01*
X101264204Y-102601130D01*
X101264806Y-102603271D01*
X101280073Y-102636682D01*
X101280532Y-102637701D01*
X101292320Y-102664238D01*
X101292324Y-102664246D01*
X101294142Y-102668338D01*
X101295315Y-102670207D01*
X101296336Y-102672275D01*
X101306462Y-102694434D01*
X101308256Y-102698686D01*
X101309355Y-102702333D01*
X101317498Y-102719314D01*
X101324067Y-102733012D01*
X101325029Y-102735066D01*
X101337912Y-102763260D01*
X101339967Y-102766459D01*
X101342145Y-102770711D01*
X101343450Y-102773432D01*
X101343746Y-102774049D01*
X101348681Y-102785984D01*
X101348949Y-102786594D01*
X101350560Y-102791191D01*
X101352861Y-102795489D01*
X101357446Y-102804056D01*
X101362358Y-102814463D01*
X101364458Y-102822745D01*
X101369014Y-102830471D01*
X101369015Y-102830473D01*
X101382150Y-102852746D01*
X101380137Y-102853933D01*
X101382105Y-102856271D01*
X101383035Y-102855662D01*
X101389863Y-102866096D01*
X101392967Y-102871089D01*
X101395571Y-102875505D01*
X101398116Y-102880031D01*
X101408806Y-102900003D01*
X101411464Y-102903620D01*
X101412114Y-102904651D01*
X101418162Y-102913817D01*
X101419333Y-102915802D01*
X101419339Y-102915811D01*
X101421813Y-102920006D01*
X101424900Y-102923767D01*
X101424902Y-102923770D01*
X101433912Y-102934747D01*
X101441949Y-102945693D01*
X101447394Y-102954013D01*
X101463498Y-102978623D01*
X101470324Y-102984453D01*
X101470325Y-102984454D01*
X101471770Y-102985688D01*
X101471593Y-102985895D01*
X101473584Y-102988157D01*
X101473787Y-102988433D01*
X101480921Y-102993885D01*
X101482457Y-102995059D01*
X101487763Y-102999348D01*
X101510974Y-103019172D01*
X101514218Y-103022041D01*
X101553712Y-103058194D01*
X101553714Y-103058196D01*
X101560339Y-103064260D01*
X101568128Y-103068088D01*
X101568637Y-103068422D01*
X101575236Y-103074059D01*
X101621886Y-103095025D01*
X101632210Y-103099665D01*
X101636131Y-103101509D01*
X101684164Y-103125115D01*
X101684168Y-103125116D01*
X101692219Y-103129073D01*
X101700766Y-103130560D01*
X101701350Y-103130739D01*
X101709268Y-103134298D01*
X101741862Y-103138821D01*
X101771168Y-103142888D01*
X101775451Y-103143558D01*
X101828143Y-103152728D01*
X101828147Y-103152728D01*
X101836990Y-103154267D01*
X101845609Y-103153296D01*
X101846230Y-103153304D01*
X101854820Y-103154496D01*
X101916628Y-103145370D01*
X101920927Y-103144811D01*
X101974093Y-103138821D01*
X101974094Y-103138821D01*
X101983012Y-103137816D01*
X102018992Y-103122745D01*
X102034743Y-103117341D01*
X102051713Y-103112749D01*
X102056160Y-103110770D01*
X102056697Y-103110579D01*
X102060390Y-103109037D01*
X102062656Y-103108152D01*
X102066938Y-103106823D01*
X102070986Y-103104901D01*
X102070991Y-103104899D01*
X102085297Y-103098106D01*
X102155412Y-103086955D01*
X102210357Y-103107845D01*
X102271925Y-103149853D01*
X102272220Y-103150054D01*
X102272451Y-103150212D01*
X102366711Y-103214833D01*
X102366961Y-103215005D01*
X102382076Y-103225421D01*
X102384229Y-103227010D01*
X102386086Y-103228726D01*
X102390130Y-103231441D01*
X102390133Y-103231444D01*
X102416071Y-103248862D01*
X102417328Y-103249717D01*
X102431988Y-103259820D01*
X102444462Y-103268417D01*
X102446714Y-103269536D01*
X102449034Y-103270996D01*
X102453275Y-103273845D01*
X102457999Y-103277425D01*
X102458116Y-103277268D01*
X102462025Y-103280168D01*
X102465697Y-103283360D01*
X102469812Y-103285946D01*
X102469820Y-103285952D01*
X102491354Y-103299485D01*
X102494546Y-103301559D01*
X102517085Y-103316694D01*
X102521121Y-103318639D01*
X102524788Y-103320740D01*
X102539750Y-103330798D01*
X102540713Y-103331550D01*
X102544554Y-103334552D01*
X102548800Y-103336922D01*
X102548808Y-103336927D01*
X102554874Y-103340312D01*
X102556026Y-103341062D01*
X102557032Y-103342071D01*
X102560544Y-103344002D01*
X102560551Y-103344007D01*
X102570534Y-103349497D01*
X102576860Y-103353220D01*
X102583855Y-103357616D01*
X102583858Y-103357618D01*
X102587660Y-103360007D01*
X102591765Y-103361834D01*
X102594512Y-103363299D01*
X102600524Y-103366772D01*
X102607102Y-103372312D01*
X102615317Y-103375936D01*
X102615319Y-103375937D01*
X102626128Y-103380705D01*
X102636663Y-103385953D01*
X102650823Y-103393855D01*
X102652042Y-103394323D01*
X102655969Y-103396483D01*
X102660545Y-103398145D01*
X102660554Y-103398149D01*
X102685547Y-103407226D01*
X102693388Y-103410374D01*
X102741549Y-103431618D01*
X102750449Y-103432790D01*
X102753084Y-103433137D01*
X102753034Y-103433514D01*
X102754113Y-103433817D01*
X102754183Y-103433282D01*
X102766001Y-103434838D01*
X102766002Y-103434839D01*
X102790569Y-103438074D01*
X102799904Y-103439662D01*
X102831241Y-103446214D01*
X102848301Y-103449781D01*
X102857249Y-103449078D01*
X102864546Y-103449545D01*
X102871029Y-103449715D01*
X102878335Y-103449633D01*
X102887238Y-103450805D01*
X102896109Y-103449432D01*
X102896113Y-103449432D01*
X102936115Y-103443241D01*
X102945516Y-103442146D01*
X102962824Y-103440787D01*
X102985847Y-103438979D01*
X102985849Y-103438978D01*
X102994795Y-103438276D01*
X103003186Y-103435091D01*
X103010309Y-103433493D01*
X103016603Y-103431831D01*
X103023580Y-103429705D01*
X103032456Y-103428331D01*
X103077249Y-103407350D01*
X103085956Y-103403665D01*
X103123777Y-103389306D01*
X103132174Y-103386118D01*
X103173680Y-103354738D01*
X103183842Y-103347810D01*
X103201492Y-103337000D01*
X103205206Y-103333846D01*
X103206387Y-103332991D01*
X103209770Y-103330429D01*
X103209699Y-103330338D01*
X103213229Y-103327578D01*
X103216949Y-103325074D01*
X103233546Y-103310079D01*
X103242026Y-103303066D01*
X103245215Y-103300655D01*
X103249391Y-103297498D01*
X103250521Y-103295978D01*
X103251119Y-103295451D01*
X103254392Y-103293314D01*
X103277287Y-103272711D01*
X103279998Y-103270342D01*
X103297631Y-103255370D01*
X103297636Y-103255365D01*
X103301055Y-103252462D01*
X103304032Y-103249099D01*
X103307222Y-103245974D01*
X103307342Y-103246097D01*
X103311333Y-103242073D01*
X103314767Y-103238983D01*
X103317436Y-103236727D01*
X103320025Y-103234982D01*
X103345853Y-103211027D01*
X103347190Y-103209805D01*
X103371010Y-103188370D01*
X103373006Y-103185979D01*
X103375550Y-103183484D01*
X103394824Y-103165607D01*
X103396562Y-103164100D01*
X103398427Y-103162813D01*
X103401961Y-103159464D01*
X103401968Y-103159458D01*
X103424964Y-103137664D01*
X103425955Y-103136734D01*
X103427253Y-103135531D01*
X103441240Y-103122558D01*
X103447108Y-103117116D01*
X103447112Y-103117112D01*
X103450397Y-103114065D01*
X103451820Y-103112308D01*
X103453487Y-103110629D01*
X103464109Y-103100563D01*
X103477383Y-103087983D01*
X103483602Y-103082089D01*
X103484748Y-103081076D01*
X103486054Y-103080160D01*
X103489092Y-103077237D01*
X103489101Y-103077229D01*
X103513217Y-103054025D01*
X103513736Y-103053528D01*
X103538789Y-103029785D01*
X103538789Y-103029784D01*
X103538808Y-103029804D01*
X103543205Y-103025586D01*
X103543720Y-103025217D01*
X103569819Y-102999574D01*
X103570763Y-102998656D01*
X103591688Y-102978522D01*
X103594913Y-102975419D01*
X103596263Y-102973688D01*
X103597845Y-102972037D01*
X103618479Y-102951763D01*
X103638175Y-102932411D01*
X103641222Y-102929591D01*
X103644066Y-102927477D01*
X103647481Y-102924004D01*
X103647486Y-102924000D01*
X103668228Y-102902909D01*
X103669755Y-102901382D01*
X103688930Y-102882542D01*
X103688936Y-102882536D01*
X103692132Y-102879395D01*
X103694278Y-102876584D01*
X103697207Y-102873441D01*
X103725648Y-102844519D01*
X103729986Y-102840343D01*
X103733583Y-102837542D01*
X103756081Y-102813617D01*
X103758003Y-102811618D01*
X103775690Y-102793633D01*
X103778834Y-102790436D01*
X103781496Y-102786822D01*
X103781603Y-102786696D01*
X103785706Y-102782114D01*
X103799865Y-102767058D01*
X103805111Y-102762098D01*
X103805061Y-102762047D01*
X103808535Y-102758640D01*
X103812263Y-102755510D01*
X103830844Y-102734237D01*
X103833940Y-102730821D01*
X103851128Y-102712543D01*
X103853703Y-102708879D01*
X103856533Y-102705404D01*
X103861000Y-102699711D01*
X103870675Y-102688634D01*
X103876031Y-102682874D01*
X103886481Y-102672319D01*
X103890192Y-102668571D01*
X103893045Y-102664624D01*
X103893051Y-102664617D01*
X103896366Y-102660031D01*
X103903581Y-102650960D01*
X103905507Y-102648755D01*
X103905518Y-102648740D01*
X103908462Y-102645370D01*
X103910901Y-102641612D01*
X103913603Y-102638034D01*
X103913741Y-102638138D01*
X103925632Y-102623190D01*
X103934784Y-102613717D01*
X103941022Y-102607261D01*
X103958332Y-102574312D01*
X103958335Y-102574307D01*
X103962917Y-102565584D01*
X103971386Y-102551717D01*
X103985158Y-102532134D01*
X103990618Y-102516110D01*
X103998337Y-102498157D01*
X104005194Y-102485103D01*
X104009368Y-102477158D01*
X104015718Y-102445700D01*
X104019961Y-102429995D01*
X104023666Y-102419121D01*
X104032553Y-102393040D01*
X104033768Y-102365390D01*
X104035844Y-102347496D01*
X104039319Y-102329133D01*
X104039319Y-102329127D01*
X104040988Y-102320309D01*
X104038241Y-102292221D01*
X104037765Y-102274426D01*
X104038610Y-102255202D01*
X104038610Y-102255201D01*
X104039004Y-102246235D01*
X104032408Y-102219350D01*
X104029379Y-102201599D01*
X104027560Y-102182997D01*
X104027560Y-102182996D01*
X104026686Y-102174061D01*
X104019256Y-102155564D01*
X104013559Y-102141381D01*
X104012706Y-102139042D01*
X104012100Y-102136575D01*
X103999484Y-102106317D01*
X103998897Y-102104881D01*
X103984470Y-102068966D01*
X103983621Y-102066796D01*
X103980096Y-102057528D01*
X103980094Y-102057523D01*
X103978424Y-102053133D01*
X103977377Y-102051295D01*
X103977313Y-102051149D01*
X103975258Y-102046034D01*
X103971912Y-102037704D01*
X103966363Y-102030648D01*
X103963739Y-102026109D01*
X103961064Y-102022215D01*
X103955763Y-102013317D01*
X103954561Y-102011253D01*
X103948943Y-102001393D01*
X103945733Y-101994901D01*
X103945672Y-101994933D01*
X103943436Y-101990614D01*
X103941539Y-101986131D01*
X103926670Y-101962140D01*
X103924310Y-101958168D01*
X103914138Y-101940315D01*
X103914133Y-101940308D01*
X103911919Y-101936422D01*
X103909173Y-101932885D01*
X103906765Y-101929281D01*
X103902540Y-101923203D01*
X103897494Y-101915062D01*
X103894787Y-101910405D01*
X103893058Y-101906544D01*
X103874901Y-101878556D01*
X103873532Y-101876398D01*
X103857583Y-101850662D01*
X103854877Y-101847430D01*
X103851729Y-101842835D01*
X103837075Y-101820247D01*
X103835155Y-101817078D01*
X103833774Y-101814120D01*
X103814236Y-101785016D01*
X103813293Y-101783587D01*
X103795903Y-101756781D01*
X103793763Y-101754330D01*
X103791550Y-101751223D01*
X103769222Y-101717963D01*
X103768202Y-101716325D01*
X103767365Y-101714575D01*
X103749070Y-101687859D01*
X103748958Y-101687682D01*
X103748850Y-101687456D01*
X103744287Y-101680809D01*
X103743622Y-101679830D01*
X103726914Y-101654941D01*
X103725609Y-101653493D01*
X103724463Y-101651926D01*
X103705758Y-101624611D01*
X103705587Y-101624425D01*
X103705465Y-101624260D01*
X103672641Y-101576447D01*
X103650576Y-101508966D01*
X103659136Y-101459335D01*
X103660658Y-101455436D01*
X103670461Y-101430309D01*
X103713856Y-101374118D01*
X103764588Y-101352273D01*
X103784245Y-101348581D01*
X103796655Y-101346251D01*
X103797149Y-101346160D01*
X103937269Y-101320427D01*
X103939574Y-101320084D01*
X103941694Y-101320007D01*
X103946480Y-101319082D01*
X103946483Y-101319082D01*
X103960949Y-101316287D01*
X103977634Y-101313063D01*
X103978875Y-101312830D01*
X103987906Y-101311183D01*
X104011897Y-101306808D01*
X104013982Y-101306111D01*
X104016186Y-101305616D01*
X104037689Y-101301461D01*
X104043722Y-101300465D01*
X104048330Y-101300193D01*
X104080297Y-101293263D01*
X104083085Y-101292691D01*
X104112163Y-101287073D01*
X104116386Y-101285612D01*
X104116831Y-101285493D01*
X104122756Y-101284057D01*
X104131464Y-101282169D01*
X104137562Y-101281232D01*
X104137529Y-101281039D01*
X104142327Y-101280227D01*
X104147178Y-101279787D01*
X104169169Y-101274291D01*
X104176216Y-101272530D01*
X104180068Y-101271631D01*
X104187472Y-101270026D01*
X104206261Y-101265952D01*
X104210468Y-101264389D01*
X104214766Y-101263131D01*
X104214798Y-101263241D01*
X104220698Y-101261413D01*
X104223199Y-101260788D01*
X104233381Y-101258687D01*
X104241890Y-101257295D01*
X104241894Y-101257294D01*
X104246692Y-101256509D01*
X104251316Y-101254994D01*
X104252299Y-101254672D01*
X104263908Y-101251473D01*
X104266154Y-101250968D01*
X104275105Y-101250261D01*
X104283493Y-101247072D01*
X104283501Y-101247070D01*
X104321324Y-101232689D01*
X104335238Y-101228302D01*
X104354572Y-101223417D01*
X104363275Y-101221218D01*
X104371007Y-101216667D01*
X104371012Y-101216665D01*
X104402550Y-101198101D01*
X104410631Y-101193734D01*
X104454582Y-101172019D01*
X104461188Y-101165946D01*
X104468596Y-101160866D01*
X104468630Y-101160916D01*
X104479843Y-101152607D01*
X104482181Y-101151231D01*
X104489913Y-101146680D01*
X104505926Y-101129639D01*
X104520493Y-101116385D01*
X104531874Y-101107552D01*
X104538963Y-101102050D01*
X104544223Y-101094779D01*
X104544225Y-101094777D01*
X104551728Y-101084406D01*
X104556173Y-101078627D01*
X104562762Y-101072570D01*
X104567401Y-101064882D01*
X104568797Y-101063174D01*
X104574540Y-101056624D01*
X104584391Y-101046141D01*
X104584395Y-101046136D01*
X104590542Y-101039594D01*
X104601130Y-101018743D01*
X104611386Y-101001941D01*
X104619834Y-100990263D01*
X104619835Y-100990262D01*
X104625093Y-100982993D01*
X104636348Y-100951356D01*
X104638113Y-100947697D01*
X104638682Y-100946754D01*
X104638820Y-100946231D01*
X104640862Y-100941998D01*
X104640382Y-100941787D01*
X104641547Y-100939141D01*
X104641661Y-100938917D01*
X104641704Y-100938784D01*
X104644002Y-100933567D01*
X104648747Y-100925949D01*
X104659895Y-100886069D01*
X104662529Y-100877763D01*
X104671338Y-100853001D01*
X104674346Y-100844546D01*
X104674860Y-100835585D01*
X104676179Y-100829062D01*
X104677511Y-100823523D01*
X104677833Y-100821896D01*
X104679144Y-100817205D01*
X104681696Y-100795702D01*
X104682701Y-100788849D01*
X104684184Y-100780371D01*
X104692455Y-100733075D01*
X104691457Y-100724151D01*
X104691734Y-100715180D01*
X104692987Y-100715219D01*
X104692551Y-100704222D01*
X104694753Y-100685663D01*
X104694542Y-100676943D01*
X104694759Y-100665926D01*
X104695492Y-100654387D01*
X104696048Y-100648121D01*
X104696322Y-100645722D01*
X104697245Y-100640941D01*
X104698384Y-100609593D01*
X104698550Y-100606276D01*
X104700336Y-100578165D01*
X104699983Y-100573702D01*
X104699953Y-100569731D01*
X104700032Y-100564194D01*
X104700812Y-100542716D01*
X104701101Y-100538348D01*
X104701733Y-100534727D01*
X104701945Y-100523240D01*
X104702366Y-100500464D01*
X104702428Y-100498219D01*
X104703395Y-100471587D01*
X104703558Y-100467104D01*
X104703170Y-100463458D01*
X104703134Y-100458924D01*
X104703756Y-100425272D01*
X104703920Y-100421982D01*
X104704389Y-100419051D01*
X104704538Y-100383556D01*
X104704558Y-100381804D01*
X104704594Y-100379898D01*
X104705154Y-100349587D01*
X104704788Y-100346645D01*
X104704707Y-100343292D01*
X104704869Y-100304755D01*
X104704981Y-100301653D01*
X104705392Y-100298832D01*
X104705054Y-100263182D01*
X104705049Y-100261530D01*
X104705055Y-100260237D01*
X104705186Y-100229059D01*
X104704795Y-100226244D01*
X104704673Y-100223058D01*
X104704322Y-100186096D01*
X104704400Y-100182432D01*
X104704817Y-100179230D01*
X104703940Y-100144221D01*
X104703906Y-100142261D01*
X104703647Y-100114916D01*
X104703646Y-100114910D01*
X104703604Y-100110428D01*
X104703117Y-100107241D01*
X104702922Y-100103550D01*
X104702196Y-100074611D01*
X104702213Y-100069005D01*
X104702683Y-100064676D01*
X104702458Y-100059817D01*
X104702458Y-100059802D01*
X104701147Y-100031564D01*
X104701050Y-100028874D01*
X104700665Y-100013470D01*
X104700299Y-99998861D01*
X104699578Y-99994590D01*
X104699161Y-99988755D01*
X104698457Y-99973577D01*
X104698547Y-99966374D01*
X104698474Y-99966374D01*
X104698446Y-99961507D01*
X104698793Y-99956651D01*
X104697592Y-99942218D01*
X104696452Y-99928510D01*
X104696153Y-99923905D01*
X104695783Y-99915937D01*
X104694988Y-99898802D01*
X104694148Y-99894403D01*
X104693623Y-99889951D01*
X104693625Y-99889951D01*
X104692648Y-99882805D01*
X104692421Y-99880073D01*
X104691516Y-99869195D01*
X104691108Y-99861295D01*
X104691106Y-99861158D01*
X104690860Y-99848931D01*
X104690805Y-99846183D01*
X104690805Y-99846178D01*
X104690707Y-99841326D01*
X104688850Y-99830797D01*
X104687370Y-99819375D01*
X104686742Y-99811824D01*
X104685178Y-99804999D01*
X104685116Y-99804727D01*
X104682034Y-99781644D01*
X104681365Y-99765001D01*
X104681365Y-99764999D01*
X104681004Y-99756029D01*
X104678141Y-99747523D01*
X104678140Y-99747519D01*
X104659772Y-99692954D01*
X104656428Y-99681148D01*
X104652284Y-99663232D01*
X104650262Y-99654488D01*
X104645865Y-99646660D01*
X104642625Y-99638295D01*
X104642785Y-99638233D01*
X104638877Y-99629346D01*
X104638748Y-99628953D01*
X104638748Y-99628952D01*
X104635949Y-99620416D01*
X104616300Y-99591776D01*
X104608392Y-99578589D01*
X104607283Y-99576455D01*
X104605217Y-99572478D01*
X104602607Y-99568834D01*
X104600263Y-99565012D01*
X104600354Y-99564956D01*
X104597113Y-99559862D01*
X104578300Y-99526368D01*
X104565820Y-99514156D01*
X104551499Y-99497456D01*
X104546556Y-99490553D01*
X104546555Y-99490552D01*
X104541330Y-99483255D01*
X104511098Y-99459553D01*
X104500732Y-99450466D01*
X104473271Y-99423596D01*
X104463465Y-99418365D01*
X104457864Y-99415377D01*
X104439424Y-99403362D01*
X104432752Y-99398131D01*
X104425687Y-99392592D01*
X104417352Y-99389259D01*
X104417349Y-99389257D01*
X104390027Y-99378331D01*
X104379057Y-99373231D01*
X104377947Y-99372745D01*
X104373647Y-99370451D01*
X104369048Y-99368847D01*
X104369046Y-99368846D01*
X104350281Y-99362301D01*
X104345019Y-99360332D01*
X104289245Y-99338029D01*
X104280310Y-99337169D01*
X104278225Y-99336663D01*
X104272278Y-99335797D01*
X104256423Y-99332693D01*
X104250168Y-99331301D01*
X104249703Y-99331185D01*
X104243553Y-99329485D01*
X104241894Y-99328981D01*
X104237358Y-99327209D01*
X104206519Y-99320380D01*
X104203295Y-99319621D01*
X104180075Y-99313835D01*
X104180072Y-99313834D01*
X104175724Y-99312751D01*
X104171268Y-99312295D01*
X104168093Y-99311740D01*
X104162541Y-99310641D01*
X104155499Y-99309081D01*
X104152321Y-99308271D01*
X104149529Y-99307227D01*
X104144775Y-99306246D01*
X104144770Y-99306244D01*
X104114923Y-99300082D01*
X104113157Y-99299705D01*
X104085995Y-99293690D01*
X104081615Y-99292720D01*
X104078652Y-99292496D01*
X104075337Y-99291909D01*
X104061051Y-99288959D01*
X104047820Y-99286227D01*
X104045634Y-99285699D01*
X104043549Y-99284944D01*
X104038773Y-99284010D01*
X104038768Y-99284009D01*
X104007616Y-99277920D01*
X104006463Y-99277688D01*
X103973571Y-99270897D01*
X103971354Y-99270760D01*
X103969102Y-99270391D01*
X103927580Y-99262274D01*
X103926198Y-99261953D01*
X103924756Y-99261443D01*
X103887708Y-99254477D01*
X103886820Y-99254307D01*
X103852952Y-99247686D01*
X103851544Y-99247614D01*
X103850608Y-99247470D01*
X103825842Y-99242841D01*
X103822314Y-99242181D01*
X103822180Y-99242156D01*
X103786503Y-99235447D01*
X103786277Y-99235437D01*
X103786091Y-99235409D01*
X103757010Y-99229973D01*
X103736102Y-99226065D01*
X103672818Y-99193887D01*
X103636975Y-99132602D01*
X103639956Y-99061668D01*
X103654989Y-99031467D01*
X103655149Y-99031231D01*
X103667503Y-99013025D01*
X103682137Y-98991715D01*
X103682450Y-98991294D01*
X103682876Y-98990840D01*
X103704917Y-98958545D01*
X103705098Y-98958282D01*
X103724414Y-98930155D01*
X103724417Y-98930151D01*
X103725413Y-98928700D01*
X103725689Y-98928141D01*
X103725978Y-98927686D01*
X103752460Y-98888883D01*
X103753735Y-98887144D01*
X103755182Y-98885569D01*
X103775559Y-98855049D01*
X103776236Y-98854047D01*
X103792688Y-98829941D01*
X103792689Y-98829939D01*
X103795213Y-98826241D01*
X103796155Y-98824322D01*
X103797327Y-98822446D01*
X103817090Y-98792846D01*
X103818693Y-98790605D01*
X103820430Y-98788667D01*
X103840036Y-98758496D01*
X103840898Y-98757187D01*
X103842395Y-98754944D01*
X103859150Y-98729850D01*
X103860269Y-98727513D01*
X103861737Y-98725101D01*
X103871642Y-98709859D01*
X103874428Y-98705831D01*
X103877022Y-98702822D01*
X103894927Y-98674065D01*
X103896173Y-98672108D01*
X103910444Y-98650149D01*
X103910448Y-98650141D01*
X103912888Y-98646387D01*
X103914137Y-98643692D01*
X103921717Y-98632259D01*
X103921685Y-98632238D01*
X103924391Y-98628183D01*
X103927395Y-98624359D01*
X103931597Y-98616870D01*
X103932791Y-98615037D01*
X103934366Y-98613464D01*
X103945217Y-98593665D01*
X103948745Y-98587633D01*
X103949443Y-98586512D01*
X103951450Y-98583761D01*
X103955600Y-98577163D01*
X103961410Y-98570317D01*
X103973281Y-98543678D01*
X103978490Y-98533301D01*
X103982994Y-98525275D01*
X103985186Y-98521369D01*
X103985871Y-98519600D01*
X103986104Y-98519141D01*
X103986296Y-98518716D01*
X103988635Y-98514448D01*
X103992185Y-98504630D01*
X103997099Y-98491040D01*
X104000500Y-98482599D01*
X104009403Y-98462620D01*
X104021223Y-98436095D01*
X104022851Y-98424081D01*
X104022879Y-98423928D01*
X104024777Y-98419023D01*
X104026583Y-98397733D01*
X104027271Y-98391478D01*
X104028085Y-98385466D01*
X104029573Y-98376778D01*
X104039967Y-98326707D01*
X104039251Y-98317757D01*
X104039811Y-98308795D01*
X104039961Y-98308804D01*
X104039973Y-98308351D01*
X104039823Y-98308352D01*
X104039756Y-98299372D01*
X104040961Y-98290480D01*
X104036088Y-98258182D01*
X104033335Y-98239936D01*
X104032326Y-98231187D01*
X104028965Y-98189180D01*
X104028249Y-98180230D01*
X104025049Y-98171839D01*
X104023074Y-98163091D01*
X104023219Y-98163058D01*
X104023100Y-98162604D01*
X104022958Y-98162647D01*
X104020376Y-98154057D01*
X104019036Y-98145178D01*
X104015258Y-98137033D01*
X104015257Y-98137028D01*
X103997523Y-98098789D01*
X103994098Y-98090672D01*
X103979090Y-98051315D01*
X103979089Y-98051313D01*
X103975891Y-98042927D01*
X103970465Y-98035771D01*
X103944385Y-98001378D01*
X103937922Y-97992005D01*
X103926948Y-97974439D01*
X103924371Y-97970314D01*
X103921189Y-97966634D01*
X103920959Y-97966322D01*
X103918484Y-97963301D01*
X103916338Y-97960086D01*
X103913344Y-97956747D01*
X103913338Y-97956739D01*
X103898619Y-97940323D01*
X103892047Y-97932359D01*
X103887102Y-97925839D01*
X103884962Y-97924254D01*
X103884089Y-97923276D01*
X103882774Y-97921604D01*
X103880072Y-97917562D01*
X103867818Y-97904240D01*
X103859698Y-97895412D01*
X103857119Y-97892520D01*
X103842385Y-97875478D01*
X103842380Y-97875473D01*
X103839457Y-97872092D01*
X103836083Y-97869159D01*
X103832907Y-97865974D01*
X103832995Y-97865886D01*
X103828643Y-97861654D01*
X103826920Y-97859781D01*
X103824665Y-97857170D01*
X103822914Y-97854633D01*
X103798648Y-97829026D01*
X103797377Y-97827664D01*
X103778724Y-97807386D01*
X103778717Y-97807379D01*
X103775681Y-97804079D01*
X103773300Y-97802135D01*
X103770814Y-97799655D01*
X103756615Y-97784672D01*
X103755278Y-97783161D01*
X103754118Y-97781514D01*
X103750739Y-97778016D01*
X103750734Y-97778010D01*
X103728378Y-97754866D01*
X103727545Y-97753995D01*
X103707498Y-97732840D01*
X103707494Y-97732836D01*
X103704411Y-97729583D01*
X103702836Y-97728335D01*
X103701378Y-97726916D01*
X103679059Y-97703810D01*
X103678037Y-97702676D01*
X103677118Y-97701391D01*
X103650771Y-97674522D01*
X103650272Y-97674009D01*
X103626236Y-97649126D01*
X103624974Y-97648146D01*
X103623883Y-97647102D01*
X103597647Y-97620346D01*
X103596715Y-97619327D01*
X103595827Y-97618104D01*
X103569151Y-97591283D01*
X103568562Y-97590685D01*
X103547168Y-97568868D01*
X103544408Y-97566053D01*
X103543220Y-97565144D01*
X103542175Y-97564159D01*
X103516344Y-97538185D01*
X103515249Y-97537005D01*
X103514265Y-97535673D01*
X103511170Y-97532610D01*
X103511150Y-97532588D01*
X103487661Y-97509339D01*
X103486962Y-97508642D01*
X103465779Y-97487343D01*
X103465759Y-97487324D01*
X103462743Y-97484292D01*
X103461422Y-97483297D01*
X103460227Y-97482187D01*
X103439096Y-97461271D01*
X103437557Y-97459642D01*
X103436231Y-97457885D01*
X103432436Y-97454206D01*
X103409915Y-97432378D01*
X103409066Y-97431547D01*
X103385202Y-97407927D01*
X103383439Y-97406620D01*
X103381756Y-97405085D01*
X103369808Y-97393504D01*
X103366864Y-97390474D01*
X103364657Y-97387654D01*
X103355092Y-97378700D01*
X103339524Y-97364126D01*
X103337941Y-97362618D01*
X103318704Y-97343973D01*
X103315481Y-97340849D01*
X103313631Y-97339507D01*
X103304800Y-97330723D01*
X103304660Y-97330862D01*
X103301227Y-97327402D01*
X103298076Y-97323692D01*
X103294284Y-97320418D01*
X103288597Y-97315509D01*
X103287676Y-97314597D01*
X103286945Y-97313481D01*
X103271937Y-97300675D01*
X103267628Y-97296823D01*
X103259570Y-97289279D01*
X103256296Y-97286214D01*
X103252624Y-97283647D01*
X103249824Y-97281376D01*
X103244450Y-97277220D01*
X103228211Y-97263364D01*
X103219294Y-97254973D01*
X103213278Y-97248734D01*
X103204811Y-97239952D01*
X103159252Y-97213919D01*
X103153840Y-97210641D01*
X103112997Y-97184466D01*
X103104381Y-97181938D01*
X103104206Y-97181858D01*
X103093963Y-97176611D01*
X103077225Y-97167046D01*
X103060295Y-97162999D01*
X103039407Y-97156025D01*
X103031677Y-97152668D01*
X103031675Y-97152667D01*
X103023444Y-97149093D01*
X103014544Y-97147973D01*
X103014541Y-97147972D01*
X102985276Y-97144289D01*
X102971718Y-97141823D01*
X102934306Y-97132879D01*
X102925347Y-97133326D01*
X102925340Y-97133325D01*
X102916930Y-97133745D01*
X102894914Y-97132915D01*
X102886557Y-97131863D01*
X102886556Y-97131863D01*
X102877649Y-97130742D01*
X102839660Y-97136845D01*
X102825961Y-97138282D01*
X102787542Y-97140198D01*
X102771347Y-97145823D01*
X102771103Y-97145908D01*
X102749749Y-97151288D01*
X102732562Y-97154049D01*
X102709371Y-97165074D01*
X102697818Y-97170566D01*
X102686448Y-97175227D01*
X102685481Y-97175649D01*
X102680881Y-97177247D01*
X102659069Y-97188847D01*
X102654030Y-97191383D01*
X102636737Y-97199603D01*
X102634903Y-97200431D01*
X102634220Y-97200788D01*
X102630769Y-97202263D01*
X102629739Y-97202703D01*
X102629551Y-97202263D01*
X102627753Y-97202619D01*
X102628240Y-97203643D01*
X102599849Y-97217140D01*
X102593148Y-97223116D01*
X102588936Y-97225912D01*
X102576632Y-97234573D01*
X102576903Y-97234990D01*
X102576902Y-97234990D01*
X102547956Y-97253773D01*
X102546188Y-97254899D01*
X102523408Y-97269129D01*
X102523403Y-97269132D01*
X102519602Y-97271507D01*
X102516889Y-97273795D01*
X102513345Y-97276234D01*
X102509315Y-97278848D01*
X102507763Y-97279782D01*
X102506059Y-97280563D01*
X102475016Y-97301101D01*
X102474354Y-97301535D01*
X102445638Y-97320169D01*
X102444233Y-97321396D01*
X102442705Y-97322477D01*
X102421221Y-97336691D01*
X102420162Y-97337339D01*
X102418962Y-97337898D01*
X102415995Y-97339888D01*
X102415988Y-97339892D01*
X102387369Y-97359084D01*
X102386777Y-97359479D01*
X102357724Y-97378700D01*
X102356733Y-97379581D01*
X102355720Y-97380309D01*
X102321180Y-97403472D01*
X102320431Y-97403936D01*
X102319545Y-97404354D01*
X102292918Y-97422389D01*
X102287660Y-97425950D01*
X102287179Y-97426274D01*
X102260066Y-97444456D01*
X102260057Y-97444462D01*
X102257827Y-97445958D01*
X102257100Y-97446612D01*
X102256378Y-97447137D01*
X102245942Y-97454206D01*
X102245640Y-97454394D01*
X102245288Y-97454561D01*
X102244352Y-97455198D01*
X102244348Y-97455200D01*
X102242701Y-97456320D01*
X102212541Y-97476829D01*
X102182525Y-97497159D01*
X102182236Y-97497422D01*
X102181965Y-97497620D01*
X102142089Y-97524736D01*
X102074511Y-97546501D01*
X102005893Y-97528276D01*
X101958022Y-97475846D01*
X101947418Y-97443887D01*
X101938219Y-97395092D01*
X101938219Y-97395091D01*
X101936390Y-97385389D01*
X101859039Y-96975086D01*
X101856860Y-96950975D01*
X101856934Y-96938969D01*
X101844706Y-96896184D01*
X101842040Y-96884915D01*
X101841581Y-96882480D01*
X101841581Y-96882478D01*
X101840750Y-96878073D01*
X101839304Y-96873832D01*
X101839302Y-96873824D01*
X101834225Y-96858932D01*
X101832336Y-96852901D01*
X101819838Y-96809174D01*
X101816553Y-96797680D01*
X101811763Y-96790088D01*
X101810100Y-96786370D01*
X101808237Y-96782710D01*
X101805338Y-96774207D01*
X101800174Y-96766866D01*
X101800172Y-96766863D01*
X101772292Y-96727234D01*
X101768783Y-96721970D01*
X101742930Y-96680995D01*
X101738140Y-96673403D01*
X101731412Y-96667461D01*
X101728754Y-96664338D01*
X101725951Y-96661361D01*
X101720788Y-96654022D01*
X101675878Y-96618205D01*
X101671071Y-96614170D01*
X101627999Y-96576129D01*
X101619868Y-96572311D01*
X101616454Y-96570069D01*
X101612925Y-96567997D01*
X101605904Y-96562397D01*
X101552749Y-96540624D01*
X101546961Y-96538081D01*
X101503108Y-96517492D01*
X101503104Y-96517491D01*
X101494983Y-96513678D01*
X101486120Y-96512298D01*
X101482212Y-96511103D01*
X101478229Y-96510101D01*
X101469923Y-96506699D01*
X101412795Y-96500721D01*
X101406549Y-96499909D01*
X101392237Y-96497681D01*
X101388226Y-96497056D01*
X101388224Y-96497056D01*
X101383415Y-96496307D01*
X101377187Y-96496307D01*
X101364074Y-96495623D01*
X101332701Y-96492340D01*
X101332700Y-96492340D01*
X101323774Y-96491406D01*
X101314943Y-96493015D01*
X101314942Y-96493015D01*
X101308077Y-96494266D01*
X101285492Y-96496307D01*
X100479898Y-96496307D01*
X100455799Y-96493981D01*
X100452820Y-96493400D01*
X100452817Y-96493400D01*
X100444011Y-96491684D01*
X100399706Y-96495774D01*
X100388124Y-96496307D01*
X100381172Y-96496307D01*
X100376742Y-96496941D01*
X100376735Y-96496942D01*
X100361168Y-96499172D01*
X100354886Y-96499912D01*
X100349675Y-96500393D01*
X100297687Y-96505192D01*
X100297541Y-96503610D01*
X100236719Y-96500485D01*
X100179041Y-96459088D01*
X100152901Y-96393079D01*
X100166597Y-96323416D01*
X100176051Y-96308044D01*
X100177202Y-96306443D01*
X100223453Y-96242077D01*
X100227611Y-96233665D01*
X100320136Y-96046453D01*
X100320137Y-96046451D01*
X100322430Y-96041811D01*
X100368594Y-95889868D01*
X100385865Y-95833023D01*
X100385865Y-95833021D01*
X100387370Y-95828069D01*
X100416529Y-95606590D01*
X100418156Y-95540000D01*
X100399852Y-95317361D01*
X100345431Y-95100702D01*
X100256354Y-94895840D01*
X100180120Y-94778000D01*
X100137822Y-94712617D01*
X100137820Y-94712614D01*
X100135014Y-94708277D01*
X100131540Y-94704459D01*
X100131533Y-94704450D01*
X99987435Y-94546088D01*
X99956383Y-94482242D01*
X99964779Y-94411744D01*
X100009956Y-94356976D01*
X100036400Y-94343307D01*
X100143052Y-94303325D01*
X100158649Y-94294786D01*
X100260724Y-94218285D01*
X100273285Y-94205724D01*
X100349786Y-94103649D01*
X100358324Y-94088054D01*
X100403478Y-93967606D01*
X100407105Y-93952351D01*
X100412631Y-93901486D01*
X100413000Y-93894672D01*
X100413000Y-93272115D01*
X100408525Y-93256876D01*
X100407135Y-93255671D01*
X100399452Y-93254000D01*
X97715116Y-93254000D01*
X97699877Y-93258475D01*
X97698672Y-93259865D01*
X97697001Y-93267548D01*
X97697001Y-93894669D01*
X97697371Y-93901490D01*
X97702895Y-93952352D01*
X97706521Y-93967604D01*
X97751676Y-94088054D01*
X97760214Y-94103649D01*
X97836715Y-94205724D01*
X97849276Y-94218285D01*
X97951351Y-94294786D01*
X97966946Y-94303324D01*
X98075827Y-94344142D01*
X98132591Y-94386784D01*
X98157291Y-94453345D01*
X98142083Y-94522694D01*
X98122691Y-94549175D01*
X98065928Y-94608574D01*
X97995629Y-94682138D01*
X97992715Y-94686410D01*
X97992714Y-94686411D01*
X97880095Y-94851504D01*
X97825184Y-94896507D01*
X97776007Y-94906500D01*
X96396767Y-94906500D01*
X96385584Y-94905973D01*
X96378091Y-94904298D01*
X96370165Y-94904547D01*
X96370164Y-94904547D01*
X96310001Y-94906438D01*
X96306043Y-94906500D01*
X96278144Y-94906500D01*
X96274154Y-94907004D01*
X96262320Y-94907936D01*
X96218111Y-94909326D01*
X96210497Y-94911538D01*
X96210492Y-94911539D01*
X96198659Y-94914977D01*
X96179296Y-94918988D01*
X96159203Y-94921526D01*
X96151836Y-94924443D01*
X96151831Y-94924444D01*
X96118092Y-94937802D01*
X96106865Y-94941646D01*
X96064407Y-94953982D01*
X96057581Y-94958019D01*
X96046972Y-94964293D01*
X96029224Y-94972988D01*
X96010383Y-94980448D01*
X96003967Y-94985110D01*
X96003966Y-94985110D01*
X95974613Y-95006436D01*
X95964693Y-95012952D01*
X95933465Y-95031420D01*
X95933462Y-95031422D01*
X95926638Y-95035458D01*
X95912317Y-95049779D01*
X95897284Y-95062619D01*
X95880893Y-95074528D01*
X95875842Y-95080633D01*
X95873014Y-95083289D01*
X95809663Y-95115338D01*
X95757350Y-95113955D01*
X95543524Y-95062620D01*
X95543518Y-95062619D01*
X95538711Y-95061465D01*
X95302000Y-95042835D01*
X95065289Y-95061465D01*
X95060482Y-95062619D01*
X95060476Y-95062620D01*
X94921632Y-95095954D01*
X94834406Y-95116895D01*
X94829835Y-95118788D01*
X94829833Y-95118789D01*
X94619611Y-95205865D01*
X94619607Y-95205867D01*
X94615037Y-95207760D01*
X94610817Y-95210346D01*
X94416798Y-95329241D01*
X94416792Y-95329245D01*
X94412584Y-95331824D01*
X94232031Y-95486031D01*
X94077824Y-95666584D01*
X94075245Y-95670792D01*
X94075241Y-95670798D01*
X93957867Y-95862335D01*
X93905219Y-95909966D01*
X93850434Y-95922500D01*
X90253566Y-95922500D01*
X90185445Y-95902498D01*
X90146133Y-95862335D01*
X90028759Y-95670798D01*
X90028755Y-95670792D01*
X90026176Y-95666584D01*
X89871969Y-95486031D01*
X89691416Y-95331824D01*
X89687208Y-95329245D01*
X89687202Y-95329241D01*
X89493183Y-95210346D01*
X89488963Y-95207760D01*
X89484393Y-95205867D01*
X89484389Y-95205865D01*
X89274167Y-95118789D01*
X89274165Y-95118788D01*
X89269594Y-95116895D01*
X89182368Y-95095954D01*
X89043524Y-95062620D01*
X89043518Y-95062619D01*
X89038711Y-95061465D01*
X88802000Y-95042835D01*
X88565289Y-95061465D01*
X88560482Y-95062619D01*
X88560476Y-95062620D01*
X88421632Y-95095954D01*
X88334406Y-95116895D01*
X88329835Y-95118788D01*
X88329833Y-95118789D01*
X88119611Y-95205865D01*
X88119607Y-95205867D01*
X88115037Y-95207760D01*
X88110817Y-95210346D01*
X87916798Y-95329241D01*
X87916792Y-95329245D01*
X87912584Y-95331824D01*
X87732031Y-95486031D01*
X87577824Y-95666584D01*
X87575245Y-95670792D01*
X87575241Y-95670798D01*
X87469559Y-95843255D01*
X87453760Y-95869037D01*
X87451867Y-95873607D01*
X87451865Y-95873611D01*
X87375813Y-96057218D01*
X87362895Y-96088406D01*
X87361740Y-96093218D01*
X87308966Y-96313038D01*
X87307465Y-96319289D01*
X87288835Y-96556000D01*
X87307465Y-96792711D01*
X87335908Y-96911186D01*
X87361060Y-97015951D01*
X87357513Y-97086859D01*
X87327636Y-97134460D01*
X86549700Y-97912395D01*
X85782500Y-98679595D01*
X85720188Y-98713621D01*
X85693405Y-98716500D01*
X80249595Y-98716500D01*
X80181474Y-98696498D01*
X80160500Y-98679595D01*
X77697657Y-96216752D01*
X77664233Y-96157071D01*
X77645661Y-96079715D01*
X77639105Y-96052406D01*
X77636639Y-96046453D01*
X77550135Y-95837611D01*
X77550133Y-95837607D01*
X77548240Y-95833037D01*
X77454466Y-95680012D01*
X77426759Y-95634798D01*
X77426755Y-95634792D01*
X77424176Y-95630584D01*
X77269969Y-95450031D01*
X77089416Y-95295824D01*
X77085208Y-95293245D01*
X77085202Y-95293241D01*
X76891183Y-95174346D01*
X76886963Y-95171760D01*
X76882393Y-95169867D01*
X76882389Y-95169865D01*
X76672167Y-95082789D01*
X76672165Y-95082788D01*
X76667594Y-95080895D01*
X76567202Y-95056793D01*
X76441524Y-95026620D01*
X76441518Y-95026619D01*
X76436711Y-95025465D01*
X76200000Y-95006835D01*
X75963289Y-95025465D01*
X75958482Y-95026619D01*
X75958476Y-95026620D01*
X75832798Y-95056793D01*
X75732406Y-95080895D01*
X75727835Y-95082788D01*
X75727833Y-95082789D01*
X75517611Y-95169865D01*
X75517607Y-95169867D01*
X75513037Y-95171760D01*
X75508817Y-95174346D01*
X75314798Y-95293241D01*
X75314792Y-95293245D01*
X75310584Y-95295824D01*
X75130031Y-95450031D01*
X74975824Y-95630584D01*
X74973245Y-95634792D01*
X74973241Y-95634798D01*
X74855867Y-95826335D01*
X74803219Y-95873966D01*
X74748434Y-95886500D01*
X71151566Y-95886500D01*
X71083445Y-95866498D01*
X71044133Y-95826335D01*
X70926759Y-95634798D01*
X70926755Y-95634792D01*
X70924176Y-95630584D01*
X70769969Y-95450031D01*
X70589416Y-95295824D01*
X70585208Y-95293245D01*
X70585202Y-95293241D01*
X70391183Y-95174346D01*
X70386963Y-95171760D01*
X70382393Y-95169867D01*
X70382389Y-95169865D01*
X70172167Y-95082789D01*
X70172165Y-95082788D01*
X70167594Y-95080895D01*
X70067202Y-95056793D01*
X69941524Y-95026620D01*
X69941518Y-95026619D01*
X69936711Y-95025465D01*
X69700000Y-95006835D01*
X69463289Y-95025465D01*
X69458482Y-95026619D01*
X69458476Y-95026620D01*
X69332798Y-95056793D01*
X69232406Y-95080895D01*
X69227835Y-95082788D01*
X69227833Y-95082789D01*
X69017611Y-95169865D01*
X69017607Y-95169867D01*
X69013037Y-95171760D01*
X69008817Y-95174346D01*
X68814798Y-95293241D01*
X68814792Y-95293245D01*
X68810584Y-95295824D01*
X68630031Y-95450031D01*
X68475824Y-95630584D01*
X68473245Y-95634792D01*
X68473241Y-95634798D01*
X68445534Y-95680012D01*
X68351760Y-95833037D01*
X68349867Y-95837607D01*
X68349865Y-95837611D01*
X68263361Y-96046453D01*
X68260895Y-96052406D01*
X68254339Y-96079715D01*
X68235767Y-96157071D01*
X68202343Y-96216752D01*
X65739500Y-98679595D01*
X65677188Y-98713621D01*
X65650405Y-98716500D01*
X60219595Y-98716500D01*
X60151474Y-98696498D01*
X60130500Y-98679595D01*
X58549364Y-97098459D01*
X58515338Y-97036147D01*
X58515940Y-96979950D01*
X58519977Y-96963137D01*
X58536679Y-96893567D01*
X58568380Y-96761524D01*
X58568381Y-96761518D01*
X58569535Y-96756711D01*
X58588165Y-96520000D01*
X58569535Y-96283289D01*
X58561257Y-96248806D01*
X58520661Y-96079715D01*
X58514105Y-96052406D01*
X58511639Y-96046453D01*
X58425135Y-95837611D01*
X58425133Y-95837607D01*
X58423240Y-95833037D01*
X58329466Y-95680012D01*
X58301759Y-95634798D01*
X58301755Y-95634792D01*
X58299176Y-95630584D01*
X58144969Y-95450031D01*
X57964416Y-95295824D01*
X57960208Y-95293245D01*
X57960202Y-95293241D01*
X57766183Y-95174346D01*
X57761963Y-95171760D01*
X57757393Y-95169867D01*
X57757389Y-95169865D01*
X57547167Y-95082789D01*
X57547165Y-95082788D01*
X57542594Y-95080895D01*
X57442202Y-95056793D01*
X57316524Y-95026620D01*
X57316518Y-95026619D01*
X57311711Y-95025465D01*
X57075000Y-95006835D01*
X56838289Y-95025465D01*
X56833482Y-95026619D01*
X56833476Y-95026620D01*
X56707798Y-95056793D01*
X56607406Y-95080895D01*
X56602835Y-95082788D01*
X56602833Y-95082789D01*
X56392611Y-95169865D01*
X56392607Y-95169867D01*
X56388037Y-95171760D01*
X56383817Y-95174346D01*
X56189798Y-95293241D01*
X56189792Y-95293245D01*
X56185584Y-95295824D01*
X56005031Y-95450031D01*
X55850824Y-95630584D01*
X55848245Y-95634792D01*
X55848241Y-95634798D01*
X55730867Y-95826335D01*
X55678219Y-95873966D01*
X55623434Y-95886500D01*
X52026566Y-95886500D01*
X51958445Y-95866498D01*
X51919133Y-95826335D01*
X51801759Y-95634798D01*
X51801755Y-95634792D01*
X51799176Y-95630584D01*
X51644969Y-95450031D01*
X51464416Y-95295824D01*
X51460208Y-95293245D01*
X51460202Y-95293241D01*
X51266183Y-95174346D01*
X51261963Y-95171760D01*
X51257393Y-95169867D01*
X51257389Y-95169865D01*
X51047167Y-95082789D01*
X51047165Y-95082788D01*
X51042594Y-95080895D01*
X50942202Y-95056793D01*
X50816524Y-95026620D01*
X50816518Y-95026619D01*
X50811711Y-95025465D01*
X50575000Y-95006835D01*
X50338289Y-95025465D01*
X50333482Y-95026619D01*
X50333476Y-95026620D01*
X50189954Y-95061077D01*
X50113088Y-95079531D01*
X50042180Y-95075984D01*
X49997422Y-95048863D01*
X49976101Y-95028841D01*
X49976097Y-95028838D01*
X49970321Y-95023414D01*
X49963375Y-95019595D01*
X49963372Y-95019593D01*
X49952566Y-95013652D01*
X49936047Y-95002801D01*
X49935583Y-95002441D01*
X49920041Y-94990386D01*
X49912772Y-94987241D01*
X49912768Y-94987238D01*
X49879463Y-94972826D01*
X49868813Y-94967609D01*
X49830060Y-94946305D01*
X49810437Y-94941267D01*
X49791734Y-94934863D01*
X49780420Y-94929967D01*
X49780419Y-94929967D01*
X49773145Y-94926819D01*
X49765322Y-94925580D01*
X49765312Y-94925577D01*
X49729476Y-94919901D01*
X49717856Y-94917495D01*
X49682711Y-94908472D01*
X49682710Y-94908472D01*
X49675030Y-94906500D01*
X49654776Y-94906500D01*
X49635065Y-94904949D01*
X49622886Y-94903020D01*
X49615057Y-94901780D01*
X49585786Y-94904547D01*
X49571039Y-94905941D01*
X49559181Y-94906500D01*
X48399500Y-94906500D01*
X48331379Y-94886498D01*
X48284886Y-94832842D01*
X48273500Y-94780500D01*
X48273500Y-94641866D01*
X48266745Y-94579684D01*
X48215615Y-94443295D01*
X48137939Y-94339652D01*
X59908524Y-94339652D01*
X59948512Y-94479565D01*
X60026160Y-94602631D01*
X60032888Y-94608573D01*
X60032889Y-94608574D01*
X60080694Y-94650793D01*
X60135228Y-94698956D01*
X60266948Y-94760799D01*
X60275810Y-94762179D01*
X60275814Y-94762180D01*
X60349981Y-94773727D01*
X60377423Y-94778000D01*
X60702257Y-94778000D01*
X60770378Y-94798002D01*
X60816871Y-94851658D01*
X60821464Y-94863186D01*
X60901159Y-95095954D01*
X60907572Y-95114686D01*
X61040800Y-95379581D01*
X61043226Y-95383110D01*
X61043229Y-95383116D01*
X61148748Y-95536646D01*
X61208747Y-95623945D01*
X61211634Y-95627118D01*
X61211635Y-95627119D01*
X61389817Y-95822939D01*
X61408303Y-95843255D01*
X61411598Y-95846010D01*
X61411599Y-95846011D01*
X61445033Y-95873966D01*
X61635777Y-96033452D01*
X61639418Y-96035736D01*
X61883319Y-96188736D01*
X61883323Y-96188738D01*
X61886959Y-96191019D01*
X61890869Y-96192784D01*
X61890870Y-96192785D01*
X62153289Y-96311272D01*
X62153293Y-96311274D01*
X62157201Y-96313038D01*
X62161315Y-96314256D01*
X62161324Y-96314260D01*
X62265400Y-96345088D01*
X62318786Y-96360901D01*
X62378420Y-96399426D01*
X62407760Y-96464077D01*
X62409000Y-96481712D01*
X62409000Y-96806477D01*
X62409636Y-96810916D01*
X62422645Y-96901753D01*
X62424405Y-96914045D01*
X62428119Y-96922213D01*
X62428119Y-96922214D01*
X62440142Y-96948657D01*
X62484633Y-97046510D01*
X62490495Y-97053313D01*
X62573405Y-97149535D01*
X62579619Y-97156747D01*
X62701727Y-97235893D01*
X62841141Y-97277587D01*
X62850117Y-97277642D01*
X62850118Y-97277642D01*
X62911479Y-97278017D01*
X62986652Y-97278476D01*
X63126565Y-97238488D01*
X63249631Y-97160840D01*
X63256114Y-97153500D01*
X63340013Y-97058501D01*
X63345956Y-97051772D01*
X63407799Y-96920052D01*
X63409179Y-96911190D01*
X63409180Y-96911186D01*
X63424252Y-96814380D01*
X63425000Y-96809577D01*
X63425000Y-96482228D01*
X63445002Y-96414107D01*
X63498658Y-96367614D01*
X63519025Y-96360353D01*
X63612251Y-96335895D01*
X63886192Y-96222425D01*
X63895901Y-96216752D01*
X64138502Y-96074987D01*
X64138503Y-96074987D01*
X64142200Y-96072826D01*
X64145560Y-96070192D01*
X64145568Y-96070186D01*
X64372163Y-95892512D01*
X64375535Y-95889868D01*
X64426176Y-95837611D01*
X64578899Y-95680012D01*
X64581882Y-95676934D01*
X64584415Y-95673486D01*
X64584419Y-95673481D01*
X64754883Y-95441422D01*
X64757421Y-95437967D01*
X64898905Y-95177387D01*
X65003714Y-94900016D01*
X65009244Y-94875871D01*
X65043949Y-94813935D01*
X65106629Y-94780594D01*
X65132064Y-94778000D01*
X65453477Y-94778000D01*
X65495835Y-94771934D01*
X65552159Y-94763868D01*
X65552162Y-94763867D01*
X65561045Y-94762595D01*
X65693510Y-94702367D01*
X65726155Y-94674238D01*
X65796949Y-94613239D01*
X65796951Y-94613237D01*
X65803747Y-94607381D01*
X65882893Y-94485273D01*
X65907587Y-94402703D01*
X80848343Y-94402703D01*
X80848902Y-94406947D01*
X80848902Y-94406951D01*
X80859461Y-94487155D01*
X80885868Y-94687734D01*
X80961729Y-94965036D01*
X80963413Y-94968984D01*
X81049097Y-95169865D01*
X81074523Y-95229476D01*
X81116153Y-95299035D01*
X81206523Y-95450031D01*
X81222161Y-95476161D01*
X81401913Y-95700528D01*
X81418997Y-95716740D01*
X81597887Y-95886500D01*
X81610451Y-95898423D01*
X81843917Y-96066186D01*
X81847712Y-96068195D01*
X81847713Y-96068196D01*
X81869469Y-96079715D01*
X82097992Y-96200712D01*
X82367973Y-96299511D01*
X82648864Y-96360755D01*
X82677441Y-96363004D01*
X82871882Y-96378307D01*
X82871891Y-96378307D01*
X82874339Y-96378500D01*
X83029871Y-96378500D01*
X83032007Y-96378354D01*
X83032018Y-96378354D01*
X83240148Y-96364165D01*
X83240154Y-96364164D01*
X83244425Y-96363873D01*
X83248620Y-96363004D01*
X83248622Y-96363004D01*
X83435889Y-96324223D01*
X83525942Y-96305574D01*
X83796943Y-96209607D01*
X84052412Y-96077750D01*
X84055913Y-96075289D01*
X84055917Y-96075287D01*
X84273310Y-95922500D01*
X84287623Y-95912441D01*
X84380284Y-95826335D01*
X84495079Y-95719661D01*
X84495081Y-95719658D01*
X84498222Y-95716740D01*
X84680313Y-95494268D01*
X84830527Y-95249142D01*
X84848693Y-95207760D01*
X84944357Y-94989830D01*
X84946083Y-94985898D01*
X84947636Y-94980448D01*
X84999607Y-94798002D01*
X85024844Y-94709406D01*
X85065351Y-94424784D01*
X85065420Y-94411744D01*
X85066835Y-94141583D01*
X85066835Y-94141576D01*
X85066857Y-94137297D01*
X85055987Y-94054727D01*
X85044517Y-93967606D01*
X85029332Y-93852266D01*
X85017414Y-93808699D01*
X84986906Y-93697183D01*
X84953471Y-93574964D01*
X84942347Y-93548885D01*
X84842363Y-93314476D01*
X84842361Y-93314472D01*
X84840677Y-93310524D01*
X84827598Y-93288670D01*
X87934160Y-93288670D01*
X87939887Y-93296320D01*
X88111042Y-93401205D01*
X88119837Y-93405687D01*
X88329988Y-93492734D01*
X88339373Y-93495783D01*
X88560554Y-93548885D01*
X88570301Y-93550428D01*
X88797070Y-93568275D01*
X88806930Y-93568275D01*
X89033699Y-93550428D01*
X89043446Y-93548885D01*
X89264627Y-93495783D01*
X89274012Y-93492734D01*
X89484163Y-93405687D01*
X89492958Y-93401205D01*
X89660445Y-93298568D01*
X89669400Y-93288670D01*
X94434160Y-93288670D01*
X94439887Y-93296320D01*
X94611042Y-93401205D01*
X94619837Y-93405687D01*
X94829988Y-93492734D01*
X94839373Y-93495783D01*
X95060554Y-93548885D01*
X95070301Y-93550428D01*
X95297070Y-93568275D01*
X95306930Y-93568275D01*
X95533699Y-93550428D01*
X95543446Y-93548885D01*
X95764627Y-93495783D01*
X95774012Y-93492734D01*
X95984163Y-93405687D01*
X95992958Y-93401205D01*
X96160445Y-93298568D01*
X96169907Y-93288110D01*
X96166124Y-93279334D01*
X95314812Y-92428022D01*
X95300868Y-92420408D01*
X95299035Y-92420539D01*
X95292420Y-92424790D01*
X94440920Y-93276290D01*
X94434160Y-93288670D01*
X89669400Y-93288670D01*
X89669907Y-93288110D01*
X89666124Y-93279334D01*
X88814812Y-92428022D01*
X88800868Y-92420408D01*
X88799035Y-92420539D01*
X88792420Y-92424790D01*
X87940920Y-93276290D01*
X87934160Y-93288670D01*
X84827598Y-93288670D01*
X84741397Y-93144639D01*
X84695243Y-93067521D01*
X84695240Y-93067517D01*
X84693039Y-93063839D01*
X84513287Y-92839472D01*
X84343465Y-92678317D01*
X84307858Y-92644527D01*
X84307855Y-92644525D01*
X84304749Y-92641577D01*
X84080034Y-92480102D01*
X84074772Y-92476321D01*
X84074771Y-92476320D01*
X84071283Y-92473814D01*
X84049443Y-92462250D01*
X83970664Y-92420539D01*
X83817208Y-92339288D01*
X83547227Y-92240489D01*
X83266336Y-92179245D01*
X83235285Y-92176801D01*
X83043318Y-92161693D01*
X83043309Y-92161693D01*
X83040861Y-92161500D01*
X82885329Y-92161500D01*
X82883193Y-92161646D01*
X82883182Y-92161646D01*
X82675052Y-92175835D01*
X82675046Y-92175836D01*
X82670775Y-92176127D01*
X82666580Y-92176996D01*
X82666578Y-92176996D01*
X82530017Y-92205276D01*
X82389258Y-92234426D01*
X82118257Y-92330393D01*
X81862788Y-92462250D01*
X81859287Y-92464711D01*
X81859283Y-92464713D01*
X81769218Y-92528012D01*
X81627577Y-92627559D01*
X81612492Y-92641577D01*
X81499089Y-92746958D01*
X81416978Y-92823260D01*
X81234887Y-93045732D01*
X81084673Y-93290858D01*
X81082947Y-93294791D01*
X81082946Y-93294792D01*
X81010520Y-93459783D01*
X80969117Y-93554102D01*
X80890356Y-93830594D01*
X80873028Y-93952351D01*
X80850468Y-94110870D01*
X80849849Y-94115216D01*
X80849827Y-94119505D01*
X80849826Y-94119512D01*
X80848426Y-94386784D01*
X80848343Y-94402703D01*
X65907587Y-94402703D01*
X65924587Y-94345859D01*
X65925476Y-94200348D01*
X65885488Y-94060435D01*
X65807840Y-93937369D01*
X65698772Y-93841044D01*
X65567052Y-93779201D01*
X65558190Y-93777821D01*
X65558186Y-93777820D01*
X65484019Y-93766273D01*
X65456577Y-93762000D01*
X65133183Y-93762000D01*
X65065062Y-93741998D01*
X65018569Y-93688342D01*
X65014410Y-93678060D01*
X65007250Y-93657839D01*
X64917473Y-93404318D01*
X64839202Y-93252670D01*
X68832160Y-93252670D01*
X68837887Y-93260320D01*
X69009042Y-93365205D01*
X69017837Y-93369687D01*
X69227988Y-93456734D01*
X69237373Y-93459783D01*
X69458554Y-93512885D01*
X69468301Y-93514428D01*
X69695070Y-93532275D01*
X69704930Y-93532275D01*
X69931699Y-93514428D01*
X69941446Y-93512885D01*
X70162627Y-93459783D01*
X70172012Y-93456734D01*
X70382163Y-93369687D01*
X70390958Y-93365205D01*
X70558445Y-93262568D01*
X70567400Y-93252670D01*
X75332160Y-93252670D01*
X75337887Y-93260320D01*
X75509042Y-93365205D01*
X75517837Y-93369687D01*
X75727988Y-93456734D01*
X75737373Y-93459783D01*
X75958554Y-93512885D01*
X75968301Y-93514428D01*
X76195070Y-93532275D01*
X76204930Y-93532275D01*
X76431699Y-93514428D01*
X76441446Y-93512885D01*
X76662627Y-93459783D01*
X76672012Y-93456734D01*
X76882163Y-93369687D01*
X76890958Y-93365205D01*
X77058445Y-93262568D01*
X77067907Y-93252110D01*
X77064124Y-93243334D01*
X76212812Y-92392022D01*
X76198868Y-92384408D01*
X76197035Y-92384539D01*
X76190420Y-92388790D01*
X75338920Y-93240290D01*
X75332160Y-93252670D01*
X70567400Y-93252670D01*
X70567907Y-93252110D01*
X70564124Y-93243334D01*
X69712812Y-92392022D01*
X69698868Y-92384408D01*
X69697035Y-92384539D01*
X69690420Y-92388790D01*
X68838920Y-93240290D01*
X68832160Y-93252670D01*
X64839202Y-93252670D01*
X64781478Y-93140832D01*
X64770474Y-93125174D01*
X64628973Y-92923840D01*
X64610982Y-92898241D01*
X64467958Y-92744329D01*
X64412061Y-92684176D01*
X64412058Y-92684173D01*
X64409140Y-92681033D01*
X64179686Y-92493228D01*
X64002109Y-92384408D01*
X63930527Y-92340542D01*
X63930524Y-92340541D01*
X63926868Y-92338300D01*
X63655363Y-92219118D01*
X63516479Y-92179556D01*
X63456447Y-92141659D01*
X63426432Y-92077319D01*
X63425000Y-92058378D01*
X63425000Y-92024930D01*
X68187725Y-92024930D01*
X68205572Y-92251699D01*
X68207115Y-92261446D01*
X68260217Y-92482627D01*
X68263266Y-92492012D01*
X68350313Y-92702163D01*
X68354795Y-92710958D01*
X68457432Y-92878445D01*
X68467890Y-92887907D01*
X68476666Y-92884124D01*
X69327978Y-92032812D01*
X69334356Y-92021132D01*
X70064408Y-92021132D01*
X70064539Y-92022965D01*
X70068790Y-92029580D01*
X70920290Y-92881080D01*
X70932670Y-92887840D01*
X70940320Y-92882113D01*
X71045205Y-92710958D01*
X71049687Y-92702163D01*
X71136734Y-92492012D01*
X71139783Y-92482627D01*
X71192885Y-92261446D01*
X71194428Y-92251699D01*
X71212275Y-92024930D01*
X74687725Y-92024930D01*
X74705572Y-92251699D01*
X74707115Y-92261446D01*
X74760217Y-92482627D01*
X74763266Y-92492012D01*
X74850313Y-92702163D01*
X74854795Y-92710958D01*
X74957432Y-92878445D01*
X74967890Y-92887907D01*
X74976666Y-92884124D01*
X75827978Y-92032812D01*
X75834356Y-92021132D01*
X76564408Y-92021132D01*
X76564539Y-92022965D01*
X76568790Y-92029580D01*
X77420290Y-92881080D01*
X77432670Y-92887840D01*
X77440320Y-92882113D01*
X77545205Y-92710958D01*
X77549687Y-92702163D01*
X77636734Y-92492012D01*
X77639783Y-92482627D01*
X77692885Y-92261446D01*
X77694428Y-92251699D01*
X77709442Y-92060930D01*
X87289725Y-92060930D01*
X87307572Y-92287699D01*
X87309115Y-92297446D01*
X87362217Y-92518627D01*
X87365266Y-92528012D01*
X87452313Y-92738163D01*
X87456795Y-92746958D01*
X87559432Y-92914445D01*
X87569890Y-92923907D01*
X87578666Y-92920124D01*
X88429978Y-92068812D01*
X88436356Y-92057132D01*
X89166408Y-92057132D01*
X89166539Y-92058965D01*
X89170790Y-92065580D01*
X90022290Y-92917080D01*
X90034670Y-92923840D01*
X90042320Y-92918113D01*
X90147205Y-92746958D01*
X90151687Y-92738163D01*
X90238734Y-92528012D01*
X90241783Y-92518627D01*
X90294885Y-92297446D01*
X90296428Y-92287699D01*
X90314275Y-92060930D01*
X93789725Y-92060930D01*
X93807572Y-92287699D01*
X93809115Y-92297446D01*
X93862217Y-92518627D01*
X93865266Y-92528012D01*
X93952313Y-92738163D01*
X93956795Y-92746958D01*
X94059432Y-92914445D01*
X94069890Y-92923907D01*
X94078666Y-92920124D01*
X94929978Y-92068812D01*
X94936356Y-92057132D01*
X95666408Y-92057132D01*
X95666539Y-92058965D01*
X95670790Y-92065580D01*
X96522290Y-92917080D01*
X96534670Y-92923840D01*
X96542320Y-92918113D01*
X96647205Y-92746958D01*
X96651687Y-92738163D01*
X96655944Y-92727885D01*
X97697000Y-92727885D01*
X97701475Y-92743124D01*
X97702865Y-92744329D01*
X97710548Y-92746000D01*
X98782885Y-92746000D01*
X98798124Y-92741525D01*
X98799329Y-92740135D01*
X98801000Y-92732452D01*
X98801000Y-92727885D01*
X99309000Y-92727885D01*
X99313475Y-92743124D01*
X99314865Y-92744329D01*
X99322548Y-92746000D01*
X100394884Y-92746000D01*
X100410123Y-92741525D01*
X100411328Y-92740135D01*
X100412999Y-92732452D01*
X100412999Y-92105331D01*
X100412629Y-92098510D01*
X100407105Y-92047648D01*
X100403479Y-92032396D01*
X100358324Y-91911946D01*
X100349786Y-91896351D01*
X100273285Y-91794276D01*
X100260724Y-91781715D01*
X100158649Y-91705214D01*
X100143054Y-91696676D01*
X100022606Y-91651522D01*
X100007351Y-91647895D01*
X99956486Y-91642369D01*
X99949672Y-91642000D01*
X99327115Y-91642000D01*
X99311876Y-91646475D01*
X99310671Y-91647865D01*
X99309000Y-91655548D01*
X99309000Y-92727885D01*
X98801000Y-92727885D01*
X98801000Y-91660116D01*
X98796525Y-91644877D01*
X98795135Y-91643672D01*
X98787452Y-91642001D01*
X98160331Y-91642001D01*
X98153510Y-91642371D01*
X98102648Y-91647895D01*
X98087396Y-91651521D01*
X97966946Y-91696676D01*
X97951351Y-91705214D01*
X97849276Y-91781715D01*
X97836715Y-91794276D01*
X97760214Y-91896351D01*
X97751676Y-91911946D01*
X97706522Y-92032394D01*
X97702895Y-92047649D01*
X97697369Y-92098514D01*
X97697000Y-92105328D01*
X97697000Y-92727885D01*
X96655944Y-92727885D01*
X96738734Y-92528012D01*
X96741783Y-92518627D01*
X96794885Y-92297446D01*
X96796428Y-92287699D01*
X96814275Y-92060930D01*
X96814275Y-92051070D01*
X96796428Y-91824301D01*
X96794885Y-91814554D01*
X96741783Y-91593373D01*
X96738734Y-91583988D01*
X96651687Y-91373837D01*
X96647205Y-91365042D01*
X96544568Y-91197555D01*
X96534110Y-91188093D01*
X96525334Y-91191876D01*
X95674022Y-92043188D01*
X95666408Y-92057132D01*
X94936356Y-92057132D01*
X94937592Y-92054868D01*
X94937461Y-92053035D01*
X94933210Y-92046420D01*
X94081710Y-91194920D01*
X94069330Y-91188160D01*
X94061680Y-91193887D01*
X93956795Y-91365042D01*
X93952313Y-91373837D01*
X93865266Y-91583988D01*
X93862217Y-91593373D01*
X93809115Y-91814554D01*
X93807572Y-91824301D01*
X93789725Y-92051070D01*
X93789725Y-92060930D01*
X90314275Y-92060930D01*
X90314275Y-92051070D01*
X90296428Y-91824301D01*
X90294885Y-91814554D01*
X90241783Y-91593373D01*
X90238734Y-91583988D01*
X90151687Y-91373837D01*
X90147205Y-91365042D01*
X90044568Y-91197555D01*
X90034110Y-91188093D01*
X90025334Y-91191876D01*
X89174022Y-92043188D01*
X89166408Y-92057132D01*
X88436356Y-92057132D01*
X88437592Y-92054868D01*
X88437461Y-92053035D01*
X88433210Y-92046420D01*
X87581710Y-91194920D01*
X87569330Y-91188160D01*
X87561680Y-91193887D01*
X87456795Y-91365042D01*
X87452313Y-91373837D01*
X87365266Y-91583988D01*
X87362217Y-91593373D01*
X87309115Y-91814554D01*
X87307572Y-91824301D01*
X87289725Y-92051070D01*
X87289725Y-92060930D01*
X77709442Y-92060930D01*
X77712275Y-92024930D01*
X77712275Y-92015070D01*
X77694428Y-91788301D01*
X77692885Y-91778554D01*
X77639783Y-91557373D01*
X77636734Y-91547988D01*
X77549687Y-91337837D01*
X77545205Y-91329042D01*
X77442568Y-91161555D01*
X77432110Y-91152093D01*
X77423334Y-91155876D01*
X76572022Y-92007188D01*
X76564408Y-92021132D01*
X75834356Y-92021132D01*
X75835592Y-92018868D01*
X75835461Y-92017035D01*
X75831210Y-92010420D01*
X74979710Y-91158920D01*
X74967330Y-91152160D01*
X74959680Y-91157887D01*
X74854795Y-91329042D01*
X74850313Y-91337837D01*
X74763266Y-91547988D01*
X74760217Y-91557373D01*
X74707115Y-91778554D01*
X74705572Y-91788301D01*
X74687725Y-92015070D01*
X74687725Y-92024930D01*
X71212275Y-92024930D01*
X71212275Y-92015070D01*
X71194428Y-91788301D01*
X71192885Y-91778554D01*
X71139783Y-91557373D01*
X71136734Y-91547988D01*
X71049687Y-91337837D01*
X71045205Y-91329042D01*
X70942568Y-91161555D01*
X70932110Y-91152093D01*
X70923334Y-91155876D01*
X70072022Y-92007188D01*
X70064408Y-92021132D01*
X69334356Y-92021132D01*
X69335592Y-92018868D01*
X69335461Y-92017035D01*
X69331210Y-92010420D01*
X68479710Y-91158920D01*
X68467330Y-91152160D01*
X68459680Y-91157887D01*
X68354795Y-91329042D01*
X68350313Y-91337837D01*
X68263266Y-91547988D01*
X68260217Y-91557373D01*
X68207115Y-91778554D01*
X68205572Y-91788301D01*
X68187725Y-92015070D01*
X68187725Y-92024930D01*
X63425000Y-92024930D01*
X63425000Y-91733523D01*
X63414487Y-91660116D01*
X63410868Y-91634841D01*
X63410867Y-91634838D01*
X63409595Y-91625955D01*
X63349367Y-91493490D01*
X63254381Y-91383253D01*
X63132273Y-91304107D01*
X62992859Y-91262413D01*
X62983883Y-91262358D01*
X62983882Y-91262358D01*
X62922521Y-91261983D01*
X62847348Y-91261524D01*
X62707435Y-91301512D01*
X62584369Y-91379160D01*
X62488044Y-91488228D01*
X62426201Y-91619948D01*
X62424821Y-91628810D01*
X62424820Y-91628814D01*
X62416184Y-91684280D01*
X62409000Y-91730423D01*
X62409000Y-92058205D01*
X62388998Y-92126326D01*
X62335342Y-92172819D01*
X62316247Y-92179739D01*
X62204297Y-92210364D01*
X62204289Y-92210367D01*
X62200154Y-92211498D01*
X62196206Y-92213182D01*
X61931368Y-92326145D01*
X61931364Y-92326147D01*
X61927416Y-92327831D01*
X61832664Y-92384539D01*
X61676671Y-92477898D01*
X61676667Y-92477901D01*
X61672989Y-92480102D01*
X61669646Y-92482780D01*
X61669642Y-92482783D01*
X61565927Y-92565875D01*
X61441582Y-92665495D01*
X61438638Y-92668597D01*
X61438634Y-92668601D01*
X61366771Y-92744329D01*
X61237476Y-92880577D01*
X61064449Y-93121370D01*
X60925702Y-93383417D01*
X60918053Y-93404318D01*
X60839567Y-93618794D01*
X60823803Y-93661870D01*
X60822889Y-93666062D01*
X60821692Y-93670182D01*
X60819870Y-93669653D01*
X60789530Y-93725144D01*
X60727199Y-93759135D01*
X60700483Y-93762000D01*
X60380523Y-93762000D01*
X60338165Y-93768066D01*
X60281841Y-93776132D01*
X60281838Y-93776133D01*
X60272955Y-93777405D01*
X60140490Y-93837633D01*
X60133687Y-93843495D01*
X60037051Y-93926761D01*
X60037049Y-93926763D01*
X60030253Y-93932619D01*
X59951107Y-94054727D01*
X59909413Y-94194141D01*
X59908524Y-94339652D01*
X48137939Y-94339652D01*
X48128261Y-94326739D01*
X48011705Y-94239385D01*
X47931515Y-94209323D01*
X47892687Y-94194767D01*
X47835923Y-94152125D01*
X47811223Y-94085564D01*
X47826430Y-94016215D01*
X47847977Y-93987535D01*
X47949052Y-93886812D01*
X47955730Y-93878965D01*
X48080003Y-93706020D01*
X48085313Y-93697183D01*
X48179670Y-93506267D01*
X48183469Y-93496672D01*
X48245377Y-93292910D01*
X48247555Y-93282837D01*
X48248986Y-93271962D01*
X48246775Y-93257778D01*
X48233617Y-93254000D01*
X45598225Y-93254000D01*
X45584694Y-93257973D01*
X45583257Y-93267966D01*
X45613565Y-93402446D01*
X45616645Y-93412275D01*
X45696770Y-93609603D01*
X45701413Y-93618794D01*
X45812694Y-93800388D01*
X45818777Y-93808699D01*
X45958213Y-93969667D01*
X45965577Y-93976879D01*
X45970522Y-93980985D01*
X46010156Y-94039889D01*
X46011653Y-94110870D01*
X45974537Y-94171392D01*
X45934264Y-94195910D01*
X45826705Y-94236232D01*
X45826704Y-94236233D01*
X45818295Y-94239385D01*
X45701739Y-94326739D01*
X45614385Y-94443295D01*
X45563255Y-94579684D01*
X45556500Y-94641866D01*
X45556500Y-96438134D01*
X40438000Y-96438134D01*
X40438000Y-93252670D01*
X49707160Y-93252670D01*
X49712887Y-93260320D01*
X49884042Y-93365205D01*
X49892837Y-93369687D01*
X50102988Y-93456734D01*
X50112373Y-93459783D01*
X50333554Y-93512885D01*
X50343301Y-93514428D01*
X50570070Y-93532275D01*
X50579930Y-93532275D01*
X50806699Y-93514428D01*
X50816446Y-93512885D01*
X51037627Y-93459783D01*
X51047012Y-93456734D01*
X51257163Y-93369687D01*
X51265958Y-93365205D01*
X51433445Y-93262568D01*
X51442400Y-93252670D01*
X56207160Y-93252670D01*
X56212887Y-93260320D01*
X56384042Y-93365205D01*
X56392837Y-93369687D01*
X56602988Y-93456734D01*
X56612373Y-93459783D01*
X56833554Y-93512885D01*
X56843301Y-93514428D01*
X57070070Y-93532275D01*
X57079930Y-93532275D01*
X57306699Y-93514428D01*
X57316446Y-93512885D01*
X57537627Y-93459783D01*
X57547012Y-93456734D01*
X57757163Y-93369687D01*
X57765958Y-93365205D01*
X57933445Y-93262568D01*
X57942907Y-93252110D01*
X57939124Y-93243334D01*
X57087812Y-92392022D01*
X57073868Y-92384408D01*
X57072035Y-92384539D01*
X57065420Y-92388790D01*
X56213920Y-93240290D01*
X56207160Y-93252670D01*
X51442400Y-93252670D01*
X51442907Y-93252110D01*
X51439124Y-93243334D01*
X50587812Y-92392022D01*
X50573868Y-92384408D01*
X50572035Y-92384539D01*
X50565420Y-92388790D01*
X49713920Y-93240290D01*
X49707160Y-93252670D01*
X40438000Y-93252670D01*
X40438000Y-92734183D01*
X45579389Y-92734183D01*
X45580912Y-92742607D01*
X45593292Y-92746000D01*
X46642885Y-92746000D01*
X46658124Y-92741525D01*
X46659329Y-92740135D01*
X46661000Y-92732452D01*
X46661000Y-92727885D01*
X47169000Y-92727885D01*
X47173475Y-92743124D01*
X47174865Y-92744329D01*
X47182548Y-92746000D01*
X48233344Y-92746000D01*
X48246875Y-92742027D01*
X48248180Y-92732947D01*
X48206214Y-92565875D01*
X48202894Y-92556124D01*
X48117972Y-92360814D01*
X48113105Y-92351739D01*
X47997426Y-92172926D01*
X47991136Y-92164757D01*
X47863903Y-92024930D01*
X49062725Y-92024930D01*
X49080572Y-92251699D01*
X49082115Y-92261446D01*
X49135217Y-92482627D01*
X49138266Y-92492012D01*
X49225313Y-92702163D01*
X49229795Y-92710958D01*
X49332432Y-92878445D01*
X49342890Y-92887907D01*
X49351666Y-92884124D01*
X50202978Y-92032812D01*
X50209356Y-92021132D01*
X50939408Y-92021132D01*
X50939539Y-92022965D01*
X50943790Y-92029580D01*
X51795290Y-92881080D01*
X51807670Y-92887840D01*
X51815320Y-92882113D01*
X51920205Y-92710958D01*
X51924687Y-92702163D01*
X52011734Y-92492012D01*
X52014783Y-92482627D01*
X52067885Y-92261446D01*
X52069428Y-92251699D01*
X52087275Y-92024930D01*
X55562725Y-92024930D01*
X55580572Y-92251699D01*
X55582115Y-92261446D01*
X55635217Y-92482627D01*
X55638266Y-92492012D01*
X55725313Y-92702163D01*
X55729795Y-92710958D01*
X55832432Y-92878445D01*
X55842890Y-92887907D01*
X55851666Y-92884124D01*
X56702978Y-92032812D01*
X56709356Y-92021132D01*
X57439408Y-92021132D01*
X57439539Y-92022965D01*
X57443790Y-92029580D01*
X58295290Y-92881080D01*
X58307670Y-92887840D01*
X58315320Y-92882113D01*
X58420205Y-92710958D01*
X58424687Y-92702163D01*
X58511734Y-92492012D01*
X58514783Y-92482627D01*
X58567885Y-92261446D01*
X58569428Y-92251699D01*
X58587275Y-92024930D01*
X58587275Y-92015070D01*
X58569428Y-91788301D01*
X58567885Y-91778554D01*
X58514783Y-91557373D01*
X58511734Y-91547988D01*
X58424687Y-91337837D01*
X58420205Y-91329042D01*
X58317568Y-91161555D01*
X58307110Y-91152093D01*
X58298334Y-91155876D01*
X57447022Y-92007188D01*
X57439408Y-92021132D01*
X56709356Y-92021132D01*
X56710592Y-92018868D01*
X56710461Y-92017035D01*
X56706210Y-92010420D01*
X55854710Y-91158920D01*
X55842330Y-91152160D01*
X55834680Y-91157887D01*
X55729795Y-91329042D01*
X55725313Y-91337837D01*
X55638266Y-91547988D01*
X55635217Y-91557373D01*
X55582115Y-91778554D01*
X55580572Y-91788301D01*
X55562725Y-92015070D01*
X55562725Y-92024930D01*
X52087275Y-92024930D01*
X52087275Y-92015070D01*
X52069428Y-91788301D01*
X52067885Y-91778554D01*
X52014783Y-91557373D01*
X52011734Y-91547988D01*
X51924687Y-91337837D01*
X51920205Y-91329042D01*
X51817568Y-91161555D01*
X51807110Y-91152093D01*
X51798334Y-91155876D01*
X50947022Y-92007188D01*
X50939408Y-92021132D01*
X50209356Y-92021132D01*
X50210592Y-92018868D01*
X50210461Y-92017035D01*
X50206210Y-92010420D01*
X49354710Y-91158920D01*
X49342330Y-91152160D01*
X49334680Y-91157887D01*
X49229795Y-91329042D01*
X49225313Y-91337837D01*
X49138266Y-91547988D01*
X49135217Y-91557373D01*
X49082115Y-91778554D01*
X49080572Y-91788301D01*
X49062725Y-92015070D01*
X49062725Y-92024930D01*
X47863903Y-92024930D01*
X47847806Y-92007240D01*
X47840273Y-92000215D01*
X47673139Y-91868222D01*
X47664552Y-91862517D01*
X47478117Y-91759599D01*
X47468705Y-91755369D01*
X47267959Y-91684280D01*
X47257988Y-91681646D01*
X47186837Y-91668972D01*
X47173540Y-91670432D01*
X47169000Y-91684989D01*
X47169000Y-92727885D01*
X46661000Y-92727885D01*
X46661000Y-91683102D01*
X46657082Y-91669758D01*
X46642806Y-91667771D01*
X46604324Y-91673660D01*
X46594288Y-91676051D01*
X46391868Y-91742212D01*
X46382359Y-91746209D01*
X46193463Y-91844542D01*
X46184738Y-91850036D01*
X46014433Y-91977905D01*
X46006726Y-91984748D01*
X45859590Y-92138717D01*
X45853104Y-92146727D01*
X45733098Y-92322649D01*
X45728000Y-92331623D01*
X45638338Y-92524783D01*
X45634775Y-92534470D01*
X45579389Y-92734183D01*
X40438000Y-92734183D01*
X40438000Y-90787890D01*
X49707093Y-90787890D01*
X49710876Y-90796666D01*
X50562188Y-91647978D01*
X50576132Y-91655592D01*
X50577965Y-91655461D01*
X50584580Y-91651210D01*
X51436080Y-90799710D01*
X51442534Y-90787890D01*
X56207093Y-90787890D01*
X56210876Y-90796666D01*
X57062188Y-91647978D01*
X57076132Y-91655592D01*
X57077965Y-91655461D01*
X57084580Y-91651210D01*
X57936080Y-90799710D01*
X57942534Y-90787890D01*
X68832093Y-90787890D01*
X68835876Y-90796666D01*
X69687188Y-91647978D01*
X69701132Y-91655592D01*
X69702965Y-91655461D01*
X69709580Y-91651210D01*
X70561080Y-90799710D01*
X70567534Y-90787890D01*
X75332093Y-90787890D01*
X75335876Y-90796666D01*
X76187188Y-91647978D01*
X76201132Y-91655592D01*
X76202965Y-91655461D01*
X76209580Y-91651210D01*
X77036900Y-90823890D01*
X87934093Y-90823890D01*
X87937876Y-90832666D01*
X88789188Y-91683978D01*
X88803132Y-91691592D01*
X88804965Y-91691461D01*
X88811580Y-91687210D01*
X89663080Y-90835710D01*
X89669534Y-90823890D01*
X94434093Y-90823890D01*
X94437876Y-90832666D01*
X95289188Y-91683978D01*
X95303132Y-91691592D01*
X95304965Y-91691461D01*
X95311580Y-91687210D01*
X96163080Y-90835710D01*
X96169840Y-90823330D01*
X96164113Y-90815680D01*
X95992958Y-90710795D01*
X95984163Y-90706313D01*
X95774012Y-90619266D01*
X95764627Y-90616217D01*
X95543446Y-90563115D01*
X95533699Y-90561572D01*
X95306930Y-90543725D01*
X95297070Y-90543725D01*
X95070301Y-90561572D01*
X95060554Y-90563115D01*
X94839373Y-90616217D01*
X94829988Y-90619266D01*
X94619837Y-90706313D01*
X94611042Y-90710795D01*
X94443555Y-90813432D01*
X94434093Y-90823890D01*
X89669534Y-90823890D01*
X89669840Y-90823330D01*
X89664113Y-90815680D01*
X89492958Y-90710795D01*
X89484163Y-90706313D01*
X89274012Y-90619266D01*
X89264627Y-90616217D01*
X89043446Y-90563115D01*
X89033699Y-90561572D01*
X88806930Y-90543725D01*
X88797070Y-90543725D01*
X88570301Y-90561572D01*
X88560554Y-90563115D01*
X88339373Y-90616217D01*
X88329988Y-90619266D01*
X88119837Y-90706313D01*
X88111042Y-90710795D01*
X87943555Y-90813432D01*
X87934093Y-90823890D01*
X77036900Y-90823890D01*
X77061080Y-90799710D01*
X77067840Y-90787330D01*
X77062113Y-90779680D01*
X76890958Y-90674795D01*
X76882163Y-90670313D01*
X76672012Y-90583266D01*
X76662627Y-90580217D01*
X76441446Y-90527115D01*
X76431699Y-90525572D01*
X76204930Y-90507725D01*
X76195070Y-90507725D01*
X75968301Y-90525572D01*
X75958554Y-90527115D01*
X75737373Y-90580217D01*
X75727988Y-90583266D01*
X75517837Y-90670313D01*
X75509042Y-90674795D01*
X75341555Y-90777432D01*
X75332093Y-90787890D01*
X70567534Y-90787890D01*
X70567840Y-90787330D01*
X70562113Y-90779680D01*
X70390958Y-90674795D01*
X70382163Y-90670313D01*
X70172012Y-90583266D01*
X70162627Y-90580217D01*
X69941446Y-90527115D01*
X69931699Y-90525572D01*
X69704930Y-90507725D01*
X69695070Y-90507725D01*
X69468301Y-90525572D01*
X69458554Y-90527115D01*
X69237373Y-90580217D01*
X69227988Y-90583266D01*
X69017837Y-90670313D01*
X69009042Y-90674795D01*
X68841555Y-90777432D01*
X68832093Y-90787890D01*
X57942534Y-90787890D01*
X57942840Y-90787330D01*
X57937113Y-90779680D01*
X57765958Y-90674795D01*
X57757163Y-90670313D01*
X57547012Y-90583266D01*
X57537627Y-90580217D01*
X57316446Y-90527115D01*
X57306699Y-90525572D01*
X57079930Y-90507725D01*
X57070070Y-90507725D01*
X56843301Y-90525572D01*
X56833554Y-90527115D01*
X56612373Y-90580217D01*
X56602988Y-90583266D01*
X56392837Y-90670313D01*
X56384042Y-90674795D01*
X56216555Y-90777432D01*
X56207093Y-90787890D01*
X51442534Y-90787890D01*
X51442840Y-90787330D01*
X51437113Y-90779680D01*
X51265958Y-90674795D01*
X51257163Y-90670313D01*
X51047012Y-90583266D01*
X51037627Y-90580217D01*
X50816446Y-90527115D01*
X50806699Y-90525572D01*
X50579930Y-90507725D01*
X50570070Y-90507725D01*
X50343301Y-90525572D01*
X50333554Y-90527115D01*
X50112373Y-90580217D01*
X50102988Y-90583266D01*
X49892837Y-90670313D01*
X49884042Y-90674795D01*
X49716555Y-90777432D01*
X49707093Y-90787890D01*
X40438000Y-90787890D01*
X40438000Y-84744000D01*
X40458002Y-84675879D01*
X40511658Y-84629386D01*
X40564000Y-84618000D01*
X105336000Y-84618000D01*
X105404121Y-84638002D01*
G37*
%TD.AperFunction*%
%TD*%
M02*
