%TF.GenerationSoftware,KiCad,Pcbnew,6.0.2-378541a8eb~116~ubuntu20.04.1*%
%TF.CreationDate,2022-03-08T10:00:38+01:00*%
%TF.ProjectId,contact-sensor,636f6e74-6163-4742-9d73-656e736f722e,0.1.1*%
%TF.SameCoordinates,Original*%
%TF.FileFunction,Legend,Top*%
%TF.FilePolarity,Positive*%
%FSLAX46Y46*%
G04 Gerber Fmt 4.6, Leading zero omitted, Abs format (unit mm)*
G04 Created by KiCad (PCBNEW 6.0.2-378541a8eb~116~ubuntu20.04.1) date 2022-03-08 10:00:38*
%MOMM*%
%LPD*%
G01*
G04 APERTURE LIST*
%ADD10C,0.150000*%
%ADD11C,0.120000*%
%ADD12C,0.010000*%
G04 APERTURE END LIST*
D10*
%TO.C,J2*%
X98801666Y-85517380D02*
X98801666Y-86231666D01*
X98754047Y-86374523D01*
X98658809Y-86469761D01*
X98515952Y-86517380D01*
X98420714Y-86517380D01*
X99230238Y-85612619D02*
X99277857Y-85565000D01*
X99373095Y-85517380D01*
X99611190Y-85517380D01*
X99706428Y-85565000D01*
X99754047Y-85612619D01*
X99801666Y-85707857D01*
X99801666Y-85803095D01*
X99754047Y-85945952D01*
X99182619Y-86517380D01*
X99801666Y-86517380D01*
%TO.C,J1*%
X46661666Y-92507380D02*
X46661666Y-93221666D01*
X46614047Y-93364523D01*
X46518809Y-93459761D01*
X46375952Y-93507380D01*
X46280714Y-93507380D01*
X47661666Y-93507380D02*
X47090238Y-93507380D01*
X47375952Y-93507380D02*
X47375952Y-92507380D01*
X47280714Y-92650238D01*
X47185476Y-92745476D01*
X47090238Y-92793095D01*
%TO.C,SW1*%
X52491666Y-99754761D02*
X52634523Y-99802380D01*
X52872619Y-99802380D01*
X52967857Y-99754761D01*
X53015476Y-99707142D01*
X53063095Y-99611904D01*
X53063095Y-99516666D01*
X53015476Y-99421428D01*
X52967857Y-99373809D01*
X52872619Y-99326190D01*
X52682142Y-99278571D01*
X52586904Y-99230952D01*
X52539285Y-99183333D01*
X52491666Y-99088095D01*
X52491666Y-98992857D01*
X52539285Y-98897619D01*
X52586904Y-98850000D01*
X52682142Y-98802380D01*
X52920238Y-98802380D01*
X53063095Y-98850000D01*
X53396428Y-98802380D02*
X53634523Y-99802380D01*
X53825000Y-99088095D01*
X54015476Y-99802380D01*
X54253571Y-98802380D01*
X55158333Y-99802380D02*
X54586904Y-99802380D01*
X54872619Y-99802380D02*
X54872619Y-98802380D01*
X54777380Y-98945238D01*
X54682142Y-99040476D01*
X54586904Y-99088095D01*
%TO.C,SW2*%
X71616666Y-99754761D02*
X71759523Y-99802380D01*
X71997619Y-99802380D01*
X72092857Y-99754761D01*
X72140476Y-99707142D01*
X72188095Y-99611904D01*
X72188095Y-99516666D01*
X72140476Y-99421428D01*
X72092857Y-99373809D01*
X71997619Y-99326190D01*
X71807142Y-99278571D01*
X71711904Y-99230952D01*
X71664285Y-99183333D01*
X71616666Y-99088095D01*
X71616666Y-98992857D01*
X71664285Y-98897619D01*
X71711904Y-98850000D01*
X71807142Y-98802380D01*
X72045238Y-98802380D01*
X72188095Y-98850000D01*
X72521428Y-98802380D02*
X72759523Y-99802380D01*
X72950000Y-99088095D01*
X73140476Y-99802380D01*
X73378571Y-98802380D01*
X73711904Y-98897619D02*
X73759523Y-98850000D01*
X73854761Y-98802380D01*
X74092857Y-98802380D01*
X74188095Y-98850000D01*
X74235714Y-98897619D01*
X74283333Y-98992857D01*
X74283333Y-99088095D01*
X74235714Y-99230952D01*
X73664285Y-99802380D01*
X74283333Y-99802380D01*
%TO.C,SW3*%
X90718666Y-99754761D02*
X90861523Y-99802380D01*
X91099619Y-99802380D01*
X91194857Y-99754761D01*
X91242476Y-99707142D01*
X91290095Y-99611904D01*
X91290095Y-99516666D01*
X91242476Y-99421428D01*
X91194857Y-99373809D01*
X91099619Y-99326190D01*
X90909142Y-99278571D01*
X90813904Y-99230952D01*
X90766285Y-99183333D01*
X90718666Y-99088095D01*
X90718666Y-98992857D01*
X90766285Y-98897619D01*
X90813904Y-98850000D01*
X90909142Y-98802380D01*
X91147238Y-98802380D01*
X91290095Y-98850000D01*
X91623428Y-98802380D02*
X91861523Y-99802380D01*
X92052000Y-99088095D01*
X92242476Y-99802380D01*
X92480571Y-98802380D01*
X92766285Y-98802380D02*
X93385333Y-98802380D01*
X93052000Y-99183333D01*
X93194857Y-99183333D01*
X93290095Y-99230952D01*
X93337714Y-99278571D01*
X93385333Y-99373809D01*
X93385333Y-99611904D01*
X93337714Y-99707142D01*
X93290095Y-99754761D01*
X93194857Y-99802380D01*
X92909142Y-99802380D01*
X92813904Y-99754761D01*
X92766285Y-99707142D01*
D11*
%TO.C,J2*%
X103230000Y-89450000D02*
X109230000Y-89450000D01*
X97860000Y-89530000D02*
X97860000Y-88260000D01*
X103230000Y-89570000D02*
X109230000Y-89570000D01*
X100172929Y-91690000D02*
X100570000Y-91690000D01*
X100570000Y-88200000D02*
X100570000Y-93400000D01*
X97860000Y-88260000D02*
X99130000Y-88260000D01*
X103230000Y-93400000D02*
X103230000Y-88200000D01*
X100240000Y-89910000D02*
X100570000Y-89910000D01*
X109230000Y-92450000D02*
X103230000Y-92450000D01*
X103230000Y-88200000D02*
X100570000Y-88200000D01*
X100240000Y-89150000D02*
X100570000Y-89150000D01*
X103230000Y-89810000D02*
X109230000Y-89810000D01*
X100570000Y-93400000D02*
X103230000Y-93400000D01*
X109230000Y-91690000D02*
X109230000Y-92450000D01*
X103230000Y-89330000D02*
X109230000Y-89330000D01*
X103230000Y-89690000D02*
X109230000Y-89690000D01*
X103230000Y-91690000D02*
X109230000Y-91690000D01*
X109230000Y-89150000D02*
X109230000Y-89910000D01*
X100172929Y-92450000D02*
X100570000Y-92450000D01*
X103230000Y-89210000D02*
X109230000Y-89210000D01*
X109230000Y-89910000D02*
X103230000Y-89910000D01*
X103230000Y-89150000D02*
X109230000Y-89150000D01*
X100570000Y-90800000D02*
X103230000Y-90800000D01*
%TO.C,J1*%
X42820000Y-100390000D02*
X45480000Y-100390000D01*
X42820000Y-99380000D02*
X36820000Y-99380000D01*
X36820000Y-98680000D02*
X42820000Y-98680000D01*
X45480000Y-100390000D02*
X45480000Y-95190000D01*
X42820000Y-98900000D02*
X36820000Y-98900000D01*
X36820000Y-96900000D02*
X36820000Y-96140000D01*
X48190000Y-99060000D02*
X48190000Y-100330000D01*
X36820000Y-96140000D02*
X42820000Y-96140000D01*
X42820000Y-95190000D02*
X42820000Y-100390000D01*
X45810000Y-99440000D02*
X45480000Y-99440000D01*
X48190000Y-100330000D02*
X46920000Y-100330000D01*
X42820000Y-96900000D02*
X36820000Y-96900000D01*
X42820000Y-99260000D02*
X36820000Y-99260000D01*
X45877071Y-96140000D02*
X45480000Y-96140000D01*
X45480000Y-95190000D02*
X42820000Y-95190000D01*
X45480000Y-97790000D02*
X42820000Y-97790000D01*
X42820000Y-99140000D02*
X36820000Y-99140000D01*
X45877071Y-96900000D02*
X45480000Y-96900000D01*
X45810000Y-98680000D02*
X45480000Y-98680000D01*
X42820000Y-99020000D02*
X36820000Y-99020000D01*
X42820000Y-99440000D02*
X36820000Y-99440000D01*
X42820000Y-98780000D02*
X36820000Y-98780000D01*
X36820000Y-99440000D02*
X36820000Y-98680000D01*
%TO.C,SW1*%
X51575000Y-97520000D02*
X56075000Y-97520000D01*
X56075000Y-91020000D02*
X51575000Y-91020000D01*
X50325000Y-93520000D02*
X50325000Y-95020000D01*
X57325000Y-95020000D02*
X57325000Y-93520000D01*
%TO.C,SW2*%
X70700000Y-97520000D02*
X75200000Y-97520000D01*
X75200000Y-91020000D02*
X70700000Y-91020000D01*
X76450000Y-95020000D02*
X76450000Y-93520000D01*
X69450000Y-93520000D02*
X69450000Y-95020000D01*
D12*
%TO.C,REF\u002A\u002A*%
X101520814Y-95893931D02*
X101604635Y-96338555D01*
X101604635Y-96338555D02*
X101913920Y-96466053D01*
X101913920Y-96466053D02*
X102223206Y-96593551D01*
X102223206Y-96593551D02*
X102594246Y-96341246D01*
X102594246Y-96341246D02*
X102698157Y-96270996D01*
X102698157Y-96270996D02*
X102792087Y-96208272D01*
X102792087Y-96208272D02*
X102871652Y-96155938D01*
X102871652Y-96155938D02*
X102932470Y-96116857D01*
X102932470Y-96116857D02*
X102970157Y-96093893D01*
X102970157Y-96093893D02*
X102980421Y-96088942D01*
X102980421Y-96088942D02*
X102998910Y-96101676D01*
X102998910Y-96101676D02*
X103038420Y-96136882D01*
X103038420Y-96136882D02*
X103094522Y-96190062D01*
X103094522Y-96190062D02*
X103162787Y-96256718D01*
X103162787Y-96256718D02*
X103238786Y-96332354D01*
X103238786Y-96332354D02*
X103318092Y-96412472D01*
X103318092Y-96412472D02*
X103396275Y-96492574D01*
X103396275Y-96492574D02*
X103468907Y-96568164D01*
X103468907Y-96568164D02*
X103531559Y-96634745D01*
X103531559Y-96634745D02*
X103579803Y-96687818D01*
X103579803Y-96687818D02*
X103609210Y-96722887D01*
X103609210Y-96722887D02*
X103616241Y-96734623D01*
X103616241Y-96734623D02*
X103606123Y-96756260D01*
X103606123Y-96756260D02*
X103577759Y-96803662D01*
X103577759Y-96803662D02*
X103534129Y-96872193D01*
X103534129Y-96872193D02*
X103478218Y-96957215D01*
X103478218Y-96957215D02*
X103413006Y-97054093D01*
X103413006Y-97054093D02*
X103375219Y-97109350D01*
X103375219Y-97109350D02*
X103306343Y-97210248D01*
X103306343Y-97210248D02*
X103245140Y-97301299D01*
X103245140Y-97301299D02*
X103194578Y-97377970D01*
X103194578Y-97377970D02*
X103157628Y-97435728D01*
X103157628Y-97435728D02*
X103137258Y-97470043D01*
X103137258Y-97470043D02*
X103134197Y-97477254D01*
X103134197Y-97477254D02*
X103141136Y-97497748D01*
X103141136Y-97497748D02*
X103160051Y-97545513D01*
X103160051Y-97545513D02*
X103188087Y-97613832D01*
X103188087Y-97613832D02*
X103222391Y-97695989D01*
X103222391Y-97695989D02*
X103260109Y-97785270D01*
X103260109Y-97785270D02*
X103298387Y-97874958D01*
X103298387Y-97874958D02*
X103334370Y-97958338D01*
X103334370Y-97958338D02*
X103365206Y-98028694D01*
X103365206Y-98028694D02*
X103388039Y-98079310D01*
X103388039Y-98079310D02*
X103400017Y-98103471D01*
X103400017Y-98103471D02*
X103400724Y-98104422D01*
X103400724Y-98104422D02*
X103419531Y-98109036D01*
X103419531Y-98109036D02*
X103469618Y-98119328D01*
X103469618Y-98119328D02*
X103545793Y-98134287D01*
X103545793Y-98134287D02*
X103642865Y-98152901D01*
X103642865Y-98152901D02*
X103755643Y-98174159D01*
X103755643Y-98174159D02*
X103821442Y-98186418D01*
X103821442Y-98186418D02*
X103941950Y-98209362D01*
X103941950Y-98209362D02*
X104050797Y-98231195D01*
X104050797Y-98231195D02*
X104142476Y-98250722D01*
X104142476Y-98250722D02*
X104211481Y-98266748D01*
X104211481Y-98266748D02*
X104252304Y-98278079D01*
X104252304Y-98278079D02*
X104260511Y-98281674D01*
X104260511Y-98281674D02*
X104268548Y-98306006D01*
X104268548Y-98306006D02*
X104275033Y-98360959D01*
X104275033Y-98360959D02*
X104279970Y-98440108D01*
X104279970Y-98440108D02*
X104283364Y-98537026D01*
X104283364Y-98537026D02*
X104285218Y-98645287D01*
X104285218Y-98645287D02*
X104285538Y-98758465D01*
X104285538Y-98758465D02*
X104284327Y-98870135D01*
X104284327Y-98870135D02*
X104281590Y-98973868D01*
X104281590Y-98973868D02*
X104277331Y-99063241D01*
X104277331Y-99063241D02*
X104271555Y-99131826D01*
X104271555Y-99131826D02*
X104264267Y-99173197D01*
X104264267Y-99173197D02*
X104259895Y-99181810D01*
X104259895Y-99181810D02*
X104233764Y-99192133D01*
X104233764Y-99192133D02*
X104178393Y-99206892D01*
X104178393Y-99206892D02*
X104101107Y-99224352D01*
X104101107Y-99224352D02*
X104009230Y-99242780D01*
X104009230Y-99242780D02*
X103977158Y-99248741D01*
X103977158Y-99248741D02*
X103822524Y-99277066D01*
X103822524Y-99277066D02*
X103700375Y-99299876D01*
X103700375Y-99299876D02*
X103606673Y-99318080D01*
X103606673Y-99318080D02*
X103537384Y-99332583D01*
X103537384Y-99332583D02*
X103488471Y-99344292D01*
X103488471Y-99344292D02*
X103455897Y-99354115D01*
X103455897Y-99354115D02*
X103435628Y-99362956D01*
X103435628Y-99362956D02*
X103423626Y-99371724D01*
X103423626Y-99371724D02*
X103421947Y-99373457D01*
X103421947Y-99373457D02*
X103405184Y-99401371D01*
X103405184Y-99401371D02*
X103379614Y-99455695D01*
X103379614Y-99455695D02*
X103347788Y-99529777D01*
X103347788Y-99529777D02*
X103312260Y-99616965D01*
X103312260Y-99616965D02*
X103275583Y-99710608D01*
X103275583Y-99710608D02*
X103240311Y-99804052D01*
X103240311Y-99804052D02*
X103208996Y-99890647D01*
X103208996Y-99890647D02*
X103184193Y-99963740D01*
X103184193Y-99963740D02*
X103168454Y-100016678D01*
X103168454Y-100016678D02*
X103164332Y-100042811D01*
X103164332Y-100042811D02*
X103164676Y-100043726D01*
X103164676Y-100043726D02*
X103178641Y-100065086D01*
X103178641Y-100065086D02*
X103210322Y-100112084D01*
X103210322Y-100112084D02*
X103256391Y-100179827D01*
X103256391Y-100179827D02*
X103313518Y-100263423D01*
X103313518Y-100263423D02*
X103378373Y-100357982D01*
X103378373Y-100357982D02*
X103396843Y-100384854D01*
X103396843Y-100384854D02*
X103462699Y-100482275D01*
X103462699Y-100482275D02*
X103520650Y-100571163D01*
X103520650Y-100571163D02*
X103567538Y-100646412D01*
X103567538Y-100646412D02*
X103600207Y-100702920D01*
X103600207Y-100702920D02*
X103615500Y-100735581D01*
X103615500Y-100735581D02*
X103616241Y-100739593D01*
X103616241Y-100739593D02*
X103603392Y-100760684D01*
X103603392Y-100760684D02*
X103567888Y-100802464D01*
X103567888Y-100802464D02*
X103514293Y-100860445D01*
X103514293Y-100860445D02*
X103447171Y-100930135D01*
X103447171Y-100930135D02*
X103371087Y-101007045D01*
X103371087Y-101007045D02*
X103290604Y-101086683D01*
X103290604Y-101086683D02*
X103210287Y-101164561D01*
X103210287Y-101164561D02*
X103134699Y-101236186D01*
X103134699Y-101236186D02*
X103068405Y-101297070D01*
X103068405Y-101297070D02*
X103015969Y-101342721D01*
X103015969Y-101342721D02*
X102981955Y-101368650D01*
X102981955Y-101368650D02*
X102972545Y-101372883D01*
X102972545Y-101372883D02*
X102950643Y-101362912D01*
X102950643Y-101362912D02*
X102905800Y-101336020D01*
X102905800Y-101336020D02*
X102845321Y-101296736D01*
X102845321Y-101296736D02*
X102798789Y-101265117D01*
X102798789Y-101265117D02*
X102714475Y-101207098D01*
X102714475Y-101207098D02*
X102614626Y-101138784D01*
X102614626Y-101138784D02*
X102514473Y-101070579D01*
X102514473Y-101070579D02*
X102460627Y-101034075D01*
X102460627Y-101034075D02*
X102278371Y-100910800D01*
X102278371Y-100910800D02*
X102125381Y-100993520D01*
X102125381Y-100993520D02*
X102055682Y-101029759D01*
X102055682Y-101029759D02*
X101996414Y-101057926D01*
X101996414Y-101057926D02*
X101956311Y-101073991D01*
X101956311Y-101073991D02*
X101946103Y-101076226D01*
X101946103Y-101076226D02*
X101933829Y-101059722D01*
X101933829Y-101059722D02*
X101909613Y-101013082D01*
X101909613Y-101013082D02*
X101875263Y-100940609D01*
X101875263Y-100940609D02*
X101832588Y-100846606D01*
X101832588Y-100846606D02*
X101783394Y-100735374D01*
X101783394Y-100735374D02*
X101729490Y-100611215D01*
X101729490Y-100611215D02*
X101672684Y-100478432D01*
X101672684Y-100478432D02*
X101614782Y-100341327D01*
X101614782Y-100341327D02*
X101557593Y-100204202D01*
X101557593Y-100204202D02*
X101502924Y-100071358D01*
X101502924Y-100071358D02*
X101452584Y-99947098D01*
X101452584Y-99947098D02*
X101408380Y-99835725D01*
X101408380Y-99835725D02*
X101372119Y-99741539D01*
X101372119Y-99741539D02*
X101345609Y-99668844D01*
X101345609Y-99668844D02*
X101330658Y-99621941D01*
X101330658Y-99621941D02*
X101328254Y-99605833D01*
X101328254Y-99605833D02*
X101347311Y-99585286D01*
X101347311Y-99585286D02*
X101389036Y-99551933D01*
X101389036Y-99551933D02*
X101444706Y-99512702D01*
X101444706Y-99512702D02*
X101449378Y-99509599D01*
X101449378Y-99509599D02*
X101593264Y-99394423D01*
X101593264Y-99394423D02*
X101709283Y-99260053D01*
X101709283Y-99260053D02*
X101796430Y-99110784D01*
X101796430Y-99110784D02*
X101853699Y-98950913D01*
X101853699Y-98950913D02*
X101880086Y-98784737D01*
X101880086Y-98784737D02*
X101874585Y-98616552D01*
X101874585Y-98616552D02*
X101836190Y-98450655D01*
X101836190Y-98450655D02*
X101763895Y-98291342D01*
X101763895Y-98291342D02*
X101742626Y-98256487D01*
X101742626Y-98256487D02*
X101631996Y-98115737D01*
X101631996Y-98115737D02*
X101501302Y-98002714D01*
X101501302Y-98002714D02*
X101355064Y-97918003D01*
X101355064Y-97918003D02*
X101197808Y-97862194D01*
X101197808Y-97862194D02*
X101034057Y-97835874D01*
X101034057Y-97835874D02*
X100868333Y-97839630D01*
X100868333Y-97839630D02*
X100705162Y-97874050D01*
X100705162Y-97874050D02*
X100549065Y-97939723D01*
X100549065Y-97939723D02*
X100404567Y-98037235D01*
X100404567Y-98037235D02*
X100359869Y-98076813D01*
X100359869Y-98076813D02*
X100246112Y-98200703D01*
X100246112Y-98200703D02*
X100163218Y-98331124D01*
X100163218Y-98331124D02*
X100106356Y-98477315D01*
X100106356Y-98477315D02*
X100074687Y-98622088D01*
X100074687Y-98622088D02*
X100066869Y-98784860D01*
X100066869Y-98784860D02*
X100092938Y-98948440D01*
X100092938Y-98948440D02*
X100150245Y-99107298D01*
X100150245Y-99107298D02*
X100236144Y-99255906D01*
X100236144Y-99255906D02*
X100347986Y-99388735D01*
X100347986Y-99388735D02*
X100483123Y-99500256D01*
X100483123Y-99500256D02*
X100500883Y-99512011D01*
X100500883Y-99512011D02*
X100557150Y-99550508D01*
X100557150Y-99550508D02*
X100599923Y-99583863D01*
X100599923Y-99583863D02*
X100620372Y-99605160D01*
X100620372Y-99605160D02*
X100620669Y-99605833D01*
X100620669Y-99605833D02*
X100616279Y-99628871D01*
X100616279Y-99628871D02*
X100598876Y-99681157D01*
X100598876Y-99681157D02*
X100570268Y-99758390D01*
X100570268Y-99758390D02*
X100532265Y-99856268D01*
X100532265Y-99856268D02*
X100486674Y-99970491D01*
X100486674Y-99970491D02*
X100435303Y-100096758D01*
X100435303Y-100096758D02*
X100379962Y-100230767D01*
X100379962Y-100230767D02*
X100322458Y-100368218D01*
X100322458Y-100368218D02*
X100264601Y-100504808D01*
X100264601Y-100504808D02*
X100208198Y-100636237D01*
X100208198Y-100636237D02*
X100155058Y-100758205D01*
X100155058Y-100758205D02*
X100106990Y-100866409D01*
X100106990Y-100866409D02*
X100065801Y-100956549D01*
X100065801Y-100956549D02*
X100033301Y-101024323D01*
X100033301Y-101024323D02*
X100011297Y-101065430D01*
X100011297Y-101065430D02*
X100002436Y-101076226D01*
X100002436Y-101076226D02*
X99975360Y-101067819D01*
X99975360Y-101067819D02*
X99924697Y-101045272D01*
X99924697Y-101045272D02*
X99859183Y-101012613D01*
X99859183Y-101012613D02*
X99823159Y-100993520D01*
X99823159Y-100993520D02*
X99670168Y-100910800D01*
X99670168Y-100910800D02*
X99487912Y-101034075D01*
X99487912Y-101034075D02*
X99394875Y-101097228D01*
X99394875Y-101097228D02*
X99293015Y-101166727D01*
X99293015Y-101166727D02*
X99197562Y-101232165D01*
X99197562Y-101232165D02*
X99149750Y-101265117D01*
X99149750Y-101265117D02*
X99082505Y-101310273D01*
X99082505Y-101310273D02*
X99025564Y-101346057D01*
X99025564Y-101346057D02*
X98986354Y-101367938D01*
X98986354Y-101367938D02*
X98973619Y-101372563D01*
X98973619Y-101372563D02*
X98955083Y-101360085D01*
X98955083Y-101360085D02*
X98914059Y-101325252D01*
X98914059Y-101325252D02*
X98854525Y-101271678D01*
X98854525Y-101271678D02*
X98780458Y-101202983D01*
X98780458Y-101202983D02*
X98695835Y-101122781D01*
X98695835Y-101122781D02*
X98642315Y-101071286D01*
X98642315Y-101071286D02*
X98548681Y-100979286D01*
X98548681Y-100979286D02*
X98467759Y-100896999D01*
X98467759Y-100896999D02*
X98402823Y-100827945D01*
X98402823Y-100827945D02*
X98357142Y-100775644D01*
X98357142Y-100775644D02*
X98333989Y-100743616D01*
X98333989Y-100743616D02*
X98331768Y-100737116D01*
X98331768Y-100737116D02*
X98342076Y-100712394D01*
X98342076Y-100712394D02*
X98370561Y-100662405D01*
X98370561Y-100662405D02*
X98414063Y-100592212D01*
X98414063Y-100592212D02*
X98469423Y-100506875D01*
X98469423Y-100506875D02*
X98533480Y-100411456D01*
X98533480Y-100411456D02*
X98551697Y-100384854D01*
X98551697Y-100384854D02*
X98618073Y-100288167D01*
X98618073Y-100288167D02*
X98677622Y-100201117D01*
X98677622Y-100201117D02*
X98727016Y-100128595D01*
X98727016Y-100128595D02*
X98762925Y-100075493D01*
X98762925Y-100075493D02*
X98782019Y-100046703D01*
X98782019Y-100046703D02*
X98783864Y-100043726D01*
X98783864Y-100043726D02*
X98781105Y-100020782D01*
X98781105Y-100020782D02*
X98766462Y-99970336D01*
X98766462Y-99970336D02*
X98742487Y-99899041D01*
X98742487Y-99899041D02*
X98711734Y-99813547D01*
X98711734Y-99813547D02*
X98676756Y-99720507D01*
X98676756Y-99720507D02*
X98640107Y-99626574D01*
X98640107Y-99626574D02*
X98604339Y-99538399D01*
X98604339Y-99538399D02*
X98572006Y-99462634D01*
X98572006Y-99462634D02*
X98545662Y-99405931D01*
X98545662Y-99405931D02*
X98527858Y-99374943D01*
X98527858Y-99374943D02*
X98526593Y-99373457D01*
X98526593Y-99373457D02*
X98515706Y-99364601D01*
X98515706Y-99364601D02*
X98497318Y-99355843D01*
X98497318Y-99355843D02*
X98467394Y-99346277D01*
X98467394Y-99346277D02*
X98421897Y-99334996D01*
X98421897Y-99334996D02*
X98356791Y-99321093D01*
X98356791Y-99321093D02*
X98268039Y-99303663D01*
X98268039Y-99303663D02*
X98151607Y-99281798D01*
X98151607Y-99281798D02*
X98003458Y-99254591D01*
X98003458Y-99254591D02*
X97971382Y-99248741D01*
X97971382Y-99248741D02*
X97876314Y-99230374D01*
X97876314Y-99230374D02*
X97793435Y-99212405D01*
X97793435Y-99212405D02*
X97730070Y-99196569D01*
X97730070Y-99196569D02*
X97693542Y-99184600D01*
X97693542Y-99184600D02*
X97688644Y-99181810D01*
X97688644Y-99181810D02*
X97680573Y-99157072D01*
X97680573Y-99157072D02*
X97674013Y-99101790D01*
X97674013Y-99101790D02*
X97668967Y-99022389D01*
X97668967Y-99022389D02*
X97665441Y-98925296D01*
X97665441Y-98925296D02*
X97663439Y-98816938D01*
X97663439Y-98816938D02*
X97662964Y-98703740D01*
X97662964Y-98703740D02*
X97664023Y-98592128D01*
X97664023Y-98592128D02*
X97666618Y-98488529D01*
X97666618Y-98488529D02*
X97670754Y-98399368D01*
X97670754Y-98399368D02*
X97676437Y-98331072D01*
X97676437Y-98331072D02*
X97683669Y-98290066D01*
X97683669Y-98290066D02*
X97688029Y-98281674D01*
X97688029Y-98281674D02*
X97712302Y-98273208D01*
X97712302Y-98273208D02*
X97767574Y-98259435D01*
X97767574Y-98259435D02*
X97848338Y-98241550D01*
X97848338Y-98241550D02*
X97949088Y-98220748D01*
X97949088Y-98220748D02*
X98064317Y-98198223D01*
X98064317Y-98198223D02*
X98127098Y-98186418D01*
X98127098Y-98186418D02*
X98246213Y-98164151D01*
X98246213Y-98164151D02*
X98352435Y-98143979D01*
X98352435Y-98143979D02*
X98440573Y-98126915D01*
X98440573Y-98126915D02*
X98505434Y-98113969D01*
X98505434Y-98113969D02*
X98541826Y-98106155D01*
X98541826Y-98106155D02*
X98547816Y-98104422D01*
X98547816Y-98104422D02*
X98557939Y-98084890D01*
X98557939Y-98084890D02*
X98579338Y-98037843D01*
X98579338Y-98037843D02*
X98609161Y-97970003D01*
X98609161Y-97970003D02*
X98644555Y-97888091D01*
X98644555Y-97888091D02*
X98682668Y-97798828D01*
X98682668Y-97798828D02*
X98720647Y-97708935D01*
X98720647Y-97708935D02*
X98755640Y-97625135D01*
X98755640Y-97625135D02*
X98784794Y-97554147D01*
X98784794Y-97554147D02*
X98805257Y-97502694D01*
X98805257Y-97502694D02*
X98814177Y-97477497D01*
X98814177Y-97477497D02*
X98814343Y-97476396D01*
X98814343Y-97476396D02*
X98804231Y-97456519D01*
X98804231Y-97456519D02*
X98775883Y-97410777D01*
X98775883Y-97410777D02*
X98732277Y-97343717D01*
X98732277Y-97343717D02*
X98676394Y-97259884D01*
X98676394Y-97259884D02*
X98611213Y-97163826D01*
X98611213Y-97163826D02*
X98573321Y-97108650D01*
X98573321Y-97108650D02*
X98504275Y-97007481D01*
X98504275Y-97007481D02*
X98442950Y-96915630D01*
X98442950Y-96915630D02*
X98392337Y-96837744D01*
X98392337Y-96837744D02*
X98355429Y-96778469D01*
X98355429Y-96778469D02*
X98335218Y-96742451D01*
X98335218Y-96742451D02*
X98332299Y-96734377D01*
X98332299Y-96734377D02*
X98344847Y-96715584D01*
X98344847Y-96715584D02*
X98379537Y-96675457D01*
X98379537Y-96675457D02*
X98431937Y-96618493D01*
X98431937Y-96618493D02*
X98497616Y-96549185D01*
X98497616Y-96549185D02*
X98572144Y-96472031D01*
X98572144Y-96472031D02*
X98651087Y-96391525D01*
X98651087Y-96391525D02*
X98730017Y-96312163D01*
X98730017Y-96312163D02*
X98804500Y-96238440D01*
X98804500Y-96238440D02*
X98870106Y-96174852D01*
X98870106Y-96174852D02*
X98922404Y-96125894D01*
X98922404Y-96125894D02*
X98956961Y-96096061D01*
X98956961Y-96096061D02*
X98968522Y-96088942D01*
X98968522Y-96088942D02*
X98987346Y-96098953D01*
X98987346Y-96098953D02*
X99032369Y-96127078D01*
X99032369Y-96127078D02*
X99099213Y-96170454D01*
X99099213Y-96170454D02*
X99183501Y-96226218D01*
X99183501Y-96226218D02*
X99280856Y-96291506D01*
X99280856Y-96291506D02*
X99354293Y-96341246D01*
X99354293Y-96341246D02*
X99725333Y-96593551D01*
X99725333Y-96593551D02*
X100343905Y-96338555D01*
X100343905Y-96338555D02*
X100427725Y-95893931D01*
X100427725Y-95893931D02*
X100511546Y-95449307D01*
X100511546Y-95449307D02*
X101436994Y-95449307D01*
X101436994Y-95449307D02*
X101520814Y-95893931D01*
X101520814Y-95893931D02*
X101520814Y-95893931D01*
G36*
X101520814Y-95893931D02*
G01*
X101604635Y-96338555D01*
X101913920Y-96466053D01*
X102223206Y-96593551D01*
X102594246Y-96341246D01*
X102698157Y-96270996D01*
X102792087Y-96208272D01*
X102871652Y-96155938D01*
X102932470Y-96116857D01*
X102970157Y-96093893D01*
X102980421Y-96088942D01*
X102998910Y-96101676D01*
X103038420Y-96136882D01*
X103094522Y-96190062D01*
X103162787Y-96256718D01*
X103238786Y-96332354D01*
X103318092Y-96412472D01*
X103396275Y-96492574D01*
X103468907Y-96568164D01*
X103531559Y-96634745D01*
X103579803Y-96687818D01*
X103609210Y-96722887D01*
X103616241Y-96734623D01*
X103606123Y-96756260D01*
X103577759Y-96803662D01*
X103534129Y-96872193D01*
X103478218Y-96957215D01*
X103413006Y-97054093D01*
X103375219Y-97109350D01*
X103306343Y-97210248D01*
X103245140Y-97301299D01*
X103194578Y-97377970D01*
X103157628Y-97435728D01*
X103137258Y-97470043D01*
X103134197Y-97477254D01*
X103141136Y-97497748D01*
X103160051Y-97545513D01*
X103188087Y-97613832D01*
X103222391Y-97695989D01*
X103260109Y-97785270D01*
X103298387Y-97874958D01*
X103334370Y-97958338D01*
X103365206Y-98028694D01*
X103388039Y-98079310D01*
X103400017Y-98103471D01*
X103400724Y-98104422D01*
X103419531Y-98109036D01*
X103469618Y-98119328D01*
X103545793Y-98134287D01*
X103642865Y-98152901D01*
X103755643Y-98174159D01*
X103821442Y-98186418D01*
X103941950Y-98209362D01*
X104050797Y-98231195D01*
X104142476Y-98250722D01*
X104211481Y-98266748D01*
X104252304Y-98278079D01*
X104260511Y-98281674D01*
X104268548Y-98306006D01*
X104275033Y-98360959D01*
X104279970Y-98440108D01*
X104283364Y-98537026D01*
X104285218Y-98645287D01*
X104285538Y-98758465D01*
X104284327Y-98870135D01*
X104281590Y-98973868D01*
X104277331Y-99063241D01*
X104271555Y-99131826D01*
X104264267Y-99173197D01*
X104259895Y-99181810D01*
X104233764Y-99192133D01*
X104178393Y-99206892D01*
X104101107Y-99224352D01*
X104009230Y-99242780D01*
X103977158Y-99248741D01*
X103822524Y-99277066D01*
X103700375Y-99299876D01*
X103606673Y-99318080D01*
X103537384Y-99332583D01*
X103488471Y-99344292D01*
X103455897Y-99354115D01*
X103435628Y-99362956D01*
X103423626Y-99371724D01*
X103421947Y-99373457D01*
X103405184Y-99401371D01*
X103379614Y-99455695D01*
X103347788Y-99529777D01*
X103312260Y-99616965D01*
X103275583Y-99710608D01*
X103240311Y-99804052D01*
X103208996Y-99890647D01*
X103184193Y-99963740D01*
X103168454Y-100016678D01*
X103164332Y-100042811D01*
X103164676Y-100043726D01*
X103178641Y-100065086D01*
X103210322Y-100112084D01*
X103256391Y-100179827D01*
X103313518Y-100263423D01*
X103378373Y-100357982D01*
X103396843Y-100384854D01*
X103462699Y-100482275D01*
X103520650Y-100571163D01*
X103567538Y-100646412D01*
X103600207Y-100702920D01*
X103615500Y-100735581D01*
X103616241Y-100739593D01*
X103603392Y-100760684D01*
X103567888Y-100802464D01*
X103514293Y-100860445D01*
X103447171Y-100930135D01*
X103371087Y-101007045D01*
X103290604Y-101086683D01*
X103210287Y-101164561D01*
X103134699Y-101236186D01*
X103068405Y-101297070D01*
X103015969Y-101342721D01*
X102981955Y-101368650D01*
X102972545Y-101372883D01*
X102950643Y-101362912D01*
X102905800Y-101336020D01*
X102845321Y-101296736D01*
X102798789Y-101265117D01*
X102714475Y-101207098D01*
X102614626Y-101138784D01*
X102514473Y-101070579D01*
X102460627Y-101034075D01*
X102278371Y-100910800D01*
X102125381Y-100993520D01*
X102055682Y-101029759D01*
X101996414Y-101057926D01*
X101956311Y-101073991D01*
X101946103Y-101076226D01*
X101933829Y-101059722D01*
X101909613Y-101013082D01*
X101875263Y-100940609D01*
X101832588Y-100846606D01*
X101783394Y-100735374D01*
X101729490Y-100611215D01*
X101672684Y-100478432D01*
X101614782Y-100341327D01*
X101557593Y-100204202D01*
X101502924Y-100071358D01*
X101452584Y-99947098D01*
X101408380Y-99835725D01*
X101372119Y-99741539D01*
X101345609Y-99668844D01*
X101330658Y-99621941D01*
X101328254Y-99605833D01*
X101347311Y-99585286D01*
X101389036Y-99551933D01*
X101444706Y-99512702D01*
X101449378Y-99509599D01*
X101593264Y-99394423D01*
X101709283Y-99260053D01*
X101796430Y-99110784D01*
X101853699Y-98950913D01*
X101880086Y-98784737D01*
X101874585Y-98616552D01*
X101836190Y-98450655D01*
X101763895Y-98291342D01*
X101742626Y-98256487D01*
X101631996Y-98115737D01*
X101501302Y-98002714D01*
X101355064Y-97918003D01*
X101197808Y-97862194D01*
X101034057Y-97835874D01*
X100868333Y-97839630D01*
X100705162Y-97874050D01*
X100549065Y-97939723D01*
X100404567Y-98037235D01*
X100359869Y-98076813D01*
X100246112Y-98200703D01*
X100163218Y-98331124D01*
X100106356Y-98477315D01*
X100074687Y-98622088D01*
X100066869Y-98784860D01*
X100092938Y-98948440D01*
X100150245Y-99107298D01*
X100236144Y-99255906D01*
X100347986Y-99388735D01*
X100483123Y-99500256D01*
X100500883Y-99512011D01*
X100557150Y-99550508D01*
X100599923Y-99583863D01*
X100620372Y-99605160D01*
X100620669Y-99605833D01*
X100616279Y-99628871D01*
X100598876Y-99681157D01*
X100570268Y-99758390D01*
X100532265Y-99856268D01*
X100486674Y-99970491D01*
X100435303Y-100096758D01*
X100379962Y-100230767D01*
X100322458Y-100368218D01*
X100264601Y-100504808D01*
X100208198Y-100636237D01*
X100155058Y-100758205D01*
X100106990Y-100866409D01*
X100065801Y-100956549D01*
X100033301Y-101024323D01*
X100011297Y-101065430D01*
X100002436Y-101076226D01*
X99975360Y-101067819D01*
X99924697Y-101045272D01*
X99859183Y-101012613D01*
X99823159Y-100993520D01*
X99670168Y-100910800D01*
X99487912Y-101034075D01*
X99394875Y-101097228D01*
X99293015Y-101166727D01*
X99197562Y-101232165D01*
X99149750Y-101265117D01*
X99082505Y-101310273D01*
X99025564Y-101346057D01*
X98986354Y-101367938D01*
X98973619Y-101372563D01*
X98955083Y-101360085D01*
X98914059Y-101325252D01*
X98854525Y-101271678D01*
X98780458Y-101202983D01*
X98695835Y-101122781D01*
X98642315Y-101071286D01*
X98548681Y-100979286D01*
X98467759Y-100896999D01*
X98402823Y-100827945D01*
X98357142Y-100775644D01*
X98333989Y-100743616D01*
X98331768Y-100737116D01*
X98342076Y-100712394D01*
X98370561Y-100662405D01*
X98414063Y-100592212D01*
X98469423Y-100506875D01*
X98533480Y-100411456D01*
X98551697Y-100384854D01*
X98618073Y-100288167D01*
X98677622Y-100201117D01*
X98727016Y-100128595D01*
X98762925Y-100075493D01*
X98782019Y-100046703D01*
X98783864Y-100043726D01*
X98781105Y-100020782D01*
X98766462Y-99970336D01*
X98742487Y-99899041D01*
X98711734Y-99813547D01*
X98676756Y-99720507D01*
X98640107Y-99626574D01*
X98604339Y-99538399D01*
X98572006Y-99462634D01*
X98545662Y-99405931D01*
X98527858Y-99374943D01*
X98526593Y-99373457D01*
X98515706Y-99364601D01*
X98497318Y-99355843D01*
X98467394Y-99346277D01*
X98421897Y-99334996D01*
X98356791Y-99321093D01*
X98268039Y-99303663D01*
X98151607Y-99281798D01*
X98003458Y-99254591D01*
X97971382Y-99248741D01*
X97876314Y-99230374D01*
X97793435Y-99212405D01*
X97730070Y-99196569D01*
X97693542Y-99184600D01*
X97688644Y-99181810D01*
X97680573Y-99157072D01*
X97674013Y-99101790D01*
X97668967Y-99022389D01*
X97665441Y-98925296D01*
X97663439Y-98816938D01*
X97662964Y-98703740D01*
X97664023Y-98592128D01*
X97666618Y-98488529D01*
X97670754Y-98399368D01*
X97676437Y-98331072D01*
X97683669Y-98290066D01*
X97688029Y-98281674D01*
X97712302Y-98273208D01*
X97767574Y-98259435D01*
X97848338Y-98241550D01*
X97949088Y-98220748D01*
X98064317Y-98198223D01*
X98127098Y-98186418D01*
X98246213Y-98164151D01*
X98352435Y-98143979D01*
X98440573Y-98126915D01*
X98505434Y-98113969D01*
X98541826Y-98106155D01*
X98547816Y-98104422D01*
X98557939Y-98084890D01*
X98579338Y-98037843D01*
X98609161Y-97970003D01*
X98644555Y-97888091D01*
X98682668Y-97798828D01*
X98720647Y-97708935D01*
X98755640Y-97625135D01*
X98784794Y-97554147D01*
X98805257Y-97502694D01*
X98814177Y-97477497D01*
X98814343Y-97476396D01*
X98804231Y-97456519D01*
X98775883Y-97410777D01*
X98732277Y-97343717D01*
X98676394Y-97259884D01*
X98611213Y-97163826D01*
X98573321Y-97108650D01*
X98504275Y-97007481D01*
X98442950Y-96915630D01*
X98392337Y-96837744D01*
X98355429Y-96778469D01*
X98335218Y-96742451D01*
X98332299Y-96734377D01*
X98344847Y-96715584D01*
X98379537Y-96675457D01*
X98431937Y-96618493D01*
X98497616Y-96549185D01*
X98572144Y-96472031D01*
X98651087Y-96391525D01*
X98730017Y-96312163D01*
X98804500Y-96238440D01*
X98870106Y-96174852D01*
X98922404Y-96125894D01*
X98956961Y-96096061D01*
X98968522Y-96088942D01*
X98987346Y-96098953D01*
X99032369Y-96127078D01*
X99099213Y-96170454D01*
X99183501Y-96226218D01*
X99280856Y-96291506D01*
X99354293Y-96341246D01*
X99725333Y-96593551D01*
X100343905Y-96338555D01*
X100427725Y-95893931D01*
X100511546Y-95449307D01*
X101436994Y-95449307D01*
X101520814Y-95893931D01*
G37*
X101520814Y-95893931D02*
X101604635Y-96338555D01*
X101913920Y-96466053D01*
X102223206Y-96593551D01*
X102594246Y-96341246D01*
X102698157Y-96270996D01*
X102792087Y-96208272D01*
X102871652Y-96155938D01*
X102932470Y-96116857D01*
X102970157Y-96093893D01*
X102980421Y-96088942D01*
X102998910Y-96101676D01*
X103038420Y-96136882D01*
X103094522Y-96190062D01*
X103162787Y-96256718D01*
X103238786Y-96332354D01*
X103318092Y-96412472D01*
X103396275Y-96492574D01*
X103468907Y-96568164D01*
X103531559Y-96634745D01*
X103579803Y-96687818D01*
X103609210Y-96722887D01*
X103616241Y-96734623D01*
X103606123Y-96756260D01*
X103577759Y-96803662D01*
X103534129Y-96872193D01*
X103478218Y-96957215D01*
X103413006Y-97054093D01*
X103375219Y-97109350D01*
X103306343Y-97210248D01*
X103245140Y-97301299D01*
X103194578Y-97377970D01*
X103157628Y-97435728D01*
X103137258Y-97470043D01*
X103134197Y-97477254D01*
X103141136Y-97497748D01*
X103160051Y-97545513D01*
X103188087Y-97613832D01*
X103222391Y-97695989D01*
X103260109Y-97785270D01*
X103298387Y-97874958D01*
X103334370Y-97958338D01*
X103365206Y-98028694D01*
X103388039Y-98079310D01*
X103400017Y-98103471D01*
X103400724Y-98104422D01*
X103419531Y-98109036D01*
X103469618Y-98119328D01*
X103545793Y-98134287D01*
X103642865Y-98152901D01*
X103755643Y-98174159D01*
X103821442Y-98186418D01*
X103941950Y-98209362D01*
X104050797Y-98231195D01*
X104142476Y-98250722D01*
X104211481Y-98266748D01*
X104252304Y-98278079D01*
X104260511Y-98281674D01*
X104268548Y-98306006D01*
X104275033Y-98360959D01*
X104279970Y-98440108D01*
X104283364Y-98537026D01*
X104285218Y-98645287D01*
X104285538Y-98758465D01*
X104284327Y-98870135D01*
X104281590Y-98973868D01*
X104277331Y-99063241D01*
X104271555Y-99131826D01*
X104264267Y-99173197D01*
X104259895Y-99181810D01*
X104233764Y-99192133D01*
X104178393Y-99206892D01*
X104101107Y-99224352D01*
X104009230Y-99242780D01*
X103977158Y-99248741D01*
X103822524Y-99277066D01*
X103700375Y-99299876D01*
X103606673Y-99318080D01*
X103537384Y-99332583D01*
X103488471Y-99344292D01*
X103455897Y-99354115D01*
X103435628Y-99362956D01*
X103423626Y-99371724D01*
X103421947Y-99373457D01*
X103405184Y-99401371D01*
X103379614Y-99455695D01*
X103347788Y-99529777D01*
X103312260Y-99616965D01*
X103275583Y-99710608D01*
X103240311Y-99804052D01*
X103208996Y-99890647D01*
X103184193Y-99963740D01*
X103168454Y-100016678D01*
X103164332Y-100042811D01*
X103164676Y-100043726D01*
X103178641Y-100065086D01*
X103210322Y-100112084D01*
X103256391Y-100179827D01*
X103313518Y-100263423D01*
X103378373Y-100357982D01*
X103396843Y-100384854D01*
X103462699Y-100482275D01*
X103520650Y-100571163D01*
X103567538Y-100646412D01*
X103600207Y-100702920D01*
X103615500Y-100735581D01*
X103616241Y-100739593D01*
X103603392Y-100760684D01*
X103567888Y-100802464D01*
X103514293Y-100860445D01*
X103447171Y-100930135D01*
X103371087Y-101007045D01*
X103290604Y-101086683D01*
X103210287Y-101164561D01*
X103134699Y-101236186D01*
X103068405Y-101297070D01*
X103015969Y-101342721D01*
X102981955Y-101368650D01*
X102972545Y-101372883D01*
X102950643Y-101362912D01*
X102905800Y-101336020D01*
X102845321Y-101296736D01*
X102798789Y-101265117D01*
X102714475Y-101207098D01*
X102614626Y-101138784D01*
X102514473Y-101070579D01*
X102460627Y-101034075D01*
X102278371Y-100910800D01*
X102125381Y-100993520D01*
X102055682Y-101029759D01*
X101996414Y-101057926D01*
X101956311Y-101073991D01*
X101946103Y-101076226D01*
X101933829Y-101059722D01*
X101909613Y-101013082D01*
X101875263Y-100940609D01*
X101832588Y-100846606D01*
X101783394Y-100735374D01*
X101729490Y-100611215D01*
X101672684Y-100478432D01*
X101614782Y-100341327D01*
X101557593Y-100204202D01*
X101502924Y-100071358D01*
X101452584Y-99947098D01*
X101408380Y-99835725D01*
X101372119Y-99741539D01*
X101345609Y-99668844D01*
X101330658Y-99621941D01*
X101328254Y-99605833D01*
X101347311Y-99585286D01*
X101389036Y-99551933D01*
X101444706Y-99512702D01*
X101449378Y-99509599D01*
X101593264Y-99394423D01*
X101709283Y-99260053D01*
X101796430Y-99110784D01*
X101853699Y-98950913D01*
X101880086Y-98784737D01*
X101874585Y-98616552D01*
X101836190Y-98450655D01*
X101763895Y-98291342D01*
X101742626Y-98256487D01*
X101631996Y-98115737D01*
X101501302Y-98002714D01*
X101355064Y-97918003D01*
X101197808Y-97862194D01*
X101034057Y-97835874D01*
X100868333Y-97839630D01*
X100705162Y-97874050D01*
X100549065Y-97939723D01*
X100404567Y-98037235D01*
X100359869Y-98076813D01*
X100246112Y-98200703D01*
X100163218Y-98331124D01*
X100106356Y-98477315D01*
X100074687Y-98622088D01*
X100066869Y-98784860D01*
X100092938Y-98948440D01*
X100150245Y-99107298D01*
X100236144Y-99255906D01*
X100347986Y-99388735D01*
X100483123Y-99500256D01*
X100500883Y-99512011D01*
X100557150Y-99550508D01*
X100599923Y-99583863D01*
X100620372Y-99605160D01*
X100620669Y-99605833D01*
X100616279Y-99628871D01*
X100598876Y-99681157D01*
X100570268Y-99758390D01*
X100532265Y-99856268D01*
X100486674Y-99970491D01*
X100435303Y-100096758D01*
X100379962Y-100230767D01*
X100322458Y-100368218D01*
X100264601Y-100504808D01*
X100208198Y-100636237D01*
X100155058Y-100758205D01*
X100106990Y-100866409D01*
X100065801Y-100956549D01*
X100033301Y-101024323D01*
X100011297Y-101065430D01*
X100002436Y-101076226D01*
X99975360Y-101067819D01*
X99924697Y-101045272D01*
X99859183Y-101012613D01*
X99823159Y-100993520D01*
X99670168Y-100910800D01*
X99487912Y-101034075D01*
X99394875Y-101097228D01*
X99293015Y-101166727D01*
X99197562Y-101232165D01*
X99149750Y-101265117D01*
X99082505Y-101310273D01*
X99025564Y-101346057D01*
X98986354Y-101367938D01*
X98973619Y-101372563D01*
X98955083Y-101360085D01*
X98914059Y-101325252D01*
X98854525Y-101271678D01*
X98780458Y-101202983D01*
X98695835Y-101122781D01*
X98642315Y-101071286D01*
X98548681Y-100979286D01*
X98467759Y-100896999D01*
X98402823Y-100827945D01*
X98357142Y-100775644D01*
X98333989Y-100743616D01*
X98331768Y-100737116D01*
X98342076Y-100712394D01*
X98370561Y-100662405D01*
X98414063Y-100592212D01*
X98469423Y-100506875D01*
X98533480Y-100411456D01*
X98551697Y-100384854D01*
X98618073Y-100288167D01*
X98677622Y-100201117D01*
X98727016Y-100128595D01*
X98762925Y-100075493D01*
X98782019Y-100046703D01*
X98783864Y-100043726D01*
X98781105Y-100020782D01*
X98766462Y-99970336D01*
X98742487Y-99899041D01*
X98711734Y-99813547D01*
X98676756Y-99720507D01*
X98640107Y-99626574D01*
X98604339Y-99538399D01*
X98572006Y-99462634D01*
X98545662Y-99405931D01*
X98527858Y-99374943D01*
X98526593Y-99373457D01*
X98515706Y-99364601D01*
X98497318Y-99355843D01*
X98467394Y-99346277D01*
X98421897Y-99334996D01*
X98356791Y-99321093D01*
X98268039Y-99303663D01*
X98151607Y-99281798D01*
X98003458Y-99254591D01*
X97971382Y-99248741D01*
X97876314Y-99230374D01*
X97793435Y-99212405D01*
X97730070Y-99196569D01*
X97693542Y-99184600D01*
X97688644Y-99181810D01*
X97680573Y-99157072D01*
X97674013Y-99101790D01*
X97668967Y-99022389D01*
X97665441Y-98925296D01*
X97663439Y-98816938D01*
X97662964Y-98703740D01*
X97664023Y-98592128D01*
X97666618Y-98488529D01*
X97670754Y-98399368D01*
X97676437Y-98331072D01*
X97683669Y-98290066D01*
X97688029Y-98281674D01*
X97712302Y-98273208D01*
X97767574Y-98259435D01*
X97848338Y-98241550D01*
X97949088Y-98220748D01*
X98064317Y-98198223D01*
X98127098Y-98186418D01*
X98246213Y-98164151D01*
X98352435Y-98143979D01*
X98440573Y-98126915D01*
X98505434Y-98113969D01*
X98541826Y-98106155D01*
X98547816Y-98104422D01*
X98557939Y-98084890D01*
X98579338Y-98037843D01*
X98609161Y-97970003D01*
X98644555Y-97888091D01*
X98682668Y-97798828D01*
X98720647Y-97708935D01*
X98755640Y-97625135D01*
X98784794Y-97554147D01*
X98805257Y-97502694D01*
X98814177Y-97477497D01*
X98814343Y-97476396D01*
X98804231Y-97456519D01*
X98775883Y-97410777D01*
X98732277Y-97343717D01*
X98676394Y-97259884D01*
X98611213Y-97163826D01*
X98573321Y-97108650D01*
X98504275Y-97007481D01*
X98442950Y-96915630D01*
X98392337Y-96837744D01*
X98355429Y-96778469D01*
X98335218Y-96742451D01*
X98332299Y-96734377D01*
X98344847Y-96715584D01*
X98379537Y-96675457D01*
X98431937Y-96618493D01*
X98497616Y-96549185D01*
X98572144Y-96472031D01*
X98651087Y-96391525D01*
X98730017Y-96312163D01*
X98804500Y-96238440D01*
X98870106Y-96174852D01*
X98922404Y-96125894D01*
X98956961Y-96096061D01*
X98968522Y-96088942D01*
X98987346Y-96098953D01*
X99032369Y-96127078D01*
X99099213Y-96170454D01*
X99183501Y-96226218D01*
X99280856Y-96291506D01*
X99354293Y-96341246D01*
X99725333Y-96593551D01*
X100343905Y-96338555D01*
X100427725Y-95893931D01*
X100511546Y-95449307D01*
X101436994Y-95449307D01*
X101520814Y-95893931D01*
D11*
%TO.C,SW3*%
X88552000Y-93556000D02*
X88552000Y-95056000D01*
X89802000Y-97556000D02*
X94302000Y-97556000D01*
X95552000Y-95056000D02*
X95552000Y-93556000D01*
X94302000Y-91056000D02*
X89802000Y-91056000D01*
%TD*%
M02*
