%TF.GenerationSoftware,KiCad,Pcbnew,6.0.2-378541a8eb~116~ubuntu20.04.1*%
%TF.CreationDate,2022-03-07T20:24:28+01:00*%
%TF.ProjectId,contact-sensor,636f6e74-6163-4742-9d73-656e736f722e,0.1.0*%
%TF.SameCoordinates,Original*%
%TF.FileFunction,Legend,Top*%
%TF.FilePolarity,Positive*%
%FSLAX46Y46*%
G04 Gerber Fmt 4.6, Leading zero omitted, Abs format (unit mm)*
G04 Created by KiCad (PCBNEW 6.0.2-378541a8eb~116~ubuntu20.04.1) date 2022-03-07 20:24:28*
%MOMM*%
%LPD*%
G01*
G04 APERTURE LIST*
%ADD10C,0.150000*%
%ADD11C,0.010000*%
%ADD12C,0.120000*%
G04 APERTURE END LIST*
D10*
%TO.C,SW3*%
X90718666Y-99754761D02*
X90861523Y-99802380D01*
X91099619Y-99802380D01*
X91194857Y-99754761D01*
X91242476Y-99707142D01*
X91290095Y-99611904D01*
X91290095Y-99516666D01*
X91242476Y-99421428D01*
X91194857Y-99373809D01*
X91099619Y-99326190D01*
X90909142Y-99278571D01*
X90813904Y-99230952D01*
X90766285Y-99183333D01*
X90718666Y-99088095D01*
X90718666Y-98992857D01*
X90766285Y-98897619D01*
X90813904Y-98850000D01*
X90909142Y-98802380D01*
X91147238Y-98802380D01*
X91290095Y-98850000D01*
X91623428Y-98802380D02*
X91861523Y-99802380D01*
X92052000Y-99088095D01*
X92242476Y-99802380D01*
X92480571Y-98802380D01*
X92766285Y-98802380D02*
X93385333Y-98802380D01*
X93052000Y-99183333D01*
X93194857Y-99183333D01*
X93290095Y-99230952D01*
X93337714Y-99278571D01*
X93385333Y-99373809D01*
X93385333Y-99611904D01*
X93337714Y-99707142D01*
X93290095Y-99754761D01*
X93194857Y-99802380D01*
X92909142Y-99802380D01*
X92813904Y-99754761D01*
X92766285Y-99707142D01*
%TO.C,SW2*%
X71616666Y-99754761D02*
X71759523Y-99802380D01*
X71997619Y-99802380D01*
X72092857Y-99754761D01*
X72140476Y-99707142D01*
X72188095Y-99611904D01*
X72188095Y-99516666D01*
X72140476Y-99421428D01*
X72092857Y-99373809D01*
X71997619Y-99326190D01*
X71807142Y-99278571D01*
X71711904Y-99230952D01*
X71664285Y-99183333D01*
X71616666Y-99088095D01*
X71616666Y-98992857D01*
X71664285Y-98897619D01*
X71711904Y-98850000D01*
X71807142Y-98802380D01*
X72045238Y-98802380D01*
X72188095Y-98850000D01*
X72521428Y-98802380D02*
X72759523Y-99802380D01*
X72950000Y-99088095D01*
X73140476Y-99802380D01*
X73378571Y-98802380D01*
X73711904Y-98897619D02*
X73759523Y-98850000D01*
X73854761Y-98802380D01*
X74092857Y-98802380D01*
X74188095Y-98850000D01*
X74235714Y-98897619D01*
X74283333Y-98992857D01*
X74283333Y-99088095D01*
X74235714Y-99230952D01*
X73664285Y-99802380D01*
X74283333Y-99802380D01*
%TO.C,SW1*%
X52491666Y-99754761D02*
X52634523Y-99802380D01*
X52872619Y-99802380D01*
X52967857Y-99754761D01*
X53015476Y-99707142D01*
X53063095Y-99611904D01*
X53063095Y-99516666D01*
X53015476Y-99421428D01*
X52967857Y-99373809D01*
X52872619Y-99326190D01*
X52682142Y-99278571D01*
X52586904Y-99230952D01*
X52539285Y-99183333D01*
X52491666Y-99088095D01*
X52491666Y-98992857D01*
X52539285Y-98897619D01*
X52586904Y-98850000D01*
X52682142Y-98802380D01*
X52920238Y-98802380D01*
X53063095Y-98850000D01*
X53396428Y-98802380D02*
X53634523Y-99802380D01*
X53825000Y-99088095D01*
X54015476Y-99802380D01*
X54253571Y-98802380D01*
X55158333Y-99802380D02*
X54586904Y-99802380D01*
X54872619Y-99802380D02*
X54872619Y-98802380D01*
X54777380Y-98945238D01*
X54682142Y-99040476D01*
X54586904Y-99088095D01*
%TO.C,J2*%
X98726666Y-88987380D02*
X98726666Y-89701666D01*
X98679047Y-89844523D01*
X98583809Y-89939761D01*
X98440952Y-89987380D01*
X98345714Y-89987380D01*
X99155238Y-89082619D02*
X99202857Y-89035000D01*
X99298095Y-88987380D01*
X99536190Y-88987380D01*
X99631428Y-89035000D01*
X99679047Y-89082619D01*
X99726666Y-89177857D01*
X99726666Y-89273095D01*
X99679047Y-89415952D01*
X99107619Y-89987380D01*
X99726666Y-89987380D01*
%TO.C,J1*%
X46656666Y-88987380D02*
X46656666Y-89701666D01*
X46609047Y-89844523D01*
X46513809Y-89939761D01*
X46370952Y-89987380D01*
X46275714Y-89987380D01*
X47656666Y-89987380D02*
X47085238Y-89987380D01*
X47370952Y-89987380D02*
X47370952Y-88987380D01*
X47275714Y-89130238D01*
X47180476Y-89225476D01*
X47085238Y-89273095D01*
D11*
%TO.C,REF\u002A\u002A*%
X101520814Y-97798931D02*
X101604635Y-98243555D01*
X101604635Y-98243555D02*
X101913920Y-98371053D01*
X101913920Y-98371053D02*
X102223206Y-98498551D01*
X102223206Y-98498551D02*
X102594246Y-98246246D01*
X102594246Y-98246246D02*
X102698157Y-98175996D01*
X102698157Y-98175996D02*
X102792087Y-98113272D01*
X102792087Y-98113272D02*
X102871652Y-98060938D01*
X102871652Y-98060938D02*
X102932470Y-98021857D01*
X102932470Y-98021857D02*
X102970157Y-97998893D01*
X102970157Y-97998893D02*
X102980421Y-97993942D01*
X102980421Y-97993942D02*
X102998910Y-98006676D01*
X102998910Y-98006676D02*
X103038420Y-98041882D01*
X103038420Y-98041882D02*
X103094522Y-98095062D01*
X103094522Y-98095062D02*
X103162787Y-98161718D01*
X103162787Y-98161718D02*
X103238786Y-98237354D01*
X103238786Y-98237354D02*
X103318092Y-98317472D01*
X103318092Y-98317472D02*
X103396275Y-98397574D01*
X103396275Y-98397574D02*
X103468907Y-98473164D01*
X103468907Y-98473164D02*
X103531559Y-98539745D01*
X103531559Y-98539745D02*
X103579803Y-98592818D01*
X103579803Y-98592818D02*
X103609210Y-98627887D01*
X103609210Y-98627887D02*
X103616241Y-98639623D01*
X103616241Y-98639623D02*
X103606123Y-98661260D01*
X103606123Y-98661260D02*
X103577759Y-98708662D01*
X103577759Y-98708662D02*
X103534129Y-98777193D01*
X103534129Y-98777193D02*
X103478218Y-98862215D01*
X103478218Y-98862215D02*
X103413006Y-98959093D01*
X103413006Y-98959093D02*
X103375219Y-99014350D01*
X103375219Y-99014350D02*
X103306343Y-99115248D01*
X103306343Y-99115248D02*
X103245140Y-99206299D01*
X103245140Y-99206299D02*
X103194578Y-99282970D01*
X103194578Y-99282970D02*
X103157628Y-99340728D01*
X103157628Y-99340728D02*
X103137258Y-99375043D01*
X103137258Y-99375043D02*
X103134197Y-99382254D01*
X103134197Y-99382254D02*
X103141136Y-99402748D01*
X103141136Y-99402748D02*
X103160051Y-99450513D01*
X103160051Y-99450513D02*
X103188087Y-99518832D01*
X103188087Y-99518832D02*
X103222391Y-99600989D01*
X103222391Y-99600989D02*
X103260109Y-99690270D01*
X103260109Y-99690270D02*
X103298387Y-99779958D01*
X103298387Y-99779958D02*
X103334370Y-99863338D01*
X103334370Y-99863338D02*
X103365206Y-99933694D01*
X103365206Y-99933694D02*
X103388039Y-99984310D01*
X103388039Y-99984310D02*
X103400017Y-100008471D01*
X103400017Y-100008471D02*
X103400724Y-100009422D01*
X103400724Y-100009422D02*
X103419531Y-100014036D01*
X103419531Y-100014036D02*
X103469618Y-100024328D01*
X103469618Y-100024328D02*
X103545793Y-100039287D01*
X103545793Y-100039287D02*
X103642865Y-100057901D01*
X103642865Y-100057901D02*
X103755643Y-100079159D01*
X103755643Y-100079159D02*
X103821442Y-100091418D01*
X103821442Y-100091418D02*
X103941950Y-100114362D01*
X103941950Y-100114362D02*
X104050797Y-100136195D01*
X104050797Y-100136195D02*
X104142476Y-100155722D01*
X104142476Y-100155722D02*
X104211481Y-100171748D01*
X104211481Y-100171748D02*
X104252304Y-100183079D01*
X104252304Y-100183079D02*
X104260511Y-100186674D01*
X104260511Y-100186674D02*
X104268548Y-100211006D01*
X104268548Y-100211006D02*
X104275033Y-100265959D01*
X104275033Y-100265959D02*
X104279970Y-100345108D01*
X104279970Y-100345108D02*
X104283364Y-100442026D01*
X104283364Y-100442026D02*
X104285218Y-100550287D01*
X104285218Y-100550287D02*
X104285538Y-100663465D01*
X104285538Y-100663465D02*
X104284327Y-100775135D01*
X104284327Y-100775135D02*
X104281590Y-100878868D01*
X104281590Y-100878868D02*
X104277331Y-100968241D01*
X104277331Y-100968241D02*
X104271555Y-101036826D01*
X104271555Y-101036826D02*
X104264267Y-101078197D01*
X104264267Y-101078197D02*
X104259895Y-101086810D01*
X104259895Y-101086810D02*
X104233764Y-101097133D01*
X104233764Y-101097133D02*
X104178393Y-101111892D01*
X104178393Y-101111892D02*
X104101107Y-101129352D01*
X104101107Y-101129352D02*
X104009230Y-101147780D01*
X104009230Y-101147780D02*
X103977158Y-101153741D01*
X103977158Y-101153741D02*
X103822524Y-101182066D01*
X103822524Y-101182066D02*
X103700375Y-101204876D01*
X103700375Y-101204876D02*
X103606673Y-101223080D01*
X103606673Y-101223080D02*
X103537384Y-101237583D01*
X103537384Y-101237583D02*
X103488471Y-101249292D01*
X103488471Y-101249292D02*
X103455897Y-101259115D01*
X103455897Y-101259115D02*
X103435628Y-101267956D01*
X103435628Y-101267956D02*
X103423626Y-101276724D01*
X103423626Y-101276724D02*
X103421947Y-101278457D01*
X103421947Y-101278457D02*
X103405184Y-101306371D01*
X103405184Y-101306371D02*
X103379614Y-101360695D01*
X103379614Y-101360695D02*
X103347788Y-101434777D01*
X103347788Y-101434777D02*
X103312260Y-101521965D01*
X103312260Y-101521965D02*
X103275583Y-101615608D01*
X103275583Y-101615608D02*
X103240311Y-101709052D01*
X103240311Y-101709052D02*
X103208996Y-101795647D01*
X103208996Y-101795647D02*
X103184193Y-101868740D01*
X103184193Y-101868740D02*
X103168454Y-101921678D01*
X103168454Y-101921678D02*
X103164332Y-101947811D01*
X103164332Y-101947811D02*
X103164676Y-101948726D01*
X103164676Y-101948726D02*
X103178641Y-101970086D01*
X103178641Y-101970086D02*
X103210322Y-102017084D01*
X103210322Y-102017084D02*
X103256391Y-102084827D01*
X103256391Y-102084827D02*
X103313518Y-102168423D01*
X103313518Y-102168423D02*
X103378373Y-102262982D01*
X103378373Y-102262982D02*
X103396843Y-102289854D01*
X103396843Y-102289854D02*
X103462699Y-102387275D01*
X103462699Y-102387275D02*
X103520650Y-102476163D01*
X103520650Y-102476163D02*
X103567538Y-102551412D01*
X103567538Y-102551412D02*
X103600207Y-102607920D01*
X103600207Y-102607920D02*
X103615500Y-102640581D01*
X103615500Y-102640581D02*
X103616241Y-102644593D01*
X103616241Y-102644593D02*
X103603392Y-102665684D01*
X103603392Y-102665684D02*
X103567888Y-102707464D01*
X103567888Y-102707464D02*
X103514293Y-102765445D01*
X103514293Y-102765445D02*
X103447171Y-102835135D01*
X103447171Y-102835135D02*
X103371087Y-102912045D01*
X103371087Y-102912045D02*
X103290604Y-102991683D01*
X103290604Y-102991683D02*
X103210287Y-103069561D01*
X103210287Y-103069561D02*
X103134699Y-103141186D01*
X103134699Y-103141186D02*
X103068405Y-103202070D01*
X103068405Y-103202070D02*
X103015969Y-103247721D01*
X103015969Y-103247721D02*
X102981955Y-103273650D01*
X102981955Y-103273650D02*
X102972545Y-103277883D01*
X102972545Y-103277883D02*
X102950643Y-103267912D01*
X102950643Y-103267912D02*
X102905800Y-103241020D01*
X102905800Y-103241020D02*
X102845321Y-103201736D01*
X102845321Y-103201736D02*
X102798789Y-103170117D01*
X102798789Y-103170117D02*
X102714475Y-103112098D01*
X102714475Y-103112098D02*
X102614626Y-103043784D01*
X102614626Y-103043784D02*
X102514473Y-102975579D01*
X102514473Y-102975579D02*
X102460627Y-102939075D01*
X102460627Y-102939075D02*
X102278371Y-102815800D01*
X102278371Y-102815800D02*
X102125381Y-102898520D01*
X102125381Y-102898520D02*
X102055682Y-102934759D01*
X102055682Y-102934759D02*
X101996414Y-102962926D01*
X101996414Y-102962926D02*
X101956311Y-102978991D01*
X101956311Y-102978991D02*
X101946103Y-102981226D01*
X101946103Y-102981226D02*
X101933829Y-102964722D01*
X101933829Y-102964722D02*
X101909613Y-102918082D01*
X101909613Y-102918082D02*
X101875263Y-102845609D01*
X101875263Y-102845609D02*
X101832588Y-102751606D01*
X101832588Y-102751606D02*
X101783394Y-102640374D01*
X101783394Y-102640374D02*
X101729490Y-102516215D01*
X101729490Y-102516215D02*
X101672684Y-102383432D01*
X101672684Y-102383432D02*
X101614782Y-102246327D01*
X101614782Y-102246327D02*
X101557593Y-102109202D01*
X101557593Y-102109202D02*
X101502924Y-101976358D01*
X101502924Y-101976358D02*
X101452584Y-101852098D01*
X101452584Y-101852098D02*
X101408380Y-101740725D01*
X101408380Y-101740725D02*
X101372119Y-101646539D01*
X101372119Y-101646539D02*
X101345609Y-101573844D01*
X101345609Y-101573844D02*
X101330658Y-101526941D01*
X101330658Y-101526941D02*
X101328254Y-101510833D01*
X101328254Y-101510833D02*
X101347311Y-101490286D01*
X101347311Y-101490286D02*
X101389036Y-101456933D01*
X101389036Y-101456933D02*
X101444706Y-101417702D01*
X101444706Y-101417702D02*
X101449378Y-101414599D01*
X101449378Y-101414599D02*
X101593264Y-101299423D01*
X101593264Y-101299423D02*
X101709283Y-101165053D01*
X101709283Y-101165053D02*
X101796430Y-101015784D01*
X101796430Y-101015784D02*
X101853699Y-100855913D01*
X101853699Y-100855913D02*
X101880086Y-100689737D01*
X101880086Y-100689737D02*
X101874585Y-100521552D01*
X101874585Y-100521552D02*
X101836190Y-100355655D01*
X101836190Y-100355655D02*
X101763895Y-100196342D01*
X101763895Y-100196342D02*
X101742626Y-100161487D01*
X101742626Y-100161487D02*
X101631996Y-100020737D01*
X101631996Y-100020737D02*
X101501302Y-99907714D01*
X101501302Y-99907714D02*
X101355064Y-99823003D01*
X101355064Y-99823003D02*
X101197808Y-99767194D01*
X101197808Y-99767194D02*
X101034057Y-99740874D01*
X101034057Y-99740874D02*
X100868333Y-99744630D01*
X100868333Y-99744630D02*
X100705162Y-99779050D01*
X100705162Y-99779050D02*
X100549065Y-99844723D01*
X100549065Y-99844723D02*
X100404567Y-99942235D01*
X100404567Y-99942235D02*
X100359869Y-99981813D01*
X100359869Y-99981813D02*
X100246112Y-100105703D01*
X100246112Y-100105703D02*
X100163218Y-100236124D01*
X100163218Y-100236124D02*
X100106356Y-100382315D01*
X100106356Y-100382315D02*
X100074687Y-100527088D01*
X100074687Y-100527088D02*
X100066869Y-100689860D01*
X100066869Y-100689860D02*
X100092938Y-100853440D01*
X100092938Y-100853440D02*
X100150245Y-101012298D01*
X100150245Y-101012298D02*
X100236144Y-101160906D01*
X100236144Y-101160906D02*
X100347986Y-101293735D01*
X100347986Y-101293735D02*
X100483123Y-101405256D01*
X100483123Y-101405256D02*
X100500883Y-101417011D01*
X100500883Y-101417011D02*
X100557150Y-101455508D01*
X100557150Y-101455508D02*
X100599923Y-101488863D01*
X100599923Y-101488863D02*
X100620372Y-101510160D01*
X100620372Y-101510160D02*
X100620669Y-101510833D01*
X100620669Y-101510833D02*
X100616279Y-101533871D01*
X100616279Y-101533871D02*
X100598876Y-101586157D01*
X100598876Y-101586157D02*
X100570268Y-101663390D01*
X100570268Y-101663390D02*
X100532265Y-101761268D01*
X100532265Y-101761268D02*
X100486674Y-101875491D01*
X100486674Y-101875491D02*
X100435303Y-102001758D01*
X100435303Y-102001758D02*
X100379962Y-102135767D01*
X100379962Y-102135767D02*
X100322458Y-102273218D01*
X100322458Y-102273218D02*
X100264601Y-102409808D01*
X100264601Y-102409808D02*
X100208198Y-102541237D01*
X100208198Y-102541237D02*
X100155058Y-102663205D01*
X100155058Y-102663205D02*
X100106990Y-102771409D01*
X100106990Y-102771409D02*
X100065801Y-102861549D01*
X100065801Y-102861549D02*
X100033301Y-102929323D01*
X100033301Y-102929323D02*
X100011297Y-102970430D01*
X100011297Y-102970430D02*
X100002436Y-102981226D01*
X100002436Y-102981226D02*
X99975360Y-102972819D01*
X99975360Y-102972819D02*
X99924697Y-102950272D01*
X99924697Y-102950272D02*
X99859183Y-102917613D01*
X99859183Y-102917613D02*
X99823159Y-102898520D01*
X99823159Y-102898520D02*
X99670168Y-102815800D01*
X99670168Y-102815800D02*
X99487912Y-102939075D01*
X99487912Y-102939075D02*
X99394875Y-103002228D01*
X99394875Y-103002228D02*
X99293015Y-103071727D01*
X99293015Y-103071727D02*
X99197562Y-103137165D01*
X99197562Y-103137165D02*
X99149750Y-103170117D01*
X99149750Y-103170117D02*
X99082505Y-103215273D01*
X99082505Y-103215273D02*
X99025564Y-103251057D01*
X99025564Y-103251057D02*
X98986354Y-103272938D01*
X98986354Y-103272938D02*
X98973619Y-103277563D01*
X98973619Y-103277563D02*
X98955083Y-103265085D01*
X98955083Y-103265085D02*
X98914059Y-103230252D01*
X98914059Y-103230252D02*
X98854525Y-103176678D01*
X98854525Y-103176678D02*
X98780458Y-103107983D01*
X98780458Y-103107983D02*
X98695835Y-103027781D01*
X98695835Y-103027781D02*
X98642315Y-102976286D01*
X98642315Y-102976286D02*
X98548681Y-102884286D01*
X98548681Y-102884286D02*
X98467759Y-102801999D01*
X98467759Y-102801999D02*
X98402823Y-102732945D01*
X98402823Y-102732945D02*
X98357142Y-102680644D01*
X98357142Y-102680644D02*
X98333989Y-102648616D01*
X98333989Y-102648616D02*
X98331768Y-102642116D01*
X98331768Y-102642116D02*
X98342076Y-102617394D01*
X98342076Y-102617394D02*
X98370561Y-102567405D01*
X98370561Y-102567405D02*
X98414063Y-102497212D01*
X98414063Y-102497212D02*
X98469423Y-102411875D01*
X98469423Y-102411875D02*
X98533480Y-102316456D01*
X98533480Y-102316456D02*
X98551697Y-102289854D01*
X98551697Y-102289854D02*
X98618073Y-102193167D01*
X98618073Y-102193167D02*
X98677622Y-102106117D01*
X98677622Y-102106117D02*
X98727016Y-102033595D01*
X98727016Y-102033595D02*
X98762925Y-101980493D01*
X98762925Y-101980493D02*
X98782019Y-101951703D01*
X98782019Y-101951703D02*
X98783864Y-101948726D01*
X98783864Y-101948726D02*
X98781105Y-101925782D01*
X98781105Y-101925782D02*
X98766462Y-101875336D01*
X98766462Y-101875336D02*
X98742487Y-101804041D01*
X98742487Y-101804041D02*
X98711734Y-101718547D01*
X98711734Y-101718547D02*
X98676756Y-101625507D01*
X98676756Y-101625507D02*
X98640107Y-101531574D01*
X98640107Y-101531574D02*
X98604339Y-101443399D01*
X98604339Y-101443399D02*
X98572006Y-101367634D01*
X98572006Y-101367634D02*
X98545662Y-101310931D01*
X98545662Y-101310931D02*
X98527858Y-101279943D01*
X98527858Y-101279943D02*
X98526593Y-101278457D01*
X98526593Y-101278457D02*
X98515706Y-101269601D01*
X98515706Y-101269601D02*
X98497318Y-101260843D01*
X98497318Y-101260843D02*
X98467394Y-101251277D01*
X98467394Y-101251277D02*
X98421897Y-101239996D01*
X98421897Y-101239996D02*
X98356791Y-101226093D01*
X98356791Y-101226093D02*
X98268039Y-101208663D01*
X98268039Y-101208663D02*
X98151607Y-101186798D01*
X98151607Y-101186798D02*
X98003458Y-101159591D01*
X98003458Y-101159591D02*
X97971382Y-101153741D01*
X97971382Y-101153741D02*
X97876314Y-101135374D01*
X97876314Y-101135374D02*
X97793435Y-101117405D01*
X97793435Y-101117405D02*
X97730070Y-101101569D01*
X97730070Y-101101569D02*
X97693542Y-101089600D01*
X97693542Y-101089600D02*
X97688644Y-101086810D01*
X97688644Y-101086810D02*
X97680573Y-101062072D01*
X97680573Y-101062072D02*
X97674013Y-101006790D01*
X97674013Y-101006790D02*
X97668967Y-100927389D01*
X97668967Y-100927389D02*
X97665441Y-100830296D01*
X97665441Y-100830296D02*
X97663439Y-100721938D01*
X97663439Y-100721938D02*
X97662964Y-100608740D01*
X97662964Y-100608740D02*
X97664023Y-100497128D01*
X97664023Y-100497128D02*
X97666618Y-100393529D01*
X97666618Y-100393529D02*
X97670754Y-100304368D01*
X97670754Y-100304368D02*
X97676437Y-100236072D01*
X97676437Y-100236072D02*
X97683669Y-100195066D01*
X97683669Y-100195066D02*
X97688029Y-100186674D01*
X97688029Y-100186674D02*
X97712302Y-100178208D01*
X97712302Y-100178208D02*
X97767574Y-100164435D01*
X97767574Y-100164435D02*
X97848338Y-100146550D01*
X97848338Y-100146550D02*
X97949088Y-100125748D01*
X97949088Y-100125748D02*
X98064317Y-100103223D01*
X98064317Y-100103223D02*
X98127098Y-100091418D01*
X98127098Y-100091418D02*
X98246213Y-100069151D01*
X98246213Y-100069151D02*
X98352435Y-100048979D01*
X98352435Y-100048979D02*
X98440573Y-100031915D01*
X98440573Y-100031915D02*
X98505434Y-100018969D01*
X98505434Y-100018969D02*
X98541826Y-100011155D01*
X98541826Y-100011155D02*
X98547816Y-100009422D01*
X98547816Y-100009422D02*
X98557939Y-99989890D01*
X98557939Y-99989890D02*
X98579338Y-99942843D01*
X98579338Y-99942843D02*
X98609161Y-99875003D01*
X98609161Y-99875003D02*
X98644555Y-99793091D01*
X98644555Y-99793091D02*
X98682668Y-99703828D01*
X98682668Y-99703828D02*
X98720647Y-99613935D01*
X98720647Y-99613935D02*
X98755640Y-99530135D01*
X98755640Y-99530135D02*
X98784794Y-99459147D01*
X98784794Y-99459147D02*
X98805257Y-99407694D01*
X98805257Y-99407694D02*
X98814177Y-99382497D01*
X98814177Y-99382497D02*
X98814343Y-99381396D01*
X98814343Y-99381396D02*
X98804231Y-99361519D01*
X98804231Y-99361519D02*
X98775883Y-99315777D01*
X98775883Y-99315777D02*
X98732277Y-99248717D01*
X98732277Y-99248717D02*
X98676394Y-99164884D01*
X98676394Y-99164884D02*
X98611213Y-99068826D01*
X98611213Y-99068826D02*
X98573321Y-99013650D01*
X98573321Y-99013650D02*
X98504275Y-98912481D01*
X98504275Y-98912481D02*
X98442950Y-98820630D01*
X98442950Y-98820630D02*
X98392337Y-98742744D01*
X98392337Y-98742744D02*
X98355429Y-98683469D01*
X98355429Y-98683469D02*
X98335218Y-98647451D01*
X98335218Y-98647451D02*
X98332299Y-98639377D01*
X98332299Y-98639377D02*
X98344847Y-98620584D01*
X98344847Y-98620584D02*
X98379537Y-98580457D01*
X98379537Y-98580457D02*
X98431937Y-98523493D01*
X98431937Y-98523493D02*
X98497616Y-98454185D01*
X98497616Y-98454185D02*
X98572144Y-98377031D01*
X98572144Y-98377031D02*
X98651087Y-98296525D01*
X98651087Y-98296525D02*
X98730017Y-98217163D01*
X98730017Y-98217163D02*
X98804500Y-98143440D01*
X98804500Y-98143440D02*
X98870106Y-98079852D01*
X98870106Y-98079852D02*
X98922404Y-98030894D01*
X98922404Y-98030894D02*
X98956961Y-98001061D01*
X98956961Y-98001061D02*
X98968522Y-97993942D01*
X98968522Y-97993942D02*
X98987346Y-98003953D01*
X98987346Y-98003953D02*
X99032369Y-98032078D01*
X99032369Y-98032078D02*
X99099213Y-98075454D01*
X99099213Y-98075454D02*
X99183501Y-98131218D01*
X99183501Y-98131218D02*
X99280856Y-98196506D01*
X99280856Y-98196506D02*
X99354293Y-98246246D01*
X99354293Y-98246246D02*
X99725333Y-98498551D01*
X99725333Y-98498551D02*
X100343905Y-98243555D01*
X100343905Y-98243555D02*
X100427725Y-97798931D01*
X100427725Y-97798931D02*
X100511546Y-97354307D01*
X100511546Y-97354307D02*
X101436994Y-97354307D01*
X101436994Y-97354307D02*
X101520814Y-97798931D01*
X101520814Y-97798931D02*
X101520814Y-97798931D01*
G36*
X101520814Y-97798931D02*
G01*
X101604635Y-98243555D01*
X101913920Y-98371053D01*
X102223206Y-98498551D01*
X102594246Y-98246246D01*
X102698157Y-98175996D01*
X102792087Y-98113272D01*
X102871652Y-98060938D01*
X102932470Y-98021857D01*
X102970157Y-97998893D01*
X102980421Y-97993942D01*
X102998910Y-98006676D01*
X103038420Y-98041882D01*
X103094522Y-98095062D01*
X103162787Y-98161718D01*
X103238786Y-98237354D01*
X103318092Y-98317472D01*
X103396275Y-98397574D01*
X103468907Y-98473164D01*
X103531559Y-98539745D01*
X103579803Y-98592818D01*
X103609210Y-98627887D01*
X103616241Y-98639623D01*
X103606123Y-98661260D01*
X103577759Y-98708662D01*
X103534129Y-98777193D01*
X103478218Y-98862215D01*
X103413006Y-98959093D01*
X103375219Y-99014350D01*
X103306343Y-99115248D01*
X103245140Y-99206299D01*
X103194578Y-99282970D01*
X103157628Y-99340728D01*
X103137258Y-99375043D01*
X103134197Y-99382254D01*
X103141136Y-99402748D01*
X103160051Y-99450513D01*
X103188087Y-99518832D01*
X103222391Y-99600989D01*
X103260109Y-99690270D01*
X103298387Y-99779958D01*
X103334370Y-99863338D01*
X103365206Y-99933694D01*
X103388039Y-99984310D01*
X103400017Y-100008471D01*
X103400724Y-100009422D01*
X103419531Y-100014036D01*
X103469618Y-100024328D01*
X103545793Y-100039287D01*
X103642865Y-100057901D01*
X103755643Y-100079159D01*
X103821442Y-100091418D01*
X103941950Y-100114362D01*
X104050797Y-100136195D01*
X104142476Y-100155722D01*
X104211481Y-100171748D01*
X104252304Y-100183079D01*
X104260511Y-100186674D01*
X104268548Y-100211006D01*
X104275033Y-100265959D01*
X104279970Y-100345108D01*
X104283364Y-100442026D01*
X104285218Y-100550287D01*
X104285538Y-100663465D01*
X104284327Y-100775135D01*
X104281590Y-100878868D01*
X104277331Y-100968241D01*
X104271555Y-101036826D01*
X104264267Y-101078197D01*
X104259895Y-101086810D01*
X104233764Y-101097133D01*
X104178393Y-101111892D01*
X104101107Y-101129352D01*
X104009230Y-101147780D01*
X103977158Y-101153741D01*
X103822524Y-101182066D01*
X103700375Y-101204876D01*
X103606673Y-101223080D01*
X103537384Y-101237583D01*
X103488471Y-101249292D01*
X103455897Y-101259115D01*
X103435628Y-101267956D01*
X103423626Y-101276724D01*
X103421947Y-101278457D01*
X103405184Y-101306371D01*
X103379614Y-101360695D01*
X103347788Y-101434777D01*
X103312260Y-101521965D01*
X103275583Y-101615608D01*
X103240311Y-101709052D01*
X103208996Y-101795647D01*
X103184193Y-101868740D01*
X103168454Y-101921678D01*
X103164332Y-101947811D01*
X103164676Y-101948726D01*
X103178641Y-101970086D01*
X103210322Y-102017084D01*
X103256391Y-102084827D01*
X103313518Y-102168423D01*
X103378373Y-102262982D01*
X103396843Y-102289854D01*
X103462699Y-102387275D01*
X103520650Y-102476163D01*
X103567538Y-102551412D01*
X103600207Y-102607920D01*
X103615500Y-102640581D01*
X103616241Y-102644593D01*
X103603392Y-102665684D01*
X103567888Y-102707464D01*
X103514293Y-102765445D01*
X103447171Y-102835135D01*
X103371087Y-102912045D01*
X103290604Y-102991683D01*
X103210287Y-103069561D01*
X103134699Y-103141186D01*
X103068405Y-103202070D01*
X103015969Y-103247721D01*
X102981955Y-103273650D01*
X102972545Y-103277883D01*
X102950643Y-103267912D01*
X102905800Y-103241020D01*
X102845321Y-103201736D01*
X102798789Y-103170117D01*
X102714475Y-103112098D01*
X102614626Y-103043784D01*
X102514473Y-102975579D01*
X102460627Y-102939075D01*
X102278371Y-102815800D01*
X102125381Y-102898520D01*
X102055682Y-102934759D01*
X101996414Y-102962926D01*
X101956311Y-102978991D01*
X101946103Y-102981226D01*
X101933829Y-102964722D01*
X101909613Y-102918082D01*
X101875263Y-102845609D01*
X101832588Y-102751606D01*
X101783394Y-102640374D01*
X101729490Y-102516215D01*
X101672684Y-102383432D01*
X101614782Y-102246327D01*
X101557593Y-102109202D01*
X101502924Y-101976358D01*
X101452584Y-101852098D01*
X101408380Y-101740725D01*
X101372119Y-101646539D01*
X101345609Y-101573844D01*
X101330658Y-101526941D01*
X101328254Y-101510833D01*
X101347311Y-101490286D01*
X101389036Y-101456933D01*
X101444706Y-101417702D01*
X101449378Y-101414599D01*
X101593264Y-101299423D01*
X101709283Y-101165053D01*
X101796430Y-101015784D01*
X101853699Y-100855913D01*
X101880086Y-100689737D01*
X101874585Y-100521552D01*
X101836190Y-100355655D01*
X101763895Y-100196342D01*
X101742626Y-100161487D01*
X101631996Y-100020737D01*
X101501302Y-99907714D01*
X101355064Y-99823003D01*
X101197808Y-99767194D01*
X101034057Y-99740874D01*
X100868333Y-99744630D01*
X100705162Y-99779050D01*
X100549065Y-99844723D01*
X100404567Y-99942235D01*
X100359869Y-99981813D01*
X100246112Y-100105703D01*
X100163218Y-100236124D01*
X100106356Y-100382315D01*
X100074687Y-100527088D01*
X100066869Y-100689860D01*
X100092938Y-100853440D01*
X100150245Y-101012298D01*
X100236144Y-101160906D01*
X100347986Y-101293735D01*
X100483123Y-101405256D01*
X100500883Y-101417011D01*
X100557150Y-101455508D01*
X100599923Y-101488863D01*
X100620372Y-101510160D01*
X100620669Y-101510833D01*
X100616279Y-101533871D01*
X100598876Y-101586157D01*
X100570268Y-101663390D01*
X100532265Y-101761268D01*
X100486674Y-101875491D01*
X100435303Y-102001758D01*
X100379962Y-102135767D01*
X100322458Y-102273218D01*
X100264601Y-102409808D01*
X100208198Y-102541237D01*
X100155058Y-102663205D01*
X100106990Y-102771409D01*
X100065801Y-102861549D01*
X100033301Y-102929323D01*
X100011297Y-102970430D01*
X100002436Y-102981226D01*
X99975360Y-102972819D01*
X99924697Y-102950272D01*
X99859183Y-102917613D01*
X99823159Y-102898520D01*
X99670168Y-102815800D01*
X99487912Y-102939075D01*
X99394875Y-103002228D01*
X99293015Y-103071727D01*
X99197562Y-103137165D01*
X99149750Y-103170117D01*
X99082505Y-103215273D01*
X99025564Y-103251057D01*
X98986354Y-103272938D01*
X98973619Y-103277563D01*
X98955083Y-103265085D01*
X98914059Y-103230252D01*
X98854525Y-103176678D01*
X98780458Y-103107983D01*
X98695835Y-103027781D01*
X98642315Y-102976286D01*
X98548681Y-102884286D01*
X98467759Y-102801999D01*
X98402823Y-102732945D01*
X98357142Y-102680644D01*
X98333989Y-102648616D01*
X98331768Y-102642116D01*
X98342076Y-102617394D01*
X98370561Y-102567405D01*
X98414063Y-102497212D01*
X98469423Y-102411875D01*
X98533480Y-102316456D01*
X98551697Y-102289854D01*
X98618073Y-102193167D01*
X98677622Y-102106117D01*
X98727016Y-102033595D01*
X98762925Y-101980493D01*
X98782019Y-101951703D01*
X98783864Y-101948726D01*
X98781105Y-101925782D01*
X98766462Y-101875336D01*
X98742487Y-101804041D01*
X98711734Y-101718547D01*
X98676756Y-101625507D01*
X98640107Y-101531574D01*
X98604339Y-101443399D01*
X98572006Y-101367634D01*
X98545662Y-101310931D01*
X98527858Y-101279943D01*
X98526593Y-101278457D01*
X98515706Y-101269601D01*
X98497318Y-101260843D01*
X98467394Y-101251277D01*
X98421897Y-101239996D01*
X98356791Y-101226093D01*
X98268039Y-101208663D01*
X98151607Y-101186798D01*
X98003458Y-101159591D01*
X97971382Y-101153741D01*
X97876314Y-101135374D01*
X97793435Y-101117405D01*
X97730070Y-101101569D01*
X97693542Y-101089600D01*
X97688644Y-101086810D01*
X97680573Y-101062072D01*
X97674013Y-101006790D01*
X97668967Y-100927389D01*
X97665441Y-100830296D01*
X97663439Y-100721938D01*
X97662964Y-100608740D01*
X97664023Y-100497128D01*
X97666618Y-100393529D01*
X97670754Y-100304368D01*
X97676437Y-100236072D01*
X97683669Y-100195066D01*
X97688029Y-100186674D01*
X97712302Y-100178208D01*
X97767574Y-100164435D01*
X97848338Y-100146550D01*
X97949088Y-100125748D01*
X98064317Y-100103223D01*
X98127098Y-100091418D01*
X98246213Y-100069151D01*
X98352435Y-100048979D01*
X98440573Y-100031915D01*
X98505434Y-100018969D01*
X98541826Y-100011155D01*
X98547816Y-100009422D01*
X98557939Y-99989890D01*
X98579338Y-99942843D01*
X98609161Y-99875003D01*
X98644555Y-99793091D01*
X98682668Y-99703828D01*
X98720647Y-99613935D01*
X98755640Y-99530135D01*
X98784794Y-99459147D01*
X98805257Y-99407694D01*
X98814177Y-99382497D01*
X98814343Y-99381396D01*
X98804231Y-99361519D01*
X98775883Y-99315777D01*
X98732277Y-99248717D01*
X98676394Y-99164884D01*
X98611213Y-99068826D01*
X98573321Y-99013650D01*
X98504275Y-98912481D01*
X98442950Y-98820630D01*
X98392337Y-98742744D01*
X98355429Y-98683469D01*
X98335218Y-98647451D01*
X98332299Y-98639377D01*
X98344847Y-98620584D01*
X98379537Y-98580457D01*
X98431937Y-98523493D01*
X98497616Y-98454185D01*
X98572144Y-98377031D01*
X98651087Y-98296525D01*
X98730017Y-98217163D01*
X98804500Y-98143440D01*
X98870106Y-98079852D01*
X98922404Y-98030894D01*
X98956961Y-98001061D01*
X98968522Y-97993942D01*
X98987346Y-98003953D01*
X99032369Y-98032078D01*
X99099213Y-98075454D01*
X99183501Y-98131218D01*
X99280856Y-98196506D01*
X99354293Y-98246246D01*
X99725333Y-98498551D01*
X100343905Y-98243555D01*
X100427725Y-97798931D01*
X100511546Y-97354307D01*
X101436994Y-97354307D01*
X101520814Y-97798931D01*
G37*
X101520814Y-97798931D02*
X101604635Y-98243555D01*
X101913920Y-98371053D01*
X102223206Y-98498551D01*
X102594246Y-98246246D01*
X102698157Y-98175996D01*
X102792087Y-98113272D01*
X102871652Y-98060938D01*
X102932470Y-98021857D01*
X102970157Y-97998893D01*
X102980421Y-97993942D01*
X102998910Y-98006676D01*
X103038420Y-98041882D01*
X103094522Y-98095062D01*
X103162787Y-98161718D01*
X103238786Y-98237354D01*
X103318092Y-98317472D01*
X103396275Y-98397574D01*
X103468907Y-98473164D01*
X103531559Y-98539745D01*
X103579803Y-98592818D01*
X103609210Y-98627887D01*
X103616241Y-98639623D01*
X103606123Y-98661260D01*
X103577759Y-98708662D01*
X103534129Y-98777193D01*
X103478218Y-98862215D01*
X103413006Y-98959093D01*
X103375219Y-99014350D01*
X103306343Y-99115248D01*
X103245140Y-99206299D01*
X103194578Y-99282970D01*
X103157628Y-99340728D01*
X103137258Y-99375043D01*
X103134197Y-99382254D01*
X103141136Y-99402748D01*
X103160051Y-99450513D01*
X103188087Y-99518832D01*
X103222391Y-99600989D01*
X103260109Y-99690270D01*
X103298387Y-99779958D01*
X103334370Y-99863338D01*
X103365206Y-99933694D01*
X103388039Y-99984310D01*
X103400017Y-100008471D01*
X103400724Y-100009422D01*
X103419531Y-100014036D01*
X103469618Y-100024328D01*
X103545793Y-100039287D01*
X103642865Y-100057901D01*
X103755643Y-100079159D01*
X103821442Y-100091418D01*
X103941950Y-100114362D01*
X104050797Y-100136195D01*
X104142476Y-100155722D01*
X104211481Y-100171748D01*
X104252304Y-100183079D01*
X104260511Y-100186674D01*
X104268548Y-100211006D01*
X104275033Y-100265959D01*
X104279970Y-100345108D01*
X104283364Y-100442026D01*
X104285218Y-100550287D01*
X104285538Y-100663465D01*
X104284327Y-100775135D01*
X104281590Y-100878868D01*
X104277331Y-100968241D01*
X104271555Y-101036826D01*
X104264267Y-101078197D01*
X104259895Y-101086810D01*
X104233764Y-101097133D01*
X104178393Y-101111892D01*
X104101107Y-101129352D01*
X104009230Y-101147780D01*
X103977158Y-101153741D01*
X103822524Y-101182066D01*
X103700375Y-101204876D01*
X103606673Y-101223080D01*
X103537384Y-101237583D01*
X103488471Y-101249292D01*
X103455897Y-101259115D01*
X103435628Y-101267956D01*
X103423626Y-101276724D01*
X103421947Y-101278457D01*
X103405184Y-101306371D01*
X103379614Y-101360695D01*
X103347788Y-101434777D01*
X103312260Y-101521965D01*
X103275583Y-101615608D01*
X103240311Y-101709052D01*
X103208996Y-101795647D01*
X103184193Y-101868740D01*
X103168454Y-101921678D01*
X103164332Y-101947811D01*
X103164676Y-101948726D01*
X103178641Y-101970086D01*
X103210322Y-102017084D01*
X103256391Y-102084827D01*
X103313518Y-102168423D01*
X103378373Y-102262982D01*
X103396843Y-102289854D01*
X103462699Y-102387275D01*
X103520650Y-102476163D01*
X103567538Y-102551412D01*
X103600207Y-102607920D01*
X103615500Y-102640581D01*
X103616241Y-102644593D01*
X103603392Y-102665684D01*
X103567888Y-102707464D01*
X103514293Y-102765445D01*
X103447171Y-102835135D01*
X103371087Y-102912045D01*
X103290604Y-102991683D01*
X103210287Y-103069561D01*
X103134699Y-103141186D01*
X103068405Y-103202070D01*
X103015969Y-103247721D01*
X102981955Y-103273650D01*
X102972545Y-103277883D01*
X102950643Y-103267912D01*
X102905800Y-103241020D01*
X102845321Y-103201736D01*
X102798789Y-103170117D01*
X102714475Y-103112098D01*
X102614626Y-103043784D01*
X102514473Y-102975579D01*
X102460627Y-102939075D01*
X102278371Y-102815800D01*
X102125381Y-102898520D01*
X102055682Y-102934759D01*
X101996414Y-102962926D01*
X101956311Y-102978991D01*
X101946103Y-102981226D01*
X101933829Y-102964722D01*
X101909613Y-102918082D01*
X101875263Y-102845609D01*
X101832588Y-102751606D01*
X101783394Y-102640374D01*
X101729490Y-102516215D01*
X101672684Y-102383432D01*
X101614782Y-102246327D01*
X101557593Y-102109202D01*
X101502924Y-101976358D01*
X101452584Y-101852098D01*
X101408380Y-101740725D01*
X101372119Y-101646539D01*
X101345609Y-101573844D01*
X101330658Y-101526941D01*
X101328254Y-101510833D01*
X101347311Y-101490286D01*
X101389036Y-101456933D01*
X101444706Y-101417702D01*
X101449378Y-101414599D01*
X101593264Y-101299423D01*
X101709283Y-101165053D01*
X101796430Y-101015784D01*
X101853699Y-100855913D01*
X101880086Y-100689737D01*
X101874585Y-100521552D01*
X101836190Y-100355655D01*
X101763895Y-100196342D01*
X101742626Y-100161487D01*
X101631996Y-100020737D01*
X101501302Y-99907714D01*
X101355064Y-99823003D01*
X101197808Y-99767194D01*
X101034057Y-99740874D01*
X100868333Y-99744630D01*
X100705162Y-99779050D01*
X100549065Y-99844723D01*
X100404567Y-99942235D01*
X100359869Y-99981813D01*
X100246112Y-100105703D01*
X100163218Y-100236124D01*
X100106356Y-100382315D01*
X100074687Y-100527088D01*
X100066869Y-100689860D01*
X100092938Y-100853440D01*
X100150245Y-101012298D01*
X100236144Y-101160906D01*
X100347986Y-101293735D01*
X100483123Y-101405256D01*
X100500883Y-101417011D01*
X100557150Y-101455508D01*
X100599923Y-101488863D01*
X100620372Y-101510160D01*
X100620669Y-101510833D01*
X100616279Y-101533871D01*
X100598876Y-101586157D01*
X100570268Y-101663390D01*
X100532265Y-101761268D01*
X100486674Y-101875491D01*
X100435303Y-102001758D01*
X100379962Y-102135767D01*
X100322458Y-102273218D01*
X100264601Y-102409808D01*
X100208198Y-102541237D01*
X100155058Y-102663205D01*
X100106990Y-102771409D01*
X100065801Y-102861549D01*
X100033301Y-102929323D01*
X100011297Y-102970430D01*
X100002436Y-102981226D01*
X99975360Y-102972819D01*
X99924697Y-102950272D01*
X99859183Y-102917613D01*
X99823159Y-102898520D01*
X99670168Y-102815800D01*
X99487912Y-102939075D01*
X99394875Y-103002228D01*
X99293015Y-103071727D01*
X99197562Y-103137165D01*
X99149750Y-103170117D01*
X99082505Y-103215273D01*
X99025564Y-103251057D01*
X98986354Y-103272938D01*
X98973619Y-103277563D01*
X98955083Y-103265085D01*
X98914059Y-103230252D01*
X98854525Y-103176678D01*
X98780458Y-103107983D01*
X98695835Y-103027781D01*
X98642315Y-102976286D01*
X98548681Y-102884286D01*
X98467759Y-102801999D01*
X98402823Y-102732945D01*
X98357142Y-102680644D01*
X98333989Y-102648616D01*
X98331768Y-102642116D01*
X98342076Y-102617394D01*
X98370561Y-102567405D01*
X98414063Y-102497212D01*
X98469423Y-102411875D01*
X98533480Y-102316456D01*
X98551697Y-102289854D01*
X98618073Y-102193167D01*
X98677622Y-102106117D01*
X98727016Y-102033595D01*
X98762925Y-101980493D01*
X98782019Y-101951703D01*
X98783864Y-101948726D01*
X98781105Y-101925782D01*
X98766462Y-101875336D01*
X98742487Y-101804041D01*
X98711734Y-101718547D01*
X98676756Y-101625507D01*
X98640107Y-101531574D01*
X98604339Y-101443399D01*
X98572006Y-101367634D01*
X98545662Y-101310931D01*
X98527858Y-101279943D01*
X98526593Y-101278457D01*
X98515706Y-101269601D01*
X98497318Y-101260843D01*
X98467394Y-101251277D01*
X98421897Y-101239996D01*
X98356791Y-101226093D01*
X98268039Y-101208663D01*
X98151607Y-101186798D01*
X98003458Y-101159591D01*
X97971382Y-101153741D01*
X97876314Y-101135374D01*
X97793435Y-101117405D01*
X97730070Y-101101569D01*
X97693542Y-101089600D01*
X97688644Y-101086810D01*
X97680573Y-101062072D01*
X97674013Y-101006790D01*
X97668967Y-100927389D01*
X97665441Y-100830296D01*
X97663439Y-100721938D01*
X97662964Y-100608740D01*
X97664023Y-100497128D01*
X97666618Y-100393529D01*
X97670754Y-100304368D01*
X97676437Y-100236072D01*
X97683669Y-100195066D01*
X97688029Y-100186674D01*
X97712302Y-100178208D01*
X97767574Y-100164435D01*
X97848338Y-100146550D01*
X97949088Y-100125748D01*
X98064317Y-100103223D01*
X98127098Y-100091418D01*
X98246213Y-100069151D01*
X98352435Y-100048979D01*
X98440573Y-100031915D01*
X98505434Y-100018969D01*
X98541826Y-100011155D01*
X98547816Y-100009422D01*
X98557939Y-99989890D01*
X98579338Y-99942843D01*
X98609161Y-99875003D01*
X98644555Y-99793091D01*
X98682668Y-99703828D01*
X98720647Y-99613935D01*
X98755640Y-99530135D01*
X98784794Y-99459147D01*
X98805257Y-99407694D01*
X98814177Y-99382497D01*
X98814343Y-99381396D01*
X98804231Y-99361519D01*
X98775883Y-99315777D01*
X98732277Y-99248717D01*
X98676394Y-99164884D01*
X98611213Y-99068826D01*
X98573321Y-99013650D01*
X98504275Y-98912481D01*
X98442950Y-98820630D01*
X98392337Y-98742744D01*
X98355429Y-98683469D01*
X98335218Y-98647451D01*
X98332299Y-98639377D01*
X98344847Y-98620584D01*
X98379537Y-98580457D01*
X98431937Y-98523493D01*
X98497616Y-98454185D01*
X98572144Y-98377031D01*
X98651087Y-98296525D01*
X98730017Y-98217163D01*
X98804500Y-98143440D01*
X98870106Y-98079852D01*
X98922404Y-98030894D01*
X98956961Y-98001061D01*
X98968522Y-97993942D01*
X98987346Y-98003953D01*
X99032369Y-98032078D01*
X99099213Y-98075454D01*
X99183501Y-98131218D01*
X99280856Y-98196506D01*
X99354293Y-98246246D01*
X99725333Y-98498551D01*
X100343905Y-98243555D01*
X100427725Y-97798931D01*
X100511546Y-97354307D01*
X101436994Y-97354307D01*
X101520814Y-97798931D01*
D12*
%TO.C,SW3*%
X89802000Y-97556000D02*
X94302000Y-97556000D01*
X95552000Y-95056000D02*
X95552000Y-93556000D01*
X88552000Y-93556000D02*
X88552000Y-95056000D01*
X94302000Y-91056000D02*
X89802000Y-91056000D01*
%TO.C,SW2*%
X70700000Y-97520000D02*
X75200000Y-97520000D01*
X76450000Y-95020000D02*
X76450000Y-93520000D01*
X69450000Y-93520000D02*
X69450000Y-95020000D01*
X75200000Y-91020000D02*
X70700000Y-91020000D01*
%TO.C,SW1*%
X51575000Y-97520000D02*
X56075000Y-97520000D01*
X57325000Y-95020000D02*
X57325000Y-93520000D01*
X50325000Y-93520000D02*
X50325000Y-95020000D01*
X56075000Y-91020000D02*
X51575000Y-91020000D01*
%TO.C,J2*%
X100097929Y-95160000D02*
X100495000Y-95160000D01*
X109155000Y-95160000D02*
X109155000Y-95920000D01*
X100165000Y-92620000D02*
X100495000Y-92620000D01*
X100097929Y-95920000D02*
X100495000Y-95920000D01*
X103155000Y-95160000D02*
X109155000Y-95160000D01*
X103155000Y-96870000D02*
X103155000Y-91670000D01*
X100165000Y-93380000D02*
X100495000Y-93380000D01*
X100495000Y-96870000D02*
X103155000Y-96870000D01*
X103155000Y-93040000D02*
X109155000Y-93040000D01*
X100495000Y-94270000D02*
X103155000Y-94270000D01*
X97785000Y-93000000D02*
X97785000Y-91730000D01*
X103155000Y-92680000D02*
X109155000Y-92680000D01*
X103155000Y-93280000D02*
X109155000Y-93280000D01*
X109155000Y-92620000D02*
X109155000Y-93380000D01*
X103155000Y-92800000D02*
X109155000Y-92800000D01*
X100495000Y-91670000D02*
X100495000Y-96870000D01*
X103155000Y-91670000D02*
X100495000Y-91670000D01*
X109155000Y-93380000D02*
X103155000Y-93380000D01*
X103155000Y-92620000D02*
X109155000Y-92620000D01*
X103155000Y-92920000D02*
X109155000Y-92920000D01*
X97785000Y-91730000D02*
X99055000Y-91730000D01*
X109155000Y-95920000D02*
X103155000Y-95920000D01*
X103155000Y-93160000D02*
X109155000Y-93160000D01*
%TO.C,J1*%
X45872071Y-93380000D02*
X45475000Y-93380000D01*
X36815000Y-93380000D02*
X36815000Y-92620000D01*
X45805000Y-95920000D02*
X45475000Y-95920000D01*
X45872071Y-92620000D02*
X45475000Y-92620000D01*
X42815000Y-93380000D02*
X36815000Y-93380000D01*
X42815000Y-91670000D02*
X42815000Y-96870000D01*
X45805000Y-95160000D02*
X45475000Y-95160000D01*
X45475000Y-91670000D02*
X42815000Y-91670000D01*
X42815000Y-95500000D02*
X36815000Y-95500000D01*
X45475000Y-94270000D02*
X42815000Y-94270000D01*
X48185000Y-95540000D02*
X48185000Y-96810000D01*
X42815000Y-95860000D02*
X36815000Y-95860000D01*
X42815000Y-95260000D02*
X36815000Y-95260000D01*
X36815000Y-95920000D02*
X36815000Y-95160000D01*
X42815000Y-95740000D02*
X36815000Y-95740000D01*
X45475000Y-96870000D02*
X45475000Y-91670000D01*
X42815000Y-96870000D02*
X45475000Y-96870000D01*
X36815000Y-95160000D02*
X42815000Y-95160000D01*
X42815000Y-95920000D02*
X36815000Y-95920000D01*
X42815000Y-95620000D02*
X36815000Y-95620000D01*
X48185000Y-96810000D02*
X46915000Y-96810000D01*
X36815000Y-92620000D02*
X42815000Y-92620000D01*
X42815000Y-95380000D02*
X36815000Y-95380000D01*
%TD*%
M02*
