%TF.GenerationSoftware,KiCad,Pcbnew,6.0.2-378541a8eb~116~ubuntu20.04.1*%
%TF.CreationDate,2022-03-08T10:00:38+01:00*%
%TF.ProjectId,contact-sensor,636f6e74-6163-4742-9d73-656e736f722e,0.1.1*%
%TF.SameCoordinates,Original*%
%TF.FileFunction,Copper,L2,Bot*%
%TF.FilePolarity,Positive*%
%FSLAX46Y46*%
G04 Gerber Fmt 4.6, Leading zero omitted, Abs format (unit mm)*
G04 Created by KiCad (PCBNEW 6.0.2-378541a8eb~116~ubuntu20.04.1) date 2022-03-08 10:00:38*
%MOMM*%
%LPD*%
G01*
G04 APERTURE LIST*
%TA.AperFunction,EtchedComponent*%
%ADD10C,0.010000*%
%TD*%
%TA.AperFunction,ComponentPad*%
%ADD11R,1.700000X1.700000*%
%TD*%
%TA.AperFunction,ComponentPad*%
%ADD12O,1.700000X1.700000*%
%TD*%
%TA.AperFunction,ComponentPad*%
%ADD13C,2.000000*%
%TD*%
%TA.AperFunction,Conductor*%
%ADD14C,0.250000*%
%TD*%
G04 APERTURE END LIST*
D10*
%TO.C,REF3*%
X100409186Y-95893931D02*
X100325365Y-96338555D01*
X100325365Y-96338555D02*
X100016080Y-96466053D01*
X100016080Y-96466053D02*
X99706794Y-96593551D01*
X99706794Y-96593551D02*
X99335754Y-96341246D01*
X99335754Y-96341246D02*
X99231843Y-96270996D01*
X99231843Y-96270996D02*
X99137913Y-96208272D01*
X99137913Y-96208272D02*
X99058348Y-96155938D01*
X99058348Y-96155938D02*
X98997530Y-96116857D01*
X98997530Y-96116857D02*
X98959843Y-96093893D01*
X98959843Y-96093893D02*
X98949579Y-96088942D01*
X98949579Y-96088942D02*
X98931090Y-96101676D01*
X98931090Y-96101676D02*
X98891580Y-96136882D01*
X98891580Y-96136882D02*
X98835478Y-96190062D01*
X98835478Y-96190062D02*
X98767213Y-96256718D01*
X98767213Y-96256718D02*
X98691214Y-96332354D01*
X98691214Y-96332354D02*
X98611908Y-96412472D01*
X98611908Y-96412472D02*
X98533725Y-96492574D01*
X98533725Y-96492574D02*
X98461093Y-96568164D01*
X98461093Y-96568164D02*
X98398441Y-96634745D01*
X98398441Y-96634745D02*
X98350197Y-96687818D01*
X98350197Y-96687818D02*
X98320790Y-96722887D01*
X98320790Y-96722887D02*
X98313759Y-96734623D01*
X98313759Y-96734623D02*
X98323877Y-96756260D01*
X98323877Y-96756260D02*
X98352241Y-96803662D01*
X98352241Y-96803662D02*
X98395871Y-96872193D01*
X98395871Y-96872193D02*
X98451782Y-96957215D01*
X98451782Y-96957215D02*
X98516994Y-97054093D01*
X98516994Y-97054093D02*
X98554781Y-97109350D01*
X98554781Y-97109350D02*
X98623657Y-97210248D01*
X98623657Y-97210248D02*
X98684860Y-97301299D01*
X98684860Y-97301299D02*
X98735422Y-97377970D01*
X98735422Y-97377970D02*
X98772372Y-97435728D01*
X98772372Y-97435728D02*
X98792742Y-97470043D01*
X98792742Y-97470043D02*
X98795803Y-97477254D01*
X98795803Y-97477254D02*
X98788864Y-97497748D01*
X98788864Y-97497748D02*
X98769949Y-97545513D01*
X98769949Y-97545513D02*
X98741913Y-97613832D01*
X98741913Y-97613832D02*
X98707609Y-97695989D01*
X98707609Y-97695989D02*
X98669891Y-97785270D01*
X98669891Y-97785270D02*
X98631613Y-97874958D01*
X98631613Y-97874958D02*
X98595630Y-97958338D01*
X98595630Y-97958338D02*
X98564794Y-98028694D01*
X98564794Y-98028694D02*
X98541961Y-98079310D01*
X98541961Y-98079310D02*
X98529983Y-98103471D01*
X98529983Y-98103471D02*
X98529276Y-98104422D01*
X98529276Y-98104422D02*
X98510469Y-98109036D01*
X98510469Y-98109036D02*
X98460382Y-98119328D01*
X98460382Y-98119328D02*
X98384207Y-98134287D01*
X98384207Y-98134287D02*
X98287135Y-98152901D01*
X98287135Y-98152901D02*
X98174357Y-98174159D01*
X98174357Y-98174159D02*
X98108558Y-98186418D01*
X98108558Y-98186418D02*
X97988050Y-98209362D01*
X97988050Y-98209362D02*
X97879203Y-98231195D01*
X97879203Y-98231195D02*
X97787524Y-98250722D01*
X97787524Y-98250722D02*
X97718519Y-98266748D01*
X97718519Y-98266748D02*
X97677696Y-98278079D01*
X97677696Y-98278079D02*
X97669489Y-98281674D01*
X97669489Y-98281674D02*
X97661452Y-98306006D01*
X97661452Y-98306006D02*
X97654967Y-98360959D01*
X97654967Y-98360959D02*
X97650030Y-98440108D01*
X97650030Y-98440108D02*
X97646636Y-98537026D01*
X97646636Y-98537026D02*
X97644782Y-98645287D01*
X97644782Y-98645287D02*
X97644462Y-98758465D01*
X97644462Y-98758465D02*
X97645673Y-98870135D01*
X97645673Y-98870135D02*
X97648410Y-98973868D01*
X97648410Y-98973868D02*
X97652669Y-99063241D01*
X97652669Y-99063241D02*
X97658445Y-99131826D01*
X97658445Y-99131826D02*
X97665733Y-99173197D01*
X97665733Y-99173197D02*
X97670105Y-99181810D01*
X97670105Y-99181810D02*
X97696236Y-99192133D01*
X97696236Y-99192133D02*
X97751607Y-99206892D01*
X97751607Y-99206892D02*
X97828893Y-99224352D01*
X97828893Y-99224352D02*
X97920770Y-99242780D01*
X97920770Y-99242780D02*
X97952842Y-99248741D01*
X97952842Y-99248741D02*
X98107476Y-99277066D01*
X98107476Y-99277066D02*
X98229625Y-99299876D01*
X98229625Y-99299876D02*
X98323327Y-99318080D01*
X98323327Y-99318080D02*
X98392616Y-99332583D01*
X98392616Y-99332583D02*
X98441529Y-99344292D01*
X98441529Y-99344292D02*
X98474103Y-99354115D01*
X98474103Y-99354115D02*
X98494372Y-99362956D01*
X98494372Y-99362956D02*
X98506374Y-99371724D01*
X98506374Y-99371724D02*
X98508053Y-99373457D01*
X98508053Y-99373457D02*
X98524816Y-99401371D01*
X98524816Y-99401371D02*
X98550386Y-99455695D01*
X98550386Y-99455695D02*
X98582212Y-99529777D01*
X98582212Y-99529777D02*
X98617740Y-99616965D01*
X98617740Y-99616965D02*
X98654417Y-99710608D01*
X98654417Y-99710608D02*
X98689689Y-99804052D01*
X98689689Y-99804052D02*
X98721004Y-99890647D01*
X98721004Y-99890647D02*
X98745807Y-99963740D01*
X98745807Y-99963740D02*
X98761546Y-100016678D01*
X98761546Y-100016678D02*
X98765668Y-100042811D01*
X98765668Y-100042811D02*
X98765324Y-100043726D01*
X98765324Y-100043726D02*
X98751359Y-100065086D01*
X98751359Y-100065086D02*
X98719678Y-100112084D01*
X98719678Y-100112084D02*
X98673609Y-100179827D01*
X98673609Y-100179827D02*
X98616482Y-100263423D01*
X98616482Y-100263423D02*
X98551627Y-100357982D01*
X98551627Y-100357982D02*
X98533157Y-100384854D01*
X98533157Y-100384854D02*
X98467301Y-100482275D01*
X98467301Y-100482275D02*
X98409350Y-100571163D01*
X98409350Y-100571163D02*
X98362462Y-100646412D01*
X98362462Y-100646412D02*
X98329793Y-100702920D01*
X98329793Y-100702920D02*
X98314500Y-100735581D01*
X98314500Y-100735581D02*
X98313759Y-100739593D01*
X98313759Y-100739593D02*
X98326608Y-100760684D01*
X98326608Y-100760684D02*
X98362112Y-100802464D01*
X98362112Y-100802464D02*
X98415707Y-100860445D01*
X98415707Y-100860445D02*
X98482829Y-100930135D01*
X98482829Y-100930135D02*
X98558913Y-101007045D01*
X98558913Y-101007045D02*
X98639396Y-101086683D01*
X98639396Y-101086683D02*
X98719713Y-101164561D01*
X98719713Y-101164561D02*
X98795301Y-101236186D01*
X98795301Y-101236186D02*
X98861595Y-101297070D01*
X98861595Y-101297070D02*
X98914031Y-101342721D01*
X98914031Y-101342721D02*
X98948045Y-101368650D01*
X98948045Y-101368650D02*
X98957455Y-101372883D01*
X98957455Y-101372883D02*
X98979357Y-101362912D01*
X98979357Y-101362912D02*
X99024200Y-101336020D01*
X99024200Y-101336020D02*
X99084679Y-101296736D01*
X99084679Y-101296736D02*
X99131211Y-101265117D01*
X99131211Y-101265117D02*
X99215525Y-101207098D01*
X99215525Y-101207098D02*
X99315374Y-101138784D01*
X99315374Y-101138784D02*
X99415527Y-101070579D01*
X99415527Y-101070579D02*
X99469373Y-101034075D01*
X99469373Y-101034075D02*
X99651629Y-100910800D01*
X99651629Y-100910800D02*
X99804619Y-100993520D01*
X99804619Y-100993520D02*
X99874318Y-101029759D01*
X99874318Y-101029759D02*
X99933586Y-101057926D01*
X99933586Y-101057926D02*
X99973689Y-101073991D01*
X99973689Y-101073991D02*
X99983897Y-101076226D01*
X99983897Y-101076226D02*
X99996171Y-101059722D01*
X99996171Y-101059722D02*
X100020387Y-101013082D01*
X100020387Y-101013082D02*
X100054737Y-100940609D01*
X100054737Y-100940609D02*
X100097412Y-100846606D01*
X100097412Y-100846606D02*
X100146606Y-100735374D01*
X100146606Y-100735374D02*
X100200510Y-100611215D01*
X100200510Y-100611215D02*
X100257316Y-100478432D01*
X100257316Y-100478432D02*
X100315218Y-100341327D01*
X100315218Y-100341327D02*
X100372407Y-100204202D01*
X100372407Y-100204202D02*
X100427076Y-100071358D01*
X100427076Y-100071358D02*
X100477416Y-99947098D01*
X100477416Y-99947098D02*
X100521620Y-99835725D01*
X100521620Y-99835725D02*
X100557881Y-99741539D01*
X100557881Y-99741539D02*
X100584391Y-99668844D01*
X100584391Y-99668844D02*
X100599342Y-99621941D01*
X100599342Y-99621941D02*
X100601746Y-99605833D01*
X100601746Y-99605833D02*
X100582689Y-99585286D01*
X100582689Y-99585286D02*
X100540964Y-99551933D01*
X100540964Y-99551933D02*
X100485294Y-99512702D01*
X100485294Y-99512702D02*
X100480622Y-99509599D01*
X100480622Y-99509599D02*
X100336736Y-99394423D01*
X100336736Y-99394423D02*
X100220717Y-99260053D01*
X100220717Y-99260053D02*
X100133570Y-99110784D01*
X100133570Y-99110784D02*
X100076301Y-98950913D01*
X100076301Y-98950913D02*
X100049914Y-98784737D01*
X100049914Y-98784737D02*
X100055415Y-98616552D01*
X100055415Y-98616552D02*
X100093810Y-98450655D01*
X100093810Y-98450655D02*
X100166105Y-98291342D01*
X100166105Y-98291342D02*
X100187374Y-98256487D01*
X100187374Y-98256487D02*
X100298004Y-98115737D01*
X100298004Y-98115737D02*
X100428698Y-98002714D01*
X100428698Y-98002714D02*
X100574936Y-97918003D01*
X100574936Y-97918003D02*
X100732192Y-97862194D01*
X100732192Y-97862194D02*
X100895943Y-97835874D01*
X100895943Y-97835874D02*
X101061667Y-97839630D01*
X101061667Y-97839630D02*
X101224838Y-97874050D01*
X101224838Y-97874050D02*
X101380935Y-97939723D01*
X101380935Y-97939723D02*
X101525433Y-98037235D01*
X101525433Y-98037235D02*
X101570131Y-98076813D01*
X101570131Y-98076813D02*
X101683888Y-98200703D01*
X101683888Y-98200703D02*
X101766782Y-98331124D01*
X101766782Y-98331124D02*
X101823644Y-98477315D01*
X101823644Y-98477315D02*
X101855313Y-98622088D01*
X101855313Y-98622088D02*
X101863131Y-98784860D01*
X101863131Y-98784860D02*
X101837062Y-98948440D01*
X101837062Y-98948440D02*
X101779755Y-99107298D01*
X101779755Y-99107298D02*
X101693856Y-99255906D01*
X101693856Y-99255906D02*
X101582014Y-99388735D01*
X101582014Y-99388735D02*
X101446877Y-99500256D01*
X101446877Y-99500256D02*
X101429117Y-99512011D01*
X101429117Y-99512011D02*
X101372850Y-99550508D01*
X101372850Y-99550508D02*
X101330077Y-99583863D01*
X101330077Y-99583863D02*
X101309628Y-99605160D01*
X101309628Y-99605160D02*
X101309331Y-99605833D01*
X101309331Y-99605833D02*
X101313721Y-99628871D01*
X101313721Y-99628871D02*
X101331124Y-99681157D01*
X101331124Y-99681157D02*
X101359732Y-99758390D01*
X101359732Y-99758390D02*
X101397735Y-99856268D01*
X101397735Y-99856268D02*
X101443326Y-99970491D01*
X101443326Y-99970491D02*
X101494697Y-100096758D01*
X101494697Y-100096758D02*
X101550038Y-100230767D01*
X101550038Y-100230767D02*
X101607542Y-100368218D01*
X101607542Y-100368218D02*
X101665399Y-100504808D01*
X101665399Y-100504808D02*
X101721802Y-100636237D01*
X101721802Y-100636237D02*
X101774942Y-100758205D01*
X101774942Y-100758205D02*
X101823010Y-100866409D01*
X101823010Y-100866409D02*
X101864199Y-100956549D01*
X101864199Y-100956549D02*
X101896699Y-101024323D01*
X101896699Y-101024323D02*
X101918703Y-101065430D01*
X101918703Y-101065430D02*
X101927564Y-101076226D01*
X101927564Y-101076226D02*
X101954640Y-101067819D01*
X101954640Y-101067819D02*
X102005303Y-101045272D01*
X102005303Y-101045272D02*
X102070817Y-101012613D01*
X102070817Y-101012613D02*
X102106841Y-100993520D01*
X102106841Y-100993520D02*
X102259832Y-100910800D01*
X102259832Y-100910800D02*
X102442088Y-101034075D01*
X102442088Y-101034075D02*
X102535125Y-101097228D01*
X102535125Y-101097228D02*
X102636985Y-101166727D01*
X102636985Y-101166727D02*
X102732438Y-101232165D01*
X102732438Y-101232165D02*
X102780250Y-101265117D01*
X102780250Y-101265117D02*
X102847495Y-101310273D01*
X102847495Y-101310273D02*
X102904436Y-101346057D01*
X102904436Y-101346057D02*
X102943646Y-101367938D01*
X102943646Y-101367938D02*
X102956381Y-101372563D01*
X102956381Y-101372563D02*
X102974917Y-101360085D01*
X102974917Y-101360085D02*
X103015941Y-101325252D01*
X103015941Y-101325252D02*
X103075475Y-101271678D01*
X103075475Y-101271678D02*
X103149542Y-101202983D01*
X103149542Y-101202983D02*
X103234165Y-101122781D01*
X103234165Y-101122781D02*
X103287685Y-101071286D01*
X103287685Y-101071286D02*
X103381319Y-100979286D01*
X103381319Y-100979286D02*
X103462241Y-100896999D01*
X103462241Y-100896999D02*
X103527177Y-100827945D01*
X103527177Y-100827945D02*
X103572858Y-100775644D01*
X103572858Y-100775644D02*
X103596011Y-100743616D01*
X103596011Y-100743616D02*
X103598232Y-100737116D01*
X103598232Y-100737116D02*
X103587924Y-100712394D01*
X103587924Y-100712394D02*
X103559439Y-100662405D01*
X103559439Y-100662405D02*
X103515937Y-100592212D01*
X103515937Y-100592212D02*
X103460577Y-100506875D01*
X103460577Y-100506875D02*
X103396520Y-100411456D01*
X103396520Y-100411456D02*
X103378303Y-100384854D01*
X103378303Y-100384854D02*
X103311927Y-100288167D01*
X103311927Y-100288167D02*
X103252378Y-100201117D01*
X103252378Y-100201117D02*
X103202984Y-100128595D01*
X103202984Y-100128595D02*
X103167075Y-100075493D01*
X103167075Y-100075493D02*
X103147981Y-100046703D01*
X103147981Y-100046703D02*
X103146136Y-100043726D01*
X103146136Y-100043726D02*
X103148895Y-100020782D01*
X103148895Y-100020782D02*
X103163538Y-99970336D01*
X103163538Y-99970336D02*
X103187513Y-99899041D01*
X103187513Y-99899041D02*
X103218266Y-99813547D01*
X103218266Y-99813547D02*
X103253244Y-99720507D01*
X103253244Y-99720507D02*
X103289893Y-99626574D01*
X103289893Y-99626574D02*
X103325661Y-99538399D01*
X103325661Y-99538399D02*
X103357994Y-99462634D01*
X103357994Y-99462634D02*
X103384338Y-99405931D01*
X103384338Y-99405931D02*
X103402142Y-99374943D01*
X103402142Y-99374943D02*
X103403407Y-99373457D01*
X103403407Y-99373457D02*
X103414294Y-99364601D01*
X103414294Y-99364601D02*
X103432682Y-99355843D01*
X103432682Y-99355843D02*
X103462606Y-99346277D01*
X103462606Y-99346277D02*
X103508103Y-99334996D01*
X103508103Y-99334996D02*
X103573209Y-99321093D01*
X103573209Y-99321093D02*
X103661961Y-99303663D01*
X103661961Y-99303663D02*
X103778393Y-99281798D01*
X103778393Y-99281798D02*
X103926542Y-99254591D01*
X103926542Y-99254591D02*
X103958618Y-99248741D01*
X103958618Y-99248741D02*
X104053686Y-99230374D01*
X104053686Y-99230374D02*
X104136565Y-99212405D01*
X104136565Y-99212405D02*
X104199930Y-99196569D01*
X104199930Y-99196569D02*
X104236458Y-99184600D01*
X104236458Y-99184600D02*
X104241356Y-99181810D01*
X104241356Y-99181810D02*
X104249427Y-99157072D01*
X104249427Y-99157072D02*
X104255987Y-99101790D01*
X104255987Y-99101790D02*
X104261033Y-99022389D01*
X104261033Y-99022389D02*
X104264559Y-98925296D01*
X104264559Y-98925296D02*
X104266561Y-98816938D01*
X104266561Y-98816938D02*
X104267036Y-98703740D01*
X104267036Y-98703740D02*
X104265977Y-98592128D01*
X104265977Y-98592128D02*
X104263382Y-98488529D01*
X104263382Y-98488529D02*
X104259246Y-98399368D01*
X104259246Y-98399368D02*
X104253563Y-98331072D01*
X104253563Y-98331072D02*
X104246331Y-98290066D01*
X104246331Y-98290066D02*
X104241971Y-98281674D01*
X104241971Y-98281674D02*
X104217698Y-98273208D01*
X104217698Y-98273208D02*
X104162426Y-98259435D01*
X104162426Y-98259435D02*
X104081662Y-98241550D01*
X104081662Y-98241550D02*
X103980912Y-98220748D01*
X103980912Y-98220748D02*
X103865683Y-98198223D01*
X103865683Y-98198223D02*
X103802902Y-98186418D01*
X103802902Y-98186418D02*
X103683787Y-98164151D01*
X103683787Y-98164151D02*
X103577565Y-98143979D01*
X103577565Y-98143979D02*
X103489427Y-98126915D01*
X103489427Y-98126915D02*
X103424566Y-98113969D01*
X103424566Y-98113969D02*
X103388174Y-98106155D01*
X103388174Y-98106155D02*
X103382184Y-98104422D01*
X103382184Y-98104422D02*
X103372061Y-98084890D01*
X103372061Y-98084890D02*
X103350662Y-98037843D01*
X103350662Y-98037843D02*
X103320839Y-97970003D01*
X103320839Y-97970003D02*
X103285445Y-97888091D01*
X103285445Y-97888091D02*
X103247332Y-97798828D01*
X103247332Y-97798828D02*
X103209353Y-97708935D01*
X103209353Y-97708935D02*
X103174360Y-97625135D01*
X103174360Y-97625135D02*
X103145206Y-97554147D01*
X103145206Y-97554147D02*
X103124743Y-97502694D01*
X103124743Y-97502694D02*
X103115823Y-97477497D01*
X103115823Y-97477497D02*
X103115657Y-97476396D01*
X103115657Y-97476396D02*
X103125769Y-97456519D01*
X103125769Y-97456519D02*
X103154117Y-97410777D01*
X103154117Y-97410777D02*
X103197723Y-97343717D01*
X103197723Y-97343717D02*
X103253606Y-97259884D01*
X103253606Y-97259884D02*
X103318787Y-97163826D01*
X103318787Y-97163826D02*
X103356679Y-97108650D01*
X103356679Y-97108650D02*
X103425725Y-97007481D01*
X103425725Y-97007481D02*
X103487050Y-96915630D01*
X103487050Y-96915630D02*
X103537663Y-96837744D01*
X103537663Y-96837744D02*
X103574571Y-96778469D01*
X103574571Y-96778469D02*
X103594782Y-96742451D01*
X103594782Y-96742451D02*
X103597701Y-96734377D01*
X103597701Y-96734377D02*
X103585153Y-96715584D01*
X103585153Y-96715584D02*
X103550463Y-96675457D01*
X103550463Y-96675457D02*
X103498063Y-96618493D01*
X103498063Y-96618493D02*
X103432384Y-96549185D01*
X103432384Y-96549185D02*
X103357856Y-96472031D01*
X103357856Y-96472031D02*
X103278913Y-96391525D01*
X103278913Y-96391525D02*
X103199983Y-96312163D01*
X103199983Y-96312163D02*
X103125500Y-96238440D01*
X103125500Y-96238440D02*
X103059894Y-96174852D01*
X103059894Y-96174852D02*
X103007596Y-96125894D01*
X103007596Y-96125894D02*
X102973039Y-96096061D01*
X102973039Y-96096061D02*
X102961478Y-96088942D01*
X102961478Y-96088942D02*
X102942654Y-96098953D01*
X102942654Y-96098953D02*
X102897631Y-96127078D01*
X102897631Y-96127078D02*
X102830787Y-96170454D01*
X102830787Y-96170454D02*
X102746499Y-96226218D01*
X102746499Y-96226218D02*
X102649144Y-96291506D01*
X102649144Y-96291506D02*
X102575707Y-96341246D01*
X102575707Y-96341246D02*
X102204667Y-96593551D01*
X102204667Y-96593551D02*
X101586095Y-96338555D01*
X101586095Y-96338555D02*
X101502275Y-95893931D01*
X101502275Y-95893931D02*
X101418454Y-95449307D01*
X101418454Y-95449307D02*
X100493006Y-95449307D01*
X100493006Y-95449307D02*
X100409186Y-95893931D01*
X100409186Y-95893931D02*
X100409186Y-95893931D01*
G36*
X101502275Y-95893931D02*
G01*
X101586095Y-96338555D01*
X102204667Y-96593551D01*
X102575707Y-96341246D01*
X102649144Y-96291506D01*
X102746499Y-96226218D01*
X102830787Y-96170454D01*
X102897631Y-96127078D01*
X102942654Y-96098953D01*
X102961478Y-96088942D01*
X102973039Y-96096061D01*
X103007596Y-96125894D01*
X103059894Y-96174852D01*
X103125500Y-96238440D01*
X103199983Y-96312163D01*
X103278913Y-96391525D01*
X103357856Y-96472031D01*
X103432384Y-96549185D01*
X103498063Y-96618493D01*
X103550463Y-96675457D01*
X103585153Y-96715584D01*
X103597701Y-96734377D01*
X103594782Y-96742451D01*
X103574571Y-96778469D01*
X103537663Y-96837744D01*
X103487050Y-96915630D01*
X103425725Y-97007481D01*
X103356679Y-97108650D01*
X103318787Y-97163826D01*
X103253606Y-97259884D01*
X103197723Y-97343717D01*
X103154117Y-97410777D01*
X103125769Y-97456519D01*
X103115657Y-97476396D01*
X103115823Y-97477497D01*
X103124743Y-97502694D01*
X103145206Y-97554147D01*
X103174360Y-97625135D01*
X103209353Y-97708935D01*
X103247332Y-97798828D01*
X103285445Y-97888091D01*
X103320839Y-97970003D01*
X103350662Y-98037843D01*
X103372061Y-98084890D01*
X103382184Y-98104422D01*
X103388174Y-98106155D01*
X103424566Y-98113969D01*
X103489427Y-98126915D01*
X103577565Y-98143979D01*
X103683787Y-98164151D01*
X103802902Y-98186418D01*
X103865683Y-98198223D01*
X103980912Y-98220748D01*
X104081662Y-98241550D01*
X104162426Y-98259435D01*
X104217698Y-98273208D01*
X104241971Y-98281674D01*
X104246331Y-98290066D01*
X104253563Y-98331072D01*
X104259246Y-98399368D01*
X104263382Y-98488529D01*
X104265977Y-98592128D01*
X104267036Y-98703740D01*
X104266561Y-98816938D01*
X104264559Y-98925296D01*
X104261033Y-99022389D01*
X104255987Y-99101790D01*
X104249427Y-99157072D01*
X104241356Y-99181810D01*
X104236458Y-99184600D01*
X104199930Y-99196569D01*
X104136565Y-99212405D01*
X104053686Y-99230374D01*
X103958618Y-99248741D01*
X103926542Y-99254591D01*
X103778393Y-99281798D01*
X103661961Y-99303663D01*
X103573209Y-99321093D01*
X103508103Y-99334996D01*
X103462606Y-99346277D01*
X103432682Y-99355843D01*
X103414294Y-99364601D01*
X103403407Y-99373457D01*
X103402142Y-99374943D01*
X103384338Y-99405931D01*
X103357994Y-99462634D01*
X103325661Y-99538399D01*
X103289893Y-99626574D01*
X103253244Y-99720507D01*
X103218266Y-99813547D01*
X103187513Y-99899041D01*
X103163538Y-99970336D01*
X103148895Y-100020782D01*
X103146136Y-100043726D01*
X103147981Y-100046703D01*
X103167075Y-100075493D01*
X103202984Y-100128595D01*
X103252378Y-100201117D01*
X103311927Y-100288167D01*
X103378303Y-100384854D01*
X103396520Y-100411456D01*
X103460577Y-100506875D01*
X103515937Y-100592212D01*
X103559439Y-100662405D01*
X103587924Y-100712394D01*
X103598232Y-100737116D01*
X103596011Y-100743616D01*
X103572858Y-100775644D01*
X103527177Y-100827945D01*
X103462241Y-100896999D01*
X103381319Y-100979286D01*
X103287685Y-101071286D01*
X103234165Y-101122781D01*
X103149542Y-101202983D01*
X103075475Y-101271678D01*
X103015941Y-101325252D01*
X102974917Y-101360085D01*
X102956381Y-101372563D01*
X102943646Y-101367938D01*
X102904436Y-101346057D01*
X102847495Y-101310273D01*
X102780250Y-101265117D01*
X102732438Y-101232165D01*
X102636985Y-101166727D01*
X102535125Y-101097228D01*
X102442088Y-101034075D01*
X102259832Y-100910800D01*
X102106841Y-100993520D01*
X102070817Y-101012613D01*
X102005303Y-101045272D01*
X101954640Y-101067819D01*
X101927564Y-101076226D01*
X101918703Y-101065430D01*
X101896699Y-101024323D01*
X101864199Y-100956549D01*
X101823010Y-100866409D01*
X101774942Y-100758205D01*
X101721802Y-100636237D01*
X101665399Y-100504808D01*
X101607542Y-100368218D01*
X101550038Y-100230767D01*
X101494697Y-100096758D01*
X101443326Y-99970491D01*
X101397735Y-99856268D01*
X101359732Y-99758390D01*
X101331124Y-99681157D01*
X101313721Y-99628871D01*
X101309331Y-99605833D01*
X101309628Y-99605160D01*
X101330077Y-99583863D01*
X101372850Y-99550508D01*
X101429117Y-99512011D01*
X101446877Y-99500256D01*
X101582014Y-99388735D01*
X101693856Y-99255906D01*
X101779755Y-99107298D01*
X101837062Y-98948440D01*
X101863131Y-98784860D01*
X101855313Y-98622088D01*
X101823644Y-98477315D01*
X101766782Y-98331124D01*
X101683888Y-98200703D01*
X101570131Y-98076813D01*
X101525433Y-98037235D01*
X101380935Y-97939723D01*
X101224838Y-97874050D01*
X101061667Y-97839630D01*
X100895943Y-97835874D01*
X100732192Y-97862194D01*
X100574936Y-97918003D01*
X100428698Y-98002714D01*
X100298004Y-98115737D01*
X100187374Y-98256487D01*
X100166105Y-98291342D01*
X100093810Y-98450655D01*
X100055415Y-98616552D01*
X100049914Y-98784737D01*
X100076301Y-98950913D01*
X100133570Y-99110784D01*
X100220717Y-99260053D01*
X100336736Y-99394423D01*
X100480622Y-99509599D01*
X100485294Y-99512702D01*
X100540964Y-99551933D01*
X100582689Y-99585286D01*
X100601746Y-99605833D01*
X100599342Y-99621941D01*
X100584391Y-99668844D01*
X100557881Y-99741539D01*
X100521620Y-99835725D01*
X100477416Y-99947098D01*
X100427076Y-100071358D01*
X100372407Y-100204202D01*
X100315218Y-100341327D01*
X100257316Y-100478432D01*
X100200510Y-100611215D01*
X100146606Y-100735374D01*
X100097412Y-100846606D01*
X100054737Y-100940609D01*
X100020387Y-101013082D01*
X99996171Y-101059722D01*
X99983897Y-101076226D01*
X99973689Y-101073991D01*
X99933586Y-101057926D01*
X99874318Y-101029759D01*
X99804619Y-100993520D01*
X99651629Y-100910800D01*
X99469373Y-101034075D01*
X99415527Y-101070579D01*
X99315374Y-101138784D01*
X99215525Y-101207098D01*
X99131211Y-101265117D01*
X99084679Y-101296736D01*
X99024200Y-101336020D01*
X98979357Y-101362912D01*
X98957455Y-101372883D01*
X98948045Y-101368650D01*
X98914031Y-101342721D01*
X98861595Y-101297070D01*
X98795301Y-101236186D01*
X98719713Y-101164561D01*
X98639396Y-101086683D01*
X98558913Y-101007045D01*
X98482829Y-100930135D01*
X98415707Y-100860445D01*
X98362112Y-100802464D01*
X98326608Y-100760684D01*
X98313759Y-100739593D01*
X98314500Y-100735581D01*
X98329793Y-100702920D01*
X98362462Y-100646412D01*
X98409350Y-100571163D01*
X98467301Y-100482275D01*
X98533157Y-100384854D01*
X98551627Y-100357982D01*
X98616482Y-100263423D01*
X98673609Y-100179827D01*
X98719678Y-100112084D01*
X98751359Y-100065086D01*
X98765324Y-100043726D01*
X98765668Y-100042811D01*
X98761546Y-100016678D01*
X98745807Y-99963740D01*
X98721004Y-99890647D01*
X98689689Y-99804052D01*
X98654417Y-99710608D01*
X98617740Y-99616965D01*
X98582212Y-99529777D01*
X98550386Y-99455695D01*
X98524816Y-99401371D01*
X98508053Y-99373457D01*
X98506374Y-99371724D01*
X98494372Y-99362956D01*
X98474103Y-99354115D01*
X98441529Y-99344292D01*
X98392616Y-99332583D01*
X98323327Y-99318080D01*
X98229625Y-99299876D01*
X98107476Y-99277066D01*
X97952842Y-99248741D01*
X97920770Y-99242780D01*
X97828893Y-99224352D01*
X97751607Y-99206892D01*
X97696236Y-99192133D01*
X97670105Y-99181810D01*
X97665733Y-99173197D01*
X97658445Y-99131826D01*
X97652669Y-99063241D01*
X97648410Y-98973868D01*
X97645673Y-98870135D01*
X97644462Y-98758465D01*
X97644782Y-98645287D01*
X97646636Y-98537026D01*
X97650030Y-98440108D01*
X97654967Y-98360959D01*
X97661452Y-98306006D01*
X97669489Y-98281674D01*
X97677696Y-98278079D01*
X97718519Y-98266748D01*
X97787524Y-98250722D01*
X97879203Y-98231195D01*
X97988050Y-98209362D01*
X98108558Y-98186418D01*
X98174357Y-98174159D01*
X98287135Y-98152901D01*
X98384207Y-98134287D01*
X98460382Y-98119328D01*
X98510469Y-98109036D01*
X98529276Y-98104422D01*
X98529983Y-98103471D01*
X98541961Y-98079310D01*
X98564794Y-98028694D01*
X98595630Y-97958338D01*
X98631613Y-97874958D01*
X98669891Y-97785270D01*
X98707609Y-97695989D01*
X98741913Y-97613832D01*
X98769949Y-97545513D01*
X98788864Y-97497748D01*
X98795803Y-97477254D01*
X98792742Y-97470043D01*
X98772372Y-97435728D01*
X98735422Y-97377970D01*
X98684860Y-97301299D01*
X98623657Y-97210248D01*
X98554781Y-97109350D01*
X98516994Y-97054093D01*
X98451782Y-96957215D01*
X98395871Y-96872193D01*
X98352241Y-96803662D01*
X98323877Y-96756260D01*
X98313759Y-96734623D01*
X98320790Y-96722887D01*
X98350197Y-96687818D01*
X98398441Y-96634745D01*
X98461093Y-96568164D01*
X98533725Y-96492574D01*
X98611908Y-96412472D01*
X98691214Y-96332354D01*
X98767213Y-96256718D01*
X98835478Y-96190062D01*
X98891580Y-96136882D01*
X98931090Y-96101676D01*
X98949579Y-96088942D01*
X98959843Y-96093893D01*
X98997530Y-96116857D01*
X99058348Y-96155938D01*
X99137913Y-96208272D01*
X99231843Y-96270996D01*
X99335754Y-96341246D01*
X99706794Y-96593551D01*
X100016080Y-96466053D01*
X100325365Y-96338555D01*
X100409186Y-95893931D01*
X100493006Y-95449307D01*
X101418454Y-95449307D01*
X101502275Y-95893931D01*
G37*
X101502275Y-95893931D02*
X101586095Y-96338555D01*
X102204667Y-96593551D01*
X102575707Y-96341246D01*
X102649144Y-96291506D01*
X102746499Y-96226218D01*
X102830787Y-96170454D01*
X102897631Y-96127078D01*
X102942654Y-96098953D01*
X102961478Y-96088942D01*
X102973039Y-96096061D01*
X103007596Y-96125894D01*
X103059894Y-96174852D01*
X103125500Y-96238440D01*
X103199983Y-96312163D01*
X103278913Y-96391525D01*
X103357856Y-96472031D01*
X103432384Y-96549185D01*
X103498063Y-96618493D01*
X103550463Y-96675457D01*
X103585153Y-96715584D01*
X103597701Y-96734377D01*
X103594782Y-96742451D01*
X103574571Y-96778469D01*
X103537663Y-96837744D01*
X103487050Y-96915630D01*
X103425725Y-97007481D01*
X103356679Y-97108650D01*
X103318787Y-97163826D01*
X103253606Y-97259884D01*
X103197723Y-97343717D01*
X103154117Y-97410777D01*
X103125769Y-97456519D01*
X103115657Y-97476396D01*
X103115823Y-97477497D01*
X103124743Y-97502694D01*
X103145206Y-97554147D01*
X103174360Y-97625135D01*
X103209353Y-97708935D01*
X103247332Y-97798828D01*
X103285445Y-97888091D01*
X103320839Y-97970003D01*
X103350662Y-98037843D01*
X103372061Y-98084890D01*
X103382184Y-98104422D01*
X103388174Y-98106155D01*
X103424566Y-98113969D01*
X103489427Y-98126915D01*
X103577565Y-98143979D01*
X103683787Y-98164151D01*
X103802902Y-98186418D01*
X103865683Y-98198223D01*
X103980912Y-98220748D01*
X104081662Y-98241550D01*
X104162426Y-98259435D01*
X104217698Y-98273208D01*
X104241971Y-98281674D01*
X104246331Y-98290066D01*
X104253563Y-98331072D01*
X104259246Y-98399368D01*
X104263382Y-98488529D01*
X104265977Y-98592128D01*
X104267036Y-98703740D01*
X104266561Y-98816938D01*
X104264559Y-98925296D01*
X104261033Y-99022389D01*
X104255987Y-99101790D01*
X104249427Y-99157072D01*
X104241356Y-99181810D01*
X104236458Y-99184600D01*
X104199930Y-99196569D01*
X104136565Y-99212405D01*
X104053686Y-99230374D01*
X103958618Y-99248741D01*
X103926542Y-99254591D01*
X103778393Y-99281798D01*
X103661961Y-99303663D01*
X103573209Y-99321093D01*
X103508103Y-99334996D01*
X103462606Y-99346277D01*
X103432682Y-99355843D01*
X103414294Y-99364601D01*
X103403407Y-99373457D01*
X103402142Y-99374943D01*
X103384338Y-99405931D01*
X103357994Y-99462634D01*
X103325661Y-99538399D01*
X103289893Y-99626574D01*
X103253244Y-99720507D01*
X103218266Y-99813547D01*
X103187513Y-99899041D01*
X103163538Y-99970336D01*
X103148895Y-100020782D01*
X103146136Y-100043726D01*
X103147981Y-100046703D01*
X103167075Y-100075493D01*
X103202984Y-100128595D01*
X103252378Y-100201117D01*
X103311927Y-100288167D01*
X103378303Y-100384854D01*
X103396520Y-100411456D01*
X103460577Y-100506875D01*
X103515937Y-100592212D01*
X103559439Y-100662405D01*
X103587924Y-100712394D01*
X103598232Y-100737116D01*
X103596011Y-100743616D01*
X103572858Y-100775644D01*
X103527177Y-100827945D01*
X103462241Y-100896999D01*
X103381319Y-100979286D01*
X103287685Y-101071286D01*
X103234165Y-101122781D01*
X103149542Y-101202983D01*
X103075475Y-101271678D01*
X103015941Y-101325252D01*
X102974917Y-101360085D01*
X102956381Y-101372563D01*
X102943646Y-101367938D01*
X102904436Y-101346057D01*
X102847495Y-101310273D01*
X102780250Y-101265117D01*
X102732438Y-101232165D01*
X102636985Y-101166727D01*
X102535125Y-101097228D01*
X102442088Y-101034075D01*
X102259832Y-100910800D01*
X102106841Y-100993520D01*
X102070817Y-101012613D01*
X102005303Y-101045272D01*
X101954640Y-101067819D01*
X101927564Y-101076226D01*
X101918703Y-101065430D01*
X101896699Y-101024323D01*
X101864199Y-100956549D01*
X101823010Y-100866409D01*
X101774942Y-100758205D01*
X101721802Y-100636237D01*
X101665399Y-100504808D01*
X101607542Y-100368218D01*
X101550038Y-100230767D01*
X101494697Y-100096758D01*
X101443326Y-99970491D01*
X101397735Y-99856268D01*
X101359732Y-99758390D01*
X101331124Y-99681157D01*
X101313721Y-99628871D01*
X101309331Y-99605833D01*
X101309628Y-99605160D01*
X101330077Y-99583863D01*
X101372850Y-99550508D01*
X101429117Y-99512011D01*
X101446877Y-99500256D01*
X101582014Y-99388735D01*
X101693856Y-99255906D01*
X101779755Y-99107298D01*
X101837062Y-98948440D01*
X101863131Y-98784860D01*
X101855313Y-98622088D01*
X101823644Y-98477315D01*
X101766782Y-98331124D01*
X101683888Y-98200703D01*
X101570131Y-98076813D01*
X101525433Y-98037235D01*
X101380935Y-97939723D01*
X101224838Y-97874050D01*
X101061667Y-97839630D01*
X100895943Y-97835874D01*
X100732192Y-97862194D01*
X100574936Y-97918003D01*
X100428698Y-98002714D01*
X100298004Y-98115737D01*
X100187374Y-98256487D01*
X100166105Y-98291342D01*
X100093810Y-98450655D01*
X100055415Y-98616552D01*
X100049914Y-98784737D01*
X100076301Y-98950913D01*
X100133570Y-99110784D01*
X100220717Y-99260053D01*
X100336736Y-99394423D01*
X100480622Y-99509599D01*
X100485294Y-99512702D01*
X100540964Y-99551933D01*
X100582689Y-99585286D01*
X100601746Y-99605833D01*
X100599342Y-99621941D01*
X100584391Y-99668844D01*
X100557881Y-99741539D01*
X100521620Y-99835725D01*
X100477416Y-99947098D01*
X100427076Y-100071358D01*
X100372407Y-100204202D01*
X100315218Y-100341327D01*
X100257316Y-100478432D01*
X100200510Y-100611215D01*
X100146606Y-100735374D01*
X100097412Y-100846606D01*
X100054737Y-100940609D01*
X100020387Y-101013082D01*
X99996171Y-101059722D01*
X99983897Y-101076226D01*
X99973689Y-101073991D01*
X99933586Y-101057926D01*
X99874318Y-101029759D01*
X99804619Y-100993520D01*
X99651629Y-100910800D01*
X99469373Y-101034075D01*
X99415527Y-101070579D01*
X99315374Y-101138784D01*
X99215525Y-101207098D01*
X99131211Y-101265117D01*
X99084679Y-101296736D01*
X99024200Y-101336020D01*
X98979357Y-101362912D01*
X98957455Y-101372883D01*
X98948045Y-101368650D01*
X98914031Y-101342721D01*
X98861595Y-101297070D01*
X98795301Y-101236186D01*
X98719713Y-101164561D01*
X98639396Y-101086683D01*
X98558913Y-101007045D01*
X98482829Y-100930135D01*
X98415707Y-100860445D01*
X98362112Y-100802464D01*
X98326608Y-100760684D01*
X98313759Y-100739593D01*
X98314500Y-100735581D01*
X98329793Y-100702920D01*
X98362462Y-100646412D01*
X98409350Y-100571163D01*
X98467301Y-100482275D01*
X98533157Y-100384854D01*
X98551627Y-100357982D01*
X98616482Y-100263423D01*
X98673609Y-100179827D01*
X98719678Y-100112084D01*
X98751359Y-100065086D01*
X98765324Y-100043726D01*
X98765668Y-100042811D01*
X98761546Y-100016678D01*
X98745807Y-99963740D01*
X98721004Y-99890647D01*
X98689689Y-99804052D01*
X98654417Y-99710608D01*
X98617740Y-99616965D01*
X98582212Y-99529777D01*
X98550386Y-99455695D01*
X98524816Y-99401371D01*
X98508053Y-99373457D01*
X98506374Y-99371724D01*
X98494372Y-99362956D01*
X98474103Y-99354115D01*
X98441529Y-99344292D01*
X98392616Y-99332583D01*
X98323327Y-99318080D01*
X98229625Y-99299876D01*
X98107476Y-99277066D01*
X97952842Y-99248741D01*
X97920770Y-99242780D01*
X97828893Y-99224352D01*
X97751607Y-99206892D01*
X97696236Y-99192133D01*
X97670105Y-99181810D01*
X97665733Y-99173197D01*
X97658445Y-99131826D01*
X97652669Y-99063241D01*
X97648410Y-98973868D01*
X97645673Y-98870135D01*
X97644462Y-98758465D01*
X97644782Y-98645287D01*
X97646636Y-98537026D01*
X97650030Y-98440108D01*
X97654967Y-98360959D01*
X97661452Y-98306006D01*
X97669489Y-98281674D01*
X97677696Y-98278079D01*
X97718519Y-98266748D01*
X97787524Y-98250722D01*
X97879203Y-98231195D01*
X97988050Y-98209362D01*
X98108558Y-98186418D01*
X98174357Y-98174159D01*
X98287135Y-98152901D01*
X98384207Y-98134287D01*
X98460382Y-98119328D01*
X98510469Y-98109036D01*
X98529276Y-98104422D01*
X98529983Y-98103471D01*
X98541961Y-98079310D01*
X98564794Y-98028694D01*
X98595630Y-97958338D01*
X98631613Y-97874958D01*
X98669891Y-97785270D01*
X98707609Y-97695989D01*
X98741913Y-97613832D01*
X98769949Y-97545513D01*
X98788864Y-97497748D01*
X98795803Y-97477254D01*
X98792742Y-97470043D01*
X98772372Y-97435728D01*
X98735422Y-97377970D01*
X98684860Y-97301299D01*
X98623657Y-97210248D01*
X98554781Y-97109350D01*
X98516994Y-97054093D01*
X98451782Y-96957215D01*
X98395871Y-96872193D01*
X98352241Y-96803662D01*
X98323877Y-96756260D01*
X98313759Y-96734623D01*
X98320790Y-96722887D01*
X98350197Y-96687818D01*
X98398441Y-96634745D01*
X98461093Y-96568164D01*
X98533725Y-96492574D01*
X98611908Y-96412472D01*
X98691214Y-96332354D01*
X98767213Y-96256718D01*
X98835478Y-96190062D01*
X98891580Y-96136882D01*
X98931090Y-96101676D01*
X98949579Y-96088942D01*
X98959843Y-96093893D01*
X98997530Y-96116857D01*
X99058348Y-96155938D01*
X99137913Y-96208272D01*
X99231843Y-96270996D01*
X99335754Y-96341246D01*
X99706794Y-96593551D01*
X100016080Y-96466053D01*
X100325365Y-96338555D01*
X100409186Y-95893931D01*
X100493006Y-95449307D01*
X101418454Y-95449307D01*
X101502275Y-95893931D01*
%TD*%
D11*
%TO.P,J2,1,Pin_1*%
%TO.N,GND*%
X99130000Y-89530000D03*
D12*
%TO.P,J2,2,Pin_2*%
%TO.N,+5V*%
X99130000Y-92070000D03*
%TD*%
D11*
%TO.P,J1,1,Pin_1*%
%TO.N,+5V*%
X46920000Y-99060000D03*
D12*
%TO.P,J1,2,Pin_2*%
%TO.N,GND*%
X46920000Y-96520000D03*
%TD*%
D13*
%TO.P,SW1,1,1*%
%TO.N,+5V*%
X50575000Y-96520000D03*
X57075000Y-96520000D03*
%TO.P,SW1,2,2*%
%TO.N,GND*%
X57075000Y-92020000D03*
X50575000Y-92020000D03*
%TD*%
%TO.P,SW2,1,1*%
%TO.N,+5V*%
X69700000Y-96520000D03*
X76200000Y-96520000D03*
%TO.P,SW2,2,2*%
%TO.N,GND*%
X76200000Y-92020000D03*
X69700000Y-92020000D03*
%TD*%
%TO.P,SW3,1,1*%
%TO.N,+5V*%
X95302000Y-96556000D03*
X88802000Y-96556000D03*
%TO.P,SW3,2,2*%
%TO.N,GND*%
X88802000Y-92056000D03*
X95302000Y-92056000D03*
%TD*%
D14*
%TO.N,+5V*%
X97119000Y-96556000D02*
X99130000Y-94545000D01*
X99130000Y-94545000D02*
X99130000Y-92070000D01*
X46920000Y-99060000D02*
X49530000Y-99060000D01*
X49530000Y-99060000D02*
X50800000Y-97790000D01*
X50800000Y-97790000D02*
X50800000Y-96745000D01*
X50800000Y-96745000D02*
X50575000Y-96520000D01*
X97119000Y-96556000D02*
X95302000Y-96556000D01*
X95302000Y-96556000D02*
X88802000Y-96556000D01*
X59905000Y-99350000D02*
X65965000Y-99350000D01*
X69700000Y-96520000D02*
X76200000Y-96520000D01*
X68795000Y-96520000D02*
X69700000Y-96520000D01*
X65965000Y-99350000D02*
X68795000Y-96520000D01*
X86008000Y-99350000D02*
X79935000Y-99350000D01*
X57075000Y-96520000D02*
X59905000Y-99350000D01*
X50575000Y-96520000D02*
X57075000Y-96520000D01*
X77105000Y-96520000D02*
X76200000Y-96520000D01*
X88802000Y-96556000D02*
X86008000Y-99350000D01*
X79935000Y-99350000D02*
X77105000Y-96520000D01*
%TD*%
%TA.AperFunction,Conductor*%
%TO.N,GND*%
G36*
X105404121Y-84638002D02*
G01*
X105450614Y-84691658D01*
X105462000Y-84744000D01*
X105462000Y-103796000D01*
X105441998Y-103864121D01*
X105388342Y-103910614D01*
X105336000Y-103922000D01*
X40564000Y-103922000D01*
X40495879Y-103901998D01*
X40449386Y-103848342D01*
X40438000Y-103796000D01*
X40438000Y-99958134D01*
X45561500Y-99958134D01*
X45568255Y-100020316D01*
X45619385Y-100156705D01*
X45706739Y-100273261D01*
X45823295Y-100360615D01*
X45959684Y-100411745D01*
X46021866Y-100418500D01*
X47818134Y-100418500D01*
X47880316Y-100411745D01*
X48016705Y-100360615D01*
X48133261Y-100273261D01*
X48220615Y-100156705D01*
X48271745Y-100020316D01*
X48278500Y-99958134D01*
X48278500Y-99819500D01*
X48298502Y-99751379D01*
X48352158Y-99704886D01*
X48404500Y-99693500D01*
X49451233Y-99693500D01*
X49462416Y-99694027D01*
X49469909Y-99695702D01*
X49477835Y-99695453D01*
X49477836Y-99695453D01*
X49537986Y-99693562D01*
X49541945Y-99693500D01*
X49569856Y-99693500D01*
X49573791Y-99693003D01*
X49573856Y-99692995D01*
X49585693Y-99692062D01*
X49617951Y-99691048D01*
X49621970Y-99690922D01*
X49629889Y-99690673D01*
X49649343Y-99685021D01*
X49668700Y-99681013D01*
X49680930Y-99679468D01*
X49680931Y-99679468D01*
X49688797Y-99678474D01*
X49696168Y-99675555D01*
X49696170Y-99675555D01*
X49729912Y-99662196D01*
X49741142Y-99658351D01*
X49775983Y-99648229D01*
X49775984Y-99648229D01*
X49783593Y-99646018D01*
X49790412Y-99641985D01*
X49790417Y-99641983D01*
X49801028Y-99635707D01*
X49818776Y-99627012D01*
X49837617Y-99619552D01*
X49847986Y-99612019D01*
X49873387Y-99593564D01*
X49883307Y-99587048D01*
X49914535Y-99568580D01*
X49914538Y-99568578D01*
X49921362Y-99564542D01*
X49935683Y-99550221D01*
X49950717Y-99537380D01*
X49960694Y-99530131D01*
X49967107Y-99525472D01*
X49995298Y-99491395D01*
X50003288Y-99482616D01*
X51192247Y-98293657D01*
X51200537Y-98286113D01*
X51207018Y-98282000D01*
X51231171Y-98256280D01*
X51242549Y-98244164D01*
X51253659Y-98232332D01*
X51256413Y-98229491D01*
X51276134Y-98209770D01*
X51278612Y-98206575D01*
X51286318Y-98197553D01*
X51298575Y-98184501D01*
X51316586Y-98165321D01*
X51326346Y-98147568D01*
X51337199Y-98131045D01*
X51344753Y-98121306D01*
X51349613Y-98115041D01*
X51367176Y-98074457D01*
X51372383Y-98063827D01*
X51393695Y-98025060D01*
X51395666Y-98017383D01*
X51395668Y-98017378D01*
X51398732Y-98005442D01*
X51405138Y-97986730D01*
X51410033Y-97975419D01*
X51413181Y-97968145D01*
X51414421Y-97960317D01*
X51414423Y-97960310D01*
X51420099Y-97924476D01*
X51422505Y-97912856D01*
X51431528Y-97877711D01*
X51431528Y-97877710D01*
X51433500Y-97870030D01*
X51433500Y-97849776D01*
X51435051Y-97830065D01*
X51438220Y-97810057D01*
X51440614Y-97810436D01*
X51458987Y-97754438D01*
X51480962Y-97730045D01*
X51641208Y-97593182D01*
X51641213Y-97593177D01*
X51644969Y-97589969D01*
X51799176Y-97409416D01*
X51801755Y-97405208D01*
X51801759Y-97405202D01*
X51919133Y-97213665D01*
X51971781Y-97166034D01*
X52026566Y-97153500D01*
X55623434Y-97153500D01*
X55691555Y-97173502D01*
X55730867Y-97213665D01*
X55848241Y-97405202D01*
X55848245Y-97405208D01*
X55850824Y-97409416D01*
X56005031Y-97589969D01*
X56185584Y-97744176D01*
X56189792Y-97746755D01*
X56189798Y-97746759D01*
X56373564Y-97859371D01*
X56388037Y-97868240D01*
X56392607Y-97870133D01*
X56392611Y-97870135D01*
X56595458Y-97954156D01*
X56607406Y-97959105D01*
X56670269Y-97974197D01*
X56833476Y-98013380D01*
X56833482Y-98013381D01*
X56838289Y-98014535D01*
X57075000Y-98033165D01*
X57311711Y-98014535D01*
X57316518Y-98013381D01*
X57316524Y-98013380D01*
X57534951Y-97960940D01*
X57605859Y-97964487D01*
X57653460Y-97994364D01*
X59401343Y-99742247D01*
X59408887Y-99750537D01*
X59413000Y-99757018D01*
X59418777Y-99762443D01*
X59462667Y-99803658D01*
X59465509Y-99806413D01*
X59485230Y-99826134D01*
X59488425Y-99828612D01*
X59497447Y-99836318D01*
X59529679Y-99866586D01*
X59536628Y-99870406D01*
X59547432Y-99876346D01*
X59563956Y-99887199D01*
X59579959Y-99899613D01*
X59620543Y-99917176D01*
X59631173Y-99922383D01*
X59669940Y-99943695D01*
X59677617Y-99945666D01*
X59677622Y-99945668D01*
X59689558Y-99948732D01*
X59708266Y-99955137D01*
X59726855Y-99963181D01*
X59734680Y-99964420D01*
X59734682Y-99964421D01*
X59770519Y-99970097D01*
X59782140Y-99972504D01*
X59813959Y-99980673D01*
X59824970Y-99983500D01*
X59845231Y-99983500D01*
X59864940Y-99985051D01*
X59884943Y-99988219D01*
X59892835Y-99987473D01*
X59898062Y-99986979D01*
X59928954Y-99984059D01*
X59940811Y-99983500D01*
X65886233Y-99983500D01*
X65897416Y-99984027D01*
X65904909Y-99985702D01*
X65912835Y-99985453D01*
X65912836Y-99985453D01*
X65972986Y-99983562D01*
X65976945Y-99983500D01*
X66004856Y-99983500D01*
X66008791Y-99983003D01*
X66008856Y-99982995D01*
X66020693Y-99982062D01*
X66052951Y-99981048D01*
X66056970Y-99980922D01*
X66064889Y-99980673D01*
X66084343Y-99975021D01*
X66103700Y-99971013D01*
X66115930Y-99969468D01*
X66115931Y-99969468D01*
X66123797Y-99968474D01*
X66131168Y-99965555D01*
X66131170Y-99965555D01*
X66164912Y-99952196D01*
X66176142Y-99948351D01*
X66210983Y-99938229D01*
X66210984Y-99938229D01*
X66218593Y-99936018D01*
X66225412Y-99931985D01*
X66225417Y-99931983D01*
X66236028Y-99925707D01*
X66253776Y-99917012D01*
X66272617Y-99909552D01*
X66292987Y-99894753D01*
X66308387Y-99883564D01*
X66318307Y-99877048D01*
X66349535Y-99858580D01*
X66349538Y-99858578D01*
X66356362Y-99854542D01*
X66370683Y-99840221D01*
X66385717Y-99827380D01*
X66389772Y-99824434D01*
X66402107Y-99815472D01*
X66430298Y-99781395D01*
X66438288Y-99772616D01*
X68542766Y-97668138D01*
X68605078Y-97634112D01*
X68675893Y-97639177D01*
X68713691Y-97661421D01*
X68810584Y-97744176D01*
X68814792Y-97746755D01*
X68814798Y-97746759D01*
X68998564Y-97859371D01*
X69013037Y-97868240D01*
X69017607Y-97870133D01*
X69017611Y-97870135D01*
X69220458Y-97954156D01*
X69232406Y-97959105D01*
X69295269Y-97974197D01*
X69458476Y-98013380D01*
X69458482Y-98013381D01*
X69463289Y-98014535D01*
X69700000Y-98033165D01*
X69936711Y-98014535D01*
X69941518Y-98013381D01*
X69941524Y-98013380D01*
X70104731Y-97974197D01*
X70167594Y-97959105D01*
X70179542Y-97954156D01*
X70382389Y-97870135D01*
X70382393Y-97870133D01*
X70386963Y-97868240D01*
X70401436Y-97859371D01*
X70585202Y-97746759D01*
X70585208Y-97746755D01*
X70589416Y-97744176D01*
X70769969Y-97589969D01*
X70924176Y-97409416D01*
X70926755Y-97405208D01*
X70926759Y-97405202D01*
X71044133Y-97213665D01*
X71096781Y-97166034D01*
X71151566Y-97153500D01*
X74748434Y-97153500D01*
X74816555Y-97173502D01*
X74855867Y-97213665D01*
X74973241Y-97405202D01*
X74973245Y-97405208D01*
X74975824Y-97409416D01*
X75130031Y-97589969D01*
X75310584Y-97744176D01*
X75314792Y-97746755D01*
X75314798Y-97746759D01*
X75498564Y-97859371D01*
X75513037Y-97868240D01*
X75517607Y-97870133D01*
X75517611Y-97870135D01*
X75720458Y-97954156D01*
X75732406Y-97959105D01*
X75795269Y-97974197D01*
X75958476Y-98013380D01*
X75958482Y-98013381D01*
X75963289Y-98014535D01*
X76200000Y-98033165D01*
X76436711Y-98014535D01*
X76441518Y-98013381D01*
X76441524Y-98013380D01*
X76604731Y-97974197D01*
X76667594Y-97959105D01*
X76679542Y-97954156D01*
X76882389Y-97870135D01*
X76882393Y-97870133D01*
X76886963Y-97868240D01*
X76901436Y-97859371D01*
X77085202Y-97746759D01*
X77085208Y-97746755D01*
X77089416Y-97744176D01*
X77186309Y-97661422D01*
X77251098Y-97632391D01*
X77321298Y-97642996D01*
X77357234Y-97668138D01*
X79431343Y-99742247D01*
X79438887Y-99750537D01*
X79443000Y-99757018D01*
X79448777Y-99762443D01*
X79492667Y-99803658D01*
X79495509Y-99806413D01*
X79515230Y-99826134D01*
X79518425Y-99828612D01*
X79527447Y-99836318D01*
X79559679Y-99866586D01*
X79566628Y-99870406D01*
X79577432Y-99876346D01*
X79593956Y-99887199D01*
X79609959Y-99899613D01*
X79650543Y-99917176D01*
X79661173Y-99922383D01*
X79699940Y-99943695D01*
X79707617Y-99945666D01*
X79707622Y-99945668D01*
X79719558Y-99948732D01*
X79738266Y-99955137D01*
X79756855Y-99963181D01*
X79764680Y-99964420D01*
X79764682Y-99964421D01*
X79800519Y-99970097D01*
X79812140Y-99972504D01*
X79843959Y-99980673D01*
X79854970Y-99983500D01*
X79875231Y-99983500D01*
X79894940Y-99985051D01*
X79914943Y-99988219D01*
X79922835Y-99987473D01*
X79928062Y-99986979D01*
X79958954Y-99984059D01*
X79970811Y-99983500D01*
X85929233Y-99983500D01*
X85940416Y-99984027D01*
X85947909Y-99985702D01*
X85955835Y-99985453D01*
X85955836Y-99985453D01*
X86015986Y-99983562D01*
X86019945Y-99983500D01*
X86047856Y-99983500D01*
X86051791Y-99983003D01*
X86051856Y-99982995D01*
X86063693Y-99982062D01*
X86095951Y-99981048D01*
X86099970Y-99980922D01*
X86107889Y-99980673D01*
X86127343Y-99975021D01*
X86146700Y-99971013D01*
X86158930Y-99969468D01*
X86158931Y-99969468D01*
X86166797Y-99968474D01*
X86174168Y-99965555D01*
X86174170Y-99965555D01*
X86207912Y-99952196D01*
X86219142Y-99948351D01*
X86253983Y-99938229D01*
X86253984Y-99938229D01*
X86261593Y-99936018D01*
X86268412Y-99931985D01*
X86268417Y-99931983D01*
X86279028Y-99925707D01*
X86296776Y-99917012D01*
X86315617Y-99909552D01*
X86335987Y-99894753D01*
X86351387Y-99883564D01*
X86361307Y-99877048D01*
X86392535Y-99858580D01*
X86392538Y-99858578D01*
X86399362Y-99854542D01*
X86413683Y-99840221D01*
X86428717Y-99827380D01*
X86432772Y-99824434D01*
X86445107Y-99815472D01*
X86473298Y-99781395D01*
X86481288Y-99772616D01*
X88223540Y-98030364D01*
X88285852Y-97996338D01*
X88342049Y-97996940D01*
X88560476Y-98049380D01*
X88560482Y-98049381D01*
X88565289Y-98050535D01*
X88802000Y-98069165D01*
X89038711Y-98050535D01*
X89043518Y-98049381D01*
X89043524Y-98049380D01*
X89228328Y-98005012D01*
X89269594Y-97995105D01*
X89288406Y-97987313D01*
X89484389Y-97906135D01*
X89484393Y-97906133D01*
X89488963Y-97904240D01*
X89496603Y-97899558D01*
X89687202Y-97782759D01*
X89687208Y-97782755D01*
X89691416Y-97780176D01*
X89871969Y-97625969D01*
X90026176Y-97445416D01*
X90028755Y-97441208D01*
X90028759Y-97441202D01*
X90146133Y-97249665D01*
X90198781Y-97202034D01*
X90253566Y-97189500D01*
X93850434Y-97189500D01*
X93918555Y-97209502D01*
X93957867Y-97249665D01*
X94075241Y-97441202D01*
X94075245Y-97441208D01*
X94077824Y-97445416D01*
X94232031Y-97625969D01*
X94412584Y-97780176D01*
X94416792Y-97782755D01*
X94416798Y-97782759D01*
X94607397Y-97899558D01*
X94615037Y-97904240D01*
X94619607Y-97906133D01*
X94619611Y-97906135D01*
X94815594Y-97987313D01*
X94834406Y-97995105D01*
X94875672Y-98005012D01*
X95060476Y-98049380D01*
X95060482Y-98049381D01*
X95065289Y-98050535D01*
X95302000Y-98069165D01*
X95538711Y-98050535D01*
X95543518Y-98049381D01*
X95543524Y-98049380D01*
X95728328Y-98005012D01*
X95769594Y-97995105D01*
X95788406Y-97987313D01*
X95984389Y-97906135D01*
X95984393Y-97906133D01*
X95988963Y-97904240D01*
X95996603Y-97899558D01*
X96187202Y-97782759D01*
X96187208Y-97782755D01*
X96191416Y-97780176D01*
X96371969Y-97625969D01*
X96526176Y-97445416D01*
X96528755Y-97441208D01*
X96528759Y-97441202D01*
X96646133Y-97249665D01*
X96698781Y-97202034D01*
X96753566Y-97189500D01*
X97040233Y-97189500D01*
X97051416Y-97190027D01*
X97058909Y-97191702D01*
X97066835Y-97191453D01*
X97066836Y-97191453D01*
X97126986Y-97189562D01*
X97130945Y-97189500D01*
X97158856Y-97189500D01*
X97162791Y-97189003D01*
X97162856Y-97188995D01*
X97174693Y-97188062D01*
X97206951Y-97187048D01*
X97210970Y-97186922D01*
X97218889Y-97186673D01*
X97238343Y-97181021D01*
X97257700Y-97177013D01*
X97269930Y-97175468D01*
X97269931Y-97175468D01*
X97277797Y-97174474D01*
X97285168Y-97171555D01*
X97285170Y-97171555D01*
X97318912Y-97158196D01*
X97330142Y-97154351D01*
X97364983Y-97144229D01*
X97364984Y-97144229D01*
X97372593Y-97142018D01*
X97379412Y-97137985D01*
X97379417Y-97137983D01*
X97390028Y-97131707D01*
X97407776Y-97123012D01*
X97426617Y-97115552D01*
X97449843Y-97098678D01*
X97462387Y-97089564D01*
X97472307Y-97083048D01*
X97503535Y-97064580D01*
X97503538Y-97064578D01*
X97510362Y-97060542D01*
X97524683Y-97046221D01*
X97539717Y-97033380D01*
X97543535Y-97030606D01*
X97556107Y-97021472D01*
X97584298Y-96987395D01*
X97592288Y-96978616D01*
X97648632Y-96922272D01*
X97710944Y-96888246D01*
X97781759Y-96893311D01*
X97838595Y-96935858D01*
X97850793Y-96955761D01*
X97850823Y-96955822D01*
X97854543Y-96964132D01*
X97861318Y-96980861D01*
X97861322Y-96980870D01*
X97863148Y-96985378D01*
X97865646Y-96989553D01*
X97865649Y-96989559D01*
X97866959Y-96991749D01*
X97872625Y-97002413D01*
X97872877Y-97002864D01*
X97874779Y-97006932D01*
X97877238Y-97010688D01*
X97879418Y-97014598D01*
X97879223Y-97014707D01*
X97880414Y-97016796D01*
X97881531Y-97018435D01*
X97885482Y-97026492D01*
X97890787Y-97032297D01*
X97896180Y-97041215D01*
X97898037Y-97045457D01*
X97900650Y-97049562D01*
X97900652Y-97049565D01*
X97914764Y-97071732D01*
X97916588Y-97074686D01*
X97930944Y-97098678D01*
X97933769Y-97102161D01*
X97936315Y-97105801D01*
X97939334Y-97110324D01*
X97942284Y-97114957D01*
X97944016Y-97117876D01*
X97945289Y-97120671D01*
X97957139Y-97138691D01*
X97964624Y-97150073D01*
X97965634Y-97151635D01*
X97980494Y-97174976D01*
X97980503Y-97174988D01*
X97982910Y-97178769D01*
X97984904Y-97181093D01*
X97986916Y-97183973D01*
X98001738Y-97206512D01*
X98002941Y-97208481D01*
X98003900Y-97210529D01*
X98024356Y-97240918D01*
X98025038Y-97241944D01*
X98040932Y-97266114D01*
X98040936Y-97266119D01*
X98043394Y-97269857D01*
X98044887Y-97271546D01*
X98046259Y-97273457D01*
X98069529Y-97308025D01*
X98070312Y-97309281D01*
X98070981Y-97310683D01*
X98092259Y-97341798D01*
X98092668Y-97342401D01*
X98111996Y-97371114D01*
X98113036Y-97372265D01*
X98113919Y-97373473D01*
X98130887Y-97398284D01*
X98130921Y-97398389D01*
X98130946Y-97398372D01*
X98180718Y-97471284D01*
X98202604Y-97538823D01*
X98184502Y-97607473D01*
X98132158Y-97655438D01*
X98099995Y-97666141D01*
X98079673Y-97669972D01*
X98079519Y-97670001D01*
X98053426Y-97674863D01*
X98052711Y-97674969D01*
X98051866Y-97674997D01*
X98044580Y-97676384D01*
X98013787Y-97682246D01*
X98013304Y-97682337D01*
X97980683Y-97688415D01*
X97980678Y-97688416D01*
X97978387Y-97688843D01*
X97977592Y-97689113D01*
X97976855Y-97689279D01*
X97930434Y-97698117D01*
X97928407Y-97698432D01*
X97926340Y-97698522D01*
X97921571Y-97699478D01*
X97921567Y-97699479D01*
X97890254Y-97705760D01*
X97889042Y-97705997D01*
X97855917Y-97712304D01*
X97853964Y-97712974D01*
X97851922Y-97713449D01*
X97816473Y-97720560D01*
X97813911Y-97720987D01*
X97811419Y-97721125D01*
X97776005Y-97728668D01*
X97774601Y-97728959D01*
X97746584Y-97734578D01*
X97746580Y-97734579D01*
X97742198Y-97735458D01*
X97739857Y-97736287D01*
X97737273Y-97736918D01*
X97718635Y-97740887D01*
X97714165Y-97741703D01*
X97710397Y-97741981D01*
X97677098Y-97749714D01*
X97675015Y-97750178D01*
X97644630Y-97756650D01*
X97642161Y-97757557D01*
X97629406Y-97760124D01*
X97629430Y-97760248D01*
X97624646Y-97761185D01*
X97619821Y-97761749D01*
X97615142Y-97763048D01*
X97615135Y-97763049D01*
X97594419Y-97768799D01*
X97589266Y-97770112D01*
X97566587Y-97775380D01*
X97562114Y-97777117D01*
X97550193Y-97781075D01*
X97547454Y-97781835D01*
X97545964Y-97782238D01*
X97513178Y-97790904D01*
X97513171Y-97790906D01*
X97508466Y-97792150D01*
X97505764Y-97793334D01*
X97497779Y-97795714D01*
X97474323Y-97801550D01*
X97466576Y-97806072D01*
X97466573Y-97806073D01*
X97442720Y-97819996D01*
X97429774Y-97826582D01*
X97404490Y-97837662D01*
X97397610Y-97843428D01*
X97397606Y-97843430D01*
X97394397Y-97846119D01*
X97376989Y-97858362D01*
X97347413Y-97875625D01*
X97342605Y-97880705D01*
X97336657Y-97884393D01*
X97306098Y-97918458D01*
X97303516Y-97920955D01*
X97298744Y-97926276D01*
X97291861Y-97932044D01*
X97286878Y-97939506D01*
X97286843Y-97939545D01*
X97284545Y-97942039D01*
X97264424Y-97963295D01*
X97246394Y-97982342D01*
X97243204Y-97988568D01*
X97238532Y-97993776D01*
X97210474Y-98052352D01*
X97209000Y-98055326D01*
X97194906Y-98082833D01*
X97194825Y-98082791D01*
X97191738Y-98089813D01*
X97186997Y-98097435D01*
X97184586Y-98106082D01*
X97183721Y-98108049D01*
X97182018Y-98111759D01*
X97175051Y-98126304D01*
X97173601Y-98135164D01*
X97171252Y-98149518D01*
X97166548Y-98168689D01*
X97162784Y-98180084D01*
X97161995Y-98184501D01*
X97161757Y-98185832D01*
X97159093Y-98197508D01*
X97157977Y-98201511D01*
X97156670Y-98206199D01*
X97156100Y-98211029D01*
X97154287Y-98226393D01*
X97153191Y-98233785D01*
X97143486Y-98288112D01*
X97144451Y-98297037D01*
X97144141Y-98306008D01*
X97143991Y-98306003D01*
X97144099Y-98310791D01*
X97144055Y-98311490D01*
X97143436Y-98318339D01*
X97141710Y-98332963D01*
X97141710Y-98332971D01*
X97141185Y-98337417D01*
X97141296Y-98341902D01*
X97141296Y-98341903D01*
X97141405Y-98346304D01*
X97141200Y-98357263D01*
X97140488Y-98368682D01*
X97139939Y-98374952D01*
X97139658Y-98377444D01*
X97138743Y-98382218D01*
X97138237Y-98396651D01*
X97137649Y-98413440D01*
X97137482Y-98416870D01*
X97135732Y-98444934D01*
X97136090Y-98449401D01*
X97136126Y-98453470D01*
X97136054Y-98458993D01*
X97135310Y-98480253D01*
X97135025Y-98484652D01*
X97134395Y-98488287D01*
X97134020Y-98510181D01*
X97133808Y-98522558D01*
X97133749Y-98524809D01*
X97133095Y-98543500D01*
X97132661Y-98555884D01*
X97133054Y-98559535D01*
X97133097Y-98564077D01*
X97132521Y-98597671D01*
X97132362Y-98600944D01*
X97131897Y-98603876D01*
X97131883Y-98608743D01*
X97131883Y-98608745D01*
X97131797Y-98639227D01*
X97131780Y-98640991D01*
X97131227Y-98673332D01*
X97131597Y-98676274D01*
X97131683Y-98679632D01*
X97131574Y-98718136D01*
X97131466Y-98721253D01*
X97131059Y-98724069D01*
X97131197Y-98736771D01*
X97131445Y-98759718D01*
X97131452Y-98761348D01*
X97131360Y-98793848D01*
X97131756Y-98796667D01*
X97131881Y-98799829D01*
X97132282Y-98836864D01*
X97132209Y-98840519D01*
X97131797Y-98843719D01*
X97131925Y-98848584D01*
X97131925Y-98848590D01*
X97132720Y-98878716D01*
X97132757Y-98880670D01*
X97133002Y-98903180D01*
X97133103Y-98912530D01*
X97133591Y-98915695D01*
X97133795Y-98919447D01*
X97134561Y-98948450D01*
X97134552Y-98954055D01*
X97134089Y-98958371D01*
X97134321Y-98963240D01*
X97135668Y-98991513D01*
X97135767Y-98994184D01*
X97136560Y-99024220D01*
X97137286Y-99028481D01*
X97137707Y-99034283D01*
X97138436Y-99049593D01*
X97138355Y-99056750D01*
X97138434Y-99056749D01*
X97138467Y-99061623D01*
X97138125Y-99066472D01*
X97139948Y-99088121D01*
X97140504Y-99094720D01*
X97140805Y-99099296D01*
X97141647Y-99116956D01*
X97142004Y-99124452D01*
X97142851Y-99128861D01*
X97143381Y-99133301D01*
X97143373Y-99133302D01*
X97144350Y-99140388D01*
X97145018Y-99148311D01*
X97145483Y-99153833D01*
X97145902Y-99161896D01*
X97146125Y-99173075D01*
X97146292Y-99181472D01*
X97147137Y-99186266D01*
X97148212Y-99192370D01*
X97149677Y-99203648D01*
X97149969Y-99207111D01*
X97149970Y-99207119D01*
X97150346Y-99211581D01*
X97151351Y-99215946D01*
X97151351Y-99215948D01*
X97151367Y-99216017D01*
X97151391Y-99216203D01*
X97152043Y-99220371D01*
X97151932Y-99220388D01*
X97154517Y-99240398D01*
X97155195Y-99262416D01*
X97166790Y-99297969D01*
X97166853Y-99298186D01*
X97166903Y-99298473D01*
X97167168Y-99299281D01*
X97167168Y-99299282D01*
X97171728Y-99313202D01*
X97175801Y-99329045D01*
X97179608Y-99349205D01*
X97183681Y-99357200D01*
X97183681Y-99357201D01*
X97186157Y-99362061D01*
X97193623Y-99380026D01*
X97201070Y-99402756D01*
X97219020Y-99428930D01*
X97227459Y-99443156D01*
X97229335Y-99446851D01*
X97227372Y-99447847D01*
X97227394Y-99447930D01*
X97229381Y-99446918D01*
X97246305Y-99480143D01*
X97252459Y-99486675D01*
X97252461Y-99486678D01*
X97265157Y-99500154D01*
X97276582Y-99514172D01*
X97279639Y-99518527D01*
X97292377Y-99536677D01*
X97314571Y-99554419D01*
X97327588Y-99566419D01*
X97347072Y-99587099D01*
X97358089Y-99593564D01*
X97370790Y-99601018D01*
X97385688Y-99611266D01*
X97407158Y-99628428D01*
X97439772Y-99641828D01*
X97442157Y-99642899D01*
X97444454Y-99644247D01*
X97448989Y-99646038D01*
X97448992Y-99646040D01*
X97474815Y-99656241D01*
X97476403Y-99656880D01*
X97507835Y-99669796D01*
X97510674Y-99671004D01*
X97514499Y-99672689D01*
X97521005Y-99675555D01*
X97525497Y-99677534D01*
X97528537Y-99678344D01*
X97529933Y-99678876D01*
X97534774Y-99680865D01*
X97534777Y-99680866D01*
X97543079Y-99684277D01*
X97552001Y-99685221D01*
X97558175Y-99686782D01*
X97560298Y-99687145D01*
X97570564Y-99689592D01*
X97573747Y-99690395D01*
X97583251Y-99692928D01*
X97590393Y-99695284D01*
X97590404Y-99695249D01*
X97595052Y-99696684D01*
X97599583Y-99698476D01*
X97604335Y-99699550D01*
X97604340Y-99699551D01*
X97626617Y-99704583D01*
X97631279Y-99705730D01*
X97655072Y-99712072D01*
X97659514Y-99712600D01*
X97662354Y-99713144D01*
X97671382Y-99714696D01*
X97677634Y-99716109D01*
X97684091Y-99717749D01*
X97684271Y-99717800D01*
X97688828Y-99719476D01*
X97720446Y-99725818D01*
X97723392Y-99726446D01*
X97751777Y-99732858D01*
X97756246Y-99733216D01*
X97757842Y-99733459D01*
X97763643Y-99734482D01*
X97781807Y-99738125D01*
X97784954Y-99738860D01*
X97787740Y-99739840D01*
X97820132Y-99745861D01*
X97820573Y-99745960D01*
X97821104Y-99746145D01*
X97822676Y-99746433D01*
X97827976Y-99747404D01*
X97830047Y-99747801D01*
X97851605Y-99752125D01*
X97851612Y-99752126D01*
X97856000Y-99753006D01*
X97858940Y-99753170D01*
X97862232Y-99753685D01*
X97895313Y-99759834D01*
X97895867Y-99759857D01*
X97896346Y-99759928D01*
X97985748Y-99776303D01*
X98014243Y-99781523D01*
X98071779Y-99792268D01*
X98135069Y-99824434D01*
X98165970Y-99870176D01*
X98169846Y-99880073D01*
X98175295Y-99893986D01*
X98175853Y-99895436D01*
X98177814Y-99900631D01*
X98183158Y-99971427D01*
X98163843Y-100016395D01*
X98132598Y-100061952D01*
X98131608Y-100063291D01*
X98130533Y-100064448D01*
X98109440Y-100095651D01*
X98109024Y-100096261D01*
X98092473Y-100120341D01*
X98089526Y-100124628D01*
X98088802Y-100126090D01*
X98087946Y-100127447D01*
X98064038Y-100162814D01*
X98061693Y-100166066D01*
X98059388Y-100168631D01*
X98041035Y-100196781D01*
X98040462Y-100197660D01*
X98039305Y-100199402D01*
X98021669Y-100225491D01*
X98020168Y-100228581D01*
X98018004Y-100232105D01*
X98000865Y-100258395D01*
X97997830Y-100262774D01*
X97995090Y-100265951D01*
X97992520Y-100270075D01*
X97992516Y-100270081D01*
X97977409Y-100294326D01*
X97976019Y-100296506D01*
X97959496Y-100321849D01*
X97957732Y-100325641D01*
X97954927Y-100330408D01*
X97947787Y-100341866D01*
X97944023Y-100347162D01*
X97944153Y-100347251D01*
X97941397Y-100351267D01*
X97938342Y-100355056D01*
X97935904Y-100359273D01*
X97935902Y-100359276D01*
X97923628Y-100380507D01*
X97921482Y-100384081D01*
X97909962Y-100402569D01*
X97907589Y-100406378D01*
X97905782Y-100410478D01*
X97903688Y-100414442D01*
X97903620Y-100414406D01*
X97900679Y-100420202D01*
X97896878Y-100426777D01*
X97892325Y-100434067D01*
X97884863Y-100445154D01*
X97884860Y-100445159D01*
X97882146Y-100449192D01*
X97876894Y-100460409D01*
X97871879Y-100470018D01*
X97867558Y-100477491D01*
X97860920Y-100487781D01*
X97854636Y-100496554D01*
X97851668Y-100505022D01*
X97840862Y-100535853D01*
X97836075Y-100547583D01*
X97834290Y-100551397D01*
X97834229Y-100551368D01*
X97832768Y-100554697D01*
X97825543Y-100569253D01*
X97821553Y-100577292D01*
X97819980Y-100586125D01*
X97819978Y-100586130D01*
X97816043Y-100608219D01*
X97812529Y-100622834D01*
X97804928Y-100647790D01*
X97804927Y-100647794D01*
X97802313Y-100656377D01*
X97802213Y-100665352D01*
X97802084Y-100676825D01*
X97800140Y-100697507D01*
X97795784Y-100721962D01*
X97798452Y-100746520D01*
X97798582Y-100747714D01*
X97799216Y-100766413D01*
X97798170Y-100792289D01*
X97800340Y-100800999D01*
X97800681Y-100802369D01*
X97800485Y-100802418D01*
X97800579Y-100803336D01*
X97800669Y-100803311D01*
X97802381Y-100809418D01*
X97803323Y-100812979D01*
X97805418Y-100821391D01*
X97808416Y-100838233D01*
X97811655Y-100868049D01*
X97815660Y-100877716D01*
X97821567Y-100891977D01*
X97827425Y-100909749D01*
X97831513Y-100926165D01*
X97831515Y-100926169D01*
X97833684Y-100934879D01*
X97838211Y-100942630D01*
X97849022Y-100961141D01*
X97849930Y-100962937D01*
X97850806Y-100966162D01*
X97855109Y-100973181D01*
X97855110Y-100973184D01*
X97874411Y-101004671D01*
X97875752Y-101006912D01*
X97907791Y-101061771D01*
X97914312Y-101067941D01*
X97916440Y-101070622D01*
X97919702Y-101074063D01*
X97930919Y-101087262D01*
X97932020Y-101088578D01*
X97935482Y-101092778D01*
X97951590Y-101112319D01*
X97953214Y-101114330D01*
X97955554Y-101117290D01*
X97958273Y-101121337D01*
X97961580Y-101124914D01*
X97961586Y-101124922D01*
X97962796Y-101126231D01*
X97967490Y-101131607D01*
X97972047Y-101137135D01*
X97972054Y-101137142D01*
X97977472Y-101143715D01*
X97980179Y-101145555D01*
X97982478Y-101147935D01*
X97995048Y-101162727D01*
X97998403Y-101165694D01*
X97998430Y-101165718D01*
X98007485Y-101174576D01*
X98012591Y-101180100D01*
X98016082Y-101184099D01*
X98018496Y-101187537D01*
X98041656Y-101211583D01*
X98043401Y-101213432D01*
X98046499Y-101216783D01*
X98063995Y-101235711D01*
X98067236Y-101238346D01*
X98071183Y-101242242D01*
X98086368Y-101258007D01*
X98088395Y-101260250D01*
X98090026Y-101262508D01*
X98115199Y-101287954D01*
X98116290Y-101289073D01*
X98135779Y-101309308D01*
X98135787Y-101309315D01*
X98138892Y-101312539D01*
X98141078Y-101314242D01*
X98143308Y-101316370D01*
X98166794Y-101340110D01*
X98168349Y-101341790D01*
X98169681Y-101343593D01*
X98173144Y-101347019D01*
X98173146Y-101347022D01*
X98195680Y-101369319D01*
X98196624Y-101370263D01*
X98220119Y-101394013D01*
X98221898Y-101395361D01*
X98223607Y-101396953D01*
X98250826Y-101423887D01*
X98252315Y-101425462D01*
X98253596Y-101427160D01*
X98268351Y-101441466D01*
X98279948Y-101452711D01*
X98280828Y-101453573D01*
X98304752Y-101477246D01*
X98306461Y-101478513D01*
X98308081Y-101479991D01*
X98334644Y-101505747D01*
X98336381Y-101507546D01*
X98337853Y-101509451D01*
X98341382Y-101512795D01*
X98341383Y-101512796D01*
X98364151Y-101534370D01*
X98365198Y-101535373D01*
X98380932Y-101550629D01*
X98389046Y-101558497D01*
X98390992Y-101559909D01*
X98392898Y-101561610D01*
X98414269Y-101581861D01*
X98416853Y-101584466D01*
X98418868Y-101586991D01*
X98422446Y-101590277D01*
X98444643Y-101610663D01*
X98446078Y-101612002D01*
X98465308Y-101630223D01*
X98469185Y-101633897D01*
X98471816Y-101635760D01*
X98474667Y-101638236D01*
X98485526Y-101648209D01*
X98490119Y-101652647D01*
X98491473Y-101654023D01*
X98494607Y-101657744D01*
X98498271Y-101660934D01*
X98498278Y-101660941D01*
X98518360Y-101678424D01*
X98520836Y-101680638D01*
X98541723Y-101699820D01*
X98545419Y-101702352D01*
X98548112Y-101704493D01*
X98552440Y-101708094D01*
X98555279Y-101710566D01*
X98563429Y-101718329D01*
X98571248Y-101726473D01*
X98575115Y-101729421D01*
X98575122Y-101729427D01*
X98583242Y-101735617D01*
X98594777Y-101746503D01*
X98600678Y-101751673D01*
X98606525Y-101758488D01*
X98614047Y-101763386D01*
X98648706Y-101785954D01*
X98656338Y-101791337D01*
X98666335Y-101798958D01*
X98678981Y-101806016D01*
X98686319Y-101810445D01*
X98701146Y-101820100D01*
X98705596Y-101822102D01*
X98708897Y-101823905D01*
X98717611Y-101829132D01*
X98737420Y-101842130D01*
X98746007Y-101844751D01*
X98747823Y-101845602D01*
X98748621Y-101845877D01*
X98754317Y-101848066D01*
X98762157Y-101852442D01*
X98770909Y-101854441D01*
X98770911Y-101854442D01*
X98790852Y-101858997D01*
X98797658Y-101860753D01*
X98810626Y-101864489D01*
X98812469Y-101865036D01*
X98877966Y-101885026D01*
X98882085Y-101885074D01*
X98886041Y-101886214D01*
X98940873Y-101885994D01*
X98954457Y-101885939D01*
X98956443Y-101885947D01*
X99016265Y-101886650D01*
X99016271Y-101886650D01*
X99024903Y-101886751D01*
X99028873Y-101885641D01*
X99032985Y-101885624D01*
X99041241Y-101883174D01*
X99041245Y-101883173D01*
X99096916Y-101866651D01*
X99097238Y-101867735D01*
X99099907Y-101866347D01*
X99104307Y-101865900D01*
X99112627Y-101862522D01*
X99115491Y-101861810D01*
X99121938Y-101859607D01*
X99128951Y-101857645D01*
X99133641Y-101856333D01*
X99136575Y-101854997D01*
X99140018Y-101853859D01*
X99165257Y-101846369D01*
X99165258Y-101846369D01*
X99173859Y-101843816D01*
X99190742Y-101832923D01*
X99202781Y-101826063D01*
X99204406Y-101825252D01*
X99208923Y-101823418D01*
X99213099Y-101820913D01*
X99215655Y-101819638D01*
X99217492Y-101818674D01*
X99217420Y-101818542D01*
X99221355Y-101816401D01*
X99225436Y-101814543D01*
X99249262Y-101799290D01*
X99252382Y-101797356D01*
X99255208Y-101795661D01*
X99261461Y-101792399D01*
X99261416Y-101792317D01*
X99265684Y-101789992D01*
X99270130Y-101787998D01*
X99274214Y-101785345D01*
X99274220Y-101785342D01*
X99294025Y-101772478D01*
X99297856Y-101770086D01*
X99315776Y-101759339D01*
X99315778Y-101759338D01*
X99319626Y-101757030D01*
X99323107Y-101754201D01*
X99326774Y-101751631D01*
X99326907Y-101751820D01*
X99336993Y-101744906D01*
X99339950Y-101743505D01*
X99343971Y-101740773D01*
X99343981Y-101740767D01*
X99367551Y-101724751D01*
X99369703Y-101723321D01*
X99395011Y-101706882D01*
X99397690Y-101704541D01*
X99399834Y-101702994D01*
X99420424Y-101688825D01*
X99421037Y-101688406D01*
X99447213Y-101670619D01*
X99447217Y-101670616D01*
X99450000Y-101668725D01*
X99450919Y-101667887D01*
X99451869Y-101667187D01*
X99505585Y-101630223D01*
X99505865Y-101630031D01*
X99508226Y-101628416D01*
X99604484Y-101562558D01*
X99625509Y-101548240D01*
X99693073Y-101526430D01*
X99742284Y-101535025D01*
X99742615Y-101535154D01*
X99746654Y-101537074D01*
X99753734Y-101539275D01*
X99761860Y-101542110D01*
X99777665Y-101548240D01*
X99788336Y-101552379D01*
X99789624Y-101552887D01*
X99812957Y-101562234D01*
X99812960Y-101562235D01*
X99817114Y-101563899D01*
X99819162Y-101564398D01*
X99819986Y-101564689D01*
X99820384Y-101564809D01*
X99824932Y-101566573D01*
X99829692Y-101567615D01*
X99834351Y-101569020D01*
X99834330Y-101569091D01*
X99845961Y-101572541D01*
X99862593Y-101578821D01*
X99871385Y-101582141D01*
X99880337Y-101582828D01*
X99880338Y-101582828D01*
X99884121Y-101583118D01*
X99891359Y-101583673D01*
X99911522Y-101586879D01*
X99923738Y-101589853D01*
X99932707Y-101589443D01*
X99932711Y-101589443D01*
X99946192Y-101588826D01*
X99961589Y-101589063D01*
X100009190Y-101592716D01*
X100009193Y-101592716D01*
X100017901Y-101593384D01*
X100018741Y-101593207D01*
X100019601Y-101593270D01*
X100028136Y-101591440D01*
X100028138Y-101591440D01*
X100065865Y-101583351D01*
X100065878Y-101583412D01*
X100066035Y-101583343D01*
X100070531Y-101583138D01*
X100076662Y-101581037D01*
X100080413Y-101580233D01*
X100080415Y-101580233D01*
X100090337Y-101578106D01*
X100090735Y-101578022D01*
X100153138Y-101564857D01*
X100153141Y-101564856D01*
X100161683Y-101563054D01*
X100162444Y-101562646D01*
X100163282Y-101562466D01*
X100227057Y-101527983D01*
X100291174Y-101493587D01*
X100291787Y-101492984D01*
X100292544Y-101492575D01*
X100344191Y-101441466D01*
X100347900Y-101437819D01*
X100358684Y-101428458D01*
X100359091Y-101428043D01*
X100366219Y-101422591D01*
X100371530Y-101415358D01*
X100376408Y-101410383D01*
X100381134Y-101404907D01*
X100389171Y-101396953D01*
X100396993Y-101389213D01*
X100412077Y-101362001D01*
X100421175Y-101347892D01*
X100428039Y-101338663D01*
X100428041Y-101338660D01*
X100429794Y-101336303D01*
X100430408Y-101335172D01*
X100433046Y-101331579D01*
X100435285Y-101327267D01*
X100435291Y-101327257D01*
X100447736Y-101303286D01*
X100448783Y-101301312D01*
X100464507Y-101272338D01*
X100464507Y-101272337D01*
X100465048Y-101272631D01*
X100465616Y-101270707D01*
X100466838Y-101268909D01*
X100468928Y-101264499D01*
X100469120Y-101264164D01*
X100471708Y-101259069D01*
X100482136Y-101239853D01*
X100482975Y-101235972D01*
X100484647Y-101232195D01*
X100492649Y-101216783D01*
X100494128Y-101212557D01*
X100495909Y-101208435D01*
X100495918Y-101208439D01*
X100498628Y-101201837D01*
X100498716Y-101201651D01*
X100501678Y-101195402D01*
X100503467Y-101191907D01*
X100505337Y-101189056D01*
X100519725Y-101157363D01*
X100520526Y-101155636D01*
X100534079Y-101127041D01*
X100535083Y-101123801D01*
X100536652Y-101120076D01*
X100548394Y-101094211D01*
X100549305Y-101092371D01*
X100550413Y-101090647D01*
X100565309Y-101056964D01*
X100565794Y-101055883D01*
X100577903Y-101029210D01*
X100577906Y-101029203D01*
X100579756Y-101025127D01*
X100580330Y-101023161D01*
X100581117Y-101021222D01*
X100594170Y-100991708D01*
X100599894Y-100978765D01*
X100600484Y-100977548D01*
X100601257Y-100976327D01*
X100602794Y-100972787D01*
X100616302Y-100941674D01*
X100616645Y-100940890D01*
X100629134Y-100912652D01*
X100629140Y-100912638D01*
X100630668Y-100909182D01*
X100631057Y-100907799D01*
X100631563Y-100906523D01*
X100644070Y-100877716D01*
X100655399Y-100851621D01*
X100655839Y-100850700D01*
X100656443Y-100849733D01*
X100671587Y-100814334D01*
X100685744Y-100781726D01*
X100686044Y-100780629D01*
X100686428Y-100779644D01*
X100703449Y-100739857D01*
X100713452Y-100716477D01*
X100713832Y-100715671D01*
X100714354Y-100714826D01*
X100729341Y-100679338D01*
X100729571Y-100678797D01*
X100742391Y-100648832D01*
X100742395Y-100648823D01*
X100743455Y-100646344D01*
X100743711Y-100645392D01*
X100744032Y-100644554D01*
X100772452Y-100577258D01*
X100772812Y-100576486D01*
X100773309Y-100575674D01*
X100776792Y-100567324D01*
X100788130Y-100540136D01*
X100788349Y-100539614D01*
X100801109Y-100509401D01*
X100801110Y-100509397D01*
X100802133Y-100506976D01*
X100802377Y-100506050D01*
X100802680Y-100505248D01*
X100802775Y-100505022D01*
X100830702Y-100438058D01*
X100831075Y-100437250D01*
X100831599Y-100436385D01*
X100839205Y-100417903D01*
X100883625Y-100362521D01*
X100950937Y-100339946D01*
X101019768Y-100357346D01*
X101068266Y-100409197D01*
X101071964Y-100417234D01*
X101076215Y-100427397D01*
X101076434Y-100427923D01*
X101089938Y-100460623D01*
X101090439Y-100461471D01*
X101090806Y-100462272D01*
X101119055Y-100529793D01*
X101119354Y-100530587D01*
X101119585Y-100531509D01*
X101134756Y-100567324D01*
X101148505Y-100600189D01*
X101148986Y-100600995D01*
X101149343Y-100601765D01*
X101177641Y-100668569D01*
X101177968Y-100669426D01*
X101178217Y-100670398D01*
X101179312Y-100672950D01*
X101179316Y-100672960D01*
X101193415Y-100705815D01*
X101193647Y-100706358D01*
X101206318Y-100736272D01*
X101206329Y-100736296D01*
X101207395Y-100738812D01*
X101207911Y-100739666D01*
X101208301Y-100740497D01*
X101232279Y-100796370D01*
X101234854Y-100802371D01*
X101235243Y-100803376D01*
X101235540Y-100804507D01*
X101236813Y-100807429D01*
X101236815Y-100807434D01*
X101250769Y-100839462D01*
X101251045Y-100840100D01*
X101263040Y-100868049D01*
X101264906Y-100872398D01*
X101265517Y-100873399D01*
X101265979Y-100874371D01*
X101288082Y-100925103D01*
X101288975Y-100927152D01*
X101289502Y-100928488D01*
X101289897Y-100929952D01*
X101291525Y-100933616D01*
X101291533Y-100933637D01*
X101305181Y-100964357D01*
X101305479Y-100965032D01*
X101319353Y-100996878D01*
X101320151Y-100998170D01*
X101320781Y-100999476D01*
X101327373Y-101014312D01*
X101338355Y-101039034D01*
X101339204Y-101041130D01*
X101339806Y-101043271D01*
X101355073Y-101076682D01*
X101355532Y-101077701D01*
X101367320Y-101104238D01*
X101367324Y-101104246D01*
X101369142Y-101108338D01*
X101370315Y-101110207D01*
X101371336Y-101112275D01*
X101381462Y-101134434D01*
X101383256Y-101138686D01*
X101384355Y-101142333D01*
X101392498Y-101159314D01*
X101399067Y-101173012D01*
X101400029Y-101175066D01*
X101412912Y-101203260D01*
X101414967Y-101206459D01*
X101417145Y-101210711D01*
X101418450Y-101213432D01*
X101418746Y-101214049D01*
X101423681Y-101225984D01*
X101423949Y-101226594D01*
X101425560Y-101231191D01*
X101427861Y-101235489D01*
X101432446Y-101244056D01*
X101437358Y-101254463D01*
X101439458Y-101262745D01*
X101444014Y-101270471D01*
X101444015Y-101270473D01*
X101457150Y-101292746D01*
X101455137Y-101293933D01*
X101457105Y-101296271D01*
X101458035Y-101295662D01*
X101464863Y-101306096D01*
X101467967Y-101311089D01*
X101470571Y-101315505D01*
X101473116Y-101320031D01*
X101483806Y-101340003D01*
X101486464Y-101343620D01*
X101487114Y-101344651D01*
X101493162Y-101353817D01*
X101494333Y-101355802D01*
X101494339Y-101355811D01*
X101496813Y-101360006D01*
X101499900Y-101363767D01*
X101499902Y-101363770D01*
X101508912Y-101374747D01*
X101516949Y-101385693D01*
X101522394Y-101394013D01*
X101538498Y-101418623D01*
X101545324Y-101424453D01*
X101545325Y-101424454D01*
X101546770Y-101425688D01*
X101546593Y-101425895D01*
X101548584Y-101428157D01*
X101548787Y-101428433D01*
X101555921Y-101433885D01*
X101557457Y-101435059D01*
X101562763Y-101439348D01*
X101585974Y-101459172D01*
X101589218Y-101462041D01*
X101628712Y-101498194D01*
X101628714Y-101498196D01*
X101635339Y-101504260D01*
X101643128Y-101508088D01*
X101643637Y-101508422D01*
X101650236Y-101514059D01*
X101696886Y-101535025D01*
X101707210Y-101539665D01*
X101711131Y-101541509D01*
X101759164Y-101565115D01*
X101759168Y-101565116D01*
X101767219Y-101569073D01*
X101775766Y-101570560D01*
X101776350Y-101570739D01*
X101784268Y-101574298D01*
X101816862Y-101578821D01*
X101846168Y-101582888D01*
X101850451Y-101583558D01*
X101903143Y-101592728D01*
X101903147Y-101592728D01*
X101911990Y-101594267D01*
X101920609Y-101593296D01*
X101921230Y-101593304D01*
X101929820Y-101594496D01*
X101991628Y-101585370D01*
X101995927Y-101584811D01*
X102049093Y-101578821D01*
X102049094Y-101578821D01*
X102058012Y-101577816D01*
X102093992Y-101562745D01*
X102109743Y-101557341D01*
X102126713Y-101552749D01*
X102131160Y-101550770D01*
X102131697Y-101550579D01*
X102135390Y-101549037D01*
X102137656Y-101548152D01*
X102141938Y-101546823D01*
X102145986Y-101544901D01*
X102145991Y-101544899D01*
X102160297Y-101538106D01*
X102230412Y-101526955D01*
X102285357Y-101547845D01*
X102346925Y-101589853D01*
X102347220Y-101590054D01*
X102347451Y-101590212D01*
X102441711Y-101654833D01*
X102441961Y-101655005D01*
X102457076Y-101665421D01*
X102459229Y-101667010D01*
X102461086Y-101668726D01*
X102465130Y-101671441D01*
X102465133Y-101671444D01*
X102491071Y-101688862D01*
X102492328Y-101689717D01*
X102506988Y-101699820D01*
X102519462Y-101708417D01*
X102521714Y-101709536D01*
X102524034Y-101710996D01*
X102528275Y-101713845D01*
X102532999Y-101717425D01*
X102533116Y-101717268D01*
X102537025Y-101720168D01*
X102540697Y-101723360D01*
X102544812Y-101725946D01*
X102544820Y-101725952D01*
X102566354Y-101739485D01*
X102569546Y-101741559D01*
X102592085Y-101756694D01*
X102596121Y-101758639D01*
X102599788Y-101760740D01*
X102614750Y-101770798D01*
X102615713Y-101771550D01*
X102619554Y-101774552D01*
X102623800Y-101776922D01*
X102623808Y-101776927D01*
X102629874Y-101780312D01*
X102631026Y-101781062D01*
X102632032Y-101782071D01*
X102635544Y-101784002D01*
X102635551Y-101784007D01*
X102645534Y-101789497D01*
X102651860Y-101793220D01*
X102658855Y-101797616D01*
X102658858Y-101797618D01*
X102662660Y-101800007D01*
X102666765Y-101801834D01*
X102669512Y-101803299D01*
X102675524Y-101806772D01*
X102682102Y-101812312D01*
X102690317Y-101815936D01*
X102690319Y-101815937D01*
X102701128Y-101820705D01*
X102711663Y-101825953D01*
X102725823Y-101833855D01*
X102727042Y-101834323D01*
X102730969Y-101836483D01*
X102735545Y-101838145D01*
X102735554Y-101838149D01*
X102760547Y-101847226D01*
X102768388Y-101850374D01*
X102816549Y-101871618D01*
X102825449Y-101872790D01*
X102828084Y-101873137D01*
X102828034Y-101873514D01*
X102829113Y-101873817D01*
X102829183Y-101873282D01*
X102841001Y-101874838D01*
X102841002Y-101874839D01*
X102865569Y-101878074D01*
X102874904Y-101879662D01*
X102906241Y-101886214D01*
X102923301Y-101889781D01*
X102932249Y-101889078D01*
X102939546Y-101889545D01*
X102946029Y-101889715D01*
X102953335Y-101889633D01*
X102962238Y-101890805D01*
X102971109Y-101889432D01*
X102971113Y-101889432D01*
X103011115Y-101883241D01*
X103020516Y-101882146D01*
X103037824Y-101880787D01*
X103060847Y-101878979D01*
X103060849Y-101878978D01*
X103069795Y-101878276D01*
X103078186Y-101875091D01*
X103085309Y-101873493D01*
X103091603Y-101871831D01*
X103098580Y-101869705D01*
X103107456Y-101868331D01*
X103152249Y-101847350D01*
X103160956Y-101843665D01*
X103198777Y-101829306D01*
X103207174Y-101826118D01*
X103248680Y-101794738D01*
X103258842Y-101787810D01*
X103276492Y-101777000D01*
X103280206Y-101773846D01*
X103281387Y-101772991D01*
X103284770Y-101770429D01*
X103284699Y-101770338D01*
X103288229Y-101767578D01*
X103291949Y-101765074D01*
X103308546Y-101750079D01*
X103317026Y-101743066D01*
X103320215Y-101740655D01*
X103324391Y-101737498D01*
X103325521Y-101735978D01*
X103326119Y-101735451D01*
X103329392Y-101733314D01*
X103352287Y-101712711D01*
X103354998Y-101710342D01*
X103372631Y-101695370D01*
X103372636Y-101695365D01*
X103376055Y-101692462D01*
X103379032Y-101689099D01*
X103382222Y-101685974D01*
X103382342Y-101686097D01*
X103386333Y-101682073D01*
X103389767Y-101678983D01*
X103392436Y-101676727D01*
X103395025Y-101674982D01*
X103420853Y-101651027D01*
X103422190Y-101649805D01*
X103446010Y-101628370D01*
X103448006Y-101625979D01*
X103450550Y-101623484D01*
X103469824Y-101605607D01*
X103471562Y-101604100D01*
X103473427Y-101602813D01*
X103476961Y-101599464D01*
X103476968Y-101599458D01*
X103499964Y-101577664D01*
X103500955Y-101576734D01*
X103502253Y-101575531D01*
X103516240Y-101562558D01*
X103522108Y-101557116D01*
X103522112Y-101557112D01*
X103525397Y-101554065D01*
X103526820Y-101552308D01*
X103528487Y-101550629D01*
X103539109Y-101540563D01*
X103552383Y-101527983D01*
X103558602Y-101522089D01*
X103559748Y-101521076D01*
X103561054Y-101520160D01*
X103564092Y-101517237D01*
X103564101Y-101517229D01*
X103588217Y-101494025D01*
X103588736Y-101493528D01*
X103613789Y-101469785D01*
X103613789Y-101469784D01*
X103613808Y-101469804D01*
X103618205Y-101465586D01*
X103618720Y-101465217D01*
X103644819Y-101439574D01*
X103645763Y-101438656D01*
X103666688Y-101418522D01*
X103669913Y-101415419D01*
X103671263Y-101413688D01*
X103672845Y-101412037D01*
X103693479Y-101391763D01*
X103713175Y-101372411D01*
X103716222Y-101369591D01*
X103719066Y-101367477D01*
X103722481Y-101364004D01*
X103722486Y-101364000D01*
X103743228Y-101342909D01*
X103744755Y-101341382D01*
X103763930Y-101322542D01*
X103763936Y-101322536D01*
X103767132Y-101319395D01*
X103769278Y-101316584D01*
X103772207Y-101313441D01*
X103800648Y-101284519D01*
X103804986Y-101280343D01*
X103808583Y-101277542D01*
X103831081Y-101253617D01*
X103833003Y-101251618D01*
X103850690Y-101233633D01*
X103853834Y-101230436D01*
X103856496Y-101226822D01*
X103856603Y-101226696D01*
X103860706Y-101222114D01*
X103874865Y-101207058D01*
X103880111Y-101202098D01*
X103880061Y-101202047D01*
X103883535Y-101198640D01*
X103887263Y-101195510D01*
X103905844Y-101174237D01*
X103908940Y-101170821D01*
X103926128Y-101152543D01*
X103928703Y-101148879D01*
X103931533Y-101145404D01*
X103936000Y-101139711D01*
X103945675Y-101128634D01*
X103951031Y-101122874D01*
X103961481Y-101112319D01*
X103965192Y-101108571D01*
X103968045Y-101104624D01*
X103968051Y-101104617D01*
X103971366Y-101100031D01*
X103978581Y-101090960D01*
X103980507Y-101088755D01*
X103980518Y-101088740D01*
X103983462Y-101085370D01*
X103985901Y-101081612D01*
X103988603Y-101078034D01*
X103988741Y-101078138D01*
X104000632Y-101063190D01*
X104009784Y-101053717D01*
X104016022Y-101047261D01*
X104033332Y-101014312D01*
X104033335Y-101014307D01*
X104037917Y-101005584D01*
X104046386Y-100991717D01*
X104060158Y-100972134D01*
X104065618Y-100956110D01*
X104073337Y-100938157D01*
X104080194Y-100925103D01*
X104084368Y-100917158D01*
X104090718Y-100885700D01*
X104094961Y-100869995D01*
X104098666Y-100859121D01*
X104107553Y-100833040D01*
X104108768Y-100805390D01*
X104110844Y-100787496D01*
X104114319Y-100769133D01*
X104114319Y-100769127D01*
X104115988Y-100760309D01*
X104113241Y-100732221D01*
X104112765Y-100714426D01*
X104113610Y-100695202D01*
X104113610Y-100695201D01*
X104114004Y-100686235D01*
X104107408Y-100659350D01*
X104104379Y-100641599D01*
X104102560Y-100622997D01*
X104102560Y-100622996D01*
X104101686Y-100614061D01*
X104094256Y-100595564D01*
X104088559Y-100581381D01*
X104087706Y-100579042D01*
X104087100Y-100576575D01*
X104074484Y-100546317D01*
X104073897Y-100544881D01*
X104059470Y-100508966D01*
X104058621Y-100506796D01*
X104055096Y-100497528D01*
X104055094Y-100497523D01*
X104053424Y-100493133D01*
X104052377Y-100491295D01*
X104052313Y-100491149D01*
X104050258Y-100486034D01*
X104046912Y-100477704D01*
X104041363Y-100470648D01*
X104038739Y-100466109D01*
X104036064Y-100462215D01*
X104030763Y-100453317D01*
X104029561Y-100451253D01*
X104023943Y-100441393D01*
X104020733Y-100434901D01*
X104020672Y-100434933D01*
X104018436Y-100430614D01*
X104016539Y-100426131D01*
X104001670Y-100402140D01*
X103999310Y-100398168D01*
X103989138Y-100380315D01*
X103989133Y-100380308D01*
X103986919Y-100376422D01*
X103984173Y-100372885D01*
X103981765Y-100369281D01*
X103977540Y-100363203D01*
X103972494Y-100355062D01*
X103969787Y-100350405D01*
X103968058Y-100346544D01*
X103949901Y-100318556D01*
X103948532Y-100316398D01*
X103932583Y-100290662D01*
X103929877Y-100287430D01*
X103926729Y-100282835D01*
X103912075Y-100260247D01*
X103910155Y-100257078D01*
X103908774Y-100254120D01*
X103889236Y-100225016D01*
X103888293Y-100223587D01*
X103870903Y-100196781D01*
X103868763Y-100194330D01*
X103866550Y-100191223D01*
X103844222Y-100157963D01*
X103843202Y-100156325D01*
X103842365Y-100154575D01*
X103824070Y-100127859D01*
X103823958Y-100127682D01*
X103823850Y-100127456D01*
X103819287Y-100120809D01*
X103818622Y-100119830D01*
X103801914Y-100094941D01*
X103800609Y-100093493D01*
X103799463Y-100091926D01*
X103780758Y-100064611D01*
X103780587Y-100064425D01*
X103780465Y-100064260D01*
X103747641Y-100016447D01*
X103725576Y-99948966D01*
X103734136Y-99899335D01*
X103735658Y-99895436D01*
X103745461Y-99870309D01*
X103788856Y-99814118D01*
X103839588Y-99792273D01*
X103859245Y-99788581D01*
X103871655Y-99786251D01*
X103872149Y-99786160D01*
X104012269Y-99760427D01*
X104014574Y-99760084D01*
X104016694Y-99760007D01*
X104021480Y-99759082D01*
X104021483Y-99759082D01*
X104035949Y-99756287D01*
X104052634Y-99753063D01*
X104053875Y-99752830D01*
X104077646Y-99748495D01*
X104086897Y-99746808D01*
X104088982Y-99746111D01*
X104091186Y-99745616D01*
X104112689Y-99741461D01*
X104118722Y-99740465D01*
X104123330Y-99740193D01*
X104155297Y-99733263D01*
X104158085Y-99732691D01*
X104187163Y-99727073D01*
X104191386Y-99725612D01*
X104191831Y-99725493D01*
X104197756Y-99724057D01*
X104206464Y-99722169D01*
X104212562Y-99721232D01*
X104212529Y-99721039D01*
X104217327Y-99720227D01*
X104222178Y-99719787D01*
X104244169Y-99714291D01*
X104251216Y-99712530D01*
X104255068Y-99711631D01*
X104262472Y-99710026D01*
X104281261Y-99705952D01*
X104285468Y-99704389D01*
X104289766Y-99703131D01*
X104289798Y-99703241D01*
X104295698Y-99701413D01*
X104298199Y-99700788D01*
X104308381Y-99698687D01*
X104316890Y-99697295D01*
X104316894Y-99697294D01*
X104321692Y-99696509D01*
X104326316Y-99694994D01*
X104327299Y-99694672D01*
X104338908Y-99691473D01*
X104341154Y-99690968D01*
X104350105Y-99690261D01*
X104358493Y-99687072D01*
X104358501Y-99687070D01*
X104396324Y-99672689D01*
X104410238Y-99668302D01*
X104429572Y-99663417D01*
X104438275Y-99661218D01*
X104446007Y-99656667D01*
X104446012Y-99656665D01*
X104477550Y-99638101D01*
X104485631Y-99633734D01*
X104529582Y-99612019D01*
X104536188Y-99605946D01*
X104543596Y-99600866D01*
X104543630Y-99600916D01*
X104554843Y-99592607D01*
X104557181Y-99591231D01*
X104564913Y-99586680D01*
X104580926Y-99569639D01*
X104595493Y-99556385D01*
X104606874Y-99547552D01*
X104613963Y-99542050D01*
X104619223Y-99534779D01*
X104619225Y-99534777D01*
X104626728Y-99524406D01*
X104631173Y-99518627D01*
X104637762Y-99512570D01*
X104642401Y-99504882D01*
X104643797Y-99503174D01*
X104649540Y-99496624D01*
X104659391Y-99486141D01*
X104659395Y-99486136D01*
X104665542Y-99479594D01*
X104676130Y-99458743D01*
X104686386Y-99441941D01*
X104694834Y-99430263D01*
X104694835Y-99430262D01*
X104700093Y-99422993D01*
X104711348Y-99391356D01*
X104713113Y-99387697D01*
X104713682Y-99386754D01*
X104713820Y-99386231D01*
X104715862Y-99381998D01*
X104715382Y-99381787D01*
X104716547Y-99379141D01*
X104716661Y-99378917D01*
X104716704Y-99378784D01*
X104719002Y-99373567D01*
X104723747Y-99365949D01*
X104734895Y-99326069D01*
X104737529Y-99317763D01*
X104746338Y-99293001D01*
X104749346Y-99284546D01*
X104749860Y-99275585D01*
X104751179Y-99269062D01*
X104752511Y-99263523D01*
X104752833Y-99261896D01*
X104754144Y-99257205D01*
X104756696Y-99235702D01*
X104757701Y-99228849D01*
X104759184Y-99220371D01*
X104767455Y-99173075D01*
X104766457Y-99164151D01*
X104766734Y-99155180D01*
X104767987Y-99155219D01*
X104767551Y-99144222D01*
X104769753Y-99125663D01*
X104769542Y-99116943D01*
X104769759Y-99105926D01*
X104770492Y-99094387D01*
X104771048Y-99088121D01*
X104771322Y-99085722D01*
X104772245Y-99080941D01*
X104773384Y-99049593D01*
X104773550Y-99046276D01*
X104775336Y-99018165D01*
X104774983Y-99013702D01*
X104774953Y-99009731D01*
X104775032Y-99004194D01*
X104775812Y-98982716D01*
X104776101Y-98978348D01*
X104776733Y-98974727D01*
X104776945Y-98963240D01*
X104777366Y-98940464D01*
X104777428Y-98938219D01*
X104778395Y-98911587D01*
X104778558Y-98907104D01*
X104778170Y-98903458D01*
X104778134Y-98898924D01*
X104778756Y-98865272D01*
X104778920Y-98861982D01*
X104779389Y-98859051D01*
X104779538Y-98823556D01*
X104779558Y-98821804D01*
X104779594Y-98819898D01*
X104780154Y-98789587D01*
X104779788Y-98786645D01*
X104779707Y-98783292D01*
X104779869Y-98744755D01*
X104779981Y-98741653D01*
X104780392Y-98738832D01*
X104780054Y-98703182D01*
X104780049Y-98701530D01*
X104780055Y-98700237D01*
X104780186Y-98669059D01*
X104779795Y-98666244D01*
X104779673Y-98663058D01*
X104779322Y-98626096D01*
X104779400Y-98622432D01*
X104779817Y-98619230D01*
X104778940Y-98584221D01*
X104778906Y-98582261D01*
X104778647Y-98554916D01*
X104778646Y-98554910D01*
X104778604Y-98550428D01*
X104778117Y-98547241D01*
X104777922Y-98543550D01*
X104777196Y-98514611D01*
X104777213Y-98509005D01*
X104777683Y-98504676D01*
X104777458Y-98499817D01*
X104777458Y-98499802D01*
X104776147Y-98471564D01*
X104776050Y-98468874D01*
X104775665Y-98453470D01*
X104775299Y-98438861D01*
X104774578Y-98434590D01*
X104774161Y-98428755D01*
X104773457Y-98413577D01*
X104773547Y-98406374D01*
X104773474Y-98406374D01*
X104773446Y-98401507D01*
X104773793Y-98396651D01*
X104772592Y-98382218D01*
X104771452Y-98368510D01*
X104771153Y-98363905D01*
X104770783Y-98355937D01*
X104769988Y-98338802D01*
X104769148Y-98334403D01*
X104768623Y-98329951D01*
X104768625Y-98329951D01*
X104767648Y-98322805D01*
X104766516Y-98309195D01*
X104766108Y-98301295D01*
X104765805Y-98286183D01*
X104765805Y-98286178D01*
X104765707Y-98281326D01*
X104763850Y-98270797D01*
X104762370Y-98259375D01*
X104761742Y-98251824D01*
X104760740Y-98247452D01*
X104760116Y-98244727D01*
X104757034Y-98221644D01*
X104756365Y-98205001D01*
X104756365Y-98204999D01*
X104756004Y-98196029D01*
X104753141Y-98187523D01*
X104753140Y-98187519D01*
X104734772Y-98132954D01*
X104731428Y-98121148D01*
X104728398Y-98108049D01*
X104725262Y-98094488D01*
X104720865Y-98086660D01*
X104717625Y-98078295D01*
X104717785Y-98078233D01*
X104713877Y-98069346D01*
X104713748Y-98068953D01*
X104713748Y-98068952D01*
X104710949Y-98060416D01*
X104691300Y-98031776D01*
X104683392Y-98018589D01*
X104682283Y-98016455D01*
X104680217Y-98012478D01*
X104677607Y-98008834D01*
X104675263Y-98005012D01*
X104675354Y-98004956D01*
X104672113Y-97999862D01*
X104653300Y-97966368D01*
X104646879Y-97960085D01*
X104640820Y-97954156D01*
X104626499Y-97937456D01*
X104621556Y-97930553D01*
X104621555Y-97930552D01*
X104616330Y-97923255D01*
X104586098Y-97899553D01*
X104575732Y-97890466D01*
X104548271Y-97863596D01*
X104538465Y-97858365D01*
X104532864Y-97855377D01*
X104514424Y-97843362D01*
X104507752Y-97838131D01*
X104500687Y-97832592D01*
X104492352Y-97829259D01*
X104492349Y-97829257D01*
X104465027Y-97818331D01*
X104454057Y-97813231D01*
X104452947Y-97812745D01*
X104448647Y-97810451D01*
X104444048Y-97808847D01*
X104444046Y-97808846D01*
X104425281Y-97802301D01*
X104420019Y-97800332D01*
X104364245Y-97778029D01*
X104355310Y-97777169D01*
X104353225Y-97776663D01*
X104347278Y-97775797D01*
X104331423Y-97772693D01*
X104325168Y-97771301D01*
X104324703Y-97771185D01*
X104318553Y-97769485D01*
X104316894Y-97768981D01*
X104312358Y-97767209D01*
X104293572Y-97763049D01*
X104281519Y-97760380D01*
X104278295Y-97759621D01*
X104255075Y-97753835D01*
X104255072Y-97753834D01*
X104250724Y-97752751D01*
X104246268Y-97752295D01*
X104243093Y-97751740D01*
X104237541Y-97750641D01*
X104230499Y-97749081D01*
X104227321Y-97748271D01*
X104224529Y-97747227D01*
X104219775Y-97746246D01*
X104219770Y-97746244D01*
X104189923Y-97740082D01*
X104188157Y-97739705D01*
X104160995Y-97733690D01*
X104156615Y-97732720D01*
X104153652Y-97732496D01*
X104150337Y-97731909D01*
X104122820Y-97726227D01*
X104120634Y-97725699D01*
X104118549Y-97724944D01*
X104113773Y-97724010D01*
X104113768Y-97724009D01*
X104082616Y-97717920D01*
X104081463Y-97717688D01*
X104048571Y-97710897D01*
X104046354Y-97710760D01*
X104044102Y-97710391D01*
X104002580Y-97702274D01*
X104001198Y-97701953D01*
X103999756Y-97701443D01*
X103962708Y-97694477D01*
X103961820Y-97694307D01*
X103927952Y-97687686D01*
X103926544Y-97687614D01*
X103925608Y-97687470D01*
X103900842Y-97682841D01*
X103897314Y-97682181D01*
X103897180Y-97682156D01*
X103861503Y-97675447D01*
X103861277Y-97675437D01*
X103861091Y-97675409D01*
X103856394Y-97674531D01*
X103811102Y-97666065D01*
X103747818Y-97633887D01*
X103711975Y-97572602D01*
X103714956Y-97501668D01*
X103729989Y-97471467D01*
X103730149Y-97471231D01*
X103742503Y-97453025D01*
X103757137Y-97431715D01*
X103757450Y-97431294D01*
X103757876Y-97430840D01*
X103779917Y-97398545D01*
X103780098Y-97398282D01*
X103799414Y-97370155D01*
X103799417Y-97370151D01*
X103800413Y-97368700D01*
X103800689Y-97368141D01*
X103800978Y-97367686D01*
X103827460Y-97328883D01*
X103828735Y-97327144D01*
X103830182Y-97325569D01*
X103850559Y-97295049D01*
X103851236Y-97294047D01*
X103867688Y-97269941D01*
X103867689Y-97269939D01*
X103870213Y-97266241D01*
X103871155Y-97264322D01*
X103872327Y-97262446D01*
X103892090Y-97232846D01*
X103893693Y-97230605D01*
X103895430Y-97228667D01*
X103915036Y-97198496D01*
X103915898Y-97197187D01*
X103921362Y-97189003D01*
X103934150Y-97169850D01*
X103935269Y-97167513D01*
X103936737Y-97165101D01*
X103946642Y-97149859D01*
X103949428Y-97145831D01*
X103952022Y-97142822D01*
X103969927Y-97114065D01*
X103971173Y-97112108D01*
X103985444Y-97090149D01*
X103985448Y-97090141D01*
X103987888Y-97086387D01*
X103989137Y-97083692D01*
X103996717Y-97072259D01*
X103996685Y-97072238D01*
X103999391Y-97068183D01*
X104002395Y-97064359D01*
X104006597Y-97056870D01*
X104007791Y-97055037D01*
X104009366Y-97053464D01*
X104020217Y-97033665D01*
X104023745Y-97027633D01*
X104024443Y-97026512D01*
X104026450Y-97023761D01*
X104030600Y-97017163D01*
X104036410Y-97010317D01*
X104046536Y-96987594D01*
X104048281Y-96983678D01*
X104053490Y-96973301D01*
X104057994Y-96965275D01*
X104060186Y-96961369D01*
X104060871Y-96959600D01*
X104061104Y-96959141D01*
X104061296Y-96958716D01*
X104063635Y-96954448D01*
X104067185Y-96944630D01*
X104072099Y-96931040D01*
X104075500Y-96922599D01*
X104080586Y-96911186D01*
X104096223Y-96876095D01*
X104097851Y-96864081D01*
X104097879Y-96863928D01*
X104099777Y-96859023D01*
X104101583Y-96837733D01*
X104102271Y-96831478D01*
X104103085Y-96825466D01*
X104104573Y-96816778D01*
X104114967Y-96766707D01*
X104114251Y-96757757D01*
X104114811Y-96748795D01*
X104114961Y-96748804D01*
X104114973Y-96748351D01*
X104114823Y-96748352D01*
X104114756Y-96739372D01*
X104115961Y-96730480D01*
X104113284Y-96712740D01*
X104108335Y-96679936D01*
X104107326Y-96671187D01*
X104103965Y-96629180D01*
X104103249Y-96620230D01*
X104100049Y-96611839D01*
X104098074Y-96603091D01*
X104098219Y-96603058D01*
X104098100Y-96602604D01*
X104097958Y-96602647D01*
X104095376Y-96594057D01*
X104094036Y-96585178D01*
X104090258Y-96577033D01*
X104090257Y-96577028D01*
X104072523Y-96538789D01*
X104069098Y-96530672D01*
X104054090Y-96491315D01*
X104054089Y-96491313D01*
X104050891Y-96482927D01*
X104045465Y-96475771D01*
X104019385Y-96441378D01*
X104012922Y-96432005D01*
X104001948Y-96414439D01*
X103999371Y-96410314D01*
X103996189Y-96406634D01*
X103995959Y-96406322D01*
X103993484Y-96403301D01*
X103991338Y-96400086D01*
X103988344Y-96396747D01*
X103988338Y-96396739D01*
X103973619Y-96380323D01*
X103967047Y-96372359D01*
X103962102Y-96365839D01*
X103959962Y-96364254D01*
X103959089Y-96363276D01*
X103957774Y-96361604D01*
X103955072Y-96357562D01*
X103951780Y-96353983D01*
X103934698Y-96335412D01*
X103932119Y-96332520D01*
X103917385Y-96315478D01*
X103917380Y-96315473D01*
X103914457Y-96312092D01*
X103911083Y-96309159D01*
X103907907Y-96305974D01*
X103907995Y-96305886D01*
X103903643Y-96301654D01*
X103901920Y-96299781D01*
X103899665Y-96297170D01*
X103897914Y-96294633D01*
X103873648Y-96269026D01*
X103872377Y-96267664D01*
X103853724Y-96247386D01*
X103853717Y-96247379D01*
X103850681Y-96244079D01*
X103848300Y-96242135D01*
X103845814Y-96239655D01*
X103831615Y-96224672D01*
X103830278Y-96223161D01*
X103829118Y-96221514D01*
X103825739Y-96218016D01*
X103825734Y-96218010D01*
X103803378Y-96194866D01*
X103802545Y-96193995D01*
X103782498Y-96172840D01*
X103782494Y-96172836D01*
X103779411Y-96169583D01*
X103777836Y-96168335D01*
X103776378Y-96166916D01*
X103754059Y-96143810D01*
X103753037Y-96142676D01*
X103752118Y-96141391D01*
X103725771Y-96114522D01*
X103725272Y-96114009D01*
X103701236Y-96089126D01*
X103699974Y-96088146D01*
X103698883Y-96087102D01*
X103672647Y-96060346D01*
X103671715Y-96059327D01*
X103670827Y-96058104D01*
X103644151Y-96031283D01*
X103643562Y-96030685D01*
X103622168Y-96008868D01*
X103619408Y-96006053D01*
X103618220Y-96005144D01*
X103617175Y-96004159D01*
X103591344Y-95978185D01*
X103590249Y-95977005D01*
X103589265Y-95975673D01*
X103586170Y-95972610D01*
X103586150Y-95972588D01*
X103562661Y-95949339D01*
X103561962Y-95948642D01*
X103540779Y-95927343D01*
X103540759Y-95927324D01*
X103537743Y-95924292D01*
X103536422Y-95923297D01*
X103535227Y-95922187D01*
X103514096Y-95901271D01*
X103512557Y-95899642D01*
X103511231Y-95897885D01*
X103507436Y-95894206D01*
X103484915Y-95872378D01*
X103484066Y-95871547D01*
X103460202Y-95847927D01*
X103458439Y-95846620D01*
X103456756Y-95845085D01*
X103444808Y-95833504D01*
X103441864Y-95830474D01*
X103439657Y-95827654D01*
X103430092Y-95818700D01*
X103414524Y-95804126D01*
X103412941Y-95802618D01*
X103393704Y-95783973D01*
X103390481Y-95780849D01*
X103388631Y-95779507D01*
X103379800Y-95770723D01*
X103379660Y-95770862D01*
X103376227Y-95767402D01*
X103373076Y-95763692D01*
X103369277Y-95760412D01*
X103363597Y-95755509D01*
X103362676Y-95754597D01*
X103361945Y-95753481D01*
X103346937Y-95740675D01*
X103342628Y-95736823D01*
X103334570Y-95729279D01*
X103331296Y-95726214D01*
X103327624Y-95723647D01*
X103324824Y-95721376D01*
X103319450Y-95717220D01*
X103303211Y-95703364D01*
X103294294Y-95694973D01*
X103292320Y-95692926D01*
X103279811Y-95679952D01*
X103234252Y-95653919D01*
X103228840Y-95650641D01*
X103187997Y-95624466D01*
X103179381Y-95621938D01*
X103179206Y-95621858D01*
X103168963Y-95616611D01*
X103152225Y-95607046D01*
X103135295Y-95602999D01*
X103114407Y-95596025D01*
X103106677Y-95592668D01*
X103106675Y-95592667D01*
X103098444Y-95589093D01*
X103089544Y-95587973D01*
X103089541Y-95587972D01*
X103060276Y-95584289D01*
X103046718Y-95581823D01*
X103009306Y-95572879D01*
X103000347Y-95573326D01*
X103000340Y-95573325D01*
X102991930Y-95573745D01*
X102969914Y-95572915D01*
X102961557Y-95571863D01*
X102961556Y-95571863D01*
X102952649Y-95570742D01*
X102914660Y-95576845D01*
X102900961Y-95578282D01*
X102862542Y-95580198D01*
X102846347Y-95585823D01*
X102846103Y-95585908D01*
X102824749Y-95591288D01*
X102807562Y-95594049D01*
X102799452Y-95597904D01*
X102799453Y-95597904D01*
X102772818Y-95610566D01*
X102761448Y-95615227D01*
X102760481Y-95615649D01*
X102755881Y-95617247D01*
X102734069Y-95628847D01*
X102729030Y-95631383D01*
X102711737Y-95639603D01*
X102709903Y-95640431D01*
X102709220Y-95640788D01*
X102705769Y-95642263D01*
X102704739Y-95642703D01*
X102704551Y-95642263D01*
X102702753Y-95642619D01*
X102703240Y-95643643D01*
X102674849Y-95657140D01*
X102668148Y-95663116D01*
X102663936Y-95665912D01*
X102651632Y-95674573D01*
X102651903Y-95674990D01*
X102651902Y-95674990D01*
X102622956Y-95693773D01*
X102621188Y-95694899D01*
X102598408Y-95709129D01*
X102598403Y-95709132D01*
X102594602Y-95711507D01*
X102591889Y-95713795D01*
X102588345Y-95716234D01*
X102584315Y-95718848D01*
X102582763Y-95719782D01*
X102581059Y-95720563D01*
X102550016Y-95741101D01*
X102549354Y-95741535D01*
X102520638Y-95760169D01*
X102519233Y-95761396D01*
X102517705Y-95762477D01*
X102496221Y-95776691D01*
X102495162Y-95777339D01*
X102493962Y-95777898D01*
X102490995Y-95779888D01*
X102490988Y-95779892D01*
X102462369Y-95799084D01*
X102461777Y-95799479D01*
X102432724Y-95818700D01*
X102431733Y-95819581D01*
X102430720Y-95820309D01*
X102396180Y-95843472D01*
X102395431Y-95843936D01*
X102394545Y-95844354D01*
X102364677Y-95864584D01*
X102362660Y-95865950D01*
X102362179Y-95866274D01*
X102335066Y-95884456D01*
X102335057Y-95884462D01*
X102332827Y-95885958D01*
X102332100Y-95886612D01*
X102331378Y-95887137D01*
X102320942Y-95894206D01*
X102320640Y-95894394D01*
X102320288Y-95894561D01*
X102319352Y-95895198D01*
X102319348Y-95895200D01*
X102297634Y-95909966D01*
X102287541Y-95916829D01*
X102257525Y-95937159D01*
X102257236Y-95937422D01*
X102256965Y-95937620D01*
X102217089Y-95964736D01*
X102149511Y-95986501D01*
X102080893Y-95968276D01*
X102033022Y-95915846D01*
X102022418Y-95883887D01*
X102015333Y-95846304D01*
X102013219Y-95835091D01*
X101934039Y-95415086D01*
X101931860Y-95390975D01*
X101931934Y-95378969D01*
X101919706Y-95336184D01*
X101917040Y-95324915D01*
X101916581Y-95322480D01*
X101916581Y-95322478D01*
X101915750Y-95318073D01*
X101914304Y-95313832D01*
X101914302Y-95313824D01*
X101909225Y-95298932D01*
X101907336Y-95292901D01*
X101894019Y-95246309D01*
X101891553Y-95237680D01*
X101886763Y-95230088D01*
X101885100Y-95226370D01*
X101883237Y-95222710D01*
X101880338Y-95214207D01*
X101875174Y-95206866D01*
X101875172Y-95206863D01*
X101847292Y-95167234D01*
X101843783Y-95161970D01*
X101817930Y-95120995D01*
X101813140Y-95113403D01*
X101806412Y-95107461D01*
X101803754Y-95104338D01*
X101800951Y-95101361D01*
X101795788Y-95094022D01*
X101750878Y-95058205D01*
X101746071Y-95054170D01*
X101702999Y-95016129D01*
X101694868Y-95012311D01*
X101691454Y-95010069D01*
X101687925Y-95007997D01*
X101680904Y-95002397D01*
X101648789Y-94989242D01*
X101627749Y-94980624D01*
X101621961Y-94978081D01*
X101578108Y-94957492D01*
X101578104Y-94957491D01*
X101569983Y-94953678D01*
X101561120Y-94952298D01*
X101557212Y-94951103D01*
X101553229Y-94950101D01*
X101544923Y-94946699D01*
X101487795Y-94940721D01*
X101481549Y-94939909D01*
X101467237Y-94937681D01*
X101463226Y-94937056D01*
X101463224Y-94937056D01*
X101458415Y-94936307D01*
X101452187Y-94936307D01*
X101439074Y-94935623D01*
X101407701Y-94932340D01*
X101407700Y-94932340D01*
X101398774Y-94931406D01*
X101389943Y-94933015D01*
X101389942Y-94933015D01*
X101383077Y-94934266D01*
X101360492Y-94936307D01*
X100554898Y-94936307D01*
X100530799Y-94933981D01*
X100527820Y-94933400D01*
X100527817Y-94933400D01*
X100519011Y-94931684D01*
X100474706Y-94935774D01*
X100463124Y-94936307D01*
X100456172Y-94936307D01*
X100451742Y-94936941D01*
X100451735Y-94936942D01*
X100436168Y-94939172D01*
X100429885Y-94939912D01*
X100372686Y-94945192D01*
X100364346Y-94948490D01*
X100360367Y-94949439D01*
X100356424Y-94950592D01*
X100347543Y-94951864D01*
X100339378Y-94955576D01*
X100339376Y-94955577D01*
X100295257Y-94975637D01*
X100289437Y-94978109D01*
X100269739Y-94985898D01*
X100236034Y-94999225D01*
X100228945Y-95004738D01*
X100225389Y-95006769D01*
X100221951Y-95008968D01*
X100213775Y-95012685D01*
X100206971Y-95018547D01*
X100206972Y-95018547D01*
X100170269Y-95050172D01*
X100165376Y-95054179D01*
X100131026Y-95080895D01*
X100120040Y-95089439D01*
X100114785Y-95096718D01*
X100111950Y-95099657D01*
X100109258Y-95102743D01*
X100102453Y-95108606D01*
X100097569Y-95116141D01*
X100071216Y-95156798D01*
X100067645Y-95162016D01*
X100034028Y-95208583D01*
X100031027Y-95217045D01*
X100029123Y-95220676D01*
X100027410Y-95224383D01*
X100022528Y-95231915D01*
X100019956Y-95240515D01*
X100006070Y-95286946D01*
X100004114Y-95292935D01*
X99996289Y-95315001D01*
X99995135Y-95321125D01*
X99992033Y-95333883D01*
X99991339Y-95336205D01*
X99980424Y-95372701D01*
X99980330Y-95388222D01*
X99980327Y-95388657D01*
X99978149Y-95411227D01*
X99901698Y-95816757D01*
X99900071Y-95825389D01*
X99889043Y-95883887D01*
X99856767Y-95947123D01*
X99795427Y-95982871D01*
X99724498Y-95979782D01*
X99694373Y-95964738D01*
X99671728Y-95949339D01*
X99657009Y-95939330D01*
X99656604Y-95939032D01*
X99656178Y-95938636D01*
X99654806Y-95937709D01*
X99654800Y-95937704D01*
X99623385Y-95916466D01*
X99623104Y-95916275D01*
X99601039Y-95901271D01*
X99593758Y-95896320D01*
X99593239Y-95896066D01*
X99592838Y-95895815D01*
X99551763Y-95868047D01*
X99550857Y-95867385D01*
X99549964Y-95866564D01*
X99518081Y-95845273D01*
X99517612Y-95844958D01*
X99510395Y-95840079D01*
X99488647Y-95825376D01*
X99487554Y-95824845D01*
X99486616Y-95824261D01*
X99455417Y-95803429D01*
X99454306Y-95802629D01*
X99453210Y-95801635D01*
X99421566Y-95780821D01*
X99421063Y-95780487D01*
X99395407Y-95763354D01*
X99395384Y-95763340D01*
X99392169Y-95761193D01*
X99390844Y-95760558D01*
X99389627Y-95759813D01*
X99372817Y-95748755D01*
X99370964Y-95747446D01*
X99369293Y-95745964D01*
X99338494Y-95726173D01*
X99337507Y-95725531D01*
X99313225Y-95709559D01*
X99309485Y-95707099D01*
X99308988Y-95706865D01*
X99301801Y-95702283D01*
X99298592Y-95699571D01*
X99294437Y-95697039D01*
X99294431Y-95697035D01*
X99270984Y-95682748D01*
X99268429Y-95681149D01*
X99243870Y-95665367D01*
X99244127Y-95664967D01*
X99231298Y-95656298D01*
X99226093Y-95652008D01*
X99226092Y-95652007D01*
X99219169Y-95646302D01*
X99210770Y-95642703D01*
X99184039Y-95631250D01*
X99129301Y-95586037D01*
X99107696Y-95518407D01*
X99126085Y-95449833D01*
X99144566Y-95426338D01*
X99522247Y-95048657D01*
X99530537Y-95041113D01*
X99537018Y-95037000D01*
X99546766Y-95026620D01*
X99583665Y-94987326D01*
X99586420Y-94984484D01*
X99606134Y-94964770D01*
X99608612Y-94961575D01*
X99616318Y-94952553D01*
X99631574Y-94936307D01*
X99646586Y-94920321D01*
X99656346Y-94902568D01*
X99667199Y-94886045D01*
X99674753Y-94876306D01*
X99679613Y-94870041D01*
X99697176Y-94829457D01*
X99702383Y-94818827D01*
X99723695Y-94780060D01*
X99725666Y-94772383D01*
X99725668Y-94772378D01*
X99728732Y-94760442D01*
X99735138Y-94741730D01*
X99740034Y-94730417D01*
X99743181Y-94723145D01*
X99744704Y-94713534D01*
X99750097Y-94679481D01*
X99752504Y-94667860D01*
X99761528Y-94632711D01*
X99761528Y-94632710D01*
X99763500Y-94625030D01*
X99763500Y-94604769D01*
X99765051Y-94585058D01*
X99766979Y-94572885D01*
X99768219Y-94565057D01*
X99764059Y-94521046D01*
X99763500Y-94509189D01*
X99763500Y-93350427D01*
X99783502Y-93282306D01*
X99824618Y-93242550D01*
X99827994Y-93240896D01*
X100009860Y-93111173D01*
X100060719Y-93060492D01*
X100164435Y-92957137D01*
X100168096Y-92953489D01*
X100194259Y-92917080D01*
X100295435Y-92776277D01*
X100298453Y-92772077D01*
X100315215Y-92738163D01*
X100395136Y-92576453D01*
X100395137Y-92576451D01*
X100397430Y-92571811D01*
X100462370Y-92358069D01*
X100491529Y-92136590D01*
X100493156Y-92070000D01*
X100474852Y-91847361D01*
X100420431Y-91630702D01*
X100331354Y-91425840D01*
X100254021Y-91306301D01*
X100212822Y-91242617D01*
X100212820Y-91242614D01*
X100210014Y-91238277D01*
X100206540Y-91234459D01*
X100206533Y-91234450D01*
X100062435Y-91076088D01*
X100031383Y-91012242D01*
X100039779Y-90941744D01*
X100084956Y-90886976D01*
X100111400Y-90873307D01*
X100218052Y-90833325D01*
X100233649Y-90824786D01*
X100335724Y-90748285D01*
X100348285Y-90735724D01*
X100424786Y-90633649D01*
X100433324Y-90618054D01*
X100478478Y-90497606D01*
X100482105Y-90482351D01*
X100487631Y-90431486D01*
X100488000Y-90424672D01*
X100488000Y-89802115D01*
X100483525Y-89786876D01*
X100482135Y-89785671D01*
X100474452Y-89784000D01*
X97790116Y-89784000D01*
X97774877Y-89788475D01*
X97773672Y-89789865D01*
X97772001Y-89797548D01*
X97772001Y-90424669D01*
X97772371Y-90431490D01*
X97777895Y-90482352D01*
X97781521Y-90497604D01*
X97826676Y-90618054D01*
X97835214Y-90633649D01*
X97911715Y-90735724D01*
X97924276Y-90748285D01*
X98026351Y-90824786D01*
X98041946Y-90833324D01*
X98150827Y-90874142D01*
X98207591Y-90916784D01*
X98232291Y-90983345D01*
X98217083Y-91052694D01*
X98197691Y-91079175D01*
X98121485Y-91158920D01*
X98070629Y-91212138D01*
X98067715Y-91216410D01*
X98067714Y-91216411D01*
X97984883Y-91337837D01*
X97944743Y-91396680D01*
X97902963Y-91486687D01*
X97853442Y-91593373D01*
X97850688Y-91599305D01*
X97790989Y-91814570D01*
X97767251Y-92036695D01*
X97767548Y-92041848D01*
X97767548Y-92041851D01*
X97779648Y-92251699D01*
X97780110Y-92259715D01*
X97781247Y-92264761D01*
X97781248Y-92264767D01*
X97795958Y-92330038D01*
X97829222Y-92477639D01*
X97913266Y-92684616D01*
X97946080Y-92738163D01*
X98010210Y-92842814D01*
X98029987Y-92875088D01*
X98176250Y-93043938D01*
X98348126Y-93186632D01*
X98352593Y-93189242D01*
X98434070Y-93236853D01*
X98482794Y-93288491D01*
X98496500Y-93345641D01*
X98496500Y-94230405D01*
X98476498Y-94298526D01*
X98459595Y-94319500D01*
X96893500Y-95885595D01*
X96831188Y-95919621D01*
X96804405Y-95922500D01*
X96753566Y-95922500D01*
X96685445Y-95902498D01*
X96646133Y-95862335D01*
X96528759Y-95670798D01*
X96528755Y-95670792D01*
X96526176Y-95666584D01*
X96371969Y-95486031D01*
X96191416Y-95331824D01*
X96187208Y-95329245D01*
X96187202Y-95329241D01*
X95993183Y-95210346D01*
X95988963Y-95207760D01*
X95984393Y-95205867D01*
X95984389Y-95205865D01*
X95774167Y-95118789D01*
X95774165Y-95118788D01*
X95769594Y-95116895D01*
X95674321Y-95094022D01*
X95543524Y-95062620D01*
X95543518Y-95062619D01*
X95538711Y-95061465D01*
X95302000Y-95042835D01*
X95065289Y-95061465D01*
X95060482Y-95062619D01*
X95060476Y-95062620D01*
X94929679Y-95094022D01*
X94834406Y-95116895D01*
X94829835Y-95118788D01*
X94829833Y-95118789D01*
X94619611Y-95205865D01*
X94619607Y-95205867D01*
X94615037Y-95207760D01*
X94610817Y-95210346D01*
X94416798Y-95329241D01*
X94416792Y-95329245D01*
X94412584Y-95331824D01*
X94232031Y-95486031D01*
X94077824Y-95666584D01*
X94075245Y-95670792D01*
X94075241Y-95670798D01*
X93957867Y-95862335D01*
X93905219Y-95909966D01*
X93850434Y-95922500D01*
X90253566Y-95922500D01*
X90185445Y-95902498D01*
X90146133Y-95862335D01*
X90028759Y-95670798D01*
X90028755Y-95670792D01*
X90026176Y-95666584D01*
X89871969Y-95486031D01*
X89691416Y-95331824D01*
X89687208Y-95329245D01*
X89687202Y-95329241D01*
X89493183Y-95210346D01*
X89488963Y-95207760D01*
X89484393Y-95205867D01*
X89484389Y-95205865D01*
X89274167Y-95118789D01*
X89274165Y-95118788D01*
X89269594Y-95116895D01*
X89174321Y-95094022D01*
X89043524Y-95062620D01*
X89043518Y-95062619D01*
X89038711Y-95061465D01*
X88802000Y-95042835D01*
X88565289Y-95061465D01*
X88560482Y-95062619D01*
X88560476Y-95062620D01*
X88429679Y-95094022D01*
X88334406Y-95116895D01*
X88329835Y-95118788D01*
X88329833Y-95118789D01*
X88119611Y-95205865D01*
X88119607Y-95205867D01*
X88115037Y-95207760D01*
X88110817Y-95210346D01*
X87916798Y-95329241D01*
X87916792Y-95329245D01*
X87912584Y-95331824D01*
X87732031Y-95486031D01*
X87577824Y-95666584D01*
X87575245Y-95670792D01*
X87575241Y-95670798D01*
X87469931Y-95842649D01*
X87453760Y-95869037D01*
X87451867Y-95873607D01*
X87451865Y-95873611D01*
X87375813Y-96057218D01*
X87362895Y-96088406D01*
X87349795Y-96142973D01*
X87308966Y-96313038D01*
X87307465Y-96319289D01*
X87288835Y-96556000D01*
X87307465Y-96792711D01*
X87348815Y-96964948D01*
X87361060Y-97015951D01*
X87357513Y-97086859D01*
X87327636Y-97134460D01*
X86549239Y-97912856D01*
X85782500Y-98679595D01*
X85720188Y-98713621D01*
X85693405Y-98716500D01*
X80249595Y-98716500D01*
X80181474Y-98696498D01*
X80160500Y-98679595D01*
X77697657Y-96216752D01*
X77664233Y-96157071D01*
X77647748Y-96088406D01*
X77639105Y-96052406D01*
X77637211Y-96047833D01*
X77550135Y-95837611D01*
X77550133Y-95837607D01*
X77548240Y-95833037D01*
X77527540Y-95799258D01*
X77426759Y-95634798D01*
X77426755Y-95634792D01*
X77424176Y-95630584D01*
X77269969Y-95450031D01*
X77089416Y-95295824D01*
X77085208Y-95293245D01*
X77085202Y-95293241D01*
X76891183Y-95174346D01*
X76886963Y-95171760D01*
X76882393Y-95169867D01*
X76882389Y-95169865D01*
X76672167Y-95082789D01*
X76672165Y-95082788D01*
X76667594Y-95080895D01*
X76585046Y-95061077D01*
X76441524Y-95026620D01*
X76441518Y-95026619D01*
X76436711Y-95025465D01*
X76200000Y-95006835D01*
X75963289Y-95025465D01*
X75958482Y-95026619D01*
X75958476Y-95026620D01*
X75814954Y-95061077D01*
X75732406Y-95080895D01*
X75727835Y-95082788D01*
X75727833Y-95082789D01*
X75517611Y-95169865D01*
X75517607Y-95169867D01*
X75513037Y-95171760D01*
X75508817Y-95174346D01*
X75314798Y-95293241D01*
X75314792Y-95293245D01*
X75310584Y-95295824D01*
X75130031Y-95450031D01*
X74975824Y-95630584D01*
X74973245Y-95634792D01*
X74973241Y-95634798D01*
X74855867Y-95826335D01*
X74803219Y-95873966D01*
X74748434Y-95886500D01*
X71151566Y-95886500D01*
X71083445Y-95866498D01*
X71044133Y-95826335D01*
X70926759Y-95634798D01*
X70926755Y-95634792D01*
X70924176Y-95630584D01*
X70769969Y-95450031D01*
X70589416Y-95295824D01*
X70585208Y-95293245D01*
X70585202Y-95293241D01*
X70391183Y-95174346D01*
X70386963Y-95171760D01*
X70382393Y-95169867D01*
X70382389Y-95169865D01*
X70172167Y-95082789D01*
X70172165Y-95082788D01*
X70167594Y-95080895D01*
X70085046Y-95061077D01*
X69941524Y-95026620D01*
X69941518Y-95026619D01*
X69936711Y-95025465D01*
X69700000Y-95006835D01*
X69463289Y-95025465D01*
X69458482Y-95026619D01*
X69458476Y-95026620D01*
X69314954Y-95061077D01*
X69232406Y-95080895D01*
X69227835Y-95082788D01*
X69227833Y-95082789D01*
X69017611Y-95169865D01*
X69017607Y-95169867D01*
X69013037Y-95171760D01*
X69008817Y-95174346D01*
X68814798Y-95293241D01*
X68814792Y-95293245D01*
X68810584Y-95295824D01*
X68630031Y-95450031D01*
X68475824Y-95630584D01*
X68473245Y-95634792D01*
X68473241Y-95634798D01*
X68372460Y-95799258D01*
X68351760Y-95833037D01*
X68349867Y-95837607D01*
X68349865Y-95837611D01*
X68262789Y-96047833D01*
X68260895Y-96052406D01*
X68252252Y-96088406D01*
X68235767Y-96157071D01*
X68202343Y-96216752D01*
X65739500Y-98679595D01*
X65677188Y-98713621D01*
X65650405Y-98716500D01*
X60219595Y-98716500D01*
X60151474Y-98696498D01*
X60130500Y-98679595D01*
X58549364Y-97098459D01*
X58515338Y-97036147D01*
X58515940Y-96979950D01*
X58568380Y-96761524D01*
X58568381Y-96761518D01*
X58569535Y-96756711D01*
X58588165Y-96520000D01*
X58569535Y-96283289D01*
X58566113Y-96269032D01*
X58533360Y-96132609D01*
X58514105Y-96052406D01*
X58512211Y-96047833D01*
X58425135Y-95837611D01*
X58425133Y-95837607D01*
X58423240Y-95833037D01*
X58402540Y-95799258D01*
X58301759Y-95634798D01*
X58301755Y-95634792D01*
X58299176Y-95630584D01*
X58144969Y-95450031D01*
X57964416Y-95295824D01*
X57960208Y-95293245D01*
X57960202Y-95293241D01*
X57766183Y-95174346D01*
X57761963Y-95171760D01*
X57757393Y-95169867D01*
X57757389Y-95169865D01*
X57547167Y-95082789D01*
X57547165Y-95082788D01*
X57542594Y-95080895D01*
X57460046Y-95061077D01*
X57316524Y-95026620D01*
X57316518Y-95026619D01*
X57311711Y-95025465D01*
X57075000Y-95006835D01*
X56838289Y-95025465D01*
X56833482Y-95026619D01*
X56833476Y-95026620D01*
X56689954Y-95061077D01*
X56607406Y-95080895D01*
X56602835Y-95082788D01*
X56602833Y-95082789D01*
X56392611Y-95169865D01*
X56392607Y-95169867D01*
X56388037Y-95171760D01*
X56383817Y-95174346D01*
X56189798Y-95293241D01*
X56189792Y-95293245D01*
X56185584Y-95295824D01*
X56005031Y-95450031D01*
X55850824Y-95630584D01*
X55848245Y-95634792D01*
X55848241Y-95634798D01*
X55730867Y-95826335D01*
X55678219Y-95873966D01*
X55623434Y-95886500D01*
X52026566Y-95886500D01*
X51958445Y-95866498D01*
X51919133Y-95826335D01*
X51801759Y-95634798D01*
X51801755Y-95634792D01*
X51799176Y-95630584D01*
X51644969Y-95450031D01*
X51464416Y-95295824D01*
X51460208Y-95293245D01*
X51460202Y-95293241D01*
X51266183Y-95174346D01*
X51261963Y-95171760D01*
X51257393Y-95169867D01*
X51257389Y-95169865D01*
X51047167Y-95082789D01*
X51047165Y-95082788D01*
X51042594Y-95080895D01*
X50960046Y-95061077D01*
X50816524Y-95026620D01*
X50816518Y-95026619D01*
X50811711Y-95025465D01*
X50575000Y-95006835D01*
X50338289Y-95025465D01*
X50333482Y-95026619D01*
X50333476Y-95026620D01*
X50189954Y-95061077D01*
X50107406Y-95080895D01*
X50102835Y-95082788D01*
X50102833Y-95082789D01*
X49892611Y-95169865D01*
X49892607Y-95169867D01*
X49888037Y-95171760D01*
X49883817Y-95174346D01*
X49689798Y-95293241D01*
X49689792Y-95293245D01*
X49685584Y-95295824D01*
X49505031Y-95450031D01*
X49350824Y-95630584D01*
X49348245Y-95634792D01*
X49348241Y-95634798D01*
X49247460Y-95799258D01*
X49226760Y-95833037D01*
X49224867Y-95837607D01*
X49224865Y-95837611D01*
X49137789Y-96047833D01*
X49135895Y-96052406D01*
X49116640Y-96132609D01*
X49083888Y-96269032D01*
X49080465Y-96283289D01*
X49061835Y-96520000D01*
X49080465Y-96756711D01*
X49081619Y-96761518D01*
X49081620Y-96761524D01*
X49111094Y-96884291D01*
X49135895Y-96987594D01*
X49137788Y-96992165D01*
X49137789Y-96992167D01*
X49223253Y-97198496D01*
X49226760Y-97206963D01*
X49229346Y-97211183D01*
X49348241Y-97405202D01*
X49348245Y-97405208D01*
X49350824Y-97409416D01*
X49505031Y-97589969D01*
X49685584Y-97744176D01*
X49689798Y-97746758D01*
X49689803Y-97746762D01*
X49713204Y-97761102D01*
X49760836Y-97813749D01*
X49772443Y-97883791D01*
X49744340Y-97948989D01*
X49736465Y-97957630D01*
X49304500Y-98389595D01*
X49242188Y-98423621D01*
X49215405Y-98426500D01*
X48404500Y-98426500D01*
X48336379Y-98406498D01*
X48289886Y-98352842D01*
X48278500Y-98300500D01*
X48278500Y-98161866D01*
X48271745Y-98099684D01*
X48220615Y-97963295D01*
X48133261Y-97846739D01*
X48016705Y-97759385D01*
X47973214Y-97743081D01*
X47897687Y-97714767D01*
X47840923Y-97672125D01*
X47816223Y-97605564D01*
X47831430Y-97536215D01*
X47852977Y-97507535D01*
X47954052Y-97406812D01*
X47960730Y-97398965D01*
X48085003Y-97226020D01*
X48090313Y-97217183D01*
X48184670Y-97026267D01*
X48188469Y-97016672D01*
X48250377Y-96812910D01*
X48252555Y-96802837D01*
X48253986Y-96791962D01*
X48251775Y-96777778D01*
X48238617Y-96774000D01*
X45603225Y-96774000D01*
X45589694Y-96777973D01*
X45588257Y-96787966D01*
X45618565Y-96922446D01*
X45621645Y-96932275D01*
X45701770Y-97129603D01*
X45706413Y-97138794D01*
X45817694Y-97320388D01*
X45823777Y-97328699D01*
X45963213Y-97489667D01*
X45970577Y-97496879D01*
X45975522Y-97500985D01*
X46015156Y-97559889D01*
X46016653Y-97630870D01*
X45979537Y-97691392D01*
X45939264Y-97715910D01*
X45831705Y-97756232D01*
X45831704Y-97756233D01*
X45823295Y-97759385D01*
X45706739Y-97846739D01*
X45619385Y-97963295D01*
X45568255Y-98099684D01*
X45561500Y-98161866D01*
X45561500Y-99958134D01*
X40438000Y-99958134D01*
X40438000Y-96254183D01*
X45584389Y-96254183D01*
X45585912Y-96262607D01*
X45598292Y-96266000D01*
X46647885Y-96266000D01*
X46663124Y-96261525D01*
X46664329Y-96260135D01*
X46666000Y-96252452D01*
X46666000Y-96247885D01*
X47174000Y-96247885D01*
X47178475Y-96263124D01*
X47179865Y-96264329D01*
X47187548Y-96266000D01*
X48238344Y-96266000D01*
X48251875Y-96262027D01*
X48253180Y-96252947D01*
X48211214Y-96085875D01*
X48207894Y-96076124D01*
X48122972Y-95880814D01*
X48118105Y-95871739D01*
X48002426Y-95692926D01*
X47996136Y-95684757D01*
X47852806Y-95527240D01*
X47845273Y-95520215D01*
X47678139Y-95388222D01*
X47669552Y-95382517D01*
X47483117Y-95279599D01*
X47473705Y-95275369D01*
X47272959Y-95204280D01*
X47262988Y-95201646D01*
X47191837Y-95188972D01*
X47178540Y-95190432D01*
X47174000Y-95204989D01*
X47174000Y-96247885D01*
X46666000Y-96247885D01*
X46666000Y-95203102D01*
X46662082Y-95189758D01*
X46647806Y-95187771D01*
X46609324Y-95193660D01*
X46599288Y-95196051D01*
X46396868Y-95262212D01*
X46387359Y-95266209D01*
X46198463Y-95364542D01*
X46189738Y-95370036D01*
X46019433Y-95497905D01*
X46011726Y-95504748D01*
X45864590Y-95658717D01*
X45858104Y-95666727D01*
X45738098Y-95842649D01*
X45733000Y-95851623D01*
X45643338Y-96044783D01*
X45639775Y-96054470D01*
X45584389Y-96254183D01*
X40438000Y-96254183D01*
X40438000Y-94339652D01*
X59908524Y-94339652D01*
X59948512Y-94479565D01*
X60026160Y-94602631D01*
X60135228Y-94698956D01*
X60266948Y-94760799D01*
X60275810Y-94762179D01*
X60275814Y-94762180D01*
X60341315Y-94772378D01*
X60377423Y-94778000D01*
X60702257Y-94778000D01*
X60770378Y-94798002D01*
X60816871Y-94851658D01*
X60821463Y-94863184D01*
X60841026Y-94920321D01*
X60896003Y-95080895D01*
X60907572Y-95114686D01*
X60937578Y-95174346D01*
X60998733Y-95295939D01*
X61040800Y-95379581D01*
X61043226Y-95383110D01*
X61043229Y-95383116D01*
X61205713Y-95619530D01*
X61208747Y-95623945D01*
X61211634Y-95627118D01*
X61211635Y-95627119D01*
X61372023Y-95803384D01*
X61408303Y-95843255D01*
X61411598Y-95846010D01*
X61411599Y-95846011D01*
X61471768Y-95896320D01*
X61635777Y-96033452D01*
X61639418Y-96035736D01*
X61883319Y-96188736D01*
X61883323Y-96188738D01*
X61886959Y-96191019D01*
X61890869Y-96192784D01*
X61890870Y-96192785D01*
X62153289Y-96311272D01*
X62153293Y-96311274D01*
X62157201Y-96313038D01*
X62161315Y-96314256D01*
X62161324Y-96314260D01*
X62285306Y-96350984D01*
X62318786Y-96360901D01*
X62378420Y-96399426D01*
X62407760Y-96464077D01*
X62409000Y-96481712D01*
X62409000Y-96806477D01*
X62413025Y-96834583D01*
X62421436Y-96893311D01*
X62424405Y-96914045D01*
X62428119Y-96922213D01*
X62428119Y-96922214D01*
X62428294Y-96922599D01*
X62484633Y-97046510D01*
X62490495Y-97053313D01*
X62573684Y-97149859D01*
X62579619Y-97156747D01*
X62701727Y-97235893D01*
X62841141Y-97277587D01*
X62850117Y-97277642D01*
X62850118Y-97277642D01*
X62911479Y-97278017D01*
X62986652Y-97278476D01*
X63126565Y-97238488D01*
X63249631Y-97160840D01*
X63256114Y-97153500D01*
X63315385Y-97086387D01*
X63345956Y-97051772D01*
X63407799Y-96920052D01*
X63409179Y-96911190D01*
X63409180Y-96911186D01*
X63424252Y-96814380D01*
X63425000Y-96809577D01*
X63425000Y-96482228D01*
X63445002Y-96414107D01*
X63498658Y-96367614D01*
X63519025Y-96360353D01*
X63612251Y-96335895D01*
X63886192Y-96222425D01*
X63893262Y-96218294D01*
X64138502Y-96074987D01*
X64138503Y-96074987D01*
X64142200Y-96072826D01*
X64145560Y-96070192D01*
X64145568Y-96070186D01*
X64372163Y-95892512D01*
X64375535Y-95889868D01*
X64393379Y-95871455D01*
X64499751Y-95761687D01*
X64581882Y-95676934D01*
X64584415Y-95673486D01*
X64584419Y-95673481D01*
X64754883Y-95441422D01*
X64757421Y-95437967D01*
X64771937Y-95411233D01*
X64815052Y-95331824D01*
X64898905Y-95177387D01*
X65003714Y-94900016D01*
X65009244Y-94875871D01*
X65043949Y-94813935D01*
X65106629Y-94780594D01*
X65132064Y-94778000D01*
X65453477Y-94778000D01*
X65495835Y-94771934D01*
X65552159Y-94763868D01*
X65552162Y-94763867D01*
X65561045Y-94762595D01*
X65693510Y-94702367D01*
X65726880Y-94673614D01*
X65796949Y-94613239D01*
X65796951Y-94613237D01*
X65803747Y-94607381D01*
X65882893Y-94485273D01*
X65907587Y-94402703D01*
X80848343Y-94402703D01*
X80848902Y-94406947D01*
X80848902Y-94406951D01*
X80859461Y-94487155D01*
X80885868Y-94687734D01*
X80961729Y-94965036D01*
X80963413Y-94968984D01*
X81064878Y-95206863D01*
X81074523Y-95229476D01*
X81134231Y-95329241D01*
X81206523Y-95450031D01*
X81222161Y-95476161D01*
X81401913Y-95700528D01*
X81505953Y-95799258D01*
X81607055Y-95895200D01*
X81610451Y-95898423D01*
X81764151Y-96008868D01*
X81827613Y-96054470D01*
X81843917Y-96066186D01*
X81847712Y-96068195D01*
X81847713Y-96068196D01*
X81869469Y-96079715D01*
X82097992Y-96200712D01*
X82161807Y-96224065D01*
X82363317Y-96297807D01*
X82367973Y-96299511D01*
X82648864Y-96360755D01*
X82677441Y-96363004D01*
X82871882Y-96378307D01*
X82871891Y-96378307D01*
X82874339Y-96378500D01*
X83029871Y-96378500D01*
X83032007Y-96378354D01*
X83032018Y-96378354D01*
X83240148Y-96364165D01*
X83240154Y-96364164D01*
X83244425Y-96363873D01*
X83248620Y-96363004D01*
X83248622Y-96363004D01*
X83478117Y-96315478D01*
X83525942Y-96305574D01*
X83796943Y-96209607D01*
X83934887Y-96138409D01*
X84048605Y-96079715D01*
X84048606Y-96079715D01*
X84052412Y-96077750D01*
X84055913Y-96075289D01*
X84055917Y-96075287D01*
X84194079Y-95978185D01*
X84287623Y-95912441D01*
X84405558Y-95802849D01*
X84495079Y-95719661D01*
X84495081Y-95719658D01*
X84498222Y-95716740D01*
X84680313Y-95494268D01*
X84830527Y-95249142D01*
X84835559Y-95237680D01*
X84944357Y-94989830D01*
X84946083Y-94985898D01*
X84952102Y-94964770D01*
X85002739Y-94787005D01*
X85024844Y-94709406D01*
X85065351Y-94424784D01*
X85065445Y-94406951D01*
X85066835Y-94141583D01*
X85066835Y-94141576D01*
X85066857Y-94137297D01*
X85055987Y-94054727D01*
X85049790Y-94007660D01*
X85029332Y-93852266D01*
X84953471Y-93574964D01*
X84942347Y-93548885D01*
X84842363Y-93314476D01*
X84842361Y-93314472D01*
X84840677Y-93310524D01*
X84827598Y-93288670D01*
X87934160Y-93288670D01*
X87939887Y-93296320D01*
X88111042Y-93401205D01*
X88119837Y-93405687D01*
X88329988Y-93492734D01*
X88339373Y-93495783D01*
X88560554Y-93548885D01*
X88570301Y-93550428D01*
X88797070Y-93568275D01*
X88806930Y-93568275D01*
X89033699Y-93550428D01*
X89043446Y-93548885D01*
X89264627Y-93495783D01*
X89274012Y-93492734D01*
X89484163Y-93405687D01*
X89492958Y-93401205D01*
X89660445Y-93298568D01*
X89669400Y-93288670D01*
X94434160Y-93288670D01*
X94439887Y-93296320D01*
X94611042Y-93401205D01*
X94619837Y-93405687D01*
X94829988Y-93492734D01*
X94839373Y-93495783D01*
X95060554Y-93548885D01*
X95070301Y-93550428D01*
X95297070Y-93568275D01*
X95306930Y-93568275D01*
X95533699Y-93550428D01*
X95543446Y-93548885D01*
X95764627Y-93495783D01*
X95774012Y-93492734D01*
X95984163Y-93405687D01*
X95992958Y-93401205D01*
X96160445Y-93298568D01*
X96169907Y-93288110D01*
X96166124Y-93279334D01*
X95314812Y-92428022D01*
X95300868Y-92420408D01*
X95299035Y-92420539D01*
X95292420Y-92424790D01*
X94440920Y-93276290D01*
X94434160Y-93288670D01*
X89669400Y-93288670D01*
X89669907Y-93288110D01*
X89666124Y-93279334D01*
X88814812Y-92428022D01*
X88800868Y-92420408D01*
X88799035Y-92420539D01*
X88792420Y-92424790D01*
X87940920Y-93276290D01*
X87934160Y-93288670D01*
X84827598Y-93288670D01*
X84741397Y-93144639D01*
X84695243Y-93067521D01*
X84695240Y-93067517D01*
X84693039Y-93063839D01*
X84513287Y-92839472D01*
X84343465Y-92678317D01*
X84307858Y-92644527D01*
X84307855Y-92644525D01*
X84304749Y-92641577D01*
X84083548Y-92482627D01*
X84074772Y-92476321D01*
X84074771Y-92476320D01*
X84071283Y-92473814D01*
X84049443Y-92462250D01*
X83970664Y-92420539D01*
X83817208Y-92339288D01*
X83599765Y-92259715D01*
X83551258Y-92241964D01*
X83551256Y-92241963D01*
X83547227Y-92240489D01*
X83266336Y-92179245D01*
X83235285Y-92176801D01*
X83043318Y-92161693D01*
X83043309Y-92161693D01*
X83040861Y-92161500D01*
X82885329Y-92161500D01*
X82883193Y-92161646D01*
X82883182Y-92161646D01*
X82675052Y-92175835D01*
X82675046Y-92175836D01*
X82670775Y-92176127D01*
X82666580Y-92176996D01*
X82666578Y-92176996D01*
X82530017Y-92205276D01*
X82389258Y-92234426D01*
X82118257Y-92330393D01*
X81862788Y-92462250D01*
X81859287Y-92464711D01*
X81859283Y-92464713D01*
X81769218Y-92528012D01*
X81627577Y-92627559D01*
X81561437Y-92689020D01*
X81467538Y-92776277D01*
X81416978Y-92823260D01*
X81234887Y-93045732D01*
X81084673Y-93290858D01*
X81082947Y-93294791D01*
X81082946Y-93294792D01*
X81010520Y-93459783D01*
X80969117Y-93554102D01*
X80890356Y-93830594D01*
X80849849Y-94115216D01*
X80849827Y-94119505D01*
X80849826Y-94119512D01*
X80848365Y-94398417D01*
X80848343Y-94402703D01*
X65907587Y-94402703D01*
X65924587Y-94345859D01*
X65925476Y-94200348D01*
X65885488Y-94060435D01*
X65807840Y-93937369D01*
X65698772Y-93841044D01*
X65567052Y-93779201D01*
X65558190Y-93777821D01*
X65558186Y-93777820D01*
X65484019Y-93766273D01*
X65456577Y-93762000D01*
X65133183Y-93762000D01*
X65065062Y-93741998D01*
X65018569Y-93688342D01*
X65014410Y-93678060D01*
X65007250Y-93657839D01*
X64917473Y-93404318D01*
X64839202Y-93252670D01*
X68832160Y-93252670D01*
X68837887Y-93260320D01*
X69009042Y-93365205D01*
X69017837Y-93369687D01*
X69227988Y-93456734D01*
X69237373Y-93459783D01*
X69458554Y-93512885D01*
X69468301Y-93514428D01*
X69695070Y-93532275D01*
X69704930Y-93532275D01*
X69931699Y-93514428D01*
X69941446Y-93512885D01*
X70162627Y-93459783D01*
X70172012Y-93456734D01*
X70382163Y-93369687D01*
X70390958Y-93365205D01*
X70558445Y-93262568D01*
X70567400Y-93252670D01*
X75332160Y-93252670D01*
X75337887Y-93260320D01*
X75509042Y-93365205D01*
X75517837Y-93369687D01*
X75727988Y-93456734D01*
X75737373Y-93459783D01*
X75958554Y-93512885D01*
X75968301Y-93514428D01*
X76195070Y-93532275D01*
X76204930Y-93532275D01*
X76431699Y-93514428D01*
X76441446Y-93512885D01*
X76662627Y-93459783D01*
X76672012Y-93456734D01*
X76882163Y-93369687D01*
X76890958Y-93365205D01*
X77058445Y-93262568D01*
X77067907Y-93252110D01*
X77064124Y-93243334D01*
X76212812Y-92392022D01*
X76198868Y-92384408D01*
X76197035Y-92384539D01*
X76190420Y-92388790D01*
X75338920Y-93240290D01*
X75332160Y-93252670D01*
X70567400Y-93252670D01*
X70567907Y-93252110D01*
X70564124Y-93243334D01*
X69712812Y-92392022D01*
X69698868Y-92384408D01*
X69697035Y-92384539D01*
X69690420Y-92388790D01*
X68838920Y-93240290D01*
X68832160Y-93252670D01*
X64839202Y-93252670D01*
X64781478Y-93140832D01*
X64770474Y-93125174D01*
X64628973Y-92923840D01*
X64610982Y-92898241D01*
X64493743Y-92772077D01*
X64412061Y-92684176D01*
X64412058Y-92684173D01*
X64409140Y-92681033D01*
X64179686Y-92493228D01*
X63926868Y-92338300D01*
X63655363Y-92219118D01*
X63516479Y-92179556D01*
X63456447Y-92141659D01*
X63426432Y-92077319D01*
X63425000Y-92058378D01*
X63425000Y-92024930D01*
X68187725Y-92024930D01*
X68205572Y-92251699D01*
X68207115Y-92261446D01*
X68260217Y-92482627D01*
X68263266Y-92492012D01*
X68350313Y-92702163D01*
X68354795Y-92710958D01*
X68457432Y-92878445D01*
X68467890Y-92887907D01*
X68476666Y-92884124D01*
X69327978Y-92032812D01*
X69334356Y-92021132D01*
X70064408Y-92021132D01*
X70064539Y-92022965D01*
X70068790Y-92029580D01*
X70920290Y-92881080D01*
X70932670Y-92887840D01*
X70940320Y-92882113D01*
X71045205Y-92710958D01*
X71049687Y-92702163D01*
X71136734Y-92492012D01*
X71139783Y-92482627D01*
X71192885Y-92261446D01*
X71194428Y-92251699D01*
X71212275Y-92024930D01*
X74687725Y-92024930D01*
X74705572Y-92251699D01*
X74707115Y-92261446D01*
X74760217Y-92482627D01*
X74763266Y-92492012D01*
X74850313Y-92702163D01*
X74854795Y-92710958D01*
X74957432Y-92878445D01*
X74967890Y-92887907D01*
X74976666Y-92884124D01*
X75827978Y-92032812D01*
X75834356Y-92021132D01*
X76564408Y-92021132D01*
X76564539Y-92022965D01*
X76568790Y-92029580D01*
X77420290Y-92881080D01*
X77432670Y-92887840D01*
X77440320Y-92882113D01*
X77545205Y-92710958D01*
X77549687Y-92702163D01*
X77636734Y-92492012D01*
X77639783Y-92482627D01*
X77692885Y-92261446D01*
X77694428Y-92251699D01*
X77709442Y-92060930D01*
X87289725Y-92060930D01*
X87307572Y-92287699D01*
X87309115Y-92297446D01*
X87362217Y-92518627D01*
X87365266Y-92528012D01*
X87452313Y-92738163D01*
X87456795Y-92746958D01*
X87559432Y-92914445D01*
X87569890Y-92923907D01*
X87578666Y-92920124D01*
X88429978Y-92068812D01*
X88436356Y-92057132D01*
X89166408Y-92057132D01*
X89166539Y-92058965D01*
X89170790Y-92065580D01*
X90022290Y-92917080D01*
X90034670Y-92923840D01*
X90042320Y-92918113D01*
X90147205Y-92746958D01*
X90151687Y-92738163D01*
X90238734Y-92528012D01*
X90241783Y-92518627D01*
X90294885Y-92297446D01*
X90296428Y-92287699D01*
X90314275Y-92060930D01*
X93789725Y-92060930D01*
X93807572Y-92287699D01*
X93809115Y-92297446D01*
X93862217Y-92518627D01*
X93865266Y-92528012D01*
X93952313Y-92738163D01*
X93956795Y-92746958D01*
X94059432Y-92914445D01*
X94069890Y-92923907D01*
X94078666Y-92920124D01*
X94929978Y-92068812D01*
X94936356Y-92057132D01*
X95666408Y-92057132D01*
X95666539Y-92058965D01*
X95670790Y-92065580D01*
X96522290Y-92917080D01*
X96534670Y-92923840D01*
X96542320Y-92918113D01*
X96647205Y-92746958D01*
X96651687Y-92738163D01*
X96738734Y-92528012D01*
X96741783Y-92518627D01*
X96794885Y-92297446D01*
X96796428Y-92287699D01*
X96814275Y-92060930D01*
X96814275Y-92051070D01*
X96796428Y-91824301D01*
X96794885Y-91814554D01*
X96741783Y-91593373D01*
X96738734Y-91583988D01*
X96651687Y-91373837D01*
X96647205Y-91365042D01*
X96544568Y-91197555D01*
X96534110Y-91188093D01*
X96525334Y-91191876D01*
X95674022Y-92043188D01*
X95666408Y-92057132D01*
X94936356Y-92057132D01*
X94937592Y-92054868D01*
X94937461Y-92053035D01*
X94933210Y-92046420D01*
X94081710Y-91194920D01*
X94069330Y-91188160D01*
X94061680Y-91193887D01*
X93956795Y-91365042D01*
X93952313Y-91373837D01*
X93865266Y-91583988D01*
X93862217Y-91593373D01*
X93809115Y-91814554D01*
X93807572Y-91824301D01*
X93789725Y-92051070D01*
X93789725Y-92060930D01*
X90314275Y-92060930D01*
X90314275Y-92051070D01*
X90296428Y-91824301D01*
X90294885Y-91814554D01*
X90241783Y-91593373D01*
X90238734Y-91583988D01*
X90151687Y-91373837D01*
X90147205Y-91365042D01*
X90044568Y-91197555D01*
X90034110Y-91188093D01*
X90025334Y-91191876D01*
X89174022Y-92043188D01*
X89166408Y-92057132D01*
X88436356Y-92057132D01*
X88437592Y-92054868D01*
X88437461Y-92053035D01*
X88433210Y-92046420D01*
X87581710Y-91194920D01*
X87569330Y-91188160D01*
X87561680Y-91193887D01*
X87456795Y-91365042D01*
X87452313Y-91373837D01*
X87365266Y-91583988D01*
X87362217Y-91593373D01*
X87309115Y-91814554D01*
X87307572Y-91824301D01*
X87289725Y-92051070D01*
X87289725Y-92060930D01*
X77709442Y-92060930D01*
X77712275Y-92024930D01*
X77712275Y-92015070D01*
X77694428Y-91788301D01*
X77692885Y-91778554D01*
X77639783Y-91557373D01*
X77636734Y-91547988D01*
X77549687Y-91337837D01*
X77545205Y-91329042D01*
X77442568Y-91161555D01*
X77432110Y-91152093D01*
X77423334Y-91155876D01*
X76572022Y-92007188D01*
X76564408Y-92021132D01*
X75834356Y-92021132D01*
X75835592Y-92018868D01*
X75835461Y-92017035D01*
X75831210Y-92010420D01*
X74979710Y-91158920D01*
X74967330Y-91152160D01*
X74959680Y-91157887D01*
X74854795Y-91329042D01*
X74850313Y-91337837D01*
X74763266Y-91547988D01*
X74760217Y-91557373D01*
X74707115Y-91778554D01*
X74705572Y-91788301D01*
X74687725Y-92015070D01*
X74687725Y-92024930D01*
X71212275Y-92024930D01*
X71212275Y-92015070D01*
X71194428Y-91788301D01*
X71192885Y-91778554D01*
X71139783Y-91557373D01*
X71136734Y-91547988D01*
X71049687Y-91337837D01*
X71045205Y-91329042D01*
X70942568Y-91161555D01*
X70932110Y-91152093D01*
X70923334Y-91155876D01*
X70072022Y-92007188D01*
X70064408Y-92021132D01*
X69334356Y-92021132D01*
X69335592Y-92018868D01*
X69335461Y-92017035D01*
X69331210Y-92010420D01*
X68479710Y-91158920D01*
X68467330Y-91152160D01*
X68459680Y-91157887D01*
X68354795Y-91329042D01*
X68350313Y-91337837D01*
X68263266Y-91547988D01*
X68260217Y-91557373D01*
X68207115Y-91778554D01*
X68205572Y-91788301D01*
X68187725Y-92015070D01*
X68187725Y-92024930D01*
X63425000Y-92024930D01*
X63425000Y-91733523D01*
X63417905Y-91683978D01*
X63410868Y-91634841D01*
X63410867Y-91634838D01*
X63409595Y-91625955D01*
X63349367Y-91493490D01*
X63269996Y-91401375D01*
X63260239Y-91390051D01*
X63260237Y-91390049D01*
X63254381Y-91383253D01*
X63132273Y-91304107D01*
X62992859Y-91262413D01*
X62983883Y-91262358D01*
X62983882Y-91262358D01*
X62922521Y-91261983D01*
X62847348Y-91261524D01*
X62707435Y-91301512D01*
X62584369Y-91379160D01*
X62488044Y-91488228D01*
X62426201Y-91619948D01*
X62424821Y-91628810D01*
X62424820Y-91628814D01*
X62415728Y-91687210D01*
X62409000Y-91730423D01*
X62409000Y-92058205D01*
X62388998Y-92126326D01*
X62335342Y-92172819D01*
X62316247Y-92179739D01*
X62204297Y-92210364D01*
X62204289Y-92210367D01*
X62200154Y-92211498D01*
X62196206Y-92213182D01*
X61931368Y-92326145D01*
X61931364Y-92326147D01*
X61927416Y-92327831D01*
X61832664Y-92384539D01*
X61676671Y-92477898D01*
X61676667Y-92477901D01*
X61672989Y-92480102D01*
X61669646Y-92482780D01*
X61669642Y-92482783D01*
X61624902Y-92518627D01*
X61441582Y-92665495D01*
X61438638Y-92668597D01*
X61438634Y-92668601D01*
X61406785Y-92702163D01*
X61237476Y-92880577D01*
X61064449Y-93121370D01*
X60925702Y-93383417D01*
X60924227Y-93387448D01*
X60865150Y-93548885D01*
X60823803Y-93661870D01*
X60822889Y-93666062D01*
X60821692Y-93670182D01*
X60819870Y-93669653D01*
X60789530Y-93725144D01*
X60727199Y-93759135D01*
X60700483Y-93762000D01*
X60380523Y-93762000D01*
X60338165Y-93768066D01*
X60281841Y-93776132D01*
X60281838Y-93776133D01*
X60272955Y-93777405D01*
X60140490Y-93837633D01*
X60133687Y-93843495D01*
X60037051Y-93926761D01*
X60037049Y-93926763D01*
X60030253Y-93932619D01*
X59951107Y-94054727D01*
X59909413Y-94194141D01*
X59908524Y-94339652D01*
X40438000Y-94339652D01*
X40438000Y-93252670D01*
X49707160Y-93252670D01*
X49712887Y-93260320D01*
X49884042Y-93365205D01*
X49892837Y-93369687D01*
X50102988Y-93456734D01*
X50112373Y-93459783D01*
X50333554Y-93512885D01*
X50343301Y-93514428D01*
X50570070Y-93532275D01*
X50579930Y-93532275D01*
X50806699Y-93514428D01*
X50816446Y-93512885D01*
X51037627Y-93459783D01*
X51047012Y-93456734D01*
X51257163Y-93369687D01*
X51265958Y-93365205D01*
X51433445Y-93262568D01*
X51442400Y-93252670D01*
X56207160Y-93252670D01*
X56212887Y-93260320D01*
X56384042Y-93365205D01*
X56392837Y-93369687D01*
X56602988Y-93456734D01*
X56612373Y-93459783D01*
X56833554Y-93512885D01*
X56843301Y-93514428D01*
X57070070Y-93532275D01*
X57079930Y-93532275D01*
X57306699Y-93514428D01*
X57316446Y-93512885D01*
X57537627Y-93459783D01*
X57547012Y-93456734D01*
X57757163Y-93369687D01*
X57765958Y-93365205D01*
X57933445Y-93262568D01*
X57942907Y-93252110D01*
X57939124Y-93243334D01*
X57087812Y-92392022D01*
X57073868Y-92384408D01*
X57072035Y-92384539D01*
X57065420Y-92388790D01*
X56213920Y-93240290D01*
X56207160Y-93252670D01*
X51442400Y-93252670D01*
X51442907Y-93252110D01*
X51439124Y-93243334D01*
X50587812Y-92392022D01*
X50573868Y-92384408D01*
X50572035Y-92384539D01*
X50565420Y-92388790D01*
X49713920Y-93240290D01*
X49707160Y-93252670D01*
X40438000Y-93252670D01*
X40438000Y-92024930D01*
X49062725Y-92024930D01*
X49080572Y-92251699D01*
X49082115Y-92261446D01*
X49135217Y-92482627D01*
X49138266Y-92492012D01*
X49225313Y-92702163D01*
X49229795Y-92710958D01*
X49332432Y-92878445D01*
X49342890Y-92887907D01*
X49351666Y-92884124D01*
X50202978Y-92032812D01*
X50209356Y-92021132D01*
X50939408Y-92021132D01*
X50939539Y-92022965D01*
X50943790Y-92029580D01*
X51795290Y-92881080D01*
X51807670Y-92887840D01*
X51815320Y-92882113D01*
X51920205Y-92710958D01*
X51924687Y-92702163D01*
X52011734Y-92492012D01*
X52014783Y-92482627D01*
X52067885Y-92261446D01*
X52069428Y-92251699D01*
X52087275Y-92024930D01*
X55562725Y-92024930D01*
X55580572Y-92251699D01*
X55582115Y-92261446D01*
X55635217Y-92482627D01*
X55638266Y-92492012D01*
X55725313Y-92702163D01*
X55729795Y-92710958D01*
X55832432Y-92878445D01*
X55842890Y-92887907D01*
X55851666Y-92884124D01*
X56702978Y-92032812D01*
X56709356Y-92021132D01*
X57439408Y-92021132D01*
X57439539Y-92022965D01*
X57443790Y-92029580D01*
X58295290Y-92881080D01*
X58307670Y-92887840D01*
X58315320Y-92882113D01*
X58420205Y-92710958D01*
X58424687Y-92702163D01*
X58511734Y-92492012D01*
X58514783Y-92482627D01*
X58567885Y-92261446D01*
X58569428Y-92251699D01*
X58587275Y-92024930D01*
X58587275Y-92015070D01*
X58569428Y-91788301D01*
X58567885Y-91778554D01*
X58514783Y-91557373D01*
X58511734Y-91547988D01*
X58424687Y-91337837D01*
X58420205Y-91329042D01*
X58317568Y-91161555D01*
X58307110Y-91152093D01*
X58298334Y-91155876D01*
X57447022Y-92007188D01*
X57439408Y-92021132D01*
X56709356Y-92021132D01*
X56710592Y-92018868D01*
X56710461Y-92017035D01*
X56706210Y-92010420D01*
X55854710Y-91158920D01*
X55842330Y-91152160D01*
X55834680Y-91157887D01*
X55729795Y-91329042D01*
X55725313Y-91337837D01*
X55638266Y-91547988D01*
X55635217Y-91557373D01*
X55582115Y-91778554D01*
X55580572Y-91788301D01*
X55562725Y-92015070D01*
X55562725Y-92024930D01*
X52087275Y-92024930D01*
X52087275Y-92015070D01*
X52069428Y-91788301D01*
X52067885Y-91778554D01*
X52014783Y-91557373D01*
X52011734Y-91547988D01*
X51924687Y-91337837D01*
X51920205Y-91329042D01*
X51817568Y-91161555D01*
X51807110Y-91152093D01*
X51798334Y-91155876D01*
X50947022Y-92007188D01*
X50939408Y-92021132D01*
X50209356Y-92021132D01*
X50210592Y-92018868D01*
X50210461Y-92017035D01*
X50206210Y-92010420D01*
X49354710Y-91158920D01*
X49342330Y-91152160D01*
X49334680Y-91157887D01*
X49229795Y-91329042D01*
X49225313Y-91337837D01*
X49138266Y-91547988D01*
X49135217Y-91557373D01*
X49082115Y-91778554D01*
X49080572Y-91788301D01*
X49062725Y-92015070D01*
X49062725Y-92024930D01*
X40438000Y-92024930D01*
X40438000Y-90787890D01*
X49707093Y-90787890D01*
X49710876Y-90796666D01*
X50562188Y-91647978D01*
X50576132Y-91655592D01*
X50577965Y-91655461D01*
X50584580Y-91651210D01*
X51436080Y-90799710D01*
X51442534Y-90787890D01*
X56207093Y-90787890D01*
X56210876Y-90796666D01*
X57062188Y-91647978D01*
X57076132Y-91655592D01*
X57077965Y-91655461D01*
X57084580Y-91651210D01*
X57936080Y-90799710D01*
X57942534Y-90787890D01*
X68832093Y-90787890D01*
X68835876Y-90796666D01*
X69687188Y-91647978D01*
X69701132Y-91655592D01*
X69702965Y-91655461D01*
X69709580Y-91651210D01*
X70561080Y-90799710D01*
X70567534Y-90787890D01*
X75332093Y-90787890D01*
X75335876Y-90796666D01*
X76187188Y-91647978D01*
X76201132Y-91655592D01*
X76202965Y-91655461D01*
X76209580Y-91651210D01*
X77036900Y-90823890D01*
X87934093Y-90823890D01*
X87937876Y-90832666D01*
X88789188Y-91683978D01*
X88803132Y-91691592D01*
X88804965Y-91691461D01*
X88811580Y-91687210D01*
X89663080Y-90835710D01*
X89669534Y-90823890D01*
X94434093Y-90823890D01*
X94437876Y-90832666D01*
X95289188Y-91683978D01*
X95303132Y-91691592D01*
X95304965Y-91691461D01*
X95311580Y-91687210D01*
X96163080Y-90835710D01*
X96169840Y-90823330D01*
X96164113Y-90815680D01*
X95992958Y-90710795D01*
X95984163Y-90706313D01*
X95774012Y-90619266D01*
X95764627Y-90616217D01*
X95543446Y-90563115D01*
X95533699Y-90561572D01*
X95306930Y-90543725D01*
X95297070Y-90543725D01*
X95070301Y-90561572D01*
X95060554Y-90563115D01*
X94839373Y-90616217D01*
X94829988Y-90619266D01*
X94619837Y-90706313D01*
X94611042Y-90710795D01*
X94443555Y-90813432D01*
X94434093Y-90823890D01*
X89669534Y-90823890D01*
X89669840Y-90823330D01*
X89664113Y-90815680D01*
X89492958Y-90710795D01*
X89484163Y-90706313D01*
X89274012Y-90619266D01*
X89264627Y-90616217D01*
X89043446Y-90563115D01*
X89033699Y-90561572D01*
X88806930Y-90543725D01*
X88797070Y-90543725D01*
X88570301Y-90561572D01*
X88560554Y-90563115D01*
X88339373Y-90616217D01*
X88329988Y-90619266D01*
X88119837Y-90706313D01*
X88111042Y-90710795D01*
X87943555Y-90813432D01*
X87934093Y-90823890D01*
X77036900Y-90823890D01*
X77061080Y-90799710D01*
X77067840Y-90787330D01*
X77062113Y-90779680D01*
X76890958Y-90674795D01*
X76882163Y-90670313D01*
X76672012Y-90583266D01*
X76662627Y-90580217D01*
X76441446Y-90527115D01*
X76431699Y-90525572D01*
X76204930Y-90507725D01*
X76195070Y-90507725D01*
X75968301Y-90525572D01*
X75958554Y-90527115D01*
X75737373Y-90580217D01*
X75727988Y-90583266D01*
X75517837Y-90670313D01*
X75509042Y-90674795D01*
X75341555Y-90777432D01*
X75332093Y-90787890D01*
X70567534Y-90787890D01*
X70567840Y-90787330D01*
X70562113Y-90779680D01*
X70390958Y-90674795D01*
X70382163Y-90670313D01*
X70172012Y-90583266D01*
X70162627Y-90580217D01*
X69941446Y-90527115D01*
X69931699Y-90525572D01*
X69704930Y-90507725D01*
X69695070Y-90507725D01*
X69468301Y-90525572D01*
X69458554Y-90527115D01*
X69237373Y-90580217D01*
X69227988Y-90583266D01*
X69017837Y-90670313D01*
X69009042Y-90674795D01*
X68841555Y-90777432D01*
X68832093Y-90787890D01*
X57942534Y-90787890D01*
X57942840Y-90787330D01*
X57937113Y-90779680D01*
X57765958Y-90674795D01*
X57757163Y-90670313D01*
X57547012Y-90583266D01*
X57537627Y-90580217D01*
X57316446Y-90527115D01*
X57306699Y-90525572D01*
X57079930Y-90507725D01*
X57070070Y-90507725D01*
X56843301Y-90525572D01*
X56833554Y-90527115D01*
X56612373Y-90580217D01*
X56602988Y-90583266D01*
X56392837Y-90670313D01*
X56384042Y-90674795D01*
X56216555Y-90777432D01*
X56207093Y-90787890D01*
X51442534Y-90787890D01*
X51442840Y-90787330D01*
X51437113Y-90779680D01*
X51265958Y-90674795D01*
X51257163Y-90670313D01*
X51047012Y-90583266D01*
X51037627Y-90580217D01*
X50816446Y-90527115D01*
X50806699Y-90525572D01*
X50579930Y-90507725D01*
X50570070Y-90507725D01*
X50343301Y-90525572D01*
X50333554Y-90527115D01*
X50112373Y-90580217D01*
X50102988Y-90583266D01*
X49892837Y-90670313D01*
X49884042Y-90674795D01*
X49716555Y-90777432D01*
X49707093Y-90787890D01*
X40438000Y-90787890D01*
X40438000Y-89257885D01*
X97772000Y-89257885D01*
X97776475Y-89273124D01*
X97777865Y-89274329D01*
X97785548Y-89276000D01*
X98857885Y-89276000D01*
X98873124Y-89271525D01*
X98874329Y-89270135D01*
X98876000Y-89262452D01*
X98876000Y-89257885D01*
X99384000Y-89257885D01*
X99388475Y-89273124D01*
X99389865Y-89274329D01*
X99397548Y-89276000D01*
X100469884Y-89276000D01*
X100485123Y-89271525D01*
X100486328Y-89270135D01*
X100487999Y-89262452D01*
X100487999Y-88635331D01*
X100487629Y-88628510D01*
X100482105Y-88577648D01*
X100478479Y-88562396D01*
X100433324Y-88441946D01*
X100424786Y-88426351D01*
X100348285Y-88324276D01*
X100335724Y-88311715D01*
X100233649Y-88235214D01*
X100218054Y-88226676D01*
X100097606Y-88181522D01*
X100082351Y-88177895D01*
X100031486Y-88172369D01*
X100024672Y-88172000D01*
X99402115Y-88172000D01*
X99386876Y-88176475D01*
X99385671Y-88177865D01*
X99384000Y-88185548D01*
X99384000Y-89257885D01*
X98876000Y-89257885D01*
X98876000Y-88190116D01*
X98871525Y-88174877D01*
X98870135Y-88173672D01*
X98862452Y-88172001D01*
X98235331Y-88172001D01*
X98228510Y-88172371D01*
X98177648Y-88177895D01*
X98162396Y-88181521D01*
X98041946Y-88226676D01*
X98026351Y-88235214D01*
X97924276Y-88311715D01*
X97911715Y-88324276D01*
X97835214Y-88426351D01*
X97826676Y-88441946D01*
X97781522Y-88562394D01*
X97777895Y-88577649D01*
X97772369Y-88628514D01*
X97772000Y-88635328D01*
X97772000Y-89257885D01*
X40438000Y-89257885D01*
X40438000Y-84744000D01*
X40458002Y-84675879D01*
X40511658Y-84629386D01*
X40564000Y-84618000D01*
X105336000Y-84618000D01*
X105404121Y-84638002D01*
G37*
%TD.AperFunction*%
%TD*%
M02*
