%TF.GenerationSoftware,KiCad,Pcbnew,6.0.0*%
%TF.CreationDate,2022-01-08T01:51:50+01:00*%
%TF.ProjectId,sonars,736f6e61-7273-42e6-9b69-6361645f7063,0.1.0*%
%TF.SameCoordinates,Original*%
%TF.FileFunction,Legend,Top*%
%TF.FilePolarity,Positive*%
%FSLAX46Y46*%
G04 Gerber Fmt 4.6, Leading zero omitted, Abs format (unit mm)*
G04 Created by KiCad (PCBNEW 6.0.0) date 2022-01-08 01:51:50*
%MOMM*%
%LPD*%
G01*
G04 APERTURE LIST*
%TA.AperFunction,Profile*%
%ADD10C,0.100000*%
%TD*%
%ADD11C,0.150000*%
%ADD12C,0.120000*%
%ADD13C,0.010000*%
G04 APERTURE END LIST*
D10*
X57140000Y-69850000D02*
X92710000Y-69850000D01*
X92710000Y-69850000D02*
X92710000Y-113665000D01*
X92710000Y-113665000D02*
X57140000Y-113665000D01*
X57140000Y-113665000D02*
X57140000Y-69850000D01*
D11*
%TO.C,U1*%
X77978095Y-88352380D02*
X77978095Y-89161904D01*
X78025714Y-89257142D01*
X78073333Y-89304761D01*
X78168571Y-89352380D01*
X78359047Y-89352380D01*
X78454285Y-89304761D01*
X78501904Y-89257142D01*
X78549523Y-89161904D01*
X78549523Y-88352380D01*
X79549523Y-89352380D02*
X78978095Y-89352380D01*
X79263809Y-89352380D02*
X79263809Y-88352380D01*
X79168571Y-88495238D01*
X79073333Y-88590476D01*
X78978095Y-88638095D01*
%TO.C,SW1*%
X63904761Y-78803333D02*
X63952380Y-78660476D01*
X63952380Y-78422380D01*
X63904761Y-78327142D01*
X63857142Y-78279523D01*
X63761904Y-78231904D01*
X63666666Y-78231904D01*
X63571428Y-78279523D01*
X63523809Y-78327142D01*
X63476190Y-78422380D01*
X63428571Y-78612857D01*
X63380952Y-78708095D01*
X63333333Y-78755714D01*
X63238095Y-78803333D01*
X63142857Y-78803333D01*
X63047619Y-78755714D01*
X63000000Y-78708095D01*
X62952380Y-78612857D01*
X62952380Y-78374761D01*
X63000000Y-78231904D01*
X62952380Y-77898571D02*
X63952380Y-77660476D01*
X63238095Y-77470000D01*
X63952380Y-77279523D01*
X62952380Y-77041428D01*
X63952380Y-76136666D02*
X63952380Y-76708095D01*
X63952380Y-76422380D02*
X62952380Y-76422380D01*
X63095238Y-76517619D01*
X63190476Y-76612857D01*
X63238095Y-76708095D01*
%TO.C,R1*%
X65222380Y-87796666D02*
X64746190Y-88130000D01*
X65222380Y-88368095D02*
X64222380Y-88368095D01*
X64222380Y-87987142D01*
X64270000Y-87891904D01*
X64317619Y-87844285D01*
X64412857Y-87796666D01*
X64555714Y-87796666D01*
X64650952Y-87844285D01*
X64698571Y-87891904D01*
X64746190Y-87987142D01*
X64746190Y-88368095D01*
X65222380Y-86844285D02*
X65222380Y-87415714D01*
X65222380Y-87130000D02*
X64222380Y-87130000D01*
X64365238Y-87225238D01*
X64460476Y-87320476D01*
X64508095Y-87415714D01*
%TO.C,C4*%
X60387142Y-97956666D02*
X60434761Y-98004285D01*
X60482380Y-98147142D01*
X60482380Y-98242380D01*
X60434761Y-98385238D01*
X60339523Y-98480476D01*
X60244285Y-98528095D01*
X60053809Y-98575714D01*
X59910952Y-98575714D01*
X59720476Y-98528095D01*
X59625238Y-98480476D01*
X59530000Y-98385238D01*
X59482380Y-98242380D01*
X59482380Y-98147142D01*
X59530000Y-98004285D01*
X59577619Y-97956666D01*
X59815714Y-97099523D02*
X60482380Y-97099523D01*
X59434761Y-97337619D02*
X60149047Y-97575714D01*
X60149047Y-96956666D01*
%TO.C,J2*%
X78416666Y-107656380D02*
X78416666Y-108370666D01*
X78369047Y-108513523D01*
X78273809Y-108608761D01*
X78130952Y-108656380D01*
X78035714Y-108656380D01*
X78845238Y-107751619D02*
X78892857Y-107704000D01*
X78988095Y-107656380D01*
X79226190Y-107656380D01*
X79321428Y-107704000D01*
X79369047Y-107751619D01*
X79416666Y-107846857D01*
X79416666Y-107942095D01*
X79369047Y-108084952D01*
X78797619Y-108656380D01*
X79416666Y-108656380D01*
%TO.C,C3*%
X60527142Y-87796666D02*
X60574761Y-87844285D01*
X60622380Y-87987142D01*
X60622380Y-88082380D01*
X60574761Y-88225238D01*
X60479523Y-88320476D01*
X60384285Y-88368095D01*
X60193809Y-88415714D01*
X60050952Y-88415714D01*
X59860476Y-88368095D01*
X59765238Y-88320476D01*
X59670000Y-88225238D01*
X59622380Y-88082380D01*
X59622380Y-87987142D01*
X59670000Y-87844285D01*
X59717619Y-87796666D01*
X59622380Y-87463333D02*
X59622380Y-86844285D01*
X60003333Y-87177619D01*
X60003333Y-87034761D01*
X60050952Y-86939523D01*
X60098571Y-86891904D01*
X60193809Y-86844285D01*
X60431904Y-86844285D01*
X60527142Y-86891904D01*
X60574761Y-86939523D01*
X60622380Y-87034761D01*
X60622380Y-87320476D01*
X60574761Y-87415714D01*
X60527142Y-87463333D01*
%TO.C,C2*%
X70953333Y-85447142D02*
X70905714Y-85494761D01*
X70762857Y-85542380D01*
X70667619Y-85542380D01*
X70524761Y-85494761D01*
X70429523Y-85399523D01*
X70381904Y-85304285D01*
X70334285Y-85113809D01*
X70334285Y-84970952D01*
X70381904Y-84780476D01*
X70429523Y-84685238D01*
X70524761Y-84590000D01*
X70667619Y-84542380D01*
X70762857Y-84542380D01*
X70905714Y-84590000D01*
X70953333Y-84637619D01*
X71334285Y-84637619D02*
X71381904Y-84590000D01*
X71477142Y-84542380D01*
X71715238Y-84542380D01*
X71810476Y-84590000D01*
X71858095Y-84637619D01*
X71905714Y-84732857D01*
X71905714Y-84828095D01*
X71858095Y-84970952D01*
X71286666Y-85542380D01*
X71905714Y-85542380D01*
%TO.C,J3*%
X88352380Y-98123333D02*
X89066666Y-98123333D01*
X89209523Y-98170952D01*
X89304761Y-98266190D01*
X89352380Y-98409047D01*
X89352380Y-98504285D01*
X88352380Y-97742380D02*
X88352380Y-97123333D01*
X88733333Y-97456666D01*
X88733333Y-97313809D01*
X88780952Y-97218571D01*
X88828571Y-97170952D01*
X88923809Y-97123333D01*
X89161904Y-97123333D01*
X89257142Y-97170952D01*
X89304761Y-97218571D01*
X89352380Y-97313809D01*
X89352380Y-97599523D01*
X89304761Y-97694761D01*
X89257142Y-97742380D01*
%TO.C,Y1*%
X66301190Y-100906190D02*
X66777380Y-100906190D01*
X65777380Y-101239523D02*
X66301190Y-100906190D01*
X65777380Y-100572857D01*
X66777380Y-99715714D02*
X66777380Y-100287142D01*
X66777380Y-100001428D02*
X65777380Y-100001428D01*
X65920238Y-100096666D01*
X66015476Y-100191904D01*
X66063095Y-100287142D01*
%TO.C,C1*%
X89257142Y-87796666D02*
X89304761Y-87844285D01*
X89352380Y-87987142D01*
X89352380Y-88082380D01*
X89304761Y-88225238D01*
X89209523Y-88320476D01*
X89114285Y-88368095D01*
X88923809Y-88415714D01*
X88780952Y-88415714D01*
X88590476Y-88368095D01*
X88495238Y-88320476D01*
X88400000Y-88225238D01*
X88352380Y-88082380D01*
X88352380Y-87987142D01*
X88400000Y-87844285D01*
X88447619Y-87796666D01*
X89352380Y-86844285D02*
X89352380Y-87415714D01*
X89352380Y-87130000D02*
X88352380Y-87130000D01*
X88495238Y-87225238D01*
X88590476Y-87320476D01*
X88638095Y-87415714D01*
%TO.C,J1*%
X87931666Y-82002380D02*
X87931666Y-82716666D01*
X87884047Y-82859523D01*
X87788809Y-82954761D01*
X87645952Y-83002380D01*
X87550714Y-83002380D01*
X88931666Y-83002380D02*
X88360238Y-83002380D01*
X88645952Y-83002380D02*
X88645952Y-82002380D01*
X88550714Y-82145238D01*
X88455476Y-82240476D01*
X88360238Y-82288095D01*
D12*
%TO.C,U1*%
X77740000Y-71070000D02*
G75*
G03*
X79740000Y-71070000I1000000J0D01*
G01*
X77740000Y-71070000D02*
X76090000Y-71070000D01*
X76090000Y-71070000D02*
X76090000Y-106750000D01*
X76090000Y-106750000D02*
X81390000Y-106750000D01*
X81390000Y-106750000D02*
X81390000Y-71070000D01*
X81390000Y-71070000D02*
X79740000Y-71070000D01*
X73600000Y-71010000D02*
X73600000Y-106810000D01*
X73600000Y-106810000D02*
X83880000Y-106810000D01*
X83880000Y-106810000D02*
X83880000Y-71010000D01*
X83880000Y-71010000D02*
X73600000Y-71010000D01*
%TO.C,SW1*%
X67820000Y-78990000D02*
X69320000Y-78990000D01*
X71820000Y-77740000D02*
X71820000Y-73240000D01*
X69320000Y-71990000D02*
X67820000Y-71990000D01*
X65320000Y-73240000D02*
X65320000Y-77740000D01*
%TO.C,R1*%
X65940000Y-84360000D02*
X65940000Y-90900000D01*
X67310000Y-91670000D02*
X67310000Y-90900000D01*
X65940000Y-90900000D02*
X68680000Y-90900000D01*
X67310000Y-83590000D02*
X67310000Y-84360000D01*
X68680000Y-90900000D02*
X68680000Y-84360000D01*
X68680000Y-84360000D02*
X65940000Y-84360000D01*
%TO.C,C4*%
X63285000Y-95520000D02*
X63300000Y-95520000D01*
X61160000Y-95520000D02*
X61175000Y-95520000D01*
X61160000Y-100060000D02*
X61160000Y-95520000D01*
X63300000Y-100060000D02*
X63300000Y-95520000D01*
X61160000Y-100060000D02*
X61175000Y-100060000D01*
X63285000Y-100060000D02*
X63300000Y-100060000D01*
%TO.C,J2*%
X81280000Y-109160000D02*
X73600000Y-109160000D01*
X83880000Y-109160000D02*
X83880000Y-110490000D01*
X73600000Y-109160000D02*
X73600000Y-111820000D01*
X81280000Y-111820000D02*
X73600000Y-111820000D01*
X81280000Y-109160000D02*
X81280000Y-111820000D01*
X82550000Y-109160000D02*
X83880000Y-109160000D01*
%TO.C,C3*%
X63300000Y-89900000D02*
X63300000Y-85360000D01*
X61160000Y-89900000D02*
X61175000Y-89900000D01*
X63285000Y-89900000D02*
X63300000Y-89900000D01*
X61160000Y-85360000D02*
X61175000Y-85360000D01*
X61160000Y-89900000D02*
X61160000Y-85360000D01*
X63285000Y-85360000D02*
X63300000Y-85360000D01*
%TO.C,C2*%
X70065000Y-87900000D02*
X70050000Y-87900000D01*
X72190000Y-92440000D02*
X72175000Y-92440000D01*
X70065000Y-92440000D02*
X70050000Y-92440000D01*
X72190000Y-87900000D02*
X72175000Y-87900000D01*
X72190000Y-87900000D02*
X72190000Y-92440000D01*
X70050000Y-87900000D02*
X70050000Y-92440000D01*
%TO.C,J3*%
X85030000Y-93980000D02*
X85030000Y-92650000D01*
X87690000Y-95250000D02*
X87690000Y-102930000D01*
X85030000Y-95250000D02*
X87690000Y-95250000D01*
X85030000Y-95250000D02*
X85030000Y-102930000D01*
X85030000Y-102930000D02*
X87690000Y-102930000D01*
X85030000Y-92650000D02*
X86360000Y-92650000D01*
%TO.C,Y1*%
X72375000Y-103630000D02*
X72375000Y-97230000D01*
X67325000Y-103630000D02*
X67325000Y-97230000D01*
X72375000Y-97230000D02*
G75*
G03*
X67325000Y-97230000I-2525000J0D01*
G01*
X67325000Y-103630000D02*
G75*
G03*
X72375000Y-103630000I2525000J0D01*
G01*
%TO.C,C1*%
X85280000Y-89900000D02*
X85295000Y-89900000D01*
X87420000Y-89900000D02*
X87420000Y-85360000D01*
X87405000Y-85360000D02*
X87420000Y-85360000D01*
X85280000Y-89900000D02*
X85280000Y-85360000D01*
X85280000Y-85360000D02*
X85295000Y-85360000D01*
X87405000Y-89900000D02*
X87420000Y-89900000D01*
%TO.C,J1*%
X91255000Y-80010000D02*
X90255000Y-80010000D01*
X85235000Y-71010000D02*
X85235000Y-81390000D01*
X89725000Y-72640000D02*
X90255000Y-72390000D01*
X89725000Y-79760000D02*
X89725000Y-72640000D01*
X86265000Y-81680000D02*
X90265000Y-81680000D01*
X90255000Y-80010000D02*
X89725000Y-79760000D01*
X91255000Y-71010000D02*
X85235000Y-71010000D01*
X91255000Y-72640000D02*
X90255000Y-72640000D01*
X85235000Y-75730000D02*
X85835000Y-75730000D01*
X90255000Y-72390000D02*
X91255000Y-72390000D01*
X85235000Y-73190000D02*
X85835000Y-73190000D01*
X85835000Y-71590000D02*
X85235000Y-71590000D01*
X85835000Y-75730000D02*
X85835000Y-74130000D01*
X90255000Y-80010000D02*
X90255000Y-72390000D01*
X85835000Y-79210000D02*
X85235000Y-79210000D01*
X85835000Y-74130000D02*
X85235000Y-74130000D01*
X85235000Y-78270000D02*
X85835000Y-78270000D01*
X85835000Y-73190000D02*
X85835000Y-71590000D01*
X85235000Y-80810000D02*
X85835000Y-80810000D01*
X85835000Y-78270000D02*
X85835000Y-76670000D01*
X91255000Y-79760000D02*
X90255000Y-79760000D01*
X91255000Y-81390000D02*
X91255000Y-71010000D01*
X85235000Y-81390000D02*
X91255000Y-81390000D01*
X85835000Y-80810000D02*
X85835000Y-79210000D01*
X85835000Y-76670000D02*
X85235000Y-76670000D01*
D13*
%TO.C,REF\u002A\u002A*%
X69135814Y-107323931D02*
X69219635Y-107768555D01*
X69219635Y-107768555D02*
X69528920Y-107896053D01*
X69528920Y-107896053D02*
X69838206Y-108023551D01*
X69838206Y-108023551D02*
X70209246Y-107771246D01*
X70209246Y-107771246D02*
X70313157Y-107700996D01*
X70313157Y-107700996D02*
X70407087Y-107638272D01*
X70407087Y-107638272D02*
X70486652Y-107585938D01*
X70486652Y-107585938D02*
X70547470Y-107546857D01*
X70547470Y-107546857D02*
X70585157Y-107523893D01*
X70585157Y-107523893D02*
X70595421Y-107518942D01*
X70595421Y-107518942D02*
X70613910Y-107531676D01*
X70613910Y-107531676D02*
X70653420Y-107566882D01*
X70653420Y-107566882D02*
X70709522Y-107620062D01*
X70709522Y-107620062D02*
X70777787Y-107686718D01*
X70777787Y-107686718D02*
X70853786Y-107762354D01*
X70853786Y-107762354D02*
X70933092Y-107842472D01*
X70933092Y-107842472D02*
X71011275Y-107922574D01*
X71011275Y-107922574D02*
X71083907Y-107998164D01*
X71083907Y-107998164D02*
X71146559Y-108064745D01*
X71146559Y-108064745D02*
X71194803Y-108117818D01*
X71194803Y-108117818D02*
X71224210Y-108152887D01*
X71224210Y-108152887D02*
X71231241Y-108164623D01*
X71231241Y-108164623D02*
X71221123Y-108186260D01*
X71221123Y-108186260D02*
X71192759Y-108233662D01*
X71192759Y-108233662D02*
X71149129Y-108302193D01*
X71149129Y-108302193D02*
X71093218Y-108387215D01*
X71093218Y-108387215D02*
X71028006Y-108484093D01*
X71028006Y-108484093D02*
X70990219Y-108539350D01*
X70990219Y-108539350D02*
X70921343Y-108640248D01*
X70921343Y-108640248D02*
X70860140Y-108731299D01*
X70860140Y-108731299D02*
X70809578Y-108807970D01*
X70809578Y-108807970D02*
X70772628Y-108865728D01*
X70772628Y-108865728D02*
X70752258Y-108900043D01*
X70752258Y-108900043D02*
X70749197Y-108907254D01*
X70749197Y-108907254D02*
X70756136Y-108927748D01*
X70756136Y-108927748D02*
X70775051Y-108975513D01*
X70775051Y-108975513D02*
X70803087Y-109043832D01*
X70803087Y-109043832D02*
X70837391Y-109125989D01*
X70837391Y-109125989D02*
X70875109Y-109215270D01*
X70875109Y-109215270D02*
X70913387Y-109304958D01*
X70913387Y-109304958D02*
X70949370Y-109388338D01*
X70949370Y-109388338D02*
X70980206Y-109458694D01*
X70980206Y-109458694D02*
X71003039Y-109509310D01*
X71003039Y-109509310D02*
X71015017Y-109533471D01*
X71015017Y-109533471D02*
X71015724Y-109534422D01*
X71015724Y-109534422D02*
X71034531Y-109539036D01*
X71034531Y-109539036D02*
X71084618Y-109549328D01*
X71084618Y-109549328D02*
X71160793Y-109564287D01*
X71160793Y-109564287D02*
X71257865Y-109582901D01*
X71257865Y-109582901D02*
X71370643Y-109604159D01*
X71370643Y-109604159D02*
X71436442Y-109616418D01*
X71436442Y-109616418D02*
X71556950Y-109639362D01*
X71556950Y-109639362D02*
X71665797Y-109661195D01*
X71665797Y-109661195D02*
X71757476Y-109680722D01*
X71757476Y-109680722D02*
X71826481Y-109696748D01*
X71826481Y-109696748D02*
X71867304Y-109708079D01*
X71867304Y-109708079D02*
X71875511Y-109711674D01*
X71875511Y-109711674D02*
X71883548Y-109736006D01*
X71883548Y-109736006D02*
X71890033Y-109790959D01*
X71890033Y-109790959D02*
X71894970Y-109870108D01*
X71894970Y-109870108D02*
X71898364Y-109967026D01*
X71898364Y-109967026D02*
X71900218Y-110075287D01*
X71900218Y-110075287D02*
X71900538Y-110188465D01*
X71900538Y-110188465D02*
X71899327Y-110300135D01*
X71899327Y-110300135D02*
X71896590Y-110403868D01*
X71896590Y-110403868D02*
X71892331Y-110493241D01*
X71892331Y-110493241D02*
X71886555Y-110561826D01*
X71886555Y-110561826D02*
X71879267Y-110603197D01*
X71879267Y-110603197D02*
X71874895Y-110611810D01*
X71874895Y-110611810D02*
X71848764Y-110622133D01*
X71848764Y-110622133D02*
X71793393Y-110636892D01*
X71793393Y-110636892D02*
X71716107Y-110654352D01*
X71716107Y-110654352D02*
X71624230Y-110672780D01*
X71624230Y-110672780D02*
X71592158Y-110678741D01*
X71592158Y-110678741D02*
X71437524Y-110707066D01*
X71437524Y-110707066D02*
X71315375Y-110729876D01*
X71315375Y-110729876D02*
X71221673Y-110748080D01*
X71221673Y-110748080D02*
X71152384Y-110762583D01*
X71152384Y-110762583D02*
X71103471Y-110774292D01*
X71103471Y-110774292D02*
X71070897Y-110784115D01*
X71070897Y-110784115D02*
X71050628Y-110792956D01*
X71050628Y-110792956D02*
X71038626Y-110801724D01*
X71038626Y-110801724D02*
X71036947Y-110803457D01*
X71036947Y-110803457D02*
X71020184Y-110831371D01*
X71020184Y-110831371D02*
X70994614Y-110885695D01*
X70994614Y-110885695D02*
X70962788Y-110959777D01*
X70962788Y-110959777D02*
X70927260Y-111046965D01*
X70927260Y-111046965D02*
X70890583Y-111140608D01*
X70890583Y-111140608D02*
X70855311Y-111234052D01*
X70855311Y-111234052D02*
X70823996Y-111320647D01*
X70823996Y-111320647D02*
X70799193Y-111393740D01*
X70799193Y-111393740D02*
X70783454Y-111446678D01*
X70783454Y-111446678D02*
X70779332Y-111472811D01*
X70779332Y-111472811D02*
X70779676Y-111473726D01*
X70779676Y-111473726D02*
X70793641Y-111495086D01*
X70793641Y-111495086D02*
X70825322Y-111542084D01*
X70825322Y-111542084D02*
X70871391Y-111609827D01*
X70871391Y-111609827D02*
X70928518Y-111693423D01*
X70928518Y-111693423D02*
X70993373Y-111787982D01*
X70993373Y-111787982D02*
X71011843Y-111814854D01*
X71011843Y-111814854D02*
X71077699Y-111912275D01*
X71077699Y-111912275D02*
X71135650Y-112001163D01*
X71135650Y-112001163D02*
X71182538Y-112076412D01*
X71182538Y-112076412D02*
X71215207Y-112132920D01*
X71215207Y-112132920D02*
X71230500Y-112165581D01*
X71230500Y-112165581D02*
X71231241Y-112169593D01*
X71231241Y-112169593D02*
X71218392Y-112190684D01*
X71218392Y-112190684D02*
X71182888Y-112232464D01*
X71182888Y-112232464D02*
X71129293Y-112290445D01*
X71129293Y-112290445D02*
X71062171Y-112360135D01*
X71062171Y-112360135D02*
X70986087Y-112437045D01*
X70986087Y-112437045D02*
X70905604Y-112516683D01*
X70905604Y-112516683D02*
X70825287Y-112594561D01*
X70825287Y-112594561D02*
X70749699Y-112666186D01*
X70749699Y-112666186D02*
X70683405Y-112727070D01*
X70683405Y-112727070D02*
X70630969Y-112772721D01*
X70630969Y-112772721D02*
X70596955Y-112798650D01*
X70596955Y-112798650D02*
X70587545Y-112802883D01*
X70587545Y-112802883D02*
X70565643Y-112792912D01*
X70565643Y-112792912D02*
X70520800Y-112766020D01*
X70520800Y-112766020D02*
X70460321Y-112726736D01*
X70460321Y-112726736D02*
X70413789Y-112695117D01*
X70413789Y-112695117D02*
X70329475Y-112637098D01*
X70329475Y-112637098D02*
X70229626Y-112568784D01*
X70229626Y-112568784D02*
X70129473Y-112500579D01*
X70129473Y-112500579D02*
X70075627Y-112464075D01*
X70075627Y-112464075D02*
X69893371Y-112340800D01*
X69893371Y-112340800D02*
X69740381Y-112423520D01*
X69740381Y-112423520D02*
X69670682Y-112459759D01*
X69670682Y-112459759D02*
X69611414Y-112487926D01*
X69611414Y-112487926D02*
X69571311Y-112503991D01*
X69571311Y-112503991D02*
X69561103Y-112506226D01*
X69561103Y-112506226D02*
X69548829Y-112489722D01*
X69548829Y-112489722D02*
X69524613Y-112443082D01*
X69524613Y-112443082D02*
X69490263Y-112370609D01*
X69490263Y-112370609D02*
X69447588Y-112276606D01*
X69447588Y-112276606D02*
X69398394Y-112165374D01*
X69398394Y-112165374D02*
X69344490Y-112041215D01*
X69344490Y-112041215D02*
X69287684Y-111908432D01*
X69287684Y-111908432D02*
X69229782Y-111771327D01*
X69229782Y-111771327D02*
X69172593Y-111634202D01*
X69172593Y-111634202D02*
X69117924Y-111501358D01*
X69117924Y-111501358D02*
X69067584Y-111377098D01*
X69067584Y-111377098D02*
X69023380Y-111265725D01*
X69023380Y-111265725D02*
X68987119Y-111171539D01*
X68987119Y-111171539D02*
X68960609Y-111098844D01*
X68960609Y-111098844D02*
X68945658Y-111051941D01*
X68945658Y-111051941D02*
X68943254Y-111035833D01*
X68943254Y-111035833D02*
X68962311Y-111015286D01*
X68962311Y-111015286D02*
X69004036Y-110981933D01*
X69004036Y-110981933D02*
X69059706Y-110942702D01*
X69059706Y-110942702D02*
X69064378Y-110939599D01*
X69064378Y-110939599D02*
X69208264Y-110824423D01*
X69208264Y-110824423D02*
X69324283Y-110690053D01*
X69324283Y-110690053D02*
X69411430Y-110540784D01*
X69411430Y-110540784D02*
X69468699Y-110380913D01*
X69468699Y-110380913D02*
X69495086Y-110214737D01*
X69495086Y-110214737D02*
X69489585Y-110046552D01*
X69489585Y-110046552D02*
X69451190Y-109880655D01*
X69451190Y-109880655D02*
X69378895Y-109721342D01*
X69378895Y-109721342D02*
X69357626Y-109686487D01*
X69357626Y-109686487D02*
X69246996Y-109545737D01*
X69246996Y-109545737D02*
X69116302Y-109432714D01*
X69116302Y-109432714D02*
X68970064Y-109348003D01*
X68970064Y-109348003D02*
X68812808Y-109292194D01*
X68812808Y-109292194D02*
X68649057Y-109265874D01*
X68649057Y-109265874D02*
X68483333Y-109269630D01*
X68483333Y-109269630D02*
X68320162Y-109304050D01*
X68320162Y-109304050D02*
X68164065Y-109369723D01*
X68164065Y-109369723D02*
X68019567Y-109467235D01*
X68019567Y-109467235D02*
X67974869Y-109506813D01*
X67974869Y-109506813D02*
X67861112Y-109630703D01*
X67861112Y-109630703D02*
X67778218Y-109761124D01*
X67778218Y-109761124D02*
X67721356Y-109907315D01*
X67721356Y-109907315D02*
X67689687Y-110052088D01*
X67689687Y-110052088D02*
X67681869Y-110214860D01*
X67681869Y-110214860D02*
X67707938Y-110378440D01*
X67707938Y-110378440D02*
X67765245Y-110537298D01*
X67765245Y-110537298D02*
X67851144Y-110685906D01*
X67851144Y-110685906D02*
X67962986Y-110818735D01*
X67962986Y-110818735D02*
X68098123Y-110930256D01*
X68098123Y-110930256D02*
X68115883Y-110942011D01*
X68115883Y-110942011D02*
X68172150Y-110980508D01*
X68172150Y-110980508D02*
X68214923Y-111013863D01*
X68214923Y-111013863D02*
X68235372Y-111035160D01*
X68235372Y-111035160D02*
X68235669Y-111035833D01*
X68235669Y-111035833D02*
X68231279Y-111058871D01*
X68231279Y-111058871D02*
X68213876Y-111111157D01*
X68213876Y-111111157D02*
X68185268Y-111188390D01*
X68185268Y-111188390D02*
X68147265Y-111286268D01*
X68147265Y-111286268D02*
X68101674Y-111400491D01*
X68101674Y-111400491D02*
X68050303Y-111526758D01*
X68050303Y-111526758D02*
X67994962Y-111660767D01*
X67994962Y-111660767D02*
X67937458Y-111798218D01*
X67937458Y-111798218D02*
X67879601Y-111934808D01*
X67879601Y-111934808D02*
X67823198Y-112066237D01*
X67823198Y-112066237D02*
X67770058Y-112188205D01*
X67770058Y-112188205D02*
X67721990Y-112296409D01*
X67721990Y-112296409D02*
X67680801Y-112386549D01*
X67680801Y-112386549D02*
X67648301Y-112454323D01*
X67648301Y-112454323D02*
X67626297Y-112495430D01*
X67626297Y-112495430D02*
X67617436Y-112506226D01*
X67617436Y-112506226D02*
X67590360Y-112497819D01*
X67590360Y-112497819D02*
X67539697Y-112475272D01*
X67539697Y-112475272D02*
X67474183Y-112442613D01*
X67474183Y-112442613D02*
X67438159Y-112423520D01*
X67438159Y-112423520D02*
X67285168Y-112340800D01*
X67285168Y-112340800D02*
X67102912Y-112464075D01*
X67102912Y-112464075D02*
X67009875Y-112527228D01*
X67009875Y-112527228D02*
X66908015Y-112596727D01*
X66908015Y-112596727D02*
X66812562Y-112662165D01*
X66812562Y-112662165D02*
X66764750Y-112695117D01*
X66764750Y-112695117D02*
X66697505Y-112740273D01*
X66697505Y-112740273D02*
X66640564Y-112776057D01*
X66640564Y-112776057D02*
X66601354Y-112797938D01*
X66601354Y-112797938D02*
X66588619Y-112802563D01*
X66588619Y-112802563D02*
X66570083Y-112790085D01*
X66570083Y-112790085D02*
X66529059Y-112755252D01*
X66529059Y-112755252D02*
X66469525Y-112701678D01*
X66469525Y-112701678D02*
X66395458Y-112632983D01*
X66395458Y-112632983D02*
X66310835Y-112552781D01*
X66310835Y-112552781D02*
X66257315Y-112501286D01*
X66257315Y-112501286D02*
X66163681Y-112409286D01*
X66163681Y-112409286D02*
X66082759Y-112326999D01*
X66082759Y-112326999D02*
X66017823Y-112257945D01*
X66017823Y-112257945D02*
X65972142Y-112205644D01*
X65972142Y-112205644D02*
X65948989Y-112173616D01*
X65948989Y-112173616D02*
X65946768Y-112167116D01*
X65946768Y-112167116D02*
X65957076Y-112142394D01*
X65957076Y-112142394D02*
X65985561Y-112092405D01*
X65985561Y-112092405D02*
X66029063Y-112022212D01*
X66029063Y-112022212D02*
X66084423Y-111936875D01*
X66084423Y-111936875D02*
X66148480Y-111841456D01*
X66148480Y-111841456D02*
X66166697Y-111814854D01*
X66166697Y-111814854D02*
X66233073Y-111718167D01*
X66233073Y-111718167D02*
X66292622Y-111631117D01*
X66292622Y-111631117D02*
X66342016Y-111558595D01*
X66342016Y-111558595D02*
X66377925Y-111505493D01*
X66377925Y-111505493D02*
X66397019Y-111476703D01*
X66397019Y-111476703D02*
X66398864Y-111473726D01*
X66398864Y-111473726D02*
X66396105Y-111450782D01*
X66396105Y-111450782D02*
X66381462Y-111400336D01*
X66381462Y-111400336D02*
X66357487Y-111329041D01*
X66357487Y-111329041D02*
X66326734Y-111243547D01*
X66326734Y-111243547D02*
X66291756Y-111150507D01*
X66291756Y-111150507D02*
X66255107Y-111056574D01*
X66255107Y-111056574D02*
X66219339Y-110968399D01*
X66219339Y-110968399D02*
X66187006Y-110892634D01*
X66187006Y-110892634D02*
X66160662Y-110835931D01*
X66160662Y-110835931D02*
X66142858Y-110804943D01*
X66142858Y-110804943D02*
X66141593Y-110803457D01*
X66141593Y-110803457D02*
X66130706Y-110794601D01*
X66130706Y-110794601D02*
X66112318Y-110785843D01*
X66112318Y-110785843D02*
X66082394Y-110776277D01*
X66082394Y-110776277D02*
X66036897Y-110764996D01*
X66036897Y-110764996D02*
X65971791Y-110751093D01*
X65971791Y-110751093D02*
X65883039Y-110733663D01*
X65883039Y-110733663D02*
X65766607Y-110711798D01*
X65766607Y-110711798D02*
X65618458Y-110684591D01*
X65618458Y-110684591D02*
X65586382Y-110678741D01*
X65586382Y-110678741D02*
X65491314Y-110660374D01*
X65491314Y-110660374D02*
X65408435Y-110642405D01*
X65408435Y-110642405D02*
X65345070Y-110626569D01*
X65345070Y-110626569D02*
X65308542Y-110614600D01*
X65308542Y-110614600D02*
X65303644Y-110611810D01*
X65303644Y-110611810D02*
X65295573Y-110587072D01*
X65295573Y-110587072D02*
X65289013Y-110531790D01*
X65289013Y-110531790D02*
X65283967Y-110452389D01*
X65283967Y-110452389D02*
X65280441Y-110355296D01*
X65280441Y-110355296D02*
X65278439Y-110246938D01*
X65278439Y-110246938D02*
X65277964Y-110133740D01*
X65277964Y-110133740D02*
X65279023Y-110022128D01*
X65279023Y-110022128D02*
X65281618Y-109918529D01*
X65281618Y-109918529D02*
X65285754Y-109829368D01*
X65285754Y-109829368D02*
X65291437Y-109761072D01*
X65291437Y-109761072D02*
X65298669Y-109720066D01*
X65298669Y-109720066D02*
X65303029Y-109711674D01*
X65303029Y-109711674D02*
X65327302Y-109703208D01*
X65327302Y-109703208D02*
X65382574Y-109689435D01*
X65382574Y-109689435D02*
X65463338Y-109671550D01*
X65463338Y-109671550D02*
X65564088Y-109650748D01*
X65564088Y-109650748D02*
X65679317Y-109628223D01*
X65679317Y-109628223D02*
X65742098Y-109616418D01*
X65742098Y-109616418D02*
X65861213Y-109594151D01*
X65861213Y-109594151D02*
X65967435Y-109573979D01*
X65967435Y-109573979D02*
X66055573Y-109556915D01*
X66055573Y-109556915D02*
X66120434Y-109543969D01*
X66120434Y-109543969D02*
X66156826Y-109536155D01*
X66156826Y-109536155D02*
X66162816Y-109534422D01*
X66162816Y-109534422D02*
X66172939Y-109514890D01*
X66172939Y-109514890D02*
X66194338Y-109467843D01*
X66194338Y-109467843D02*
X66224161Y-109400003D01*
X66224161Y-109400003D02*
X66259555Y-109318091D01*
X66259555Y-109318091D02*
X66297668Y-109228828D01*
X66297668Y-109228828D02*
X66335647Y-109138935D01*
X66335647Y-109138935D02*
X66370640Y-109055135D01*
X66370640Y-109055135D02*
X66399794Y-108984147D01*
X66399794Y-108984147D02*
X66420257Y-108932694D01*
X66420257Y-108932694D02*
X66429177Y-108907497D01*
X66429177Y-108907497D02*
X66429343Y-108906396D01*
X66429343Y-108906396D02*
X66419231Y-108886519D01*
X66419231Y-108886519D02*
X66390883Y-108840777D01*
X66390883Y-108840777D02*
X66347277Y-108773717D01*
X66347277Y-108773717D02*
X66291394Y-108689884D01*
X66291394Y-108689884D02*
X66226213Y-108593826D01*
X66226213Y-108593826D02*
X66188321Y-108538650D01*
X66188321Y-108538650D02*
X66119275Y-108437481D01*
X66119275Y-108437481D02*
X66057950Y-108345630D01*
X66057950Y-108345630D02*
X66007337Y-108267744D01*
X66007337Y-108267744D02*
X65970429Y-108208469D01*
X65970429Y-108208469D02*
X65950218Y-108172451D01*
X65950218Y-108172451D02*
X65947299Y-108164377D01*
X65947299Y-108164377D02*
X65959847Y-108145584D01*
X65959847Y-108145584D02*
X65994537Y-108105457D01*
X65994537Y-108105457D02*
X66046937Y-108048493D01*
X66046937Y-108048493D02*
X66112616Y-107979185D01*
X66112616Y-107979185D02*
X66187144Y-107902031D01*
X66187144Y-107902031D02*
X66266087Y-107821525D01*
X66266087Y-107821525D02*
X66345017Y-107742163D01*
X66345017Y-107742163D02*
X66419500Y-107668440D01*
X66419500Y-107668440D02*
X66485106Y-107604852D01*
X66485106Y-107604852D02*
X66537404Y-107555894D01*
X66537404Y-107555894D02*
X66571961Y-107526061D01*
X66571961Y-107526061D02*
X66583522Y-107518942D01*
X66583522Y-107518942D02*
X66602346Y-107528953D01*
X66602346Y-107528953D02*
X66647369Y-107557078D01*
X66647369Y-107557078D02*
X66714213Y-107600454D01*
X66714213Y-107600454D02*
X66798501Y-107656218D01*
X66798501Y-107656218D02*
X66895856Y-107721506D01*
X66895856Y-107721506D02*
X66969293Y-107771246D01*
X66969293Y-107771246D02*
X67340333Y-108023551D01*
X67340333Y-108023551D02*
X67958905Y-107768555D01*
X67958905Y-107768555D02*
X68042725Y-107323931D01*
X68042725Y-107323931D02*
X68126546Y-106879307D01*
X68126546Y-106879307D02*
X69051994Y-106879307D01*
X69051994Y-106879307D02*
X69135814Y-107323931D01*
X69135814Y-107323931D02*
X69135814Y-107323931D01*
G36*
X69135814Y-107323931D02*
G01*
X69219635Y-107768555D01*
X69528920Y-107896053D01*
X69838206Y-108023551D01*
X70209246Y-107771246D01*
X70313157Y-107700996D01*
X70407087Y-107638272D01*
X70486652Y-107585938D01*
X70547470Y-107546857D01*
X70585157Y-107523893D01*
X70595421Y-107518942D01*
X70613910Y-107531676D01*
X70653420Y-107566882D01*
X70709522Y-107620062D01*
X70777787Y-107686718D01*
X70853786Y-107762354D01*
X70933092Y-107842472D01*
X71011275Y-107922574D01*
X71083907Y-107998164D01*
X71146559Y-108064745D01*
X71194803Y-108117818D01*
X71224210Y-108152887D01*
X71231241Y-108164623D01*
X71221123Y-108186260D01*
X71192759Y-108233662D01*
X71149129Y-108302193D01*
X71093218Y-108387215D01*
X71028006Y-108484093D01*
X70990219Y-108539350D01*
X70921343Y-108640248D01*
X70860140Y-108731299D01*
X70809578Y-108807970D01*
X70772628Y-108865728D01*
X70752258Y-108900043D01*
X70749197Y-108907254D01*
X70756136Y-108927748D01*
X70775051Y-108975513D01*
X70803087Y-109043832D01*
X70837391Y-109125989D01*
X70875109Y-109215270D01*
X70913387Y-109304958D01*
X70949370Y-109388338D01*
X70980206Y-109458694D01*
X71003039Y-109509310D01*
X71015017Y-109533471D01*
X71015724Y-109534422D01*
X71034531Y-109539036D01*
X71084618Y-109549328D01*
X71160793Y-109564287D01*
X71257865Y-109582901D01*
X71370643Y-109604159D01*
X71436442Y-109616418D01*
X71556950Y-109639362D01*
X71665797Y-109661195D01*
X71757476Y-109680722D01*
X71826481Y-109696748D01*
X71867304Y-109708079D01*
X71875511Y-109711674D01*
X71883548Y-109736006D01*
X71890033Y-109790959D01*
X71894970Y-109870108D01*
X71898364Y-109967026D01*
X71900218Y-110075287D01*
X71900538Y-110188465D01*
X71899327Y-110300135D01*
X71896590Y-110403868D01*
X71892331Y-110493241D01*
X71886555Y-110561826D01*
X71879267Y-110603197D01*
X71874895Y-110611810D01*
X71848764Y-110622133D01*
X71793393Y-110636892D01*
X71716107Y-110654352D01*
X71624230Y-110672780D01*
X71592158Y-110678741D01*
X71437524Y-110707066D01*
X71315375Y-110729876D01*
X71221673Y-110748080D01*
X71152384Y-110762583D01*
X71103471Y-110774292D01*
X71070897Y-110784115D01*
X71050628Y-110792956D01*
X71038626Y-110801724D01*
X71036947Y-110803457D01*
X71020184Y-110831371D01*
X70994614Y-110885695D01*
X70962788Y-110959777D01*
X70927260Y-111046965D01*
X70890583Y-111140608D01*
X70855311Y-111234052D01*
X70823996Y-111320647D01*
X70799193Y-111393740D01*
X70783454Y-111446678D01*
X70779332Y-111472811D01*
X70779676Y-111473726D01*
X70793641Y-111495086D01*
X70825322Y-111542084D01*
X70871391Y-111609827D01*
X70928518Y-111693423D01*
X70993373Y-111787982D01*
X71011843Y-111814854D01*
X71077699Y-111912275D01*
X71135650Y-112001163D01*
X71182538Y-112076412D01*
X71215207Y-112132920D01*
X71230500Y-112165581D01*
X71231241Y-112169593D01*
X71218392Y-112190684D01*
X71182888Y-112232464D01*
X71129293Y-112290445D01*
X71062171Y-112360135D01*
X70986087Y-112437045D01*
X70905604Y-112516683D01*
X70825287Y-112594561D01*
X70749699Y-112666186D01*
X70683405Y-112727070D01*
X70630969Y-112772721D01*
X70596955Y-112798650D01*
X70587545Y-112802883D01*
X70565643Y-112792912D01*
X70520800Y-112766020D01*
X70460321Y-112726736D01*
X70413789Y-112695117D01*
X70329475Y-112637098D01*
X70229626Y-112568784D01*
X70129473Y-112500579D01*
X70075627Y-112464075D01*
X69893371Y-112340800D01*
X69740381Y-112423520D01*
X69670682Y-112459759D01*
X69611414Y-112487926D01*
X69571311Y-112503991D01*
X69561103Y-112506226D01*
X69548829Y-112489722D01*
X69524613Y-112443082D01*
X69490263Y-112370609D01*
X69447588Y-112276606D01*
X69398394Y-112165374D01*
X69344490Y-112041215D01*
X69287684Y-111908432D01*
X69229782Y-111771327D01*
X69172593Y-111634202D01*
X69117924Y-111501358D01*
X69067584Y-111377098D01*
X69023380Y-111265725D01*
X68987119Y-111171539D01*
X68960609Y-111098844D01*
X68945658Y-111051941D01*
X68943254Y-111035833D01*
X68962311Y-111015286D01*
X69004036Y-110981933D01*
X69059706Y-110942702D01*
X69064378Y-110939599D01*
X69208264Y-110824423D01*
X69324283Y-110690053D01*
X69411430Y-110540784D01*
X69468699Y-110380913D01*
X69495086Y-110214737D01*
X69489585Y-110046552D01*
X69451190Y-109880655D01*
X69378895Y-109721342D01*
X69357626Y-109686487D01*
X69246996Y-109545737D01*
X69116302Y-109432714D01*
X68970064Y-109348003D01*
X68812808Y-109292194D01*
X68649057Y-109265874D01*
X68483333Y-109269630D01*
X68320162Y-109304050D01*
X68164065Y-109369723D01*
X68019567Y-109467235D01*
X67974869Y-109506813D01*
X67861112Y-109630703D01*
X67778218Y-109761124D01*
X67721356Y-109907315D01*
X67689687Y-110052088D01*
X67681869Y-110214860D01*
X67707938Y-110378440D01*
X67765245Y-110537298D01*
X67851144Y-110685906D01*
X67962986Y-110818735D01*
X68098123Y-110930256D01*
X68115883Y-110942011D01*
X68172150Y-110980508D01*
X68214923Y-111013863D01*
X68235372Y-111035160D01*
X68235669Y-111035833D01*
X68231279Y-111058871D01*
X68213876Y-111111157D01*
X68185268Y-111188390D01*
X68147265Y-111286268D01*
X68101674Y-111400491D01*
X68050303Y-111526758D01*
X67994962Y-111660767D01*
X67937458Y-111798218D01*
X67879601Y-111934808D01*
X67823198Y-112066237D01*
X67770058Y-112188205D01*
X67721990Y-112296409D01*
X67680801Y-112386549D01*
X67648301Y-112454323D01*
X67626297Y-112495430D01*
X67617436Y-112506226D01*
X67590360Y-112497819D01*
X67539697Y-112475272D01*
X67474183Y-112442613D01*
X67438159Y-112423520D01*
X67285168Y-112340800D01*
X67102912Y-112464075D01*
X67009875Y-112527228D01*
X66908015Y-112596727D01*
X66812562Y-112662165D01*
X66764750Y-112695117D01*
X66697505Y-112740273D01*
X66640564Y-112776057D01*
X66601354Y-112797938D01*
X66588619Y-112802563D01*
X66570083Y-112790085D01*
X66529059Y-112755252D01*
X66469525Y-112701678D01*
X66395458Y-112632983D01*
X66310835Y-112552781D01*
X66257315Y-112501286D01*
X66163681Y-112409286D01*
X66082759Y-112326999D01*
X66017823Y-112257945D01*
X65972142Y-112205644D01*
X65948989Y-112173616D01*
X65946768Y-112167116D01*
X65957076Y-112142394D01*
X65985561Y-112092405D01*
X66029063Y-112022212D01*
X66084423Y-111936875D01*
X66148480Y-111841456D01*
X66166697Y-111814854D01*
X66233073Y-111718167D01*
X66292622Y-111631117D01*
X66342016Y-111558595D01*
X66377925Y-111505493D01*
X66397019Y-111476703D01*
X66398864Y-111473726D01*
X66396105Y-111450782D01*
X66381462Y-111400336D01*
X66357487Y-111329041D01*
X66326734Y-111243547D01*
X66291756Y-111150507D01*
X66255107Y-111056574D01*
X66219339Y-110968399D01*
X66187006Y-110892634D01*
X66160662Y-110835931D01*
X66142858Y-110804943D01*
X66141593Y-110803457D01*
X66130706Y-110794601D01*
X66112318Y-110785843D01*
X66082394Y-110776277D01*
X66036897Y-110764996D01*
X65971791Y-110751093D01*
X65883039Y-110733663D01*
X65766607Y-110711798D01*
X65618458Y-110684591D01*
X65586382Y-110678741D01*
X65491314Y-110660374D01*
X65408435Y-110642405D01*
X65345070Y-110626569D01*
X65308542Y-110614600D01*
X65303644Y-110611810D01*
X65295573Y-110587072D01*
X65289013Y-110531790D01*
X65283967Y-110452389D01*
X65280441Y-110355296D01*
X65278439Y-110246938D01*
X65277964Y-110133740D01*
X65279023Y-110022128D01*
X65281618Y-109918529D01*
X65285754Y-109829368D01*
X65291437Y-109761072D01*
X65298669Y-109720066D01*
X65303029Y-109711674D01*
X65327302Y-109703208D01*
X65382574Y-109689435D01*
X65463338Y-109671550D01*
X65564088Y-109650748D01*
X65679317Y-109628223D01*
X65742098Y-109616418D01*
X65861213Y-109594151D01*
X65967435Y-109573979D01*
X66055573Y-109556915D01*
X66120434Y-109543969D01*
X66156826Y-109536155D01*
X66162816Y-109534422D01*
X66172939Y-109514890D01*
X66194338Y-109467843D01*
X66224161Y-109400003D01*
X66259555Y-109318091D01*
X66297668Y-109228828D01*
X66335647Y-109138935D01*
X66370640Y-109055135D01*
X66399794Y-108984147D01*
X66420257Y-108932694D01*
X66429177Y-108907497D01*
X66429343Y-108906396D01*
X66419231Y-108886519D01*
X66390883Y-108840777D01*
X66347277Y-108773717D01*
X66291394Y-108689884D01*
X66226213Y-108593826D01*
X66188321Y-108538650D01*
X66119275Y-108437481D01*
X66057950Y-108345630D01*
X66007337Y-108267744D01*
X65970429Y-108208469D01*
X65950218Y-108172451D01*
X65947299Y-108164377D01*
X65959847Y-108145584D01*
X65994537Y-108105457D01*
X66046937Y-108048493D01*
X66112616Y-107979185D01*
X66187144Y-107902031D01*
X66266087Y-107821525D01*
X66345017Y-107742163D01*
X66419500Y-107668440D01*
X66485106Y-107604852D01*
X66537404Y-107555894D01*
X66571961Y-107526061D01*
X66583522Y-107518942D01*
X66602346Y-107528953D01*
X66647369Y-107557078D01*
X66714213Y-107600454D01*
X66798501Y-107656218D01*
X66895856Y-107721506D01*
X66969293Y-107771246D01*
X67340333Y-108023551D01*
X67958905Y-107768555D01*
X68042725Y-107323931D01*
X68126546Y-106879307D01*
X69051994Y-106879307D01*
X69135814Y-107323931D01*
G37*
X69135814Y-107323931D02*
X69219635Y-107768555D01*
X69528920Y-107896053D01*
X69838206Y-108023551D01*
X70209246Y-107771246D01*
X70313157Y-107700996D01*
X70407087Y-107638272D01*
X70486652Y-107585938D01*
X70547470Y-107546857D01*
X70585157Y-107523893D01*
X70595421Y-107518942D01*
X70613910Y-107531676D01*
X70653420Y-107566882D01*
X70709522Y-107620062D01*
X70777787Y-107686718D01*
X70853786Y-107762354D01*
X70933092Y-107842472D01*
X71011275Y-107922574D01*
X71083907Y-107998164D01*
X71146559Y-108064745D01*
X71194803Y-108117818D01*
X71224210Y-108152887D01*
X71231241Y-108164623D01*
X71221123Y-108186260D01*
X71192759Y-108233662D01*
X71149129Y-108302193D01*
X71093218Y-108387215D01*
X71028006Y-108484093D01*
X70990219Y-108539350D01*
X70921343Y-108640248D01*
X70860140Y-108731299D01*
X70809578Y-108807970D01*
X70772628Y-108865728D01*
X70752258Y-108900043D01*
X70749197Y-108907254D01*
X70756136Y-108927748D01*
X70775051Y-108975513D01*
X70803087Y-109043832D01*
X70837391Y-109125989D01*
X70875109Y-109215270D01*
X70913387Y-109304958D01*
X70949370Y-109388338D01*
X70980206Y-109458694D01*
X71003039Y-109509310D01*
X71015017Y-109533471D01*
X71015724Y-109534422D01*
X71034531Y-109539036D01*
X71084618Y-109549328D01*
X71160793Y-109564287D01*
X71257865Y-109582901D01*
X71370643Y-109604159D01*
X71436442Y-109616418D01*
X71556950Y-109639362D01*
X71665797Y-109661195D01*
X71757476Y-109680722D01*
X71826481Y-109696748D01*
X71867304Y-109708079D01*
X71875511Y-109711674D01*
X71883548Y-109736006D01*
X71890033Y-109790959D01*
X71894970Y-109870108D01*
X71898364Y-109967026D01*
X71900218Y-110075287D01*
X71900538Y-110188465D01*
X71899327Y-110300135D01*
X71896590Y-110403868D01*
X71892331Y-110493241D01*
X71886555Y-110561826D01*
X71879267Y-110603197D01*
X71874895Y-110611810D01*
X71848764Y-110622133D01*
X71793393Y-110636892D01*
X71716107Y-110654352D01*
X71624230Y-110672780D01*
X71592158Y-110678741D01*
X71437524Y-110707066D01*
X71315375Y-110729876D01*
X71221673Y-110748080D01*
X71152384Y-110762583D01*
X71103471Y-110774292D01*
X71070897Y-110784115D01*
X71050628Y-110792956D01*
X71038626Y-110801724D01*
X71036947Y-110803457D01*
X71020184Y-110831371D01*
X70994614Y-110885695D01*
X70962788Y-110959777D01*
X70927260Y-111046965D01*
X70890583Y-111140608D01*
X70855311Y-111234052D01*
X70823996Y-111320647D01*
X70799193Y-111393740D01*
X70783454Y-111446678D01*
X70779332Y-111472811D01*
X70779676Y-111473726D01*
X70793641Y-111495086D01*
X70825322Y-111542084D01*
X70871391Y-111609827D01*
X70928518Y-111693423D01*
X70993373Y-111787982D01*
X71011843Y-111814854D01*
X71077699Y-111912275D01*
X71135650Y-112001163D01*
X71182538Y-112076412D01*
X71215207Y-112132920D01*
X71230500Y-112165581D01*
X71231241Y-112169593D01*
X71218392Y-112190684D01*
X71182888Y-112232464D01*
X71129293Y-112290445D01*
X71062171Y-112360135D01*
X70986087Y-112437045D01*
X70905604Y-112516683D01*
X70825287Y-112594561D01*
X70749699Y-112666186D01*
X70683405Y-112727070D01*
X70630969Y-112772721D01*
X70596955Y-112798650D01*
X70587545Y-112802883D01*
X70565643Y-112792912D01*
X70520800Y-112766020D01*
X70460321Y-112726736D01*
X70413789Y-112695117D01*
X70329475Y-112637098D01*
X70229626Y-112568784D01*
X70129473Y-112500579D01*
X70075627Y-112464075D01*
X69893371Y-112340800D01*
X69740381Y-112423520D01*
X69670682Y-112459759D01*
X69611414Y-112487926D01*
X69571311Y-112503991D01*
X69561103Y-112506226D01*
X69548829Y-112489722D01*
X69524613Y-112443082D01*
X69490263Y-112370609D01*
X69447588Y-112276606D01*
X69398394Y-112165374D01*
X69344490Y-112041215D01*
X69287684Y-111908432D01*
X69229782Y-111771327D01*
X69172593Y-111634202D01*
X69117924Y-111501358D01*
X69067584Y-111377098D01*
X69023380Y-111265725D01*
X68987119Y-111171539D01*
X68960609Y-111098844D01*
X68945658Y-111051941D01*
X68943254Y-111035833D01*
X68962311Y-111015286D01*
X69004036Y-110981933D01*
X69059706Y-110942702D01*
X69064378Y-110939599D01*
X69208264Y-110824423D01*
X69324283Y-110690053D01*
X69411430Y-110540784D01*
X69468699Y-110380913D01*
X69495086Y-110214737D01*
X69489585Y-110046552D01*
X69451190Y-109880655D01*
X69378895Y-109721342D01*
X69357626Y-109686487D01*
X69246996Y-109545737D01*
X69116302Y-109432714D01*
X68970064Y-109348003D01*
X68812808Y-109292194D01*
X68649057Y-109265874D01*
X68483333Y-109269630D01*
X68320162Y-109304050D01*
X68164065Y-109369723D01*
X68019567Y-109467235D01*
X67974869Y-109506813D01*
X67861112Y-109630703D01*
X67778218Y-109761124D01*
X67721356Y-109907315D01*
X67689687Y-110052088D01*
X67681869Y-110214860D01*
X67707938Y-110378440D01*
X67765245Y-110537298D01*
X67851144Y-110685906D01*
X67962986Y-110818735D01*
X68098123Y-110930256D01*
X68115883Y-110942011D01*
X68172150Y-110980508D01*
X68214923Y-111013863D01*
X68235372Y-111035160D01*
X68235669Y-111035833D01*
X68231279Y-111058871D01*
X68213876Y-111111157D01*
X68185268Y-111188390D01*
X68147265Y-111286268D01*
X68101674Y-111400491D01*
X68050303Y-111526758D01*
X67994962Y-111660767D01*
X67937458Y-111798218D01*
X67879601Y-111934808D01*
X67823198Y-112066237D01*
X67770058Y-112188205D01*
X67721990Y-112296409D01*
X67680801Y-112386549D01*
X67648301Y-112454323D01*
X67626297Y-112495430D01*
X67617436Y-112506226D01*
X67590360Y-112497819D01*
X67539697Y-112475272D01*
X67474183Y-112442613D01*
X67438159Y-112423520D01*
X67285168Y-112340800D01*
X67102912Y-112464075D01*
X67009875Y-112527228D01*
X66908015Y-112596727D01*
X66812562Y-112662165D01*
X66764750Y-112695117D01*
X66697505Y-112740273D01*
X66640564Y-112776057D01*
X66601354Y-112797938D01*
X66588619Y-112802563D01*
X66570083Y-112790085D01*
X66529059Y-112755252D01*
X66469525Y-112701678D01*
X66395458Y-112632983D01*
X66310835Y-112552781D01*
X66257315Y-112501286D01*
X66163681Y-112409286D01*
X66082759Y-112326999D01*
X66017823Y-112257945D01*
X65972142Y-112205644D01*
X65948989Y-112173616D01*
X65946768Y-112167116D01*
X65957076Y-112142394D01*
X65985561Y-112092405D01*
X66029063Y-112022212D01*
X66084423Y-111936875D01*
X66148480Y-111841456D01*
X66166697Y-111814854D01*
X66233073Y-111718167D01*
X66292622Y-111631117D01*
X66342016Y-111558595D01*
X66377925Y-111505493D01*
X66397019Y-111476703D01*
X66398864Y-111473726D01*
X66396105Y-111450782D01*
X66381462Y-111400336D01*
X66357487Y-111329041D01*
X66326734Y-111243547D01*
X66291756Y-111150507D01*
X66255107Y-111056574D01*
X66219339Y-110968399D01*
X66187006Y-110892634D01*
X66160662Y-110835931D01*
X66142858Y-110804943D01*
X66141593Y-110803457D01*
X66130706Y-110794601D01*
X66112318Y-110785843D01*
X66082394Y-110776277D01*
X66036897Y-110764996D01*
X65971791Y-110751093D01*
X65883039Y-110733663D01*
X65766607Y-110711798D01*
X65618458Y-110684591D01*
X65586382Y-110678741D01*
X65491314Y-110660374D01*
X65408435Y-110642405D01*
X65345070Y-110626569D01*
X65308542Y-110614600D01*
X65303644Y-110611810D01*
X65295573Y-110587072D01*
X65289013Y-110531790D01*
X65283967Y-110452389D01*
X65280441Y-110355296D01*
X65278439Y-110246938D01*
X65277964Y-110133740D01*
X65279023Y-110022128D01*
X65281618Y-109918529D01*
X65285754Y-109829368D01*
X65291437Y-109761072D01*
X65298669Y-109720066D01*
X65303029Y-109711674D01*
X65327302Y-109703208D01*
X65382574Y-109689435D01*
X65463338Y-109671550D01*
X65564088Y-109650748D01*
X65679317Y-109628223D01*
X65742098Y-109616418D01*
X65861213Y-109594151D01*
X65967435Y-109573979D01*
X66055573Y-109556915D01*
X66120434Y-109543969D01*
X66156826Y-109536155D01*
X66162816Y-109534422D01*
X66172939Y-109514890D01*
X66194338Y-109467843D01*
X66224161Y-109400003D01*
X66259555Y-109318091D01*
X66297668Y-109228828D01*
X66335647Y-109138935D01*
X66370640Y-109055135D01*
X66399794Y-108984147D01*
X66420257Y-108932694D01*
X66429177Y-108907497D01*
X66429343Y-108906396D01*
X66419231Y-108886519D01*
X66390883Y-108840777D01*
X66347277Y-108773717D01*
X66291394Y-108689884D01*
X66226213Y-108593826D01*
X66188321Y-108538650D01*
X66119275Y-108437481D01*
X66057950Y-108345630D01*
X66007337Y-108267744D01*
X65970429Y-108208469D01*
X65950218Y-108172451D01*
X65947299Y-108164377D01*
X65959847Y-108145584D01*
X65994537Y-108105457D01*
X66046937Y-108048493D01*
X66112616Y-107979185D01*
X66187144Y-107902031D01*
X66266087Y-107821525D01*
X66345017Y-107742163D01*
X66419500Y-107668440D01*
X66485106Y-107604852D01*
X66537404Y-107555894D01*
X66571961Y-107526061D01*
X66583522Y-107518942D01*
X66602346Y-107528953D01*
X66647369Y-107557078D01*
X66714213Y-107600454D01*
X66798501Y-107656218D01*
X66895856Y-107721506D01*
X66969293Y-107771246D01*
X67340333Y-108023551D01*
X67958905Y-107768555D01*
X68042725Y-107323931D01*
X68126546Y-106879307D01*
X69051994Y-106879307D01*
X69135814Y-107323931D01*
%TD*%
M02*
