M48
; DRILL file {KiCad 6.0.0} date So 8. ledna 2022, 01:51:44
; FORMAT={-:-/ absolute / inch / decimal}
; #@! TF.CreationDate,2022-01-08T01:51:44+01:00
; #@! TF.GenerationSoftware,Kicad,Pcbnew,6.0.0
; #@! TF.FileFunction,Plated,1,2,PTH
FMAT,2
INCH
; #@! TA.AperFunction,Plated,PTH,ComponentDrill
T1C0.0315
; #@! TA.AperFunction,Plated,PTH,ComponentDrill
T2C0.0394
; #@! TA.AperFunction,Plated,PTH,ComponentDrill
T3C0.0433
; #@! TA.AperFunction,Plated,PTH,ComponentDrill
T4C0.0469
%
G90
G05
T1
X2.45Y-3.3516
X2.45Y-3.5484
X2.45Y-3.7516
X2.45Y-3.9484
X2.65Y-3.25
X2.65Y-3.65
X2.75Y-3.8579
X2.75Y-4.05
X2.8Y-3.4516
X2.8Y-3.6484
X2.95Y-2.8504
X2.95Y-2.9504
X2.95Y-3.0504
X2.95Y-3.1504
X2.95Y-3.2504
X2.95Y-3.3504
X2.95Y-3.4504
X2.95Y-3.5504
X2.95Y-3.6504
X2.95Y-3.7504
X2.95Y-3.8504
X2.95Y-3.9504
X2.95Y-4.0504
X2.95Y-4.1504
X3.25Y-2.8504
X3.25Y-2.9504
X3.25Y-3.0504
X3.25Y-3.1504
X3.25Y-3.2504
X3.25Y-3.3504
X3.25Y-3.4504
X3.25Y-3.5504
X3.25Y-3.6504
X3.25Y-3.7504
X3.25Y-3.8504
X3.25Y-3.9504
X3.25Y-4.0504
X3.25Y-4.1504
X3.3996Y-3.3516
X3.3996Y-3.5484
T2
X2.95Y-4.35
X3.05Y-4.35
X3.15Y-4.35
X3.25Y-4.35
X3.4Y-3.7
X3.4Y-3.8
X3.4Y-3.9
X3.4Y-4.0
T3
X2.611Y-2.8441
X2.611Y-3.1
X2.7882Y-2.8441
X2.7882Y-3.1
T4
X3.475Y-2.85
X3.475Y-2.95
X3.475Y-3.05
X3.475Y-3.15
T0
M30
