%TF.GenerationSoftware,KiCad,Pcbnew,6.0.0*%
%TF.CreationDate,2022-01-08T01:51:50+01:00*%
%TF.ProjectId,sonars,736f6e61-7273-42e6-9b69-6361645f7063,0.1.0*%
%TF.SameCoordinates,Original*%
%TF.FileFunction,Copper,L1,Top*%
%TF.FilePolarity,Positive*%
%FSLAX46Y46*%
G04 Gerber Fmt 4.6, Leading zero omitted, Abs format (unit mm)*
G04 Created by KiCad (PCBNEW 6.0.0) date 2022-01-08 01:51:50*
%MOMM*%
%LPD*%
G01*
G04 APERTURE LIST*
G04 Aperture macros list*
%AMRoundRect*
0 Rectangle with rounded corners*
0 $1 Rounding radius*
0 $2 $3 $4 $5 $6 $7 $8 $9 X,Y pos of 4 corners*
0 Add a 4 corners polygon primitive as box body*
4,1,4,$2,$3,$4,$5,$6,$7,$8,$9,$2,$3,0*
0 Add four circle primitives for the rounded corners*
1,1,$1+$1,$2,$3*
1,1,$1+$1,$4,$5*
1,1,$1+$1,$6,$7*
1,1,$1+$1,$8,$9*
0 Add four rect primitives between the rounded corners*
20,1,$1+$1,$2,$3,$4,$5,0*
20,1,$1+$1,$4,$5,$6,$7,0*
20,1,$1+$1,$6,$7,$8,$9,0*
20,1,$1+$1,$8,$9,$2,$3,0*%
G04 Aperture macros list end*
%TA.AperFunction,Profile*%
%ADD10C,0.100000*%
%TD*%
%TA.AperFunction,ComponentPad*%
%ADD11R,1.600000X1.600000*%
%TD*%
%TA.AperFunction,ComponentPad*%
%ADD12O,1.600000X1.600000*%
%TD*%
%TA.AperFunction,ComponentPad*%
%ADD13C,2.000000*%
%TD*%
%TA.AperFunction,ComponentPad*%
%ADD14C,1.600000*%
%TD*%
%TA.AperFunction,ComponentPad*%
%ADD15R,1.700000X1.700000*%
%TD*%
%TA.AperFunction,ComponentPad*%
%ADD16O,1.700000X1.700000*%
%TD*%
%TA.AperFunction,ComponentPad*%
%ADD17C,1.500000*%
%TD*%
%TA.AperFunction,ComponentPad*%
%ADD18RoundRect,0.250000X0.845000X-0.620000X0.845000X0.620000X-0.845000X0.620000X-0.845000X-0.620000X0*%
%TD*%
%TA.AperFunction,ComponentPad*%
%ADD19O,2.190000X1.740000*%
%TD*%
G04 APERTURE END LIST*
D10*
X57140000Y-69850000D02*
X92710000Y-69850000D01*
X92710000Y-69850000D02*
X92710000Y-113665000D01*
X92710000Y-113665000D02*
X57140000Y-113665000D01*
X57140000Y-113665000D02*
X57140000Y-69850000D01*
D11*
%TO.P,U1,1,PC6/~{RESET}*%
%TO.N,Net-(R1-Pad2)*%
X74930000Y-72400000D03*
D12*
%TO.P,U1,15,PB1*%
%TO.N,unconnected-(U1-Pad15)*%
X82550000Y-105420000D03*
%TO.P,U1,2,PD0*%
%TO.N,unconnected-(U1-Pad2)*%
X74930000Y-74940000D03*
%TO.P,U1,16,PB2*%
%TO.N,unconnected-(U1-Pad16)*%
X82550000Y-102880000D03*
%TO.P,U1,3,PD1*%
%TO.N,unconnected-(U1-Pad3)*%
X74930000Y-77480000D03*
%TO.P,U1,17,PB3*%
%TO.N,unconnected-(U1-Pad17)*%
X82550000Y-100340000D03*
%TO.P,U1,4,PD2*%
%TO.N,unconnected-(U1-Pad4)*%
X74930000Y-80020000D03*
%TO.P,U1,18,PB4*%
%TO.N,Net-(U1-Pad18)*%
X82550000Y-97800000D03*
%TO.P,U1,5,PD3*%
%TO.N,unconnected-(U1-Pad5)*%
X74930000Y-82560000D03*
%TO.P,U1,19,PB5*%
%TO.N,Net-(U1-Pad19)*%
X82550000Y-95260000D03*
%TO.P,U1,6,PD4*%
%TO.N,unconnected-(U1-Pad6)*%
X74930000Y-85100000D03*
%TO.P,U1,20,AVCC*%
%TO.N,+5V*%
X82550000Y-92720000D03*
%TO.P,U1,7,VCC*%
X74930000Y-87640000D03*
%TO.P,U1,21,AREF*%
X82550000Y-90180000D03*
%TO.P,U1,8,GND*%
%TO.N,GND*%
X74930000Y-90180000D03*
%TO.P,U1,22,AGND*%
X82550000Y-87640000D03*
%TO.P,U1,9,PB6/XTAL1*%
%TO.N,Net-(C3-Pad1)*%
X74930000Y-92720000D03*
%TO.P,U1,23,PC0*%
%TO.N,unconnected-(U1-Pad23)*%
X82550000Y-85100000D03*
%TO.P,U1,10,PB7/XTAL2*%
%TO.N,Net-(C4-Pad1)*%
X74930000Y-95260000D03*
%TO.P,U1,24,PC1*%
%TO.N,unconnected-(U1-Pad24)*%
X82550000Y-82560000D03*
%TO.P,U1,11,PD5*%
%TO.N,unconnected-(U1-Pad11)*%
X74930000Y-97800000D03*
%TO.P,U1,25,PC2*%
%TO.N,unconnected-(U1-Pad25)*%
X82550000Y-80020000D03*
%TO.P,U1,12,PD6*%
%TO.N,unconnected-(U1-Pad12)*%
X74930000Y-100340000D03*
%TO.P,U1,26,PC3*%
%TO.N,unconnected-(U1-Pad26)*%
X82550000Y-77480000D03*
%TO.P,U1,13,PD7*%
%TO.N,Net-(U1-Pad13)*%
X74930000Y-102880000D03*
%TO.P,U1,27,PC4*%
%TO.N,Net-(U1-Pad27)*%
X82550000Y-74940000D03*
%TO.P,U1,14,PB0*%
%TO.N,Net-(U1-Pad14)*%
X74930000Y-105420000D03*
%TO.P,U1,28,PC5*%
%TO.N,Net-(U1-Pad28)*%
X82550000Y-72400000D03*
%TD*%
D13*
%TO.P,SW1,1,1*%
%TO.N,GND*%
X66320000Y-78740000D03*
X66320000Y-72240000D03*
%TO.P,SW1,2,2*%
%TO.N,Net-(R1-Pad2)*%
X70820000Y-72240000D03*
X70820000Y-78740000D03*
%TD*%
D14*
%TO.P,R1,1*%
%TO.N,+5V*%
X67310000Y-92710000D03*
D12*
%TO.P,R1,2*%
%TO.N,Net-(R1-Pad2)*%
X67310000Y-82550000D03*
%TD*%
D14*
%TO.P,C4,1*%
%TO.N,Net-(C4-Pad1)*%
X62230000Y-100290000D03*
%TO.P,C4,2*%
%TO.N,GND*%
X62230000Y-95290000D03*
%TD*%
D15*
%TO.P,J2,1,Pin_1*%
%TO.N,+5V*%
X82550000Y-110490000D03*
D16*
%TO.P,J2,2,Pin_2*%
%TO.N,Net-(U1-Pad14)*%
X80010000Y-110490000D03*
%TO.P,J2,3,Pin_3*%
%TO.N,Net-(U1-Pad13)*%
X77470000Y-110490000D03*
%TO.P,J2,4,Pin_4*%
%TO.N,GND*%
X74930000Y-110490000D03*
%TD*%
D14*
%TO.P,C3,1*%
%TO.N,Net-(C3-Pad1)*%
X62230000Y-90130000D03*
%TO.P,C3,2*%
%TO.N,GND*%
X62230000Y-85130000D03*
%TD*%
%TO.P,C2,1*%
%TO.N,+5V*%
X71120000Y-87670000D03*
%TO.P,C2,2*%
%TO.N,GND*%
X71120000Y-92670000D03*
%TD*%
D15*
%TO.P,J3,1,Pin_1*%
%TO.N,+5V*%
X86360000Y-93980000D03*
D16*
%TO.P,J3,2,Pin_2*%
%TO.N,Net-(U1-Pad19)*%
X86360000Y-96520000D03*
%TO.P,J3,3,Pin_3*%
%TO.N,Net-(U1-Pad18)*%
X86360000Y-99060000D03*
%TO.P,J3,4,Pin_4*%
%TO.N,GND*%
X86360000Y-101600000D03*
%TD*%
D17*
%TO.P,Y1,1,1*%
%TO.N,Net-(C4-Pad1)*%
X69850000Y-102870000D03*
%TO.P,Y1,2,2*%
%TO.N,Net-(C3-Pad1)*%
X69850000Y-97990000D03*
%TD*%
D14*
%TO.P,C1,1*%
%TO.N,+5V*%
X86350000Y-90130000D03*
%TO.P,C1,2*%
%TO.N,GND*%
X86350000Y-85130000D03*
%TD*%
D18*
%TO.P,J1,1,Pin_1*%
%TO.N,+5V*%
X88265000Y-80010000D03*
D19*
%TO.P,J1,2,Pin_2*%
%TO.N,Net-(U1-Pad27)*%
X88265000Y-77470000D03*
%TO.P,J1,3,Pin_3*%
%TO.N,Net-(U1-Pad28)*%
X88265000Y-74930000D03*
%TO.P,J1,4,Pin_4*%
%TO.N,GND*%
X88265000Y-72390000D03*
%TD*%
M02*
