%TF.GenerationSoftware,KiCad,Pcbnew,6.0.2-378541a8eb~116~ubuntu20.04.1*%
%TF.CreationDate,2022-02-28T20:37:39+01:00*%
%TF.ProjectId,lidar,6c696461-722e-46b6-9963-61645f706362,0.3.0*%
%TF.SameCoordinates,PX371baa8PY4509570*%
%TF.FileFunction,Legend,Top*%
%TF.FilePolarity,Positive*%
%FSLAX46Y46*%
G04 Gerber Fmt 4.6, Leading zero omitted, Abs format (unit mm)*
G04 Created by KiCad (PCBNEW 6.0.2-378541a8eb~116~ubuntu20.04.1) date 2022-02-28 20:37:39*
%MOMM*%
%LPD*%
G01*
G04 APERTURE LIST*
%TA.AperFunction,Profile*%
%ADD10C,0.100000*%
%TD*%
%ADD11C,0.150000*%
%ADD12C,0.120000*%
%ADD13C,0.010000*%
G04 APERTURE END LIST*
D10*
X-4445000Y4445000D02*
X41910000Y4445000D01*
X41910000Y4445000D02*
X41910000Y-34925000D01*
X41910000Y-34925000D02*
X-4445000Y-34925000D01*
X-4445000Y-34925000D02*
X-4445000Y4445000D01*
D11*
%TO.C,J3*%
X32051666Y-9837380D02*
X32051666Y-10551666D01*
X32004047Y-10694523D01*
X31908809Y-10789761D01*
X31765952Y-10837380D01*
X31670714Y-10837380D01*
X32432619Y-9837380D02*
X33051666Y-9837380D01*
X32718333Y-10218333D01*
X32861190Y-10218333D01*
X32956428Y-10265952D01*
X33004047Y-10313571D01*
X33051666Y-10408809D01*
X33051666Y-10646904D01*
X33004047Y-10742142D01*
X32956428Y-10789761D01*
X32861190Y-10837380D01*
X32575476Y-10837380D01*
X32480238Y-10789761D01*
X32432619Y-10742142D01*
%TO.C,C4*%
X1967142Y-14131666D02*
X2014761Y-14179285D01*
X2062380Y-14322142D01*
X2062380Y-14417380D01*
X2014761Y-14560238D01*
X1919523Y-14655476D01*
X1824285Y-14703095D01*
X1633809Y-14750714D01*
X1490952Y-14750714D01*
X1300476Y-14703095D01*
X1205238Y-14655476D01*
X1110000Y-14560238D01*
X1062380Y-14417380D01*
X1062380Y-14322142D01*
X1110000Y-14179285D01*
X1157619Y-14131666D01*
X1395714Y-13274523D02*
X2062380Y-13274523D01*
X1014761Y-13512619D02*
X1729047Y-13750714D01*
X1729047Y-13131666D01*
%TO.C,C1*%
X30202142Y-16676666D02*
X30249761Y-16724285D01*
X30297380Y-16867142D01*
X30297380Y-16962380D01*
X30249761Y-17105238D01*
X30154523Y-17200476D01*
X30059285Y-17248095D01*
X29868809Y-17295714D01*
X29725952Y-17295714D01*
X29535476Y-17248095D01*
X29440238Y-17200476D01*
X29345000Y-17105238D01*
X29297380Y-16962380D01*
X29297380Y-16867142D01*
X29345000Y-16724285D01*
X29392619Y-16676666D01*
X30297380Y-15724285D02*
X30297380Y-16295714D01*
X30297380Y-16010000D02*
X29297380Y-16010000D01*
X29440238Y-16105238D01*
X29535476Y-16200476D01*
X29583095Y-16295714D01*
%TO.C,SW1*%
X5044761Y-3238333D02*
X5092380Y-3095476D01*
X5092380Y-2857380D01*
X5044761Y-2762142D01*
X4997142Y-2714523D01*
X4901904Y-2666904D01*
X4806666Y-2666904D01*
X4711428Y-2714523D01*
X4663809Y-2762142D01*
X4616190Y-2857380D01*
X4568571Y-3047857D01*
X4520952Y-3143095D01*
X4473333Y-3190714D01*
X4378095Y-3238333D01*
X4282857Y-3238333D01*
X4187619Y-3190714D01*
X4140000Y-3143095D01*
X4092380Y-3047857D01*
X4092380Y-2809761D01*
X4140000Y-2666904D01*
X4092380Y-2333571D02*
X5092380Y-2095476D01*
X4378095Y-1905000D01*
X5092380Y-1714523D01*
X4092380Y-1476428D01*
X5092380Y-571666D02*
X5092380Y-1143095D01*
X5092380Y-857380D02*
X4092380Y-857380D01*
X4235238Y-952619D01*
X4330476Y-1047857D01*
X4378095Y-1143095D01*
%TO.C,R1*%
X6337380Y-14131666D02*
X5861190Y-14465000D01*
X6337380Y-14703095D02*
X5337380Y-14703095D01*
X5337380Y-14322142D01*
X5385000Y-14226904D01*
X5432619Y-14179285D01*
X5527857Y-14131666D01*
X5670714Y-14131666D01*
X5765952Y-14179285D01*
X5813571Y-14226904D01*
X5861190Y-14322142D01*
X5861190Y-14703095D01*
X6337380Y-13179285D02*
X6337380Y-13750714D01*
X6337380Y-13465000D02*
X5337380Y-13465000D01*
X5480238Y-13560238D01*
X5575476Y-13655476D01*
X5623095Y-13750714D01*
%TO.C,C5*%
X1967142Y-23661666D02*
X2014761Y-23709285D01*
X2062380Y-23852142D01*
X2062380Y-23947380D01*
X2014761Y-24090238D01*
X1919523Y-24185476D01*
X1824285Y-24233095D01*
X1633809Y-24280714D01*
X1490952Y-24280714D01*
X1300476Y-24233095D01*
X1205238Y-24185476D01*
X1110000Y-24090238D01*
X1062380Y-23947380D01*
X1062380Y-23852142D01*
X1110000Y-23709285D01*
X1157619Y-23661666D01*
X1062380Y-22756904D02*
X1062380Y-23233095D01*
X1538571Y-23280714D01*
X1490952Y-23233095D01*
X1443333Y-23137857D01*
X1443333Y-22899761D01*
X1490952Y-22804523D01*
X1538571Y-22756904D01*
X1633809Y-22709285D01*
X1871904Y-22709285D01*
X1967142Y-22756904D01*
X2014761Y-22804523D01*
X2062380Y-22899761D01*
X2062380Y-23137857D01*
X2014761Y-23233095D01*
X1967142Y-23280714D01*
%TO.C,C2*%
X11152142Y-16671666D02*
X11199761Y-16719285D01*
X11247380Y-16862142D01*
X11247380Y-16957380D01*
X11199761Y-17100238D01*
X11104523Y-17195476D01*
X11009285Y-17243095D01*
X10818809Y-17290714D01*
X10675952Y-17290714D01*
X10485476Y-17243095D01*
X10390238Y-17195476D01*
X10295000Y-17100238D01*
X10247380Y-16957380D01*
X10247380Y-16862142D01*
X10295000Y-16719285D01*
X10342619Y-16671666D01*
X10342619Y-16290714D02*
X10295000Y-16243095D01*
X10247380Y-16147857D01*
X10247380Y-15909761D01*
X10295000Y-15814523D01*
X10342619Y-15766904D01*
X10437857Y-15719285D01*
X10533095Y-15719285D01*
X10675952Y-15766904D01*
X11247380Y-16338333D01*
X11247380Y-15719285D01*
%TO.C,J2*%
X28241666Y-19982380D02*
X28241666Y-20696666D01*
X28194047Y-20839523D01*
X28098809Y-20934761D01*
X27955952Y-20982380D01*
X27860714Y-20982380D01*
X28670238Y-20077619D02*
X28717857Y-20030000D01*
X28813095Y-19982380D01*
X29051190Y-19982380D01*
X29146428Y-20030000D01*
X29194047Y-20077619D01*
X29241666Y-20172857D01*
X29241666Y-20268095D01*
X29194047Y-20410952D01*
X28622619Y-20982380D01*
X29241666Y-20982380D01*
%TO.C,U1*%
X19333095Y-14687380D02*
X19333095Y-15496904D01*
X19380714Y-15592142D01*
X19428333Y-15639761D01*
X19523571Y-15687380D01*
X19714047Y-15687380D01*
X19809285Y-15639761D01*
X19856904Y-15592142D01*
X19904523Y-15496904D01*
X19904523Y-14687380D01*
X20904523Y-15687380D02*
X20333095Y-15687380D01*
X20618809Y-15687380D02*
X20618809Y-14687380D01*
X20523571Y-14830238D01*
X20428333Y-14925476D01*
X20333095Y-14973095D01*
%TO.C,Y1*%
X7246190Y-27151190D02*
X7722380Y-27151190D01*
X6722380Y-27484523D02*
X7246190Y-27151190D01*
X6722380Y-26817857D01*
X7722380Y-25960714D02*
X7722380Y-26532142D01*
X7722380Y-26246428D02*
X6722380Y-26246428D01*
X6865238Y-26341666D01*
X6960476Y-26436904D01*
X7008095Y-26532142D01*
%TO.C,J1*%
X33742380Y-5413333D02*
X34456666Y-5413333D01*
X34599523Y-5460952D01*
X34694761Y-5556190D01*
X34742380Y-5699047D01*
X34742380Y-5794285D01*
X34742380Y-4413333D02*
X34742380Y-4984761D01*
X34742380Y-4699047D02*
X33742380Y-4699047D01*
X33885238Y-4794285D01*
X33980476Y-4889523D01*
X34028095Y-4984761D01*
D12*
%TO.C,J3*%
X31055000Y-19125000D02*
X33715000Y-19125000D01*
X31055000Y-13985000D02*
X31055000Y-19125000D01*
X31055000Y-12715000D02*
X31055000Y-11385000D01*
X33715000Y-13985000D02*
X33715000Y-19125000D01*
X31055000Y-11385000D02*
X32385000Y-11385000D01*
X31055000Y-13985000D02*
X33715000Y-13985000D01*
D13*
%TO.C,OSHW - silk*%
X38020814Y-20328931D02*
X38104635Y-20773555D01*
X38104635Y-20773555D02*
X38413920Y-20901053D01*
X38413920Y-20901053D02*
X38723206Y-21028551D01*
X38723206Y-21028551D02*
X39094246Y-20776246D01*
X39094246Y-20776246D02*
X39198157Y-20705996D01*
X39198157Y-20705996D02*
X39292087Y-20643272D01*
X39292087Y-20643272D02*
X39371652Y-20590938D01*
X39371652Y-20590938D02*
X39432470Y-20551857D01*
X39432470Y-20551857D02*
X39470157Y-20528893D01*
X39470157Y-20528893D02*
X39480421Y-20523942D01*
X39480421Y-20523942D02*
X39498910Y-20536676D01*
X39498910Y-20536676D02*
X39538420Y-20571882D01*
X39538420Y-20571882D02*
X39594522Y-20625062D01*
X39594522Y-20625062D02*
X39662787Y-20691718D01*
X39662787Y-20691718D02*
X39738786Y-20767354D01*
X39738786Y-20767354D02*
X39818092Y-20847472D01*
X39818092Y-20847472D02*
X39896275Y-20927574D01*
X39896275Y-20927574D02*
X39968907Y-21003164D01*
X39968907Y-21003164D02*
X40031559Y-21069745D01*
X40031559Y-21069745D02*
X40079803Y-21122818D01*
X40079803Y-21122818D02*
X40109210Y-21157887D01*
X40109210Y-21157887D02*
X40116241Y-21169623D01*
X40116241Y-21169623D02*
X40106123Y-21191260D01*
X40106123Y-21191260D02*
X40077759Y-21238662D01*
X40077759Y-21238662D02*
X40034129Y-21307193D01*
X40034129Y-21307193D02*
X39978218Y-21392215D01*
X39978218Y-21392215D02*
X39913006Y-21489093D01*
X39913006Y-21489093D02*
X39875219Y-21544350D01*
X39875219Y-21544350D02*
X39806343Y-21645248D01*
X39806343Y-21645248D02*
X39745140Y-21736299D01*
X39745140Y-21736299D02*
X39694578Y-21812970D01*
X39694578Y-21812970D02*
X39657628Y-21870728D01*
X39657628Y-21870728D02*
X39637258Y-21905043D01*
X39637258Y-21905043D02*
X39634197Y-21912254D01*
X39634197Y-21912254D02*
X39641136Y-21932748D01*
X39641136Y-21932748D02*
X39660051Y-21980513D01*
X39660051Y-21980513D02*
X39688087Y-22048832D01*
X39688087Y-22048832D02*
X39722391Y-22130989D01*
X39722391Y-22130989D02*
X39760109Y-22220270D01*
X39760109Y-22220270D02*
X39798387Y-22309958D01*
X39798387Y-22309958D02*
X39834370Y-22393338D01*
X39834370Y-22393338D02*
X39865206Y-22463694D01*
X39865206Y-22463694D02*
X39888039Y-22514310D01*
X39888039Y-22514310D02*
X39900017Y-22538471D01*
X39900017Y-22538471D02*
X39900724Y-22539422D01*
X39900724Y-22539422D02*
X39919531Y-22544036D01*
X39919531Y-22544036D02*
X39969618Y-22554328D01*
X39969618Y-22554328D02*
X40045793Y-22569287D01*
X40045793Y-22569287D02*
X40142865Y-22587901D01*
X40142865Y-22587901D02*
X40255643Y-22609159D01*
X40255643Y-22609159D02*
X40321442Y-22621418D01*
X40321442Y-22621418D02*
X40441950Y-22644362D01*
X40441950Y-22644362D02*
X40550797Y-22666195D01*
X40550797Y-22666195D02*
X40642476Y-22685722D01*
X40642476Y-22685722D02*
X40711481Y-22701748D01*
X40711481Y-22701748D02*
X40752304Y-22713079D01*
X40752304Y-22713079D02*
X40760511Y-22716674D01*
X40760511Y-22716674D02*
X40768548Y-22741006D01*
X40768548Y-22741006D02*
X40775033Y-22795959D01*
X40775033Y-22795959D02*
X40779970Y-22875108D01*
X40779970Y-22875108D02*
X40783364Y-22972026D01*
X40783364Y-22972026D02*
X40785218Y-23080287D01*
X40785218Y-23080287D02*
X40785538Y-23193465D01*
X40785538Y-23193465D02*
X40784327Y-23305135D01*
X40784327Y-23305135D02*
X40781590Y-23408868D01*
X40781590Y-23408868D02*
X40777331Y-23498241D01*
X40777331Y-23498241D02*
X40771555Y-23566826D01*
X40771555Y-23566826D02*
X40764267Y-23608197D01*
X40764267Y-23608197D02*
X40759895Y-23616810D01*
X40759895Y-23616810D02*
X40733764Y-23627133D01*
X40733764Y-23627133D02*
X40678393Y-23641892D01*
X40678393Y-23641892D02*
X40601107Y-23659352D01*
X40601107Y-23659352D02*
X40509230Y-23677780D01*
X40509230Y-23677780D02*
X40477158Y-23683741D01*
X40477158Y-23683741D02*
X40322524Y-23712066D01*
X40322524Y-23712066D02*
X40200375Y-23734876D01*
X40200375Y-23734876D02*
X40106673Y-23753080D01*
X40106673Y-23753080D02*
X40037384Y-23767583D01*
X40037384Y-23767583D02*
X39988471Y-23779292D01*
X39988471Y-23779292D02*
X39955897Y-23789115D01*
X39955897Y-23789115D02*
X39935628Y-23797956D01*
X39935628Y-23797956D02*
X39923626Y-23806724D01*
X39923626Y-23806724D02*
X39921947Y-23808457D01*
X39921947Y-23808457D02*
X39905184Y-23836371D01*
X39905184Y-23836371D02*
X39879614Y-23890695D01*
X39879614Y-23890695D02*
X39847788Y-23964777D01*
X39847788Y-23964777D02*
X39812260Y-24051965D01*
X39812260Y-24051965D02*
X39775583Y-24145608D01*
X39775583Y-24145608D02*
X39740311Y-24239052D01*
X39740311Y-24239052D02*
X39708996Y-24325647D01*
X39708996Y-24325647D02*
X39684193Y-24398740D01*
X39684193Y-24398740D02*
X39668454Y-24451678D01*
X39668454Y-24451678D02*
X39664332Y-24477811D01*
X39664332Y-24477811D02*
X39664676Y-24478726D01*
X39664676Y-24478726D02*
X39678641Y-24500086D01*
X39678641Y-24500086D02*
X39710322Y-24547084D01*
X39710322Y-24547084D02*
X39756391Y-24614827D01*
X39756391Y-24614827D02*
X39813518Y-24698423D01*
X39813518Y-24698423D02*
X39878373Y-24792982D01*
X39878373Y-24792982D02*
X39896843Y-24819854D01*
X39896843Y-24819854D02*
X39962699Y-24917275D01*
X39962699Y-24917275D02*
X40020650Y-25006163D01*
X40020650Y-25006163D02*
X40067538Y-25081412D01*
X40067538Y-25081412D02*
X40100207Y-25137920D01*
X40100207Y-25137920D02*
X40115500Y-25170581D01*
X40115500Y-25170581D02*
X40116241Y-25174593D01*
X40116241Y-25174593D02*
X40103392Y-25195684D01*
X40103392Y-25195684D02*
X40067888Y-25237464D01*
X40067888Y-25237464D02*
X40014293Y-25295445D01*
X40014293Y-25295445D02*
X39947171Y-25365135D01*
X39947171Y-25365135D02*
X39871087Y-25442045D01*
X39871087Y-25442045D02*
X39790604Y-25521683D01*
X39790604Y-25521683D02*
X39710287Y-25599561D01*
X39710287Y-25599561D02*
X39634699Y-25671186D01*
X39634699Y-25671186D02*
X39568405Y-25732070D01*
X39568405Y-25732070D02*
X39515969Y-25777721D01*
X39515969Y-25777721D02*
X39481955Y-25803650D01*
X39481955Y-25803650D02*
X39472545Y-25807883D01*
X39472545Y-25807883D02*
X39450643Y-25797912D01*
X39450643Y-25797912D02*
X39405800Y-25771020D01*
X39405800Y-25771020D02*
X39345321Y-25731736D01*
X39345321Y-25731736D02*
X39298789Y-25700117D01*
X39298789Y-25700117D02*
X39214475Y-25642098D01*
X39214475Y-25642098D02*
X39114626Y-25573784D01*
X39114626Y-25573784D02*
X39014473Y-25505579D01*
X39014473Y-25505579D02*
X38960627Y-25469075D01*
X38960627Y-25469075D02*
X38778371Y-25345800D01*
X38778371Y-25345800D02*
X38625381Y-25428520D01*
X38625381Y-25428520D02*
X38555682Y-25464759D01*
X38555682Y-25464759D02*
X38496414Y-25492926D01*
X38496414Y-25492926D02*
X38456311Y-25508991D01*
X38456311Y-25508991D02*
X38446103Y-25511226D01*
X38446103Y-25511226D02*
X38433829Y-25494722D01*
X38433829Y-25494722D02*
X38409613Y-25448082D01*
X38409613Y-25448082D02*
X38375263Y-25375609D01*
X38375263Y-25375609D02*
X38332588Y-25281606D01*
X38332588Y-25281606D02*
X38283394Y-25170374D01*
X38283394Y-25170374D02*
X38229490Y-25046215D01*
X38229490Y-25046215D02*
X38172684Y-24913432D01*
X38172684Y-24913432D02*
X38114782Y-24776327D01*
X38114782Y-24776327D02*
X38057593Y-24639202D01*
X38057593Y-24639202D02*
X38002924Y-24506358D01*
X38002924Y-24506358D02*
X37952584Y-24382098D01*
X37952584Y-24382098D02*
X37908380Y-24270725D01*
X37908380Y-24270725D02*
X37872119Y-24176539D01*
X37872119Y-24176539D02*
X37845609Y-24103844D01*
X37845609Y-24103844D02*
X37830658Y-24056941D01*
X37830658Y-24056941D02*
X37828254Y-24040833D01*
X37828254Y-24040833D02*
X37847311Y-24020286D01*
X37847311Y-24020286D02*
X37889036Y-23986933D01*
X37889036Y-23986933D02*
X37944706Y-23947702D01*
X37944706Y-23947702D02*
X37949378Y-23944599D01*
X37949378Y-23944599D02*
X38093264Y-23829423D01*
X38093264Y-23829423D02*
X38209283Y-23695053D01*
X38209283Y-23695053D02*
X38296430Y-23545784D01*
X38296430Y-23545784D02*
X38353699Y-23385913D01*
X38353699Y-23385913D02*
X38380086Y-23219737D01*
X38380086Y-23219737D02*
X38374585Y-23051552D01*
X38374585Y-23051552D02*
X38336190Y-22885655D01*
X38336190Y-22885655D02*
X38263895Y-22726342D01*
X38263895Y-22726342D02*
X38242626Y-22691487D01*
X38242626Y-22691487D02*
X38131996Y-22550737D01*
X38131996Y-22550737D02*
X38001302Y-22437714D01*
X38001302Y-22437714D02*
X37855064Y-22353003D01*
X37855064Y-22353003D02*
X37697808Y-22297194D01*
X37697808Y-22297194D02*
X37534057Y-22270874D01*
X37534057Y-22270874D02*
X37368333Y-22274630D01*
X37368333Y-22274630D02*
X37205162Y-22309050D01*
X37205162Y-22309050D02*
X37049065Y-22374723D01*
X37049065Y-22374723D02*
X36904567Y-22472235D01*
X36904567Y-22472235D02*
X36859869Y-22511813D01*
X36859869Y-22511813D02*
X36746112Y-22635703D01*
X36746112Y-22635703D02*
X36663218Y-22766124D01*
X36663218Y-22766124D02*
X36606356Y-22912315D01*
X36606356Y-22912315D02*
X36574687Y-23057088D01*
X36574687Y-23057088D02*
X36566869Y-23219860D01*
X36566869Y-23219860D02*
X36592938Y-23383440D01*
X36592938Y-23383440D02*
X36650245Y-23542298D01*
X36650245Y-23542298D02*
X36736144Y-23690906D01*
X36736144Y-23690906D02*
X36847986Y-23823735D01*
X36847986Y-23823735D02*
X36983123Y-23935256D01*
X36983123Y-23935256D02*
X37000883Y-23947011D01*
X37000883Y-23947011D02*
X37057150Y-23985508D01*
X37057150Y-23985508D02*
X37099923Y-24018863D01*
X37099923Y-24018863D02*
X37120372Y-24040160D01*
X37120372Y-24040160D02*
X37120669Y-24040833D01*
X37120669Y-24040833D02*
X37116279Y-24063871D01*
X37116279Y-24063871D02*
X37098876Y-24116157D01*
X37098876Y-24116157D02*
X37070268Y-24193390D01*
X37070268Y-24193390D02*
X37032265Y-24291268D01*
X37032265Y-24291268D02*
X36986674Y-24405491D01*
X36986674Y-24405491D02*
X36935303Y-24531758D01*
X36935303Y-24531758D02*
X36879962Y-24665767D01*
X36879962Y-24665767D02*
X36822458Y-24803218D01*
X36822458Y-24803218D02*
X36764601Y-24939808D01*
X36764601Y-24939808D02*
X36708198Y-25071237D01*
X36708198Y-25071237D02*
X36655058Y-25193205D01*
X36655058Y-25193205D02*
X36606990Y-25301409D01*
X36606990Y-25301409D02*
X36565801Y-25391549D01*
X36565801Y-25391549D02*
X36533301Y-25459323D01*
X36533301Y-25459323D02*
X36511297Y-25500430D01*
X36511297Y-25500430D02*
X36502436Y-25511226D01*
X36502436Y-25511226D02*
X36475360Y-25502819D01*
X36475360Y-25502819D02*
X36424697Y-25480272D01*
X36424697Y-25480272D02*
X36359183Y-25447613D01*
X36359183Y-25447613D02*
X36323159Y-25428520D01*
X36323159Y-25428520D02*
X36170168Y-25345800D01*
X36170168Y-25345800D02*
X35987912Y-25469075D01*
X35987912Y-25469075D02*
X35894875Y-25532228D01*
X35894875Y-25532228D02*
X35793015Y-25601727D01*
X35793015Y-25601727D02*
X35697562Y-25667165D01*
X35697562Y-25667165D02*
X35649750Y-25700117D01*
X35649750Y-25700117D02*
X35582505Y-25745273D01*
X35582505Y-25745273D02*
X35525564Y-25781057D01*
X35525564Y-25781057D02*
X35486354Y-25802938D01*
X35486354Y-25802938D02*
X35473619Y-25807563D01*
X35473619Y-25807563D02*
X35455083Y-25795085D01*
X35455083Y-25795085D02*
X35414059Y-25760252D01*
X35414059Y-25760252D02*
X35354525Y-25706678D01*
X35354525Y-25706678D02*
X35280458Y-25637983D01*
X35280458Y-25637983D02*
X35195835Y-25557781D01*
X35195835Y-25557781D02*
X35142315Y-25506286D01*
X35142315Y-25506286D02*
X35048681Y-25414286D01*
X35048681Y-25414286D02*
X34967759Y-25331999D01*
X34967759Y-25331999D02*
X34902823Y-25262945D01*
X34902823Y-25262945D02*
X34857142Y-25210644D01*
X34857142Y-25210644D02*
X34833989Y-25178616D01*
X34833989Y-25178616D02*
X34831768Y-25172116D01*
X34831768Y-25172116D02*
X34842076Y-25147394D01*
X34842076Y-25147394D02*
X34870561Y-25097405D01*
X34870561Y-25097405D02*
X34914063Y-25027212D01*
X34914063Y-25027212D02*
X34969423Y-24941875D01*
X34969423Y-24941875D02*
X35033480Y-24846456D01*
X35033480Y-24846456D02*
X35051697Y-24819854D01*
X35051697Y-24819854D02*
X35118073Y-24723167D01*
X35118073Y-24723167D02*
X35177622Y-24636117D01*
X35177622Y-24636117D02*
X35227016Y-24563595D01*
X35227016Y-24563595D02*
X35262925Y-24510493D01*
X35262925Y-24510493D02*
X35282019Y-24481703D01*
X35282019Y-24481703D02*
X35283864Y-24478726D01*
X35283864Y-24478726D02*
X35281105Y-24455782D01*
X35281105Y-24455782D02*
X35266462Y-24405336D01*
X35266462Y-24405336D02*
X35242487Y-24334041D01*
X35242487Y-24334041D02*
X35211734Y-24248547D01*
X35211734Y-24248547D02*
X35176756Y-24155507D01*
X35176756Y-24155507D02*
X35140107Y-24061574D01*
X35140107Y-24061574D02*
X35104339Y-23973399D01*
X35104339Y-23973399D02*
X35072006Y-23897634D01*
X35072006Y-23897634D02*
X35045662Y-23840931D01*
X35045662Y-23840931D02*
X35027858Y-23809943D01*
X35027858Y-23809943D02*
X35026593Y-23808457D01*
X35026593Y-23808457D02*
X35015706Y-23799601D01*
X35015706Y-23799601D02*
X34997318Y-23790843D01*
X34997318Y-23790843D02*
X34967394Y-23781277D01*
X34967394Y-23781277D02*
X34921897Y-23769996D01*
X34921897Y-23769996D02*
X34856791Y-23756093D01*
X34856791Y-23756093D02*
X34768039Y-23738663D01*
X34768039Y-23738663D02*
X34651607Y-23716798D01*
X34651607Y-23716798D02*
X34503458Y-23689591D01*
X34503458Y-23689591D02*
X34471382Y-23683741D01*
X34471382Y-23683741D02*
X34376314Y-23665374D01*
X34376314Y-23665374D02*
X34293435Y-23647405D01*
X34293435Y-23647405D02*
X34230070Y-23631569D01*
X34230070Y-23631569D02*
X34193542Y-23619600D01*
X34193542Y-23619600D02*
X34188644Y-23616810D01*
X34188644Y-23616810D02*
X34180573Y-23592072D01*
X34180573Y-23592072D02*
X34174013Y-23536790D01*
X34174013Y-23536790D02*
X34168967Y-23457389D01*
X34168967Y-23457389D02*
X34165441Y-23360296D01*
X34165441Y-23360296D02*
X34163439Y-23251938D01*
X34163439Y-23251938D02*
X34162964Y-23138740D01*
X34162964Y-23138740D02*
X34164023Y-23027128D01*
X34164023Y-23027128D02*
X34166618Y-22923529D01*
X34166618Y-22923529D02*
X34170754Y-22834368D01*
X34170754Y-22834368D02*
X34176437Y-22766072D01*
X34176437Y-22766072D02*
X34183669Y-22725066D01*
X34183669Y-22725066D02*
X34188029Y-22716674D01*
X34188029Y-22716674D02*
X34212302Y-22708208D01*
X34212302Y-22708208D02*
X34267574Y-22694435D01*
X34267574Y-22694435D02*
X34348338Y-22676550D01*
X34348338Y-22676550D02*
X34449088Y-22655748D01*
X34449088Y-22655748D02*
X34564317Y-22633223D01*
X34564317Y-22633223D02*
X34627098Y-22621418D01*
X34627098Y-22621418D02*
X34746213Y-22599151D01*
X34746213Y-22599151D02*
X34852435Y-22578979D01*
X34852435Y-22578979D02*
X34940573Y-22561915D01*
X34940573Y-22561915D02*
X35005434Y-22548969D01*
X35005434Y-22548969D02*
X35041826Y-22541155D01*
X35041826Y-22541155D02*
X35047816Y-22539422D01*
X35047816Y-22539422D02*
X35057939Y-22519890D01*
X35057939Y-22519890D02*
X35079338Y-22472843D01*
X35079338Y-22472843D02*
X35109161Y-22405003D01*
X35109161Y-22405003D02*
X35144555Y-22323091D01*
X35144555Y-22323091D02*
X35182668Y-22233828D01*
X35182668Y-22233828D02*
X35220647Y-22143935D01*
X35220647Y-22143935D02*
X35255640Y-22060135D01*
X35255640Y-22060135D02*
X35284794Y-21989147D01*
X35284794Y-21989147D02*
X35305257Y-21937694D01*
X35305257Y-21937694D02*
X35314177Y-21912497D01*
X35314177Y-21912497D02*
X35314343Y-21911396D01*
X35314343Y-21911396D02*
X35304231Y-21891519D01*
X35304231Y-21891519D02*
X35275883Y-21845777D01*
X35275883Y-21845777D02*
X35232277Y-21778717D01*
X35232277Y-21778717D02*
X35176394Y-21694884D01*
X35176394Y-21694884D02*
X35111213Y-21598826D01*
X35111213Y-21598826D02*
X35073321Y-21543650D01*
X35073321Y-21543650D02*
X35004275Y-21442481D01*
X35004275Y-21442481D02*
X34942950Y-21350630D01*
X34942950Y-21350630D02*
X34892337Y-21272744D01*
X34892337Y-21272744D02*
X34855429Y-21213469D01*
X34855429Y-21213469D02*
X34835218Y-21177451D01*
X34835218Y-21177451D02*
X34832299Y-21169377D01*
X34832299Y-21169377D02*
X34844847Y-21150584D01*
X34844847Y-21150584D02*
X34879537Y-21110457D01*
X34879537Y-21110457D02*
X34931937Y-21053493D01*
X34931937Y-21053493D02*
X34997616Y-20984185D01*
X34997616Y-20984185D02*
X35072144Y-20907031D01*
X35072144Y-20907031D02*
X35151087Y-20826525D01*
X35151087Y-20826525D02*
X35230017Y-20747163D01*
X35230017Y-20747163D02*
X35304500Y-20673440D01*
X35304500Y-20673440D02*
X35370106Y-20609852D01*
X35370106Y-20609852D02*
X35422404Y-20560894D01*
X35422404Y-20560894D02*
X35456961Y-20531061D01*
X35456961Y-20531061D02*
X35468522Y-20523942D01*
X35468522Y-20523942D02*
X35487346Y-20533953D01*
X35487346Y-20533953D02*
X35532369Y-20562078D01*
X35532369Y-20562078D02*
X35599213Y-20605454D01*
X35599213Y-20605454D02*
X35683501Y-20661218D01*
X35683501Y-20661218D02*
X35780856Y-20726506D01*
X35780856Y-20726506D02*
X35854293Y-20776246D01*
X35854293Y-20776246D02*
X36225333Y-21028551D01*
X36225333Y-21028551D02*
X36843905Y-20773555D01*
X36843905Y-20773555D02*
X36927725Y-20328931D01*
X36927725Y-20328931D02*
X37011546Y-19884307D01*
X37011546Y-19884307D02*
X37936994Y-19884307D01*
X37936994Y-19884307D02*
X38020814Y-20328931D01*
X38020814Y-20328931D02*
X38020814Y-20328931D01*
G36*
X38020814Y-20328931D02*
G01*
X38104635Y-20773555D01*
X38413920Y-20901053D01*
X38723206Y-21028551D01*
X39094246Y-20776246D01*
X39198157Y-20705996D01*
X39292087Y-20643272D01*
X39371652Y-20590938D01*
X39432470Y-20551857D01*
X39470157Y-20528893D01*
X39480421Y-20523942D01*
X39498910Y-20536676D01*
X39538420Y-20571882D01*
X39594522Y-20625062D01*
X39662787Y-20691718D01*
X39738786Y-20767354D01*
X39818092Y-20847472D01*
X39896275Y-20927574D01*
X39968907Y-21003164D01*
X40031559Y-21069745D01*
X40079803Y-21122818D01*
X40109210Y-21157887D01*
X40116241Y-21169623D01*
X40106123Y-21191260D01*
X40077759Y-21238662D01*
X40034129Y-21307193D01*
X39978218Y-21392215D01*
X39913006Y-21489093D01*
X39875219Y-21544350D01*
X39806343Y-21645248D01*
X39745140Y-21736299D01*
X39694578Y-21812970D01*
X39657628Y-21870728D01*
X39637258Y-21905043D01*
X39634197Y-21912254D01*
X39641136Y-21932748D01*
X39660051Y-21980513D01*
X39688087Y-22048832D01*
X39722391Y-22130989D01*
X39760109Y-22220270D01*
X39798387Y-22309958D01*
X39834370Y-22393338D01*
X39865206Y-22463694D01*
X39888039Y-22514310D01*
X39900017Y-22538471D01*
X39900724Y-22539422D01*
X39919531Y-22544036D01*
X39969618Y-22554328D01*
X40045793Y-22569287D01*
X40142865Y-22587901D01*
X40255643Y-22609159D01*
X40321442Y-22621418D01*
X40441950Y-22644362D01*
X40550797Y-22666195D01*
X40642476Y-22685722D01*
X40711481Y-22701748D01*
X40752304Y-22713079D01*
X40760511Y-22716674D01*
X40768548Y-22741006D01*
X40775033Y-22795959D01*
X40779970Y-22875108D01*
X40783364Y-22972026D01*
X40785218Y-23080287D01*
X40785538Y-23193465D01*
X40784327Y-23305135D01*
X40781590Y-23408868D01*
X40777331Y-23498241D01*
X40771555Y-23566826D01*
X40764267Y-23608197D01*
X40759895Y-23616810D01*
X40733764Y-23627133D01*
X40678393Y-23641892D01*
X40601107Y-23659352D01*
X40509230Y-23677780D01*
X40477158Y-23683741D01*
X40322524Y-23712066D01*
X40200375Y-23734876D01*
X40106673Y-23753080D01*
X40037384Y-23767583D01*
X39988471Y-23779292D01*
X39955897Y-23789115D01*
X39935628Y-23797956D01*
X39923626Y-23806724D01*
X39921947Y-23808457D01*
X39905184Y-23836371D01*
X39879614Y-23890695D01*
X39847788Y-23964777D01*
X39812260Y-24051965D01*
X39775583Y-24145608D01*
X39740311Y-24239052D01*
X39708996Y-24325647D01*
X39684193Y-24398740D01*
X39668454Y-24451678D01*
X39664332Y-24477811D01*
X39664676Y-24478726D01*
X39678641Y-24500086D01*
X39710322Y-24547084D01*
X39756391Y-24614827D01*
X39813518Y-24698423D01*
X39878373Y-24792982D01*
X39896843Y-24819854D01*
X39962699Y-24917275D01*
X40020650Y-25006163D01*
X40067538Y-25081412D01*
X40100207Y-25137920D01*
X40115500Y-25170581D01*
X40116241Y-25174593D01*
X40103392Y-25195684D01*
X40067888Y-25237464D01*
X40014293Y-25295445D01*
X39947171Y-25365135D01*
X39871087Y-25442045D01*
X39790604Y-25521683D01*
X39710287Y-25599561D01*
X39634699Y-25671186D01*
X39568405Y-25732070D01*
X39515969Y-25777721D01*
X39481955Y-25803650D01*
X39472545Y-25807883D01*
X39450643Y-25797912D01*
X39405800Y-25771020D01*
X39345321Y-25731736D01*
X39298789Y-25700117D01*
X39214475Y-25642098D01*
X39114626Y-25573784D01*
X39014473Y-25505579D01*
X38960627Y-25469075D01*
X38778371Y-25345800D01*
X38625381Y-25428520D01*
X38555682Y-25464759D01*
X38496414Y-25492926D01*
X38456311Y-25508991D01*
X38446103Y-25511226D01*
X38433829Y-25494722D01*
X38409613Y-25448082D01*
X38375263Y-25375609D01*
X38332588Y-25281606D01*
X38283394Y-25170374D01*
X38229490Y-25046215D01*
X38172684Y-24913432D01*
X38114782Y-24776327D01*
X38057593Y-24639202D01*
X38002924Y-24506358D01*
X37952584Y-24382098D01*
X37908380Y-24270725D01*
X37872119Y-24176539D01*
X37845609Y-24103844D01*
X37830658Y-24056941D01*
X37828254Y-24040833D01*
X37847311Y-24020286D01*
X37889036Y-23986933D01*
X37944706Y-23947702D01*
X37949378Y-23944599D01*
X38093264Y-23829423D01*
X38209283Y-23695053D01*
X38296430Y-23545784D01*
X38353699Y-23385913D01*
X38380086Y-23219737D01*
X38374585Y-23051552D01*
X38336190Y-22885655D01*
X38263895Y-22726342D01*
X38242626Y-22691487D01*
X38131996Y-22550737D01*
X38001302Y-22437714D01*
X37855064Y-22353003D01*
X37697808Y-22297194D01*
X37534057Y-22270874D01*
X37368333Y-22274630D01*
X37205162Y-22309050D01*
X37049065Y-22374723D01*
X36904567Y-22472235D01*
X36859869Y-22511813D01*
X36746112Y-22635703D01*
X36663218Y-22766124D01*
X36606356Y-22912315D01*
X36574687Y-23057088D01*
X36566869Y-23219860D01*
X36592938Y-23383440D01*
X36650245Y-23542298D01*
X36736144Y-23690906D01*
X36847986Y-23823735D01*
X36983123Y-23935256D01*
X37000883Y-23947011D01*
X37057150Y-23985508D01*
X37099923Y-24018863D01*
X37120372Y-24040160D01*
X37120669Y-24040833D01*
X37116279Y-24063871D01*
X37098876Y-24116157D01*
X37070268Y-24193390D01*
X37032265Y-24291268D01*
X36986674Y-24405491D01*
X36935303Y-24531758D01*
X36879962Y-24665767D01*
X36822458Y-24803218D01*
X36764601Y-24939808D01*
X36708198Y-25071237D01*
X36655058Y-25193205D01*
X36606990Y-25301409D01*
X36565801Y-25391549D01*
X36533301Y-25459323D01*
X36511297Y-25500430D01*
X36502436Y-25511226D01*
X36475360Y-25502819D01*
X36424697Y-25480272D01*
X36359183Y-25447613D01*
X36323159Y-25428520D01*
X36170168Y-25345800D01*
X35987912Y-25469075D01*
X35894875Y-25532228D01*
X35793015Y-25601727D01*
X35697562Y-25667165D01*
X35649750Y-25700117D01*
X35582505Y-25745273D01*
X35525564Y-25781057D01*
X35486354Y-25802938D01*
X35473619Y-25807563D01*
X35455083Y-25795085D01*
X35414059Y-25760252D01*
X35354525Y-25706678D01*
X35280458Y-25637983D01*
X35195835Y-25557781D01*
X35142315Y-25506286D01*
X35048681Y-25414286D01*
X34967759Y-25331999D01*
X34902823Y-25262945D01*
X34857142Y-25210644D01*
X34833989Y-25178616D01*
X34831768Y-25172116D01*
X34842076Y-25147394D01*
X34870561Y-25097405D01*
X34914063Y-25027212D01*
X34969423Y-24941875D01*
X35033480Y-24846456D01*
X35051697Y-24819854D01*
X35118073Y-24723167D01*
X35177622Y-24636117D01*
X35227016Y-24563595D01*
X35262925Y-24510493D01*
X35282019Y-24481703D01*
X35283864Y-24478726D01*
X35281105Y-24455782D01*
X35266462Y-24405336D01*
X35242487Y-24334041D01*
X35211734Y-24248547D01*
X35176756Y-24155507D01*
X35140107Y-24061574D01*
X35104339Y-23973399D01*
X35072006Y-23897634D01*
X35045662Y-23840931D01*
X35027858Y-23809943D01*
X35026593Y-23808457D01*
X35015706Y-23799601D01*
X34997318Y-23790843D01*
X34967394Y-23781277D01*
X34921897Y-23769996D01*
X34856791Y-23756093D01*
X34768039Y-23738663D01*
X34651607Y-23716798D01*
X34503458Y-23689591D01*
X34471382Y-23683741D01*
X34376314Y-23665374D01*
X34293435Y-23647405D01*
X34230070Y-23631569D01*
X34193542Y-23619600D01*
X34188644Y-23616810D01*
X34180573Y-23592072D01*
X34174013Y-23536790D01*
X34168967Y-23457389D01*
X34165441Y-23360296D01*
X34163439Y-23251938D01*
X34162964Y-23138740D01*
X34164023Y-23027128D01*
X34166618Y-22923529D01*
X34170754Y-22834368D01*
X34176437Y-22766072D01*
X34183669Y-22725066D01*
X34188029Y-22716674D01*
X34212302Y-22708208D01*
X34267574Y-22694435D01*
X34348338Y-22676550D01*
X34449088Y-22655748D01*
X34564317Y-22633223D01*
X34627098Y-22621418D01*
X34746213Y-22599151D01*
X34852435Y-22578979D01*
X34940573Y-22561915D01*
X35005434Y-22548969D01*
X35041826Y-22541155D01*
X35047816Y-22539422D01*
X35057939Y-22519890D01*
X35079338Y-22472843D01*
X35109161Y-22405003D01*
X35144555Y-22323091D01*
X35182668Y-22233828D01*
X35220647Y-22143935D01*
X35255640Y-22060135D01*
X35284794Y-21989147D01*
X35305257Y-21937694D01*
X35314177Y-21912497D01*
X35314343Y-21911396D01*
X35304231Y-21891519D01*
X35275883Y-21845777D01*
X35232277Y-21778717D01*
X35176394Y-21694884D01*
X35111213Y-21598826D01*
X35073321Y-21543650D01*
X35004275Y-21442481D01*
X34942950Y-21350630D01*
X34892337Y-21272744D01*
X34855429Y-21213469D01*
X34835218Y-21177451D01*
X34832299Y-21169377D01*
X34844847Y-21150584D01*
X34879537Y-21110457D01*
X34931937Y-21053493D01*
X34997616Y-20984185D01*
X35072144Y-20907031D01*
X35151087Y-20826525D01*
X35230017Y-20747163D01*
X35304500Y-20673440D01*
X35370106Y-20609852D01*
X35422404Y-20560894D01*
X35456961Y-20531061D01*
X35468522Y-20523942D01*
X35487346Y-20533953D01*
X35532369Y-20562078D01*
X35599213Y-20605454D01*
X35683501Y-20661218D01*
X35780856Y-20726506D01*
X35854293Y-20776246D01*
X36225333Y-21028551D01*
X36843905Y-20773555D01*
X36927725Y-20328931D01*
X37011546Y-19884307D01*
X37936994Y-19884307D01*
X38020814Y-20328931D01*
G37*
X38020814Y-20328931D02*
X38104635Y-20773555D01*
X38413920Y-20901053D01*
X38723206Y-21028551D01*
X39094246Y-20776246D01*
X39198157Y-20705996D01*
X39292087Y-20643272D01*
X39371652Y-20590938D01*
X39432470Y-20551857D01*
X39470157Y-20528893D01*
X39480421Y-20523942D01*
X39498910Y-20536676D01*
X39538420Y-20571882D01*
X39594522Y-20625062D01*
X39662787Y-20691718D01*
X39738786Y-20767354D01*
X39818092Y-20847472D01*
X39896275Y-20927574D01*
X39968907Y-21003164D01*
X40031559Y-21069745D01*
X40079803Y-21122818D01*
X40109210Y-21157887D01*
X40116241Y-21169623D01*
X40106123Y-21191260D01*
X40077759Y-21238662D01*
X40034129Y-21307193D01*
X39978218Y-21392215D01*
X39913006Y-21489093D01*
X39875219Y-21544350D01*
X39806343Y-21645248D01*
X39745140Y-21736299D01*
X39694578Y-21812970D01*
X39657628Y-21870728D01*
X39637258Y-21905043D01*
X39634197Y-21912254D01*
X39641136Y-21932748D01*
X39660051Y-21980513D01*
X39688087Y-22048832D01*
X39722391Y-22130989D01*
X39760109Y-22220270D01*
X39798387Y-22309958D01*
X39834370Y-22393338D01*
X39865206Y-22463694D01*
X39888039Y-22514310D01*
X39900017Y-22538471D01*
X39900724Y-22539422D01*
X39919531Y-22544036D01*
X39969618Y-22554328D01*
X40045793Y-22569287D01*
X40142865Y-22587901D01*
X40255643Y-22609159D01*
X40321442Y-22621418D01*
X40441950Y-22644362D01*
X40550797Y-22666195D01*
X40642476Y-22685722D01*
X40711481Y-22701748D01*
X40752304Y-22713079D01*
X40760511Y-22716674D01*
X40768548Y-22741006D01*
X40775033Y-22795959D01*
X40779970Y-22875108D01*
X40783364Y-22972026D01*
X40785218Y-23080287D01*
X40785538Y-23193465D01*
X40784327Y-23305135D01*
X40781590Y-23408868D01*
X40777331Y-23498241D01*
X40771555Y-23566826D01*
X40764267Y-23608197D01*
X40759895Y-23616810D01*
X40733764Y-23627133D01*
X40678393Y-23641892D01*
X40601107Y-23659352D01*
X40509230Y-23677780D01*
X40477158Y-23683741D01*
X40322524Y-23712066D01*
X40200375Y-23734876D01*
X40106673Y-23753080D01*
X40037384Y-23767583D01*
X39988471Y-23779292D01*
X39955897Y-23789115D01*
X39935628Y-23797956D01*
X39923626Y-23806724D01*
X39921947Y-23808457D01*
X39905184Y-23836371D01*
X39879614Y-23890695D01*
X39847788Y-23964777D01*
X39812260Y-24051965D01*
X39775583Y-24145608D01*
X39740311Y-24239052D01*
X39708996Y-24325647D01*
X39684193Y-24398740D01*
X39668454Y-24451678D01*
X39664332Y-24477811D01*
X39664676Y-24478726D01*
X39678641Y-24500086D01*
X39710322Y-24547084D01*
X39756391Y-24614827D01*
X39813518Y-24698423D01*
X39878373Y-24792982D01*
X39896843Y-24819854D01*
X39962699Y-24917275D01*
X40020650Y-25006163D01*
X40067538Y-25081412D01*
X40100207Y-25137920D01*
X40115500Y-25170581D01*
X40116241Y-25174593D01*
X40103392Y-25195684D01*
X40067888Y-25237464D01*
X40014293Y-25295445D01*
X39947171Y-25365135D01*
X39871087Y-25442045D01*
X39790604Y-25521683D01*
X39710287Y-25599561D01*
X39634699Y-25671186D01*
X39568405Y-25732070D01*
X39515969Y-25777721D01*
X39481955Y-25803650D01*
X39472545Y-25807883D01*
X39450643Y-25797912D01*
X39405800Y-25771020D01*
X39345321Y-25731736D01*
X39298789Y-25700117D01*
X39214475Y-25642098D01*
X39114626Y-25573784D01*
X39014473Y-25505579D01*
X38960627Y-25469075D01*
X38778371Y-25345800D01*
X38625381Y-25428520D01*
X38555682Y-25464759D01*
X38496414Y-25492926D01*
X38456311Y-25508991D01*
X38446103Y-25511226D01*
X38433829Y-25494722D01*
X38409613Y-25448082D01*
X38375263Y-25375609D01*
X38332588Y-25281606D01*
X38283394Y-25170374D01*
X38229490Y-25046215D01*
X38172684Y-24913432D01*
X38114782Y-24776327D01*
X38057593Y-24639202D01*
X38002924Y-24506358D01*
X37952584Y-24382098D01*
X37908380Y-24270725D01*
X37872119Y-24176539D01*
X37845609Y-24103844D01*
X37830658Y-24056941D01*
X37828254Y-24040833D01*
X37847311Y-24020286D01*
X37889036Y-23986933D01*
X37944706Y-23947702D01*
X37949378Y-23944599D01*
X38093264Y-23829423D01*
X38209283Y-23695053D01*
X38296430Y-23545784D01*
X38353699Y-23385913D01*
X38380086Y-23219737D01*
X38374585Y-23051552D01*
X38336190Y-22885655D01*
X38263895Y-22726342D01*
X38242626Y-22691487D01*
X38131996Y-22550737D01*
X38001302Y-22437714D01*
X37855064Y-22353003D01*
X37697808Y-22297194D01*
X37534057Y-22270874D01*
X37368333Y-22274630D01*
X37205162Y-22309050D01*
X37049065Y-22374723D01*
X36904567Y-22472235D01*
X36859869Y-22511813D01*
X36746112Y-22635703D01*
X36663218Y-22766124D01*
X36606356Y-22912315D01*
X36574687Y-23057088D01*
X36566869Y-23219860D01*
X36592938Y-23383440D01*
X36650245Y-23542298D01*
X36736144Y-23690906D01*
X36847986Y-23823735D01*
X36983123Y-23935256D01*
X37000883Y-23947011D01*
X37057150Y-23985508D01*
X37099923Y-24018863D01*
X37120372Y-24040160D01*
X37120669Y-24040833D01*
X37116279Y-24063871D01*
X37098876Y-24116157D01*
X37070268Y-24193390D01*
X37032265Y-24291268D01*
X36986674Y-24405491D01*
X36935303Y-24531758D01*
X36879962Y-24665767D01*
X36822458Y-24803218D01*
X36764601Y-24939808D01*
X36708198Y-25071237D01*
X36655058Y-25193205D01*
X36606990Y-25301409D01*
X36565801Y-25391549D01*
X36533301Y-25459323D01*
X36511297Y-25500430D01*
X36502436Y-25511226D01*
X36475360Y-25502819D01*
X36424697Y-25480272D01*
X36359183Y-25447613D01*
X36323159Y-25428520D01*
X36170168Y-25345800D01*
X35987912Y-25469075D01*
X35894875Y-25532228D01*
X35793015Y-25601727D01*
X35697562Y-25667165D01*
X35649750Y-25700117D01*
X35582505Y-25745273D01*
X35525564Y-25781057D01*
X35486354Y-25802938D01*
X35473619Y-25807563D01*
X35455083Y-25795085D01*
X35414059Y-25760252D01*
X35354525Y-25706678D01*
X35280458Y-25637983D01*
X35195835Y-25557781D01*
X35142315Y-25506286D01*
X35048681Y-25414286D01*
X34967759Y-25331999D01*
X34902823Y-25262945D01*
X34857142Y-25210644D01*
X34833989Y-25178616D01*
X34831768Y-25172116D01*
X34842076Y-25147394D01*
X34870561Y-25097405D01*
X34914063Y-25027212D01*
X34969423Y-24941875D01*
X35033480Y-24846456D01*
X35051697Y-24819854D01*
X35118073Y-24723167D01*
X35177622Y-24636117D01*
X35227016Y-24563595D01*
X35262925Y-24510493D01*
X35282019Y-24481703D01*
X35283864Y-24478726D01*
X35281105Y-24455782D01*
X35266462Y-24405336D01*
X35242487Y-24334041D01*
X35211734Y-24248547D01*
X35176756Y-24155507D01*
X35140107Y-24061574D01*
X35104339Y-23973399D01*
X35072006Y-23897634D01*
X35045662Y-23840931D01*
X35027858Y-23809943D01*
X35026593Y-23808457D01*
X35015706Y-23799601D01*
X34997318Y-23790843D01*
X34967394Y-23781277D01*
X34921897Y-23769996D01*
X34856791Y-23756093D01*
X34768039Y-23738663D01*
X34651607Y-23716798D01*
X34503458Y-23689591D01*
X34471382Y-23683741D01*
X34376314Y-23665374D01*
X34293435Y-23647405D01*
X34230070Y-23631569D01*
X34193542Y-23619600D01*
X34188644Y-23616810D01*
X34180573Y-23592072D01*
X34174013Y-23536790D01*
X34168967Y-23457389D01*
X34165441Y-23360296D01*
X34163439Y-23251938D01*
X34162964Y-23138740D01*
X34164023Y-23027128D01*
X34166618Y-22923529D01*
X34170754Y-22834368D01*
X34176437Y-22766072D01*
X34183669Y-22725066D01*
X34188029Y-22716674D01*
X34212302Y-22708208D01*
X34267574Y-22694435D01*
X34348338Y-22676550D01*
X34449088Y-22655748D01*
X34564317Y-22633223D01*
X34627098Y-22621418D01*
X34746213Y-22599151D01*
X34852435Y-22578979D01*
X34940573Y-22561915D01*
X35005434Y-22548969D01*
X35041826Y-22541155D01*
X35047816Y-22539422D01*
X35057939Y-22519890D01*
X35079338Y-22472843D01*
X35109161Y-22405003D01*
X35144555Y-22323091D01*
X35182668Y-22233828D01*
X35220647Y-22143935D01*
X35255640Y-22060135D01*
X35284794Y-21989147D01*
X35305257Y-21937694D01*
X35314177Y-21912497D01*
X35314343Y-21911396D01*
X35304231Y-21891519D01*
X35275883Y-21845777D01*
X35232277Y-21778717D01*
X35176394Y-21694884D01*
X35111213Y-21598826D01*
X35073321Y-21543650D01*
X35004275Y-21442481D01*
X34942950Y-21350630D01*
X34892337Y-21272744D01*
X34855429Y-21213469D01*
X34835218Y-21177451D01*
X34832299Y-21169377D01*
X34844847Y-21150584D01*
X34879537Y-21110457D01*
X34931937Y-21053493D01*
X34997616Y-20984185D01*
X35072144Y-20907031D01*
X35151087Y-20826525D01*
X35230017Y-20747163D01*
X35304500Y-20673440D01*
X35370106Y-20609852D01*
X35422404Y-20560894D01*
X35456961Y-20531061D01*
X35468522Y-20523942D01*
X35487346Y-20533953D01*
X35532369Y-20562078D01*
X35599213Y-20605454D01*
X35683501Y-20661218D01*
X35780856Y-20726506D01*
X35854293Y-20776246D01*
X36225333Y-21028551D01*
X36843905Y-20773555D01*
X36927725Y-20328931D01*
X37011546Y-19884307D01*
X37936994Y-19884307D01*
X38020814Y-20328931D01*
D12*
%TO.C,C4*%
X2740000Y-16235000D02*
X2755000Y-16235000D01*
X4865000Y-16235000D02*
X4880000Y-16235000D01*
X2740000Y-16235000D02*
X2740000Y-11695000D01*
X2740000Y-11695000D02*
X2755000Y-11695000D01*
X4880000Y-16235000D02*
X4880000Y-11695000D01*
X4865000Y-11695000D02*
X4880000Y-11695000D01*
%TO.C,C1*%
X26870000Y-14240000D02*
X26885000Y-14240000D01*
X29010000Y-18780000D02*
X29010000Y-14240000D01*
X28995000Y-14240000D02*
X29010000Y-14240000D01*
X26870000Y-18780000D02*
X26870000Y-14240000D01*
X26870000Y-18780000D02*
X26885000Y-18780000D01*
X28995000Y-18780000D02*
X29010000Y-18780000D01*
%TO.C,SW1*%
X8140000Y-5405000D02*
X9640000Y-5405000D01*
X12140000Y-4155000D02*
X12140000Y345000D01*
X9640000Y1595000D02*
X8140000Y1595000D01*
X5640000Y345000D02*
X5640000Y-4155000D01*
%TO.C,R1*%
X9625000Y-17235000D02*
X9625000Y-10695000D01*
X6885000Y-17235000D02*
X9625000Y-17235000D01*
X8255000Y-18005000D02*
X8255000Y-17235000D01*
X6885000Y-10695000D02*
X6885000Y-17235000D01*
X9625000Y-10695000D02*
X6885000Y-10695000D01*
X8255000Y-9925000D02*
X8255000Y-10695000D01*
%TO.C,C5*%
X4865000Y-21225000D02*
X4880000Y-21225000D01*
X2740000Y-25765000D02*
X2740000Y-21225000D01*
X4880000Y-25765000D02*
X4880000Y-21225000D01*
X2740000Y-21225000D02*
X2755000Y-21225000D01*
X4865000Y-25765000D02*
X4880000Y-25765000D01*
X2740000Y-25765000D02*
X2755000Y-25765000D01*
%TO.C,C2*%
X11645000Y-18775000D02*
X11630000Y-18775000D01*
X13770000Y-14235000D02*
X13770000Y-18775000D01*
X11645000Y-14235000D02*
X11630000Y-14235000D01*
X11630000Y-14235000D02*
X11630000Y-18775000D01*
X13770000Y-18775000D02*
X13755000Y-18775000D01*
X13770000Y-14235000D02*
X13755000Y-14235000D01*
%TO.C,J2*%
X27245000Y-24130000D02*
X29905000Y-24130000D01*
X27245000Y-24130000D02*
X27245000Y-31810000D01*
X29905000Y-24130000D02*
X29905000Y-31810000D01*
X27245000Y-21530000D02*
X28575000Y-21530000D01*
X27245000Y-22860000D02*
X27245000Y-21530000D01*
X27245000Y-31810000D02*
X29905000Y-31810000D01*
%TO.C,U1*%
X19095000Y2605000D02*
G75*
G03*
X21095000Y2605000I1000000J0D01*
G01*
X25235000Y2665000D02*
X14955000Y2665000D01*
X14955000Y-33135000D02*
X25235000Y-33135000D01*
X19095000Y2605000D02*
X17445000Y2605000D01*
X25235000Y-33135000D02*
X25235000Y2665000D01*
X22745000Y-33075000D02*
X22745000Y2605000D01*
X17445000Y-33075000D02*
X22745000Y-33075000D01*
X17445000Y2605000D02*
X17445000Y-33075000D01*
X14955000Y2665000D02*
X14955000Y-33135000D01*
X22745000Y2605000D02*
X21095000Y2605000D01*
%TO.C,Y1*%
X8270000Y-29875000D02*
X8270000Y-23475000D01*
X13320000Y-29875000D02*
X13320000Y-23475000D01*
X13320000Y-23475000D02*
G75*
G03*
X8270000Y-23475000I-2525000J0D01*
G01*
X8270000Y-29875000D02*
G75*
G03*
X13320000Y-29875000I2525000J0D01*
G01*
%TO.C,J1*%
X31305000Y1020000D02*
X31835000Y1270000D01*
X26815000Y470000D02*
X27415000Y470000D01*
X26815000Y-2070000D02*
X27415000Y-2070000D01*
X27415000Y-5550000D02*
X26815000Y-5550000D01*
X27415000Y-4610000D02*
X27415000Y-3010000D01*
X31835000Y1270000D02*
X32835000Y1270000D01*
X27415000Y470000D02*
X27415000Y2070000D01*
X27415000Y-7150000D02*
X27415000Y-5550000D01*
X27415000Y-2070000D02*
X27415000Y-470000D01*
X31835000Y-6350000D02*
X31835000Y1270000D01*
X32835000Y-7730000D02*
X32835000Y2650000D01*
X26815000Y2650000D02*
X26815000Y-7730000D01*
X26815000Y-7150000D02*
X27415000Y-7150000D01*
X27415000Y-470000D02*
X26815000Y-470000D01*
X32835000Y2650000D02*
X26815000Y2650000D01*
X32835000Y1020000D02*
X31835000Y1020000D01*
X32835000Y-6350000D02*
X31835000Y-6350000D01*
X27415000Y2070000D02*
X26815000Y2070000D01*
X27845000Y-8020000D02*
X31845000Y-8020000D01*
X31835000Y-6350000D02*
X31305000Y-6100000D01*
X32835000Y-6100000D02*
X31835000Y-6100000D01*
X31305000Y-6100000D02*
X31305000Y1020000D01*
X26815000Y-4610000D02*
X27415000Y-4610000D01*
X27415000Y-3010000D02*
X26815000Y-3010000D01*
X26815000Y-7730000D02*
X32835000Y-7730000D01*
%TD*%
M02*
