M48
; DRILL file {KiCad 6.0.0} date So 8. ledna 2022, 11:11:59
; FORMAT={-:-/ absolute / inch / decimal}
; #@! TF.CreationDate,2022-01-08T11:11:59+01:00
; #@! TF.GenerationSoftware,Kicad,Pcbnew,6.0.0
; #@! TF.FileFunction,Plated,1,2,PTH
FMAT,2
INCH
; #@! TA.AperFunction,Plated,PTH,ViaDrill
T1C0.0315
; #@! TA.AperFunction,Plated,PTH,ComponentDrill
T2C0.0315
; #@! TA.AperFunction,Plated,PTH,ComponentDrill
T3C0.0394
; #@! TA.AperFunction,Plated,PTH,ComponentDrill
T4C0.0433
; #@! TA.AperFunction,Plated,PTH,ComponentDrill
T5C0.0469
%
G90
G05
T1
X2.525Y-3.275
X2.525Y-3.3998
X3.1Y-3.3248
X3.25Y-3.725
X3.3Y-3.3248
T2
X2.175Y-3.4014
X2.175Y-3.5982
X2.175Y-3.7766
X2.175Y-3.9734
X2.35Y-3.2998
X2.35Y-3.6998
X2.45Y-3.9041
X2.45Y-4.0963
X2.525Y-3.5014
X2.525Y-3.6982
X2.6661Y-2.8998
X2.6661Y-2.9998
X2.6661Y-3.0998
X2.6661Y-3.1998
X2.6661Y-3.2998
X2.6661Y-3.3998
X2.6661Y-3.4998
X2.6661Y-3.5998
X2.6661Y-3.6998
X2.6661Y-3.7998
X2.6661Y-3.8998
X2.6661Y-3.9998
X2.6661Y-4.0998
X2.6661Y-4.1998
X2.9661Y-2.8998
X2.9661Y-2.9998
X2.9661Y-3.0998
X2.9661Y-3.1998
X2.9661Y-3.2998
X2.9661Y-3.3998
X2.9661Y-3.4998
X2.9661Y-3.5998
X2.9661Y-3.6998
X2.9661Y-3.7998
X2.9661Y-3.8998
X2.9661Y-3.9998
X2.9661Y-4.0998
X2.9661Y-4.1998
X3.1Y-3.5014
X3.1Y-3.6982
X3.55Y-2.8994
X3.55Y-2.9994
X3.55Y-3.0994
X3.55Y-3.1994
X3.55Y-3.2994
X3.55Y-3.3994
X3.55Y-3.4994
X3.55Y-3.5994
X3.85Y-2.8994
X3.85Y-2.9994
X3.85Y-3.0994
X3.85Y-3.1994
X3.85Y-3.2994
X3.85Y-3.3994
X3.85Y-3.4994
X3.85Y-3.5994
X3.85Y-3.7516
X3.85Y-3.9484
T3
X3.15Y-3.9002
X3.15Y-4.0002
X3.15Y-4.1002
X3.15Y-4.2002
X3.4Y-3.8
X3.4Y-3.9
X3.4Y-4.0
X3.4Y-4.1
X3.4Y-4.2
T4
X2.2864Y-2.897
X2.2864Y-3.153
X2.4636Y-2.897
X2.4636Y-3.153
T5
X3.2008Y-2.7998
X3.2008Y-2.8998
X3.2008Y-2.9998
X3.2008Y-3.0998
T0
M30
