%TF.GenerationSoftware,KiCad,Pcbnew,6.0.0*%
%TF.CreationDate,2022-01-08T11:12:03+01:00*%
%TF.ProjectId,lidar,6c696461-722e-46b6-9963-61645f706362,0.1.0*%
%TF.SameCoordinates,Original*%
%TF.FileFunction,Soldermask,Bot*%
%TF.FilePolarity,Negative*%
%FSLAX46Y46*%
G04 Gerber Fmt 4.6, Leading zero omitted, Abs format (unit mm)*
G04 Created by KiCad (PCBNEW 6.0.0) date 2022-01-08 11:12:03*
%MOMM*%
%LPD*%
G01*
G04 APERTURE LIST*
G04 Aperture macros list*
%AMRoundRect*
0 Rectangle with rounded corners*
0 $1 Rounding radius*
0 $2 $3 $4 $5 $6 $7 $8 $9 X,Y pos of 4 corners*
0 Add a 4 corners polygon primitive as box body*
4,1,4,$2,$3,$4,$5,$6,$7,$8,$9,$2,$3,0*
0 Add four circle primitives for the rounded corners*
1,1,$1+$1,$2,$3*
1,1,$1+$1,$4,$5*
1,1,$1+$1,$6,$7*
1,1,$1+$1,$8,$9*
0 Add four rect primitives between the rounded corners*
20,1,$1+$1,$2,$3,$4,$5,0*
20,1,$1+$1,$4,$5,$6,$7,0*
20,1,$1+$1,$6,$7,$8,$9,0*
20,1,$1+$1,$8,$9,$2,$3,0*%
G04 Aperture macros list end*
%TA.AperFunction,Profile*%
%ADD10C,0.100000*%
%TD*%
%ADD11C,1.600000*%
%ADD12C,3.000000*%
%ADD13R,1.700000X1.700000*%
%ADD14O,1.700000X1.700000*%
%ADD15C,2.000000*%
%ADD16O,1.600000X1.600000*%
%ADD17R,1.600000X1.600000*%
%ADD18C,1.500000*%
%ADD19RoundRect,0.250000X0.845000X-0.620000X0.845000X0.620000X-0.845000X0.620000X-0.845000X-0.620000X0*%
%ADD20O,2.190000X1.740000*%
G04 APERTURE END LIST*
D10*
X49530000Y-62225000D02*
X100965000Y-62225000D01*
X100965000Y-62225000D02*
X100965000Y-110485000D01*
X100965000Y-110485000D02*
X49530000Y-110485000D01*
X49530000Y-110485000D02*
X49530000Y-62225000D01*
D11*
%TO.C,C3*%
X97790000Y-95290000D03*
X97790000Y-100290000D03*
%TD*%
D12*
%TO.C,REF2*%
X96520000Y-67945000D03*
%TD*%
D11*
%TO.C,C4*%
X55245000Y-91395000D03*
X55245000Y-86395000D03*
%TD*%
D13*
%TO.C,J3*%
X86360000Y-96520000D03*
D14*
X86360000Y-99060000D03*
X86360000Y-101600000D03*
X86360000Y-104140000D03*
X86360000Y-106680000D03*
%TD*%
D12*
%TO.C,REF1*%
X55245000Y-67940000D03*
%TD*%
D11*
%TO.C,C1*%
X78740000Y-93935000D03*
X78740000Y-88935000D03*
%TD*%
D15*
%TO.C,SW1*%
X58075000Y-73585000D03*
X58075000Y-80085000D03*
X62575000Y-73585000D03*
X62575000Y-80085000D03*
%TD*%
D11*
%TO.C,R1*%
X59690000Y-93975000D03*
D16*
X59690000Y-83815000D03*
%TD*%
D11*
%TO.C,C5*%
X55245000Y-100925000D03*
X55245000Y-95925000D03*
%TD*%
%TO.C,C2*%
X64135000Y-88935000D03*
X64135000Y-93935000D03*
%TD*%
D12*
%TO.C,REF4*%
X55245000Y-106045000D03*
%TD*%
D17*
%TO.C,U2*%
X90170000Y-73645000D03*
D16*
X90170000Y-76185000D03*
X90170000Y-78725000D03*
X90170000Y-81265000D03*
X90170000Y-83805000D03*
X90170000Y-86345000D03*
X90170000Y-88885000D03*
X90170000Y-91425000D03*
X97790000Y-91425000D03*
X97790000Y-88885000D03*
X97790000Y-86345000D03*
X97790000Y-83805000D03*
X97790000Y-81265000D03*
X97790000Y-78725000D03*
X97790000Y-76185000D03*
X97790000Y-73645000D03*
%TD*%
D13*
%TO.C,J2*%
X80010000Y-99065000D03*
D14*
X80010000Y-101605000D03*
X80010000Y-104145000D03*
X80010000Y-106685000D03*
%TD*%
D12*
%TO.C,REF3*%
X96520000Y-106045000D03*
%TD*%
D17*
%TO.C,U1*%
X67720000Y-73655000D03*
D16*
X67720000Y-76195000D03*
X67720000Y-78735000D03*
X67720000Y-81275000D03*
X67720000Y-83815000D03*
X67720000Y-86355000D03*
X67720000Y-88895000D03*
X67720000Y-91435000D03*
X67720000Y-93975000D03*
X67720000Y-96515000D03*
X67720000Y-99055000D03*
X67720000Y-101595000D03*
X67720000Y-104135000D03*
X67720000Y-106675000D03*
X75340000Y-106675000D03*
X75340000Y-104135000D03*
X75340000Y-101595000D03*
X75340000Y-99055000D03*
X75340000Y-96515000D03*
X75340000Y-93975000D03*
X75340000Y-91435000D03*
X75340000Y-88895000D03*
X75340000Y-86355000D03*
X75340000Y-83815000D03*
X75340000Y-81275000D03*
X75340000Y-78735000D03*
X75340000Y-76195000D03*
X75340000Y-73655000D03*
%TD*%
D18*
%TO.C,Y1*%
X62230000Y-104045000D03*
X62230000Y-99165000D03*
%TD*%
D19*
%TO.C,J1*%
X81300000Y-78735000D03*
D20*
X81300000Y-76195000D03*
X81300000Y-73655000D03*
X81300000Y-71115000D03*
%TD*%
M02*
