M48
; DRILL file {KiCad 6.0.2-378541a8eb~116~ubuntu20.04.1} date Po 28. února 2022, 20:37:30
; FORMAT={-:-/ absolute / inch / decimal}
; #@! TF.CreationDate,2022-02-28T20:37:30+01:00
; #@! TF.GenerationSoftware,Kicad,Pcbnew,6.0.2-378541a8eb~116~ubuntu20.04.1
; #@! TF.FileFunction,Plated,1,2,PTH
FMAT,2
INCH
; #@! TA.AperFunction,Plated,PTH,ComponentDrill
T1C0.0315
; #@! TA.AperFunction,Plated,PTH,ComponentDrill
T2C0.0394
; #@! TA.AperFunction,Plated,PTH,ComponentDrill
T3C0.0433
; #@! TA.AperFunction,Plated,PTH,ComponentDrill
T4C0.0469
%
G90
G05
T1
X0.15Y-0.4514
X0.15Y-0.6482
X0.15Y-0.8266
X0.15Y-1.0234
X0.325Y-0.3498
X0.325Y-0.7498
X0.425Y-0.9541
X0.425Y-1.1463
X0.5Y-0.5514
X0.5Y-0.7482
X0.6411Y0.0502
X0.6411Y-0.0498
X0.6411Y-0.1498
X0.6411Y-0.2498
X0.6411Y-0.3498
X0.6411Y-0.4498
X0.6411Y-0.5498
X0.6411Y-0.6498
X0.6411Y-0.7498
X0.6411Y-0.8498
X0.6411Y-0.9498
X0.6411Y-1.0498
X0.6411Y-1.1498
X0.6411Y-1.2498
X0.9411Y0.0502
X0.9411Y-0.0498
X0.9411Y-0.1498
X0.9411Y-0.2498
X0.9411Y-0.3498
X0.9411Y-0.4498
X0.9411Y-0.5498
X0.9411Y-0.6498
X0.9411Y-0.7498
X0.9411Y-0.8498
X0.9411Y-0.9498
X0.9411Y-1.0498
X0.9411Y-1.1498
X0.9411Y-1.2498
X1.1Y-0.5516
X1.1Y-0.7484
T2
X1.125Y-0.9
X1.125Y-1.0
X1.125Y-1.1
X1.125Y-1.2
X1.275Y-0.5006
X1.275Y-0.6006
X1.275Y-0.7006
T3
X0.2614Y0.053
X0.2614Y-0.203
X0.4386Y0.053
X0.4386Y-0.203
T4
X1.175Y0.05
X1.175Y-0.05
X1.175Y-0.15
X1.175Y-0.25
T0
M30
